<?xml version="1.0" encoding="utf-8"?>
<!-- Generator: Adobe Illustrator 21.0.2, SVG Export Plug-In . SVG Version: 6.00 Build 0)  -->
<svg version="1.1" id="Layer_1" xmlns="http://www.w3.org/2000/svg" xmlns:xlink="http://www.w3.org/1999/xlink" x="0px" y="0px"
	 viewBox="0 0 369.5 337" style="enable-background:new 0 0 369.5 337;" xml:space="preserve">
<style type="text/css">
	.st0{fill:#EE2825;}
	.st1{enable-background:new    ;}
	.st2{fill:#FFFFFF;}
</style>
<title>clickArtboard 10</title>
<circle class="st0" cx="172.9" cy="173.2" r="156.5"/>
<g class="st1">
	<path class="st2" d="M126.9,116.8c0.3-0.2,0.6-0.4,0.9-0.4c0.3-0.1,0.5-0.1,0.6-0.1c0.4,0,0.7,0.1,1,0.2c0.3,0.2,0.6,0.5,0.9,1
		l3.6,5.5c0.1,0.2,0.2,0.4,0.3,0.6c0.1,0.2,0.1,0.4,0.1,0.5c0,0.5-0.2,0.9-0.5,1.2c-0.3,0.3-0.7,0.6-1,0.8c-1.8,1.2-3.7,2.2-5.8,3
		c-2.1,0.7-4.4,1.1-6.7,1.1c-1.9,0-3.8-0.2-5.6-0.7s-3.5-1.2-5.1-2.1s-3-2-4.3-3.3c-1.3-1.3-2.4-2.7-3.3-4.3
		c-0.9-1.6-1.6-3.3-2.1-5.1c-0.5-1.8-0.8-3.7-0.8-5.7c0-2,0.3-3.9,0.8-5.8c0.5-1.8,1.2-3.5,2.1-5.1c0.9-1.6,2-3,3.3-4.3
		c1.3-1.3,2.7-2.4,4.3-3.3c1.6-0.9,3.2-1.6,5.1-2.1c1.8-0.5,3.7-0.7,5.6-0.7c2.4,0,4.5,0.3,6.5,0.9c2,0.6,3.9,1.6,5.6,2.8l-0.1-0.1
		c0.5,0.3,0.9,0.6,1.1,1c0.3,0.4,0.4,0.9,0.4,1.4c0,0.4-0.1,0.8-0.4,1.2l-2.9,4.9c-0.6,1.1-1.3,1.6-2.2,1.6c-0.2,0-0.4,0-0.7-0.1
		c-0.3-0.1-0.6-0.3-0.9-0.5c-1-0.6-2-1.1-3.1-1.5c-1.1-0.4-2.3-0.6-3.5-0.6c-1.4,0-2.6,0.3-3.8,0.8s-2.1,1.3-2.9,2.3
		s-1.4,2.1-1.9,3.3c-0.5,1.3-0.7,2.6-0.7,4c0,1.4,0.2,2.8,0.7,4s1.1,2.3,1.9,3.2s1.8,1.6,2.9,2.2c1.1,0.5,2.4,0.8,3.8,0.8
		c1.2,0,2.4-0.2,3.5-0.6S125.9,117.5,126.9,116.8z"/>
	<path class="st2" d="M140.6,78.5c0-0.7,0.2-1.3,0.5-1.8c0.3-0.5,0.9-0.7,1.8-0.7h8c0.2,0,0.4,0.1,0.7,0.2c0.2,0.1,0.5,0.3,0.7,0.5
		s0.4,0.5,0.5,0.8c0.1,0.3,0.2,0.6,0.2,1V127c0,0.8-0.2,1.4-0.7,1.9c-0.5,0.4-1.1,0.6-1.8,0.6h-7.5c-0.8,0-1.4-0.2-1.8-0.6
		c-0.3-0.4-0.5-1-0.5-1.9V78.5z"/>
	<path class="st2" d="M160.8,74.4c0-0.9,0.2-1.6,0.6-1.9c0.4-0.4,1-0.6,1.8-0.6h7.5c0.8,0,1.4,0.2,1.8,0.6c0.5,0.4,0.7,1,0.7,1.9
		v6.3c0,0.3-0.1,0.5-0.2,0.8c-0.1,0.3-0.3,0.6-0.5,0.9c-0.2,0.3-0.5,0.5-0.8,0.7c-0.3,0.2-0.7,0.3-1.1,0.3h-7.5
		c-1.6,0-2.4-0.9-2.4-2.7V74.4z M160.8,90.8c0-0.7,0.2-1.3,0.6-1.8c0.4-0.5,1-0.7,1.8-0.7h7.4c0.3,0,0.5,0.1,0.8,0.2
		c0.3,0.1,0.6,0.3,0.8,0.5c0.3,0.2,0.5,0.5,0.7,0.8c0.2,0.3,0.3,0.7,0.3,1V127c0,0.8-0.2,1.4-0.7,1.9s-1.1,0.6-2,0.6h-7.4
		c-1.6,0-2.4-0.8-2.4-2.5V90.8z"/>
	<path class="st2" d="M207.5,116.8c0.3-0.2,0.6-0.4,0.9-0.4c0.3-0.1,0.5-0.1,0.6-0.1c0.4,0,0.7,0.1,1,0.2c0.3,0.2,0.6,0.5,0.9,1
		l3.6,5.5c0.1,0.2,0.2,0.4,0.3,0.6c0.1,0.2,0.1,0.4,0.1,0.5c0,0.5-0.2,0.9-0.5,1.2c-0.3,0.3-0.7,0.6-1,0.8c-1.8,1.2-3.7,2.2-5.8,3
		c-2.1,0.7-4.3,1.1-6.7,1.1c-2,0-3.8-0.2-5.6-0.7c-1.8-0.5-3.5-1.2-5.1-2.1c-1.6-0.9-3-2-4.3-3.3s-2.4-2.7-3.3-4.3
		c-0.9-1.6-1.6-3.3-2.1-5.1c-0.5-1.8-0.8-3.7-0.8-5.7c0-2,0.3-3.9,0.8-5.8c0.5-1.8,1.2-3.5,2.1-5.1c0.9-1.6,2-3,3.3-4.3
		c1.3-1.3,2.7-2.4,4.3-3.3c1.6-0.9,3.2-1.6,5.1-2.1c1.8-0.5,3.7-0.7,5.6-0.7c2.4,0,4.5,0.3,6.5,0.9c2,0.6,3.9,1.6,5.6,2.8l-0.1-0.1
		c0.5,0.3,0.9,0.6,1.1,1c0.3,0.4,0.4,0.9,0.4,1.4c0,0.4-0.1,0.8-0.4,1.2l-2.9,4.9c-0.6,1.1-1.3,1.6-2.2,1.6c-0.2,0-0.4,0-0.7-0.1
		c-0.3-0.1-0.6-0.3-0.9-0.5c-1-0.6-2-1.1-3.1-1.5c-1.1-0.4-2.3-0.6-3.5-0.6c-1.4,0-2.6,0.3-3.8,0.8s-2.1,1.3-2.9,2.3
		s-1.4,2.1-1.9,3.3c-0.5,1.3-0.7,2.6-0.7,4c0,1.4,0.2,2.8,0.7,4s1.1,2.3,1.9,3.2s1.8,1.6,2.9,2.2c1.1,0.5,2.4,0.8,3.8,0.8
		c1.2,0,2.4-0.2,3.5-0.6C205.5,118.1,206.5,117.5,207.5,116.8z"/>
	<path class="st2" d="M221.2,78.5c0-0.4,0-0.7,0-1c0-0.3,0.1-0.6,0.3-0.8s0.4-0.4,0.8-0.5s0.8-0.2,1.5-0.2h7.8c0.4,0,0.8,0.1,1,0.2
		c0.3,0.1,0.5,0.3,0.7,0.5c0.2,0.2,0.3,0.5,0.3,0.7s0.1,0.5,0.1,0.7v24.1l11.7-13c0.6-0.6,1.2-0.9,2-0.9h10c1.2,0,1.8,0.5,1.8,1.4
		c0,0.2,0,0.4-0.1,0.6c-0.1,0.2-0.2,0.4-0.5,0.7L245.1,105l16.8,21.6h-0.1c0.3,0.3,0.5,0.6,0.6,0.9c0.1,0.3,0.2,0.6,0.2,0.8
		c0,0.5-0.1,0.8-0.4,1c-0.3,0.2-0.7,0.3-1.2,0.3h-11c-0.4,0-0.7-0.1-1-0.4c-0.3-0.3-0.7-0.7-1.1-1.3l-10.6-15l-3.6,3.7V127
		c0,0.2,0,0.4-0.1,0.7c-0.1,0.3-0.2,0.6-0.3,0.8c-0.2,0.3-0.4,0.5-0.7,0.7c-0.3,0.2-0.6,0.3-1.1,0.3h-8.2c-0.4,0-0.7-0.1-1-0.3
		c-0.3-0.2-0.5-0.4-0.7-0.7c-0.2-0.3-0.3-0.5-0.4-0.7c-0.1-0.2-0.1-0.4-0.1-0.4V78.5z"/>
</g>
<g class="st1">
	<path class="st2" d="M135.1,186.9c0-2,0.3-3.9,0.8-5.8c0.5-1.8,1.2-3.5,2.1-5.1c0.9-1.6,2-3,3.3-4.3c1.3-1.3,2.7-2.4,4.3-3.3
		c1.6-0.9,3.3-1.6,5.1-2.1c1.8-0.5,3.7-0.7,5.7-0.7c2.9,0,5.7,0.5,8.3,1.6c2.6,1.1,4.8,2.6,6.8,4.5c1.9,1.9,3.4,4.2,4.6,6.8
		c1.1,2.6,1.7,5.4,1.7,8.4c0,2-0.3,3.9-0.8,5.7c-0.5,1.8-1.2,3.5-2.1,5.1c-0.9,1.6-2,3-3.3,4.3s-2.7,2.4-4.3,3.3s-3.3,1.6-5.1,2.1
		c-1.8,0.5-3.7,0.7-5.7,0.7c-2,0-3.9-0.2-5.7-0.7c-1.8-0.5-3.5-1.2-5.1-2.1c-1.6-0.9-3-2-4.3-3.3c-1.3-1.3-2.4-2.7-3.3-4.3
		c-0.9-1.6-1.6-3.3-2.1-5.1C135.4,190.8,135.1,188.9,135.1,186.9z M147,186.9c0,1.4,0.2,2.8,0.7,4c0.4,1.2,1.1,2.3,1.9,3.2
		s1.8,1.6,3,2.2c1.2,0.5,2.5,0.8,3.9,0.8c1.4,0,2.7-0.3,3.8-0.8c1.1-0.5,2.1-1.3,2.9-2.2c0.8-0.9,1.4-2,1.8-3.2s0.6-2.6,0.6-4
		c0-1.4-0.2-2.7-0.6-4c-0.4-1.3-1-2.4-1.8-3.3c-0.8-1-1.8-1.7-2.9-2.3s-2.4-0.8-3.8-0.8c-1.5,0-2.8,0.3-3.9,0.8
		c-1.2,0.6-2.1,1.3-3,2.3s-1.4,2.1-1.9,3.3C147.2,184.2,147,185.5,147,186.9z"/>
	<path class="st2" d="M185.1,166.8c0.3-0.2,0.6-0.4,0.9-0.5c0.3-0.1,0.6-0.1,0.9-0.1h4.9c0.4,0,0.7,0.1,1,0.2
		c0.3,0.1,0.5,0.3,0.7,0.6c0.2,0.2,0.4,0.5,0.5,0.8c0.1,0.3,0.2,0.6,0.3,0.9l1,4.1c0.3-0.7,0.8-1.4,1.4-2.3s1.4-1.7,2.4-2.4
		c1-0.7,2.1-1.4,3.4-1.9c1.3-0.5,2.8-0.8,4.6-0.8c2.5,0,4.7,0.5,6.7,1.4c2,1,3.7,2.2,5.2,3.9c1.4,1.6,2.5,3.6,3.3,5.8
		c0.8,2.2,1.2,4.5,1.2,7V205c0,0.8-0.2,1.4-0.5,1.9s-0.9,0.6-1.7,0.6h-7.5c-0.9,0-1.6-0.2-1.9-0.5c-0.3-0.3-0.5-0.9-0.5-1.8v-21.2
		c0-0.9-0.2-1.8-0.6-2.6c-0.4-0.8-1-1.6-1.7-2.2c-0.7-0.6-1.5-1.1-2.4-1.5s-1.8-0.6-2.7-0.6c-0.8,0-1.6,0.2-2.4,0.5
		s-1.6,0.8-2.2,1.4c-0.7,0.6-1.3,1.3-1.7,2.2c-0.5,0.8-0.7,1.7-0.8,2.7v21.1c0,0.4-0.1,0.7-0.2,1.1c-0.1,0.4-0.4,0.6-0.6,0.8
		c-0.3,0.2-0.5,0.3-0.8,0.4c-0.2,0.1-0.5,0.1-0.9,0.1h-7.3c-0.9,0-1.6-0.2-2-0.7c-0.4-0.5-0.6-1.1-0.6-1.8v-36.3
		c0-0.4,0.1-0.8,0.3-1.1c0.2-0.3,0.4-0.6,0.8-0.8L185.1,166.8z"/>
</g>
<g class="st1">
	<path class="st2" d="M116.3,244.8c0.3-0.2,0.6-0.4,0.9-0.5c0.3-0.1,0.6-0.1,0.9-0.1h4.9c0.4,0,0.7,0.1,1,0.2
		c0.3,0.1,0.5,0.3,0.7,0.6c0.2,0.2,0.4,0.5,0.5,0.8c0.1,0.3,0.2,0.6,0.3,0.9l1,4.1c0.3-0.7,0.7-1.4,1.2-2.3c0.5-0.9,1.1-1.7,1.9-2.4
		c0.8-0.7,1.7-1.4,2.9-1.9s2.6-0.8,4.3-0.8c2.8,0,5.2,0.6,7.3,1.8c2.1,1.2,3.8,2.8,5.1,4.7c0.4-0.7,1-1.4,1.7-2.2s1.6-1.5,2.6-2.1
		c1-0.6,2.1-1.2,3.4-1.6c1.3-0.4,2.7-0.6,4.3-0.6c2.5,0,4.7,0.5,6.6,1.4c1.9,1,3.6,2.2,4.9,3.9s2.4,3.6,3.1,5.8
		c0.7,2.2,1.1,4.5,1.1,7V283c0,0.8-0.2,1.4-0.5,1.9c-0.4,0.4-0.9,0.6-1.7,0.6h-7.5c-0.9,0-1.6-0.2-1.9-0.5c-0.3-0.3-0.5-0.9-0.5-1.8
		v-21.5c0-0.9-0.1-1.8-0.4-2.6s-0.7-1.5-1.2-2.1c-0.5-0.6-1.2-1.1-1.9-1.4s-1.6-0.5-2.5-0.5c-0.8,0-1.6,0.2-2.3,0.5
		c-0.7,0.3-1.4,0.8-1.9,1.3c-0.6,0.6-1,1.3-1.3,2.1s-0.5,1.7-0.5,2.7V283c0,0.8-0.2,1.4-0.5,1.9c-0.4,0.4-0.9,0.6-1.7,0.6h-0.7h-0.3
		h-6.6c-0.9,0-1.6-0.2-1.9-0.5c-0.3-0.3-0.5-0.9-0.5-1.8v-21.5c0-0.9-0.1-1.8-0.4-2.6c-0.3-0.8-0.7-1.5-1.2-2.1
		c-0.5-0.6-1.1-1.1-1.9-1.4c-0.7-0.3-1.5-0.5-2.5-0.5c-0.8,0-1.5,0.2-2.3,0.5s-1.4,0.8-2,1.3c-0.6,0.6-1.1,1.3-1.5,2.1
		s-0.6,1.7-0.7,2.7v21.5c0,0.4-0.1,0.7-0.2,1.1c-0.1,0.4-0.4,0.6-0.6,0.8c-0.3,0.2-0.5,0.3-0.8,0.4c-0.2,0.1-0.5,0.1-0.9,0.1h-7.3
		c-0.9,0-1.6-0.2-2-0.7c-0.4-0.5-0.6-1.1-0.6-1.8v-36.3c0-0.4,0.1-0.8,0.3-1.1c0.2-0.3,0.4-0.6,0.8-0.8L116.3,244.8z"/>
</g>
<g class="st1">
	<path class="st2" d="M218.6,280.6c-1.9,1.8-4.1,3.1-6.4,4.1c-2.4,1-4.9,1.5-7.6,1.5c-3,0-5.8-0.5-8.4-1.6c-2.6-1.1-5-2.6-7-4.5
		c-2-1.9-3.6-4.2-4.7-6.8c-1.2-2.6-1.8-5.4-1.8-8.5c0-1.9,0.2-3.8,0.7-5.5c0.5-1.8,1.1-3.5,2-5c0.9-1.6,1.9-3,3.1-4.3
		c1.2-1.3,2.6-2.4,4.1-3.4c1.5-0.9,3.2-1.7,4.9-2.2c1.8-0.5,3.7-0.8,5.6-0.8c1.8,0,3.5,0.2,5.2,0.7c1.7,0.5,3.3,1.1,4.8,2
		c1.5,0.9,2.8,1.9,4.1,3.1c1.2,1.2,2.3,2.5,3.2,4c0.9,1.4,1.6,3,2.1,4.6c0.5,1.6,0.7,3.3,0.7,5.1c0,1.1,0,2,0,2.8
		c0,0.7-0.2,1.3-0.5,1.7c-0.3,0.4-0.8,0.7-1.5,0.9c-0.7,0.2-1.7,0.2-3.1,0.2h-23.4c0.2,1.4,0.7,2.5,1.3,3.5s1.4,1.7,2.3,2.2
		c0.9,0.6,1.8,0.9,2.8,1.2c1,0.2,1.9,0.4,2.8,0.4c0.8,0,1.6-0.1,2.4-0.2c0.8-0.2,1.6-0.4,2.4-0.7c0.8-0.3,1.5-0.6,2.1-0.9
		c0.6-0.4,1.2-0.7,1.5-1.1c0.3-0.3,0.6-0.5,0.9-0.6c0.2-0.1,0.5-0.2,0.8-0.2s0.6,0.1,0.9,0.3c0.3,0.2,0.6,0.5,1,0.8l3.4,3.9
		c0.2,0.3,0.4,0.5,0.5,0.8c0.1,0.2,0.1,0.5,0.1,0.7c0,0.4-0.1,0.8-0.4,1.1C219.2,280.1,218.9,280.4,218.6,280.6z M203,253.5
		c-0.8,0-1.7,0.2-2.5,0.5s-1.5,0.8-2.2,1.3s-1.3,1.2-1.9,1.9c-0.6,0.7-1,1.4-1.3,2.2h16.6c-0.5-0.8-0.9-1.6-1.5-2.3
		s-1.1-1.3-1.8-1.9c-0.7-0.5-1.5-1-2.3-1.3C205.2,253.7,204.1,253.5,203,253.5z"/>
	<path class="st2" d="M231.4,233.5c0-1,0.5-1.4,1.6-1.4h8.5c1,0,1.4,0.5,1.4,1.4v35c0,0.4-0.1,0.8-0.4,1c-0.2,0.3-0.6,0.4-1.1,0.4
		H233c-0.3,0-0.7-0.1-1-0.4s-0.6-0.6-0.6-1V233.5z M231.4,276.2c0-0.4,0.1-0.8,0.4-1c0.2-0.3,0.6-0.4,1.1-0.4h8.6
		c0.4,0,0.7,0.1,1,0.4c0.3,0.3,0.5,0.6,0.5,1v7.9c0,0.4-0.1,0.7-0.4,1c-0.3,0.3-0.6,0.5-1.1,0.5h-8.6c-1,0-1.4-0.5-1.4-1.5V276.2z"
		/>
</g>
</svg>
