<svg id="Layer_1" data-name="Layer 1" xmlns="http://www.w3.org/2000/svg" viewBox="0 0 567.81 729"><defs><style>.cls-1{fill:#62ccee;}.cls-2{fill:#6abd45;}.cls-3{fill:#f58c8e;}.cls-4{fill:#ed2024;}.cls-5{fill:#fff;}</style></defs><title>cupcakeArtboard 11</title><path class="cls-1" d="M114.34,470.23,147.87,612s9.27,55,135.63,49,139.37-44,139.37-44l22.57-180Z"/><path class="cls-2" d="M283.91,211q-1.32-1.55-2.61-3.13c-.85-1.06-1.76-2.09-2.57-3.19l-2.42-3.3-1.21-1.66L274,198l-2.26-3.44c-.72-1.17-1.39-2.37-2.09-3.56-1.44-2.36-2.6-4.87-3.88-7.34A97.43,97.43,0,0,1,259.89,168a82,82,0,0,1-2.71-16.85,72.25,72.25,0,0,1,6.68-33.82,86.15,86.15,0,0,1,8.84-14.87A106.64,106.64,0,0,1,284,89.58a140.24,140.24,0,0,1,12.89-10.94,162.71,162.71,0,0,1,13.93-9.28,210,210,0,0,1,29.75-14.51A257.91,257.91,0,0,1,371.8,44.78c5.3-1.32,10.61-2.52,16-3.49,2.68-.48,5.37-.94,8.06-1.34s5.39-.74,8.11-.95c-2.57.89-5.13,1.76-7.67,2.71s-5.08,1.83-7.61,2.79c-5,1.92-10.06,3.85-15,5.89-9.94,4.05-19.72,8.36-29.24,13.09A279.06,279.06,0,0,0,316.82,79c-4.4,2.85-8.68,5.84-12.76,9a133.69,133.69,0,0,0-11.71,10.11,98.84,98.84,0,0,0-10.2,11.35,81,81,0,0,0-8.07,12.7,68.32,68.32,0,0,0-7.5,28.8,84.7,84.7,0,0,0,1,15.27l.67,3.83c.26,1.27.59,2.53.87,3.81.15.64.28,1.28.44,1.91l.54,1.89c.37,1.26.71,2.53,1.11,3.79.85,2.49,1.63,5,2.64,7.49.48,1.24.94,2.49,1.45,3.73l1.58,3.69C279,201.34,281.46,206.14,283.91,211Z"/><path class="cls-3" d="M283.91,277c-127.06,0-231,56-195,152s110,87.49,160,90.83S422.87,543,445.44,437C468.92,326.76,414.95,277,283.91,277Z"/><circle class="cls-4" cx="283.5" cy="262.79" r="73.79"/><path class="cls-5" d="M251.87,211s-32,23-26,57,40.35,36,40.35,36-27.75-9.42-20.55-41.21S251.87,211,251.87,211Z"/><path class="cls-5" d="M144.87,511,166,637.06s24.11,13.71,32.42,16S144.87,511,144.87,511Z"/><path class="cls-5" d="M209.71,542l9.34,115.9s23.84,3.56,35.81,3.56S209.71,542,209.71,542Z"/><path class="cls-5" d="M279.89,542s-4.67,119.45,3.61,119,15.37-1.08,28.37.46S279.89,542,279.89,542Z"/><path class="cls-5" d="M362.87,537s-28.16,119.85-13.66,116.6S362.87,537,362.87,537Z"/><polygon class="cls-5" points="395.87 523.46 389.3 642.05 410.03 630.88 395.87 523.46"/><path class="cls-5" d="M426.87,504l-4,113S439.87,531,426.87,504Z"/><path class="cls-5" d="M194.87,364c6.57-.57,12,4.35,16.46,8.54,4.71,4.38,11.8-2.68,7.07-7.07C212,359.53,204.13,353.2,194.87,354c-6.36.55-6.42,10.55,0,10Z"/><path class="cls-5" d="M285.73,393.87a52.54,52.54,0,0,1,6.94-6.19,48.34,48.34,0,0,0,4-3c.55-.48,1.08-1,1.61-1.5s1.37-.84.6-.68c6.3-1.3,3.63-10.94-2.66-9.64-3.42.71-5.84,4.26-8.58,6.2a66.52,66.52,0,0,0-9,7.75c-4.51,4.6,2.56,11.68,7.07,7.07Z"/><path class="cls-5" d="M362,331.87c1.8,1.84,2.75,4.21,4.1,6.37a35.17,35.17,0,0,0,5.23,6.3c4.58,4.53,11.66-2.54,7.07-7.07a25.15,25.15,0,0,1-4.53-5.75,31.45,31.45,0,0,0-4.81-6.91c-4.5-4.61-11.57,2.46-7.07,7.07Z"/><path class="cls-5" d="M152.66,315.46c-2.1,2.44-3.28,5.42-5.22,8a18.1,18.1,0,0,0-2.29,3.85c-.56,1.3-.91,3.06-1.82,4.17-1.73,2.1-2,5,0,7.07,1.75,1.79,5.36,2.08,7.07,0,2.14-2.6,2.75-5.64,4.48-8.41.8-1.29,1.88-2.39,2.7-3.66s1.21-2.84,2.15-3.93c4.18-4.86-2.87-12-7.07-7.07Z"/><path class="cls-5" d="M196.66,427.2c2.63,2.81,4.32,6.35,7.06,9.09s5.83,4.8,8.27,7.58c4.25,4.85,11.29-2.24,7.07-7.07-2.44-2.78-5.65-5-8.27-7.58s-4.43-6.27-7.06-9.09c-4.41-4.71-11.47,2.37-7.07,7.07Z"/><path class="cls-5" d="M363.07,424.54c3.26-3.12,7.09-5.72,10-9.15,1.37-1.59,2.36-3.42,3.62-5.09a40.62,40.62,0,0,1,4.33-4.43c4.62-4.49-2.45-11.56-7.07-7.07a94.44,94.44,0,0,0-8,9.51c-2.79,3.51-6.79,6.06-10,9.15-4.66,4.46,2.42,11.52,7.07,7.07Z"/></svg>