<svg id="Layer_1" data-name="Layer 1" xmlns="http://www.w3.org/2000/svg" viewBox="0 0 2633.47 1170.13"><defs><style>.cls-1{fill:#231f20;}</style></defs><title>logoArtboard 28</title><path class="cls-1" d="M192.28,745.94a30.48,30.48,0,0,1-9.79,15.55,43.17,43.17,0,0,1-15.55,8.45,44.58,44.58,0,0,1-17.47,1.54,36.56,36.56,0,0,1-15.55-5,25.13,25.13,0,0,1-9.79-11.13q-3.26-7.11-.19-17.47,1.92-8.44,6.14-23.42t9.6-33.4q5.37-18.43,11.52-38.77t11.71-39.54q5.56-19.19,10.17-35.7T180,539.8q6.14-19.58,10.36-31.29a130.69,130.69,0,0,1,8.06-18.62,44.11,44.11,0,0,1,7.68-10.56,47.54,47.54,0,0,1,9.21-6.72,92,92,0,0,1,21.88-9.6,121.89,121.89,0,0,1,20-3.65q10-1,20.35-1.54a128.7,128.7,0,0,0,23-3.65,48.11,48.11,0,0,0,9-.77q4-.76,7.87-1.15a54.26,54.26,0,0,1,7.87-.19,37.41,37.41,0,0,1,9,1.73q9.21,3.08,13.63,10a28.64,28.64,0,0,1,4.41,15.74,54.94,54.94,0,0,1-3.65,18.81,81.76,81.76,0,0,1-10.17,19.19,84.34,84.34,0,0,1-15.74,16.7,75,75,0,0,1-20,11.71q-15,4.61-21.5,4.61t-9-1.54a8.57,8.57,0,0,1-2.88-2.3q-.39-.76-2.69,2.69a33.74,33.74,0,0,0-5,11.13,38.36,38.36,0,0,1-5,11.52,1.11,1.11,0,0,0-.38.77q-6.53,16.51-11.52,22.07t-5.76,6.72l33.78-3.45a20.72,20.72,0,0,1,14,3.26,22.8,22.8,0,0,1,8.45,9.79,18.53,18.53,0,0,1,1.34,11.32q-1.15,5.57-6.91,8.25-5.76,3.08-7.49,5.95a46.71,46.71,0,0,0-2.88,5.57,36.36,36.36,0,0,1-2.88,5.37q-1.73,2.69-7.29,5.18t-16.7,4.8a308,308,0,0,1-30.71,4.22q-1.92,5.76-5.18,13.63T209.93,692q-3.45,8.64-6.53,16.7t-5,13.82a18.92,18.92,0,0,1-.58,3.26c-.38,1.67-.83,3.65-1.34,5.95s-1.09,4.74-1.73,7.29A34,34,0,0,1,192.28,745.94Z"/><path class="cls-1" d="M441.79,464.56q7.29-3.07,15.74-7.1A42.45,42.45,0,0,1,473.65,453,59.53,59.53,0,0,1,491.31,455a42.6,42.6,0,0,1,15,6.91,20.3,20.3,0,0,1,7.87,11.52q1.73,6.91-3.65,15.74a36.48,36.48,0,0,1,10.17,8.06A29.7,29.7,0,0,1,527,509.48q-7.68,43-13.82,85.41t-15,85.41q-2.69,14.21-4.8,28.41t-4.8,28.41l-2.3,8.06c-.52,2.82-1,5.43-1.54,7.87s-1,5.05-1.54,7.87a33.86,33.86,0,0,1-13.05,9.21,43.57,43.57,0,0,1-16.31,3.07A58.11,58.11,0,0,1,437,770.7a37.84,37.84,0,0,1-14-7.49,10,10,0,0,1-4-6.53,27,27,0,0,1,0-7.87,68,68,0,0,1,1.73-8.25,53.69,53.69,0,0,0,1.54-7.29q.76-7.29,1.15-14.4t1.15-14.4v-.77a70.81,70.81,0,0,0-10.56,4.8q-5.18,2.88-9.41,5.76t-7.1,5c-1.92,1.41-3,2.24-3.26,2.5a23.68,23.68,0,0,1-8.06,4,38.49,38.49,0,0,1-6.91,1.15q-3.08.2-5.57.58a9.2,9.2,0,0,0-4.41,1.92q-3.84,6.91-8.45,14.2A120.93,120.93,0,0,1,351,757.07a94.1,94.1,0,0,1-10.56,10.75A28.48,28.48,0,0,1,329.31,774,48.9,48.9,0,0,1,307,775.69q-11.14-1.73-17.66-13.24-5.37-5-4.8-16.51a112.29,112.29,0,0,1,3.84-23.61q3.27-12.09,7.1-22.65t5.38-14q12.67-29.94,27.25-59.88T360,567.44a572.21,572.21,0,0,1,37.62-54.51A417.49,417.49,0,0,1,441.79,464.56Zm-23.42,152q-3.08,8.45-8.64,21.88t-11.32,28l30.33-1.15q3.07-24.56,6.91-48.75t7.29-48.37l-1.15,1.54-13.44,20.34q-2.3,6.53-4.8,13.24T418.37,616.58ZM418,666.86c1.79,0,3.58-.06,5.37-.19s3.58-.32,5.37-.58v-.38q-5,.39-9.21.77T418,666.86Z"/><path class="cls-1" d="M578.44,771.66a98.57,98.57,0,0,1-35.89-4.8q-16.32-5.57-26.49-15.16a42.25,42.25,0,0,1-12.86-22.46q-2.68-12.86,4.61-26.29,4.23-6.91,10.56-9.4a35,35,0,0,1,13.82-2.3,88.31,88.31,0,0,1,15.74,1.92q8.25,1.73,16.51,3.26a118.68,118.68,0,0,0,15.74,1.92A29.7,29.7,0,0,0,593.8,696q15.35-5,22.65-10t8.83-10a10.84,10.84,0,0,0-1.54-9.6,48.84,48.84,0,0,0-8.25-9.21q-5.18-4.61-11.32-9.21a75.16,75.16,0,0,1-10.37-9.21q-19.2-14.2-30.13-32.82T555,561.68a121.91,121.91,0,0,1,6.91-32.44,107.43,107.43,0,0,1,13.24-25.34,98.44,98.44,0,0,1,17.47-18.81,122.82,122.82,0,0,1,19.58-13.24q10.37-5.37,21.5-10.17a136.4,136.4,0,0,1,23.8-7.68A140.4,140.4,0,0,1,685,450.74,160.5,160.5,0,0,1,717,453.43a45.82,45.82,0,0,1,18.43,7.29q7.67,5.38,15.35,11.13,7.29,7.3,8.45,14.4a21.4,21.4,0,0,1-1.73,13.05,25.48,25.48,0,0,1-20.92,14,31.44,31.44,0,0,1-.38,8.45,14.91,14.91,0,0,1-4.41,7.87Q728.14,533.28,721,536a86.38,86.38,0,0,1-19,4.22,194.86,194.86,0,0,0-25.33-.58q-10.75.58-17.27,4a18.41,18.41,0,0,0-9,10.56q-2.5,7.11-.58,19.39.76,5,6.33,10.36t13.05,11.52q7.49,6.15,15.74,13.82a84.6,84.6,0,0,1,14.39,17.66,71.07,71.07,0,0,1,8.83,22.65q2.68,12.67-.38,28.79a119.16,119.16,0,0,1-11.71,30.9,106.68,106.68,0,0,1-24.37,30.13Q656,753.23,633,762.44T578.44,771.66Z"/><path class="cls-1" d="M819.5,754.38q-5.38,10.74-10.75,16.12a29.38,29.38,0,0,1-10.94,7.29,28.07,28.07,0,0,1-11.13,1.54l-11.32-.77q-17.27-2.69-21.5-15t1.54-31.48q8.06-33,13.05-53.93t8.25-34.55Q780,630,782.27,621t5-17.85q2.68-8.83,6.72-20t10.56-29.56q-14.59,1.93-26.1-3.07T765,532.89a49.57,49.57,0,0,1-.38-13.63,28.77,28.77,0,0,1,3.84-11.13,45,45,0,0,1,8.25-10q5.18-4.8,12.48-10.56t23.42-12.48a384.22,384.22,0,0,1,76.77-22.46,192.82,192.82,0,0,1,38.39-3.45A33.82,33.82,0,0,1,946,451.32a40.51,40.51,0,0,1,15.16,9.79q5.76,6.15,6,13.44T957.7,487.6q-4.61,3.08-6.53,10.17t-4.22,15a51.21,51.21,0,0,1-6.72,14.4q-4.42,6.53-14,7.68a32.33,32.33,0,0,1-9.6,3.07q-5,.77-9.21,1.34t-7.1,1.15c-1.92.38-3,1.09-3.26,2.11q-6.91,20.35-16.51,49.33t-20.15,59.12q-10.56,30.14-21.3,57.77T819.5,754.38Zm-11.13-205c-.52,0-.77.07-.77.19s.25.19.77.19Z"/><path class="cls-1" d="M1095.89,745.94a30.48,30.48,0,0,1-9.79,15.55,43.17,43.17,0,0,1-15.55,8.45,44.58,44.58,0,0,1-17.47,1.54,36.56,36.56,0,0,1-15.55-5,25.13,25.13,0,0,1-9.79-11.13q-3.26-7.11-.19-17.47,1.92-8.44,6.14-23.42t9.6-33.4q5.37-18.43,11.52-38.77t11.71-39.54q5.56-19.19,10.17-35.7t6.91-27.25q6.14-19.58,10.36-31.29A130.69,130.69,0,0,1,1102,489.9a44.11,44.11,0,0,1,7.68-10.56,47.54,47.54,0,0,1,9.21-6.72,92,92,0,0,1,21.88-9.6,121.89,121.89,0,0,1,20-3.65q10-1,20.35-1.54a128.7,128.7,0,0,0,23-3.65,48.11,48.11,0,0,0,9-.77q4-.76,7.87-1.15a54.26,54.26,0,0,1,7.87-.19,37.41,37.41,0,0,1,9,1.73q9.21,3.08,13.63,10a28.64,28.64,0,0,1,4.41,15.74,54.94,54.94,0,0,1-3.65,18.81,81.76,81.76,0,0,1-10.17,19.19,84.34,84.34,0,0,1-15.74,16.7,75,75,0,0,1-20,11.71q-15,4.61-21.5,4.61t-9-1.54a8.57,8.57,0,0,1-2.88-2.3q-.39-.76-2.69,2.69a33.74,33.74,0,0,0-5,11.13,38.36,38.36,0,0,1-5,11.52,1.11,1.11,0,0,0-.38.77q-6.53,16.51-11.52,22.07t-5.76,6.72l33.78-3.45a20.72,20.72,0,0,1,14,3.26,22.8,22.8,0,0,1,8.45,9.79,18.53,18.53,0,0,1,1.34,11.32q-1.15,5.57-6.91,8.25-5.76,3.08-7.49,5.95a46.71,46.71,0,0,0-2.88,5.57,36.36,36.36,0,0,1-2.88,5.37q-1.73,2.69-7.29,5.18t-16.7,4.8a308,308,0,0,1-30.71,4.22q-1.92,5.76-5.18,13.63T1113.55,692q-3.45,8.64-6.53,16.7t-5,13.82a18.92,18.92,0,0,1-.58,3.26c-.38,1.67-.83,3.65-1.34,5.95s-1.09,4.74-1.73,7.29A34,34,0,0,1,1095.89,745.94Z"/><path class="cls-1" d="M1345.4,464.56q7.29-3.07,15.74-7.1a42.45,42.45,0,0,1,16.12-4.41,59.53,59.53,0,0,1,17.66,1.92,42.6,42.6,0,0,1,15,6.91,20.3,20.3,0,0,1,7.87,11.52q1.73,6.91-3.65,15.74a36.48,36.48,0,0,1,10.17,8.06,29.7,29.7,0,0,1,6.33,12.28q-7.68,43-13.82,85.41t-15,85.41q-2.69,14.21-4.8,28.41t-4.8,28.41l-2.3,8.06c-.52,2.82-1,5.43-1.54,7.87s-1,5.05-1.54,7.87a33.86,33.86,0,0,1-13.05,9.21,43.57,43.57,0,0,1-16.31,3.07,58.11,58.11,0,0,1-16.89-2.5,37.84,37.84,0,0,1-14-7.49,10,10,0,0,1-4-6.53,27,27,0,0,1,0-7.87,68,68,0,0,1,1.73-8.25,53.69,53.69,0,0,0,1.54-7.29q.76-7.29,1.15-14.4t1.15-14.4v-.77a70.81,70.81,0,0,0-10.56,4.8q-5.18,2.88-9.41,5.76t-7.1,5c-1.92,1.41-3,2.24-3.26,2.5a23.68,23.68,0,0,1-8.06,4,38.49,38.49,0,0,1-6.91,1.15q-3.08.2-5.57.58a9.2,9.2,0,0,0-4.41,1.92q-3.84,6.91-8.45,14.2a120.93,120.93,0,0,1-9.79,13.44,94.1,94.1,0,0,1-10.56,10.75,28.48,28.48,0,0,1-11.13,6.14,48.9,48.9,0,0,1-22.26,1.73Q1199.52,774,1193,762.44q-5.37-5-4.8-16.51a112.29,112.29,0,0,1,3.84-23.61q3.27-12.09,7.1-22.65t5.38-14q12.67-29.94,27.25-59.88t31.86-58.35a572.21,572.21,0,0,1,37.62-54.51A417.49,417.49,0,0,1,1345.4,464.56Zm-23.42,152q-3.08,8.45-8.64,21.88t-11.32,28l30.33-1.15q3.07-24.56,6.91-48.75t7.29-48.37l-1.15,1.54L1332,590.09q-2.3,6.53-4.8,13.24T1322,616.58Zm-.38,50.29c1.79,0,3.58-.06,5.37-.19s3.58-.32,5.37-.58v-.38q-5,.39-9.21.77T1321.6,666.86Z"/><path class="cls-1" d="M1482.05,771.66a98.57,98.57,0,0,1-35.89-4.8q-16.32-5.57-26.49-15.16a42.25,42.25,0,0,1-12.86-22.46q-2.68-12.86,4.61-26.29,4.23-6.91,10.56-9.4a35,35,0,0,1,13.82-2.3,88.31,88.31,0,0,1,15.74,1.92q8.25,1.73,16.51,3.26a118.68,118.68,0,0,0,15.74,1.92,29.7,29.7,0,0,0,13.63-2.3q15.35-5,22.65-10t8.83-10a10.84,10.84,0,0,0-1.54-9.6,48.84,48.84,0,0,0-8.25-9.21q-5.18-4.61-11.32-9.21a75.16,75.16,0,0,1-10.37-9.21q-19.2-14.2-30.13-32.82t-8.64-44.34a121.91,121.91,0,0,1,6.91-32.44,107.43,107.43,0,0,1,13.24-25.34,98.44,98.44,0,0,1,17.47-18.81,122.82,122.82,0,0,1,19.58-13.24q10.37-5.37,21.5-10.17a136.4,136.4,0,0,1,23.8-7.68,140.4,140.4,0,0,1,27.45-3.26,160.5,160.5,0,0,1,32.05,2.69,45.82,45.82,0,0,1,18.43,7.29q7.67,5.38,15.35,11.13,7.29,7.3,8.45,14.4a21.4,21.4,0,0,1-1.73,13.05,25.48,25.48,0,0,1-20.92,14,31.44,31.44,0,0,1-.38,8.45,14.91,14.91,0,0,1-4.41,7.87q-3.65,3.65-10.75,6.33a86.38,86.38,0,0,1-19,4.22,194.86,194.86,0,0,0-25.33-.58q-10.75.58-17.27,4a18.41,18.41,0,0,0-9,10.56q-2.5,7.11-.58,19.39.76,5,6.33,10.36t13.05,11.52q7.49,6.15,15.74,13.82A84.6,84.6,0,0,1,1603,626.94a71.07,71.07,0,0,1,8.83,22.65q2.68,12.67-.38,28.79a119.16,119.16,0,0,1-11.71,30.9,106.68,106.68,0,0,1-24.37,30.13q-15.75,13.82-38.77,23T1482.05,771.66Z"/><path class="cls-1" d="M1722,665.71l-18.43,46.83q-3.84,10.75-6.91,22.26a163.86,163.86,0,0,1-7.29,21.5,25.87,25.87,0,0,1-9.79,12.28,52.38,52.38,0,0,1-15.93,7.49,58.13,58.13,0,0,1-18.23,2.11,43.59,43.59,0,0,1-16.51-3.65,23.57,23.57,0,0,1-10.75-9.4q-3.64-6.15-1-15.74,10-44.14,19.58-78.31t19.39-63.53q9.79-29.37,20-56.24t21.3-56.81a34.3,34.3,0,0,1,9.21-20,69.06,69.06,0,0,1,19-14.59,87.42,87.42,0,0,1,22.84-8.25q11.89-2.49,21.11-.58t13.63,8.45q4.41,6.53.58,18.81-6.53,16.51-11.52,29.17t-9.41,24q-4.42,11.33-9.21,22.84t-10.56,25.34a51.47,51.47,0,0,0,12.48-.77q6.33-1.15,13.05-2.69t13.44-2.5a44.43,44.43,0,0,1,13.63.19,7.19,7.19,0,0,1,.38-2.3c.25-.77.51-1.54.77-2.3l.77-1.92q3.83-16.89,6.91-28.79t5.76-21.3q2.68-9.4,5.38-17.66t6.14-18.23q5.37-17.65,18.43-25.34t31.09-8.45a46.85,46.85,0,0,1,13.63,1.92,25.12,25.12,0,0,1,10.17,5.57,16.17,16.17,0,0,1,4.8,9.21q1,5.57-2.5,12.86-6.53,18.43-11.13,31.86t-9,26.68q-4.42,13.24-9.41,29.37t-12.28,39.92q-3.46,11.14-7.87,28.41t-9,35.7q-4.61,18.43-8.83,35.89t-6.91,29.37q-2.3,11.14-6.14,15.35a23.32,23.32,0,0,1-7.87,5.95q-4,1.73-7.87,3.26t-6.14,7.68h-1.15q-3.08,6.91-13.44,10.75a47.36,47.36,0,0,1-20.92,2.88,28.68,28.68,0,0,1-17.66-7.68q-7.11-6.72-3.65-20.54a248.84,248.84,0,0,1,6.72-27.83q4.41-14.77,9.6-29.56t10.36-29q5.18-14.2,8.64-26.49a31.37,31.37,0,0,1-6,2.3,32.05,32.05,0,0,0-6,2.3,83.27,83.27,0,0,1-9.79,4.22q-4.42,1.54-8.45,3.07t-8.45,3.45a76.16,76.16,0,0,0-9.4,5Zm51.44-28.79-4.22,1.73a27.57,27.57,0,0,1-3.84,1.34Q1766.11,640,1773.4,636.92Z"/><path class="cls-1" d="M2017.93,489.9q-13.44,41.84-24.76,75.62t-20.73,62.19q-9.41,28.41-17.47,52.4T1940,726q-2.3,15-9.4,23.22a47.9,47.9,0,0,1-15.55,12.28,52.92,52.92,0,0,1-16.51,5,113,113,0,0,1-11.9,1q-17.66,0-26.1-3.65t-10.94-10.56q-2.49-6.91,0-16.7t6.72-22.07q8.06-21.88,17.47-51.05t19.77-59.31q10.36-30.13,20.73-57.58a429.5,429.5,0,0,1,20-45.87q5.76-10.74,11.52-14.4a49,49,0,0,1,11.13-5.37,70.7,70.7,0,0,0,10-4q4.61-2.3,8.06-11.13a21.89,21.89,0,0,1,13.63-13.05q9.79-3.45,18.43-.58T2020,464.37Q2024.45,473.78,2017.93,489.9Z"/><path class="cls-1" d="M2091.63,478.77a90.7,90.7,0,0,1,36.85-18.23q20.34-4.8,38.39,1.73a34.94,34.94,0,0,1,17.27-10.36,45.88,45.88,0,0,1,19.58-.38,52.36,52.36,0,0,1,19.19,8.06A65.52,65.52,0,0,1,2239,474.93a60.63,60.63,0,0,0,3.26,8.06q2.49,5.38,4.8,11.9,9.21,21.5,9,48.37a259.87,259.87,0,0,1-6.33,54.51,340,340,0,0,1-16.7,53.74A370.35,370.35,0,0,1,2211,697.57a257.86,257.86,0,0,1-23.8,34.16,133.71,133.71,0,0,1-31.09,28,102.81,102.81,0,0,1-25,13.82A88.67,88.67,0,0,1,2112,778a124.52,124.52,0,0,1-21.88.77,92.21,92.21,0,0,1-21.5-3.65,67.77,67.77,0,0,1-18.43-8.45q-18.42-9.21-29-23.8a90.25,90.25,0,0,1-14.78-32.05,130.59,130.59,0,0,1-3.26-37.24,236.33,236.33,0,0,1,5.37-39.73,355.9,355.9,0,0,1,10.94-39q6.52-19,13.82-35.51,4.22-9.21,10.75-20.54t14.39-22.46q7.86-11.13,16.31-20.92A137.36,137.36,0,0,1,2091.63,478.77Zm19.19,240.68A192.77,192.77,0,0,0,2134,681.64,289.66,289.66,0,0,0,2151.51,635a316.1,316.1,0,0,0,9.79-49.71,234.21,234.21,0,0,0,1-47q-4.23,5.38-7.87,10.36t-7.1,10q-10.75,15-21.88,31.86t-20.73,34.74a290,290,0,0,0-16.51,36.47,151.43,151.43,0,0,0-8.83,37.43,2.68,2.68,0,0,1-.19,1.15,2.61,2.61,0,0,0-.19,1.15l.77,4.22a45.88,45.88,0,0,0,1.73,5.76,58.31,58.31,0,0,0,3.46,7.87,42.09,42.09,0,0,0,5,7.49,17.59,17.59,0,0,0,6.33,5q3.83-3.07,7.68-5.76A33.32,33.32,0,0,0,2110.82,719.45Z"/><path class="cls-1" d="M2282.4,556.31q3.07-9.59,7.68-20.73a185.44,185.44,0,0,1,10.56-21.5,137.48,137.48,0,0,1,13.05-19,62.28,62.28,0,0,1,15.16-13.63,31.64,31.64,0,0,1,16.89-5q8.83,0,18.42,6.91,7.29,18,11.9,30.33a202.38,202.38,0,0,1,7.29,23.42q2.68,11.14,4.42,23t3.65,28.79q3.46-8.83,7.87-18.62l8.83-19.58q4.41-9.79,8.45-19.58a137.94,137.94,0,0,0,6.33-19,61.56,61.56,0,0,1,14.2-24.57A78.12,78.12,0,0,1,2458,471.86a74.68,74.68,0,0,1,22.84-7.49q11.52-1.73,19.77,0t11.52,6.72q3.26,5-1.34,12.67-1.92,3.08-1,7.87a107.32,107.32,0,0,1,1.54,11.52,73.18,73.18,0,0,1-.38,14.78A48.92,48.92,0,0,1,2505,535.2,273,273,0,0,0,2490.46,568q-7.68,20.15-15.55,42.8T2459,656.88q-8.06,23.42-15.55,42.8a294.76,294.76,0,0,1-14.59,32.63q-7.11,13.24-13.24,15.93a146.81,146.81,0,0,1-13.05,7.1,45.84,45.84,0,0,1-10.17,3.45,44.15,44.15,0,0,1-10.17.77q-5.38-.2-13.05-1-5.76-.39-10-7.68a85.64,85.64,0,0,1-7.49-18,181.28,181.28,0,0,1-5.37-23.8q-2.11-13-3.84-25t-3.26-21.3q-1.54-9.4-3.46-12.86-8.83,28.79-14.39,44.14a254.47,254.47,0,0,1-9.6,23.61,75,75,0,0,1-7.29,12.48q-3.27,4.23-7.87,11.13a28.24,28.24,0,0,1-9.21,12.48,51.49,51.49,0,0,1-14.39,8.06,53.26,53.26,0,0,1-15.74,3.26,39,39,0,0,1-13.82-1.54,15.06,15.06,0,0,1-8.64-6.33q-2.68-4.42.38-11.32a381.29,381.29,0,0,1,6.72-41.27q5.18-24.76,12.09-51.63t14.4-52.59Q2275.88,574.74,2282.4,556.31Z"/></svg>