<?xml version="1.0" encoding="utf-8"?>
<!-- Generator: Adobe Illustrator 21.0.2, SVG Export Plug-In . SVG Version: 6.00 Build 0)  -->
<svg version="1.1" id="Layer_1" xmlns="http://www.w3.org/2000/svg" xmlns:xlink="http://www.w3.org/1999/xlink" x="0px" y="0px"
	 viewBox="0 0 1305.1 1074.6" style="enable-background:new 0 0 1305.1 1074.6;" xml:space="preserve">
<style type="text/css">
	.st0{enable-background:new    ;}
	.st1{fill:#231F20;}
	.st2{fill:none;stroke:#231F20;stroke-width:18;stroke-miterlimit:10;}
	.st3{fill:none;stroke:#B1BADC;stroke-width:4;stroke-miterlimit:10;}
	.st4{fill:#232A49;}
	.st5{fill:#B1BADC;}
	.st6{fill:none;stroke:#B1BADC;stroke-width:8;stroke-miterlimit:10;}
	.st7{fill:#5D3713;}
	.st8{opacity:0.47;fill:#FFFFFF;enable-background:new    ;}
	.st9{fill:#54B952;}
	.st10{fill:none;stroke:#FFFFFF;stroke-width:5;stroke-miterlimit:10;}
</style>
<title>polyesterArtboard 12</title>
<g class="st0">
	<path class="st1" d="M541.2,82.8c0.3-0.3,0.7-0.5,1.1-0.5s0.7-0.1,1.1-0.1h5.9c0.5,0,0.9,0.1,1.2,0.2c0.3,0.2,0.6,0.4,0.8,0.6
		c0.2,0.3,0.4,0.6,0.5,0.9s0.3,0.7,0.4,1.2l1.6,4.7c0.7-0.9,1.5-1.9,2.2-2.9s1.6-1.9,2.6-2.7c1-0.8,2.2-1.5,3.6-2
		c1.4-0.5,3.1-0.8,5.2-0.8c3.6,0,6.8,0.7,9.9,2c3,1.3,5.6,3.1,7.8,5.4c2.2,2.3,3.9,5,5.1,8.1c1.2,3.1,1.8,6.5,1.8,10.1
		c0,3.6-0.6,6.9-1.8,10.1c-1.2,3.1-2.9,5.8-5.1,8.1c-2.2,2.3-4.8,4.1-7.8,5.4s-6.3,2-9.9,2c-1.7,0-3.1-0.2-4.4-0.6
		c-1.2-0.4-2.3-0.9-3.3-1.6c-1-0.7-1.8-1.4-2.5-2.1c-0.7-0.8-1.4-1.6-2.1-2.3v18.2c0,0.8-0.2,1.4-0.7,2c-0.5,0.5-1.2,0.8-2.2,0.8
		h-8.9c-0.3,0-0.7-0.1-1-0.2s-0.7-0.3-1-0.5c-0.3-0.2-0.6-0.5-0.8-0.9c-0.2-0.4-0.3-0.7-0.3-1.2V85c0-0.5,0.1-0.9,0.3-1.3
		C540.7,83.4,541,83.1,541.2,82.8z M577.7,107.2c0-1.7-0.3-3.2-0.8-4.7c-0.5-1.5-1.3-2.8-2.3-3.9c-1-1.1-2.2-2-3.6-2.7
		c-1.4-0.7-2.9-1-4.6-1c-1.6,0-3.2,0.3-4.7,0.9c-1.5,0.6-2.8,1.4-3.9,2.5c-1.1,1.1-2,2.3-2.7,3.7c-0.7,1.4-1.1,3-1.2,4.6v0.6
		c0,1.7,0.3,3.3,1,4.8c0.6,1.5,1.5,2.8,2.7,3.9c1.1,1.1,2.4,2,3.9,2.6c1.5,0.7,3.1,1,4.8,1c1.7,0,3.2-0.3,4.6-1
		c1.4-0.6,2.6-1.5,3.6-2.6c1-1.1,1.8-2.4,2.3-3.9C577.4,110.5,577.7,108.9,577.7,107.2z"/>
	<path class="st1" d="M598.3,107.2c0-2.4,0.3-4.7,0.9-6.9c0.6-2.2,1.5-4.3,2.6-6.1c1.1-1.9,2.4-3.6,4-5.2c1.5-1.5,3.3-2.9,5.2-4
		c1.9-1.1,3.9-1.9,6.1-2.5c2.2-0.6,4.5-0.9,6.9-0.9c3.5,0,6.9,0.7,10,2c3.1,1.3,5.8,3.1,8.1,5.4s4.1,5,5.5,8.1c1.3,3.1,2,6.5,2,10.1
		c0,2.4-0.3,4.7-0.9,6.9c-0.6,2.2-1.5,4.2-2.6,6.1s-2.4,3.6-4,5.2c-1.5,1.5-3.3,2.9-5.2,4c-1.9,1.1-3.9,2-6.1,2.6
		c-2.2,0.6-4.4,0.9-6.8,0.9c-2.4,0-4.7-0.3-6.9-0.9c-2.2-0.6-4.2-1.5-6.1-2.6c-1.9-1.1-3.6-2.4-5.2-4c-1.5-1.5-2.9-3.3-4-5.2
		c-1.1-1.9-2-3.9-2.6-6.1C598.6,111.9,598.3,109.6,598.3,107.2z M612.5,107.2c0,1.7,0.3,3.3,0.8,4.8c0.5,1.5,1.3,2.8,2.3,3.9
		s2.2,2,3.6,2.6c1.4,0.6,3,1,4.7,1c1.7,0,3.2-0.3,4.6-1c1.4-0.6,2.5-1.5,3.5-2.6c0.9-1.1,1.7-2.4,2.2-3.9c0.5-1.5,0.8-3.1,0.8-4.8
		c0-1.7-0.3-3.3-0.8-4.8c-0.5-1.5-1.2-2.8-2.2-4c-1-1.1-2.1-2-3.5-2.7c-1.4-0.7-2.9-1-4.6-1c-1.7,0-3.3,0.3-4.7,1
		c-1.4,0.7-2.6,1.6-3.6,2.7c-1,1.1-1.7,2.5-2.3,4C612.8,103.9,612.5,105.5,612.5,107.2z"/>
	<path class="st1" d="M657.3,70.6c0-0.8,0.2-1.5,0.6-2.1s1.1-0.9,2.1-0.9h9.6c0.3,0,0.5,0.1,0.8,0.2c0.3,0.1,0.6,0.3,0.8,0.6
		c0.2,0.3,0.5,0.6,0.6,0.9c0.2,0.4,0.3,0.8,0.3,1.2v58.3c0,1-0.3,1.7-0.8,2.2c-0.6,0.5-1.3,0.8-2.2,0.8h-9.1c-1,0-1.7-0.3-2.1-0.8
		c-0.4-0.5-0.6-1.3-0.6-2.2V70.6z"/>
</g>
<g class="st0">
	<path class="st1" d="M678.5,86.1c-0.4-1-0.4-1.9,0-2.7c0.4-0.7,1.3-1.1,2.7-1.1h9.6c0.7,0,1.2,0.2,1.6,0.6s0.7,0.9,0.9,1.5l11,31.4
		l10.8-31.4c0.3-0.8,0.7-1.4,1.1-1.7s1.1-0.4,1.8-0.4h10c0.7,0,1.3,0.1,1.7,0.3c0.4,0.2,0.7,0.5,0.9,0.8c0.2,0.3,0.2,0.7,0.2,1.1
		c-0.1,0.4-0.2,0.8-0.3,1.2c-1,2.4-2.1,5.1-3.2,8s-2.4,5.9-3.6,9.1c-1.3,3.1-2.5,6.3-3.8,9.6c-1.3,3.2-2.6,6.4-3.8,9.5
		c-1.2,3.1-2.4,6.1-3.6,9s-2.2,5.5-3.1,7.9c-1,2.4-1.8,4.5-2.5,6.3c-0.7,1.8-1.2,3.2-1.6,4.2l0.1-0.2c-0.2,0.7-0.5,1.3-1,1.7
		c-0.5,0.4-1,0.6-1.7,0.6h-9c-1.2,0-2-0.2-2.4-0.7c-0.4-0.5-0.6-1.1-0.6-2c0-0.3,0-0.6,0.1-0.8c0.1-0.2,0.2-0.3,0.2-0.4l6.1-15.9
		L678.5,86.1z"/>
</g>
<g class="st0">
	<path class="st1" d="M775.6,126c-2.3,2.1-4.9,3.8-7.7,4.9s-5.9,1.8-9.1,1.8c-3.6,0-6.9-0.7-10.1-2c-3.2-1.3-6-3.1-8.4-5.4
		c-2.4-2.3-4.3-5-5.7-8.1c-1.4-3.1-2.1-6.5-2.1-10.2c0-2.3,0.3-4.5,0.8-6.7s1.4-4.2,2.4-6c1-1.9,2.3-3.6,3.7-5.2
		c1.5-1.6,3.1-2.9,4.9-4c1.8-1.1,3.8-2,5.9-2.6c2.1-0.6,4.4-0.9,6.8-0.9c2.2,0,4.3,0.3,6.3,0.9c2,0.6,3.9,1.4,5.7,2.4
		c1.8,1,3.4,2.3,4.9,3.7s2.8,3.1,3.8,4.8c1.1,1.7,1.9,3.6,2.5,5.5c0.6,2,0.9,4,0.9,6.1c0,1.4,0,2.5-0.1,3.3s-0.2,1.5-0.6,2
		c-0.4,0.5-1,0.9-1.8,1.1c-0.8,0.2-2.1,0.3-3.7,0.3h-28.1c0.3,1.7,0.8,3.1,1.6,4.2c0.8,1.1,1.7,2,2.8,2.7c1,0.7,2.1,1.1,3.3,1.4
		c1.2,0.3,2.3,0.4,3.3,0.4c0.9,0,1.9-0.1,2.9-0.3c1-0.2,1.9-0.5,2.9-0.8s1.8-0.7,2.5-1.1c0.8-0.4,1.4-0.9,1.9-1.3
		c0.4-0.3,0.8-0.6,1.1-0.8c0.3-0.2,0.6-0.3,1-0.3c0.3,0,0.7,0.1,1,0.4c0.4,0.2,0.7,0.6,1.2,1l4.1,4.7c0.3,0.3,0.5,0.6,0.5,0.9
		s0.1,0.6,0.1,0.8c0,0.5-0.1,1-0.4,1.3C776.4,125.4,776,125.7,775.6,126z M756.9,93.5c-1,0-2,0.2-2.9,0.6c-1,0.4-1.8,0.9-2.7,1.6
		c-0.8,0.7-1.6,1.4-2.2,2.3c-0.7,0.9-1.2,1.7-1.6,2.6h19.9c-0.5-1-1.1-2-1.8-2.8s-1.4-1.6-2.2-2.3c-0.8-0.7-1.8-1.2-2.8-1.5
		C759.5,93.6,758.3,93.5,756.9,93.5z"/>
	<path class="st1" d="M796.8,116.5c0.7,0.7,1.5,1.3,2.3,1.8c0.8,0.5,1.6,0.9,2.4,1.2s1.4,0.5,2,0.6c0.6,0.1,1,0.2,1.2,0.2
		c0.5,0,1.1,0,1.9-0.1s1.5-0.2,2.2-0.4c0.7-0.2,1.3-0.5,1.8-1c0.5-0.4,0.8-1.1,0.8-1.9c0-0.7-0.1-1.3-0.4-1.7
		c-0.3-0.4-0.7-0.8-1.2-1.1c-0.5-0.3-1.2-0.6-2-0.8s-1.7-0.5-2.7-0.8c-3.1-0.8-5.7-1.8-7.7-3s-3.6-2.5-4.8-3.9c-1.2-1.4-2-3-2.5-4.7
		c-0.5-1.7-0.7-3.4-0.7-5.3c0-2.2,0.4-4.1,1.3-5.9s2.1-3.3,3.7-4.5c1.6-1.3,3.5-2.2,5.7-2.9c2.2-0.7,4.7-1,7.4-1
		c1.6,0,3.2,0.1,4.6,0.4c1.4,0.3,2.8,0.7,4.1,1.3c1.3,0.6,2.6,1.3,3.8,2.3c1.2,0.9,2.5,2,3.7,3.3c0.4,0.5,0.7,1,0.7,1.5
		c0,0.5-0.3,0.9-0.9,1.5c-1,0.8-2,1.7-2.9,2.5c-0.9,0.8-1.9,1.7-2.9,2.7c-0.3,0.3-0.6,0.4-0.9,0.5c-0.3,0.1-0.6,0.1-0.9,0
		s-0.6-0.2-0.8-0.4c-0.3-0.2-0.5-0.4-0.7-0.7c-0.9-1-2-1.7-3.1-2c-1.2-0.4-2.3-0.5-3.3-0.5c-1.3,0-2.3,0.2-3,0.7
		c-0.8,0.4-1.1,1.1-1.1,2c0.1,0.7,0.3,1.2,0.8,1.6c0.5,0.4,1,0.7,1.7,0.9c0.7,0.2,1.4,0.4,2.1,0.6c0.7,0.1,1.4,0.3,2,0.5
		c2.3,0.8,4.5,1.6,6.4,2.5c2,0.9,3.6,2,5.1,3.3c1.4,1.3,2.5,2.8,3.3,4.6c0.8,1.8,1.2,4,1.2,6.6s-0.5,4.9-1.5,6.9
		c-1,2-2.4,3.7-4.2,5.1c-1.8,1.4-3.9,2.4-6.4,3.2s-5.1,1.1-7.9,1.1c-1.6,0-3.3-0.1-4.9-0.4c-1.7-0.3-3.3-0.7-4.8-1.4
		c-1.6-0.6-3-1.5-4.4-2.5c-1.4-1-2.7-2.2-3.7-3.6c-0.3-0.4-0.5-0.7-0.6-1.2s-0.2-0.8-0.2-1.2c0-0.4,0.1-0.7,0.2-1.1s0.4-0.6,0.7-0.8
		l5-5c0.6-0.5,1.2-0.7,1.7-0.5S796,115.8,796.8,116.5z"/>
</g>
<g class="st0">
	<path class="st1" d="M837.6,74.6c0-0.8,0.3-1.4,0.8-1.8c0.5-0.4,1.3-0.8,2.3-1.2l8.9-3.1c0.1,0,0.3,0,0.4,0s0.2,0,0.3,0
		c1,0,1.6,0.3,1.9,0.8c0.3,0.6,0.5,1.3,0.5,2.2l0,12.3h6.5c0.8,0,1.5,0.2,2,0.7c0.5,0.5,0.8,1.2,0.8,2.2v7.5c0,1.1-0.3,1.9-0.8,2.4
		c-0.5,0.5-1.2,0.8-2,0.8h-6.5l0,31.4c0,1-0.3,1.7-0.9,2.2c-0.6,0.5-1.4,0.8-2.4,0.8h-8.8c-2,0-3-1-3-3l0-31.4h-2.8
		c-2,0-3-1.1-3-3.2v-7.5c0-2,1-3,3-3h2.8L837.6,74.6z"/>
</g>
<g class="st0">
	<path class="st1" d="M908.4,126c-2.3,2.1-4.9,3.8-7.7,4.9s-5.9,1.8-9.1,1.8c-3.6,0-6.9-0.7-10.1-2s-6-3.1-8.4-5.4
		c-2.4-2.3-4.3-5-5.7-8.1c-1.4-3.1-2.1-6.5-2.1-10.2c0-2.3,0.3-4.5,0.8-6.7s1.4-4.2,2.4-6s2.3-3.6,3.7-5.2c1.5-1.6,3.1-2.9,4.9-4
		c1.8-1.1,3.8-2,5.9-2.6c2.1-0.6,4.4-0.9,6.8-0.9c2.2,0,4.3,0.3,6.3,0.9c2,0.6,3.9,1.4,5.7,2.4c1.8,1,3.4,2.3,4.9,3.7
		c1.5,1.5,2.8,3.1,3.8,4.8c1.1,1.7,1.9,3.6,2.5,5.5c0.6,2,0.9,4,0.9,6.1c0,1.4,0,2.5-0.1,3.3s-0.2,1.5-0.6,2c-0.4,0.5-1,0.9-1.8,1.1
		c-0.8,0.2-2.1,0.3-3.7,0.3h-28.1c0.3,1.7,0.8,3.1,1.6,4.2s1.7,2,2.8,2.7c1,0.7,2.1,1.1,3.3,1.4c1.2,0.3,2.3,0.4,3.3,0.4
		c0.9,0,1.9-0.1,2.9-0.3c1-0.2,1.9-0.5,2.9-0.8c0.9-0.3,1.8-0.7,2.5-1.1c0.8-0.4,1.4-0.9,1.9-1.3c0.4-0.3,0.8-0.6,1.1-0.8
		c0.3-0.2,0.6-0.3,1-0.3s0.7,0.1,1,0.4c0.4,0.2,0.7,0.6,1.2,1l4.1,4.7c0.3,0.3,0.5,0.6,0.5,0.9s0.1,0.6,0.1,0.8c0,0.5-0.1,1-0.4,1.3
		S908.8,125.7,908.4,126z M889.6,93.5c-1,0-2,0.2-2.9,0.6c-1,0.4-1.8,0.9-2.7,1.6s-1.6,1.4-2.2,2.3s-1.2,1.7-1.6,2.6h19.9
		c-0.5-1-1.1-2-1.8-2.8s-1.4-1.6-2.2-2.3s-1.8-1.2-2.8-1.5C892.3,93.6,891,93.5,889.6,93.5z"/>
	<path class="st1" d="M922.1,85.2c0-0.4,0.1-0.9,0.3-1.3s0.4-0.7,0.7-1c0.7-0.4,1.4-0.7,2.1-0.7h5.9c0.5,0,0.9,0.1,1.2,0.3
		c0.3,0.2,0.5,0.4,0.7,0.7c0.2,0.3,0.4,0.6,0.5,1c0.1,0.4,0.3,0.7,0.5,1.1c0.1,0.1,0.2,0.4,0.3,0.8s0.3,0.8,0.5,1.3s0.4,0.9,0.5,1.4
		c0.2,0.4,0.3,0.7,0.3,0.8c0.8-0.9,1.5-1.8,2.2-2.7c0.7-0.9,1.5-1.8,2.3-2.6c0.8-0.8,1.7-1.5,2.7-2c1-0.5,2.2-0.8,3.5-0.8
		c1.4,0,2.7,0.1,3.8,0.3c1.1,0.2,2.2,0.5,3.1,0.9c1,0.4,2,0.9,2.9,1.5c1,0.6,2,1.4,3.2,2.2c1.8,1,2.1,2.4,1,4.3l-3.6,6
		c-0.5,0.8-1.2,1.3-1.9,1.4s-1.6,0.1-2.5-0.4c-1.1-1.1-2.3-1.9-3.4-2.4c-1.2-0.5-2.5-0.8-4-0.8c-1,0-1.9,0.1-2.7,0.4
		c-0.8,0.3-1.5,0.7-2.1,1.2c-0.6,0.5-1.2,1.1-1.8,1.9c-0.5,0.7-1.1,1.5-1.6,2.4v28.3c0,1-0.2,1.7-0.7,2.2c-0.5,0.5-1.3,0.8-2.4,0.8
		h-8.8c-2,0-3-1-3-3V85.2z"/>
</g>
<g class="st0">
	<path class="st1" d="M678.5,159.3c0-1.1,0.2-1.9,0.7-2.3c0.5-0.5,1.2-0.7,2.2-0.7h9.1c0.9,0,1.6,0.2,2.2,0.7
		c0.6,0.5,0.8,1.2,0.8,2.3v7.6c0,0.3-0.1,0.7-0.2,1c-0.1,0.4-0.3,0.7-0.6,1.1c-0.3,0.3-0.6,0.6-1,0.8c-0.4,0.2-0.8,0.3-1.3,0.3h-9.1
		c-1.9,0-2.9-1.1-2.9-3.2V159.3z M678.5,179.1c0-0.8,0.2-1.5,0.7-2.1c0.5-0.6,1.2-0.9,2.2-0.9h8.9c0.3,0,0.7,0.1,1,0.2
		c0.4,0.1,0.7,0.4,1,0.6c0.3,0.3,0.6,0.6,0.8,1c0.2,0.4,0.3,0.8,0.3,1.2v43.5c0,1-0.3,1.7-0.8,2.2c-0.5,0.5-1.3,0.8-2.3,0.8h-8.9
		c-1.9,0-2.9-1-2.9-3V179.1z"/>
	<path class="st1" d="M710.3,210.2c0.7,0.7,1.5,1.3,2.3,1.8c0.8,0.5,1.6,0.9,2.4,1.2s1.4,0.5,2,0.6c0.6,0.1,1,0.2,1.2,0.2
		c0.5,0,1.1,0,1.9-0.1s1.5-0.2,2.2-0.4c0.7-0.2,1.3-0.5,1.8-1c0.5-0.4,0.8-1.1,0.8-1.9c0-0.7-0.1-1.3-0.4-1.7
		c-0.3-0.4-0.7-0.8-1.2-1.1c-0.5-0.3-1.2-0.6-2-0.8s-1.7-0.5-2.7-0.8c-3.1-0.8-5.7-1.8-7.7-3s-3.6-2.5-4.8-3.9c-1.2-1.4-2-3-2.5-4.7
		c-0.5-1.7-0.7-3.4-0.7-5.3c0-2.2,0.4-4.1,1.3-5.9s2.1-3.3,3.7-4.5c1.6-1.3,3.5-2.2,5.7-2.9c2.2-0.7,4.7-1,7.4-1
		c1.6,0,3.2,0.1,4.6,0.4c1.4,0.3,2.8,0.7,4.1,1.3c1.3,0.6,2.6,1.3,3.8,2.3c1.2,0.9,2.5,2,3.7,3.3c0.4,0.5,0.7,1,0.7,1.5
		c0,0.5-0.3,0.9-0.9,1.5c-1,0.8-2,1.7-2.9,2.5c-0.9,0.8-1.9,1.7-2.9,2.7c-0.3,0.3-0.6,0.4-0.9,0.5c-0.3,0.1-0.6,0.1-0.9,0
		s-0.6-0.2-0.8-0.4c-0.3-0.2-0.5-0.4-0.7-0.7c-0.9-1-2-1.7-3.1-2c-1.2-0.4-2.3-0.5-3.3-0.5c-1.3,0-2.3,0.2-3,0.7
		c-0.8,0.4-1.1,1.1-1.1,2c0.1,0.7,0.3,1.2,0.8,1.6c0.5,0.4,1,0.7,1.7,0.9c0.7,0.2,1.4,0.4,2.1,0.6c0.7,0.1,1.4,0.3,2,0.5
		c2.3,0.8,4.5,1.6,6.4,2.5c2,0.9,3.6,2,5.1,3.3c1.4,1.3,2.5,2.8,3.3,4.6c0.8,1.8,1.2,4,1.2,6.6s-0.5,4.9-1.5,6.9
		c-1,2-2.4,3.7-4.2,5.1c-1.8,1.4-3.9,2.4-6.4,3.2s-5.1,1.1-7.9,1.1c-1.6,0-3.3-0.1-4.9-0.4c-1.7-0.3-3.3-0.7-4.8-1.4
		c-1.6-0.6-3-1.5-4.4-2.5c-1.4-1-2.7-2.2-3.7-3.6c-0.3-0.4-0.5-0.7-0.6-1.2s-0.2-0.8-0.2-1.2c0-0.4,0.1-0.7,0.2-1.1s0.4-0.6,0.7-0.8
		l5-5c0.6-0.5,1.2-0.7,1.7-0.5S709.5,209.4,710.3,210.2z"/>
	<path class="st1" d="M772.5,159.3c0-1.1,0.2-1.9,0.7-2.3c0.5-0.5,1.2-0.7,2.2-0.7h9.1c0.9,0,1.6,0.2,2.2,0.7
		c0.6,0.5,0.8,1.2,0.8,2.3v7.6c0,0.3-0.1,0.7-0.2,1c-0.1,0.4-0.3,0.7-0.6,1.1c-0.3,0.3-0.6,0.6-1,0.8c-0.4,0.2-0.8,0.3-1.3,0.3h-9.1
		c-1.9,0-2.9-1.1-2.9-3.2V159.3z M772.5,179.1c0-0.8,0.2-1.5,0.7-2.1c0.5-0.6,1.2-0.9,2.2-0.9h8.9c0.3,0,0.7,0.1,1,0.2
		c0.4,0.1,0.7,0.4,1,0.6c0.3,0.3,0.6,0.6,0.8,1c0.2,0.4,0.3,0.8,0.3,1.2v43.5c0,1-0.3,1.7-0.8,2.2c-0.5,0.5-1.3,0.8-2.3,0.8h-8.9
		c-1.9,0-2.9-1-2.9-3V179.1z"/>
	<path class="st1" d="M797.8,176.7c0.3-0.3,0.7-0.5,1.1-0.5s0.7-0.1,1.1-0.1h5.9c0.5,0,0.9,0.1,1.2,0.3c0.3,0.2,0.6,0.4,0.9,0.7
		c0.2,0.3,0.4,0.6,0.6,1s0.3,0.7,0.4,1.1l1.2,5c0.4-0.8,1-1.7,1.7-2.7c0.7-1,1.7-2,2.8-2.9c1.1-0.9,2.5-1.6,4.1-2.3
		c1.6-0.6,3.4-0.9,5.5-0.9c3,0,5.7,0.6,8.1,1.7s4.5,2.7,6.2,4.7c1.7,2,3,4.3,4,6.9c0.9,2.6,1.4,5.5,1.4,8.4v25.6
		c0,1-0.2,1.7-0.6,2.2c-0.4,0.5-1.1,0.8-2,0.8h-9c-1.1,0-1.9-0.2-2.3-0.6c-0.4-0.4-0.6-1.1-0.6-2.2v-25.4c0-1.1-0.3-2.2-0.8-3.2
		c-0.5-1-1.2-1.9-2-2.7c-0.8-0.8-1.8-1.4-2.8-1.8c-1.1-0.4-2.1-0.7-3.2-0.7c-0.9,0-1.9,0.2-2.9,0.6c-1,0.4-1.9,1-2.7,1.7
		s-1.5,1.6-2.1,2.6c-0.6,1-0.9,2.1-1,3.3v25.4c0,0.4-0.1,0.9-0.3,1.3c-0.2,0.4-0.4,0.8-0.8,1c-0.3,0.2-0.7,0.4-1,0.4s-0.6,0.1-1,0.1
		H800c-1.1,0-1.9-0.3-2.4-0.8c-0.5-0.5-0.7-1.3-0.7-2.2v-43.6c0-0.5,0.1-0.9,0.3-1.4c0.2-0.4,0.5-0.7,0.9-1L797.8,176.7z"/>
</g>
<line class="st2" x1="587.7" y1="266.7" x2="347.6" y2="397.5"/>
<polyline class="st2" points="351.7,307.2 282.6,439.3 409.3,447.9 "/>
<line class="st2" x1="928.1" y1="246.3" x2="987.8" y2="383.1"/>
<polyline class="st2" points="897.6,377.8 1028.8,448.6 1039,322.1 "/>
<line class="st3" x1="1273.9" y1="1063.8" x2="1286.7" y2="1083.2"/>
<polygon class="st4" points="908.2,586.2 1112.3,520.7 1290.2,875.3 1158.2,909.7 1050.1,663 1087.1,928.2 923.8,956.2 "/>
<line class="st3" x1="936.1" y1="659.7" x2="934.4" y2="682.9"/>
<line class="st3" x1="937.5" y1="717.2" x2="935.8" y2="740.3"/>
<line class="st3" x1="942.4" y1="765.7" x2="940.7" y2="788.9"/>
<line class="st3" x1="940.8" y1="812.9" x2="939.1" y2="836.1"/>
<line class="st3" x1="945.7" y1="861.5" x2="944" y2="884.6"/>
<line class="st3" x1="1133.2" y1="610.5" x2="1146" y2="629.9"/>
<line class="st3" x1="1160.1" y1="661.3" x2="1172.8" y2="680.7"/>
<line class="st3" x1="1179.4" y1="706.1" x2="1192.2" y2="725.5"/>
<line class="st3" x1="1203.8" y1="746.5" x2="1216.6" y2="765.9"/>
<line class="st3" x1="1223.2" y1="791.3" x2="1236" y2="810.7"/>
<path class="st3" d="M909.1,608.1c-3.2,2,56.7,1.8,109-17.9c4.4-1.7,8.8-3.2,12.8-5c45.4-20.1,87.3-47.5,87.3-47.5"/>
<line class="st3" x1="1012.9" y1="554.2" x2="1050.1" y2="663"/>
<ellipse transform="matrix(0.9678 -0.2517 0.2517 0.9678 -107.8812 278.7823)" class="st5" cx="1035.7" cy="561" rx="6.8" ry="6.8"/>
<path class="st6" d="M955.1,605c0,0,20.2,28.8,5.1,42.1s-49.1,7.6-49.1,7.6"/>
<path class="st6" d="M1090.8,554.4c0,0,12.8,29.5,45.3,14.8"/>
<line class="st2" x1="735.5" y1="290.2" x2="683.8" y2="519.6"/>
<polyline class="st2" points="614.2,462 678,596.7 761.2,500.7 "/>
<path class="st7" d="M548.1,837.1c0,0-0.6-171.1,52.3-182.2s177.4,40.1,194.7,82.8S644,900.6,644,900.6"/>
<path class="st7" d="M560.4,797.7c-51.4-29.3-161.9-43.5-157.5,7.8s350.9,296,384,184.5S560.4,797.7,560.4,797.7z"/>
<path class="st8" d="M714,714c0,0,66.6,16.5,53.9,35.7S697,824.1,697,824.1"/>
<path class="st9" d="M175.4,577c0,0-1.9,72.1,62,66.2s41.4-87.3,41.4-87.3s64-1.9,96.9,27.1s56.5,84.4,56.5,84.4l-62.4,53.9
	l-41.5-50.8L379.9,857l-269,38l12.3-192.5L85,764.8l-63.7-55.1c0,0,24.3-56.8,57.2-93.7S175.4,577,175.4,577z"/>
<path class="st10" d="M148.6,580.5c0,0-11.9,106.9,93.4,84.2s63.4-107.3,63.4-107.3"/>
<line class="st10" x1="20.2" y1="671.2" x2="111" y2="764"/>
<line class="st10" x1="350.9" y1="714.8" x2="429.8" y2="636.5"/>
</svg>
