<svg id="Layer_1" data-name="Layer 1" xmlns="http://www.w3.org/2000/svg" viewBox="0 0 1971.56 1800"><defs><style>.cls-1{fill:#ce58a0;}.cls-2{fill:#fed714;}</style></defs><title>wagesArtboard 18</title><path class="cls-1" d="M199.17,1250.71c22.23,31.45,487.42,594.86,820.64,488.58s510.66-517.57,510.66-517.57-379.19,322.31-537,286.14c-170.51-39.1-408.37-463.8-488.24-536.07C444.54,916.84,143.06,1171.35,199.17,1250.71Z"/><path class="cls-1" d="M1263.23,1238.85c-60.68-31.29,308.06-298.13,398.21-229.36s25.42,313.5-41.71,363.06,43.78-179.2-74.67-210.57S1352.73,1285,1263.23,1238.85Z"/><path class="cls-2" d="M1493.11,749.12c61.21,33.27,286-81.31,286.2-148.37S1533-133.23,1000.17,94.62s-435,531.31-435,531.31,286.59-499.85,689.51-302.52C1370.66,380.22,1400.16,698.6,1493.11,749.12Z"/><path class="cls-2" d="M752.6,656.11c80.39,39.34-129.74,237.19-251.14,225s-162.49-325.3-71-350.67S451,762.83,533.16,745.25,617,589.76,752.6,656.11Z"/></svg>