<svg id="Layer_1" data-name="Layer 1" xmlns="http://www.w3.org/2000/svg" xmlns:xlink="http://www.w3.org/1999/xlink" viewBox="0 0 5160 2104"><defs><style>.cls-1{fill:url(#linear-gradient);}.cls-2{fill:url(#linear-gradient-2);}.cls-3{fill:url(#linear-gradient-3);}.cls-4{fill:url(#linear-gradient-4);}.cls-5{fill:#231f20;}</style><linearGradient id="linear-gradient" x1="864.57" y1="840.8" x2="2643.65" y2="798.72" gradientUnits="userSpaceOnUse"><stop offset="0" stop-color="#fff" stop-opacity="0.4"/><stop offset="0.98" stop-color="#f8bfd8"/></linearGradient><linearGradient id="linear-gradient-2" x1="2138.77" y1="1839.21" x2="2005.3" y2="1035.79" gradientUnits="userSpaceOnUse"><stop offset="0" stop-color="#fff" stop-opacity="0.4"/><stop offset="1" stop-color="#f8faed"/></linearGradient><linearGradient id="linear-gradient-3" x1="2775.23" y1="1559.19" x2="2579.61" y2="381.65" gradientUnits="userSpaceOnUse"><stop offset="0" stop-color="#fff" stop-opacity="0.4"/><stop offset="1" stop-color="#a7dde8"/></linearGradient><linearGradient id="linear-gradient-4" x1="783.18" y1="1253.73" x2="4624.19" y2="1253.73" gradientUnits="userSpaceOnUse"><stop offset="0" stop-color="#fff" stop-opacity="0.4"/><stop offset="1" stop-color="#fcdad8"/></linearGradient></defs><title>wagesArtboard 21</title><path class="cls-1" d="M80,595.31s617.72,1034.55,1127.18,677.33,791.19-371.89,1283.34-108C3509.78,1711.14,3585.1,1054.38,3584,1045.22c-.66-5.47-184-773.85-1278.11-829.22C1481.42,174.27,767.09,740.59,523.54,658.29S80,595.31,80,595.31Z"/><path class="cls-2" d="M376,1741.21s-162.72-711.33,650.64-906.27S2291.14,1249.47,2776,1096s733.78-660.82,733.78-660.82S4216,1458.41,3256,1741.21,576,1162.41,376,1741.21Z"/><path class="cls-3" d="M4648,1390.16s592-840.68-176-1187.42-1303.86-3.37-1617.09,455.56-1098.59,720.84-1664.75,459.27S417.52,202.74,417.52,202.74,58.81,2032,2061.4,1536,4568,844.31,4648,1390.16Z"/><path class="cls-4" d="M783.18,1164.63s1065.29,1277.49,1933.06,660.43S3989.36,1912,3989.36,1912,5298.27,950.61,4157.14,595.31,783.18,1164.63,783.18,1164.63Z"/><path class="cls-5" d="M583.51,503a9,9,0,0,1,2-4,22.67,22.67,0,0,1,9.27-6.84,14.29,14.29,0,0,1,5.17-1.06h77.81a12.93,12.93,0,0,1,8.81,3.19A39.17,39.17,0,0,1,692,500l7.6,17.32L859.18,928.85q2.43,6.08-.91,9.88t-11.55,3.8H759.49q-7,0-10.79-2.58t-5.93-8.66q-6.08-15.5-11.85-30.85t-11.55-30.85H558q-5.78,15.5-11.7,30.85t-11.7,30.85q-4,11.25-15.5,11.25H429.41a14.83,14.83,0,0,1-9.57-3q-3.8-3-1.37-9.12Zm55.32,130.08q-5.78,15.5-11.7,33.43t-11.7,36.17q-5.78,18.24-11.7,36T592,772h93.31Z"/><path class="cls-5" d="M909,504.25a13.42,13.42,0,0,1,3.65-9.42q3.65-3.95,10-4h90a14.16,14.16,0,0,1,9.42,3.65,13.1,13.1,0,0,1,4.56,9.73V834.94h167.17a13.42,13.42,0,0,1,9.42,3.65q3.95,3.65,4,10v79.94a14.5,14.5,0,0,1-3.5,9.42q-3.5,4.26-9.88,4.56H922.39q-13.38,0-13.37-13.37Z"/><path class="cls-5" d="M1190.16,504.52a12.33,12.33,0,0,1,4.1-9.7,14.8,14.8,0,0,1,10.18-3.64h327a15.35,15.35,0,0,1,9.73,3.33q4.25,3.33,4.86,10V580a17.06,17.06,0,0,1-3.8,10.46q-3.8,5-10.79,5H1426.62v332.8a14.47,14.47,0,0,1-3.94,9.89,13.16,13.16,0,0,1-10.31,4.41h-89.13a14.27,14.27,0,0,1-9.7-4.11,13.18,13.18,0,0,1-4.54-10.19V595.43H1204.45a14.12,14.12,0,0,1-10.18-3.94q-4.1-3.94-4.1-11.52Z"/><path class="cls-5" d="M1619.62,505.16q0-6.38,3.49-10.18t9.85-3.8H1934.5q6.68,0,10.33,3.94t3.65,10.6v75.16a15.83,15.83,0,0,1-3.65,9.85q-3.65,4.7-10.64,4.7h-197v75.38h152a16,16,0,0,1,9.57,2.74q3.8,2.74,3.8,9.12v65.65a12.59,12.59,0,0,1-3.34,8.21q-3.35,4-9.73,4H1737.24v77.81h204.25q13.68,0,13.68,13.94v76.37a7.52,7.52,0,0,1-2.43,5.45q-1.22,8.49-12.46,8.49H1633q-6.07,0-9.7-3.19t-3.64-9.88Z"/><path class="cls-5" d="M2030.53,505.16q0-6.38,3.34-10.18t10-3.8h196.34a147.63,147.63,0,0,1,58.66,11.7,153.08,153.08,0,0,1,47.72,31.76,148.29,148.29,0,0,1,32.07,47,142.12,142.12,0,0,1,11.7,57.29,136,136,0,0,1-5.62,39.36,146.86,146.86,0,0,1-15.65,35,148.46,148.46,0,0,1-23.86,29.48A156.09,156.09,0,0,1,2315,765.34l78.11,147.11q2.12,4.26,5.47,10t3.34,10a9,9,0,0,1-3.19,7.45q-3.19,2.59-8.66,2.58H2285.84a15.17,15.17,0,0,1-9.27-3,13.77,13.77,0,0,1-5.32-8.21l-73.86-138.9h-49.24V929.46q0,13.07-14,13.07h-90.27q-6.08,0-9.73-3.19t-3.65-9.88Zm238,134.95a52.69,52.69,0,0,0-3.34-18.24,59.35,59.35,0,0,0-9.42-16.72,55.42,55.42,0,0,0-14.59-12.77,50,50,0,0,0-18.84-6.69q-8.51-.6-16-1.06t-16.26-.46h-41.94V695.73h55.92q5.47,0,9.73-.3t9.42-.91a47.93,47.93,0,0,0,19.15-6.23,50,50,0,0,0,14.29-12.46,55.08,55.08,0,0,0,8.81-16.72A60.69,60.69,0,0,0,2268.52,640.11Z"/><path class="cls-5" d="M2458.78,504.56a14.1,14.1,0,0,1,3.34-9.42q3.34-3.95,10-4h99.39a20.85,20.85,0,0,1,8.81,2.13,19.27,19.27,0,0,1,7.9,7.29q38.6,62.31,76.59,122.79t76.9,122.79V502.73a14.86,14.86,0,0,1,4.86-8.51,12.9,12.9,0,0,1,8.51-3h86.62a16.23,16.23,0,0,1,10.64,3.5q4.25,3.5,4.26,9.88V930.68q0,6.08-3.65,9t-10,2.89h-97a10.13,10.13,0,0,1-7-2.74,47.89,47.89,0,0,1-6.38-7.29l-79.94-132.21q-39.51-65.34-80.24-132.21V929.16q0,6.69-3,10t-10.94,3.34h-86.32q-7,0-10.18-3.8a13.93,13.93,0,0,1-3.19-9.27Z"/><path class="cls-5" d="M3084.88,503a9,9,0,0,1,2-4,22.67,22.67,0,0,1,9.27-6.84,14.29,14.29,0,0,1,5.17-1.06h77.81a12.93,12.93,0,0,1,8.81,3.19,39.17,39.17,0,0,1,5.47,5.62l7.6,17.32,159.57,411.53q2.43,6.08-.91,9.88t-11.55,3.8h-87.23q-7,0-10.79-2.58t-5.93-8.66q-6.08-15.5-11.85-30.85t-11.55-30.85H3059.35q-5.78,15.5-11.7,30.85t-11.7,30.85q-4,11.25-15.5,11.25h-89.66a14.83,14.83,0,0,1-9.57-3q-3.8-3-1.37-9.12Zm55.32,130.08q-5.78,15.5-11.7,33.43t-11.7,36.17q-5.78,18.24-11.7,36T3093.39,772h93.31Z"/><path class="cls-5" d="M3320.43,504.52a12.33,12.33,0,0,1,4.1-9.7,14.8,14.8,0,0,1,10.18-3.64h327a15.35,15.35,0,0,1,9.73,3.33q4.25,3.33,4.86,10V580a17.06,17.06,0,0,1-3.8,10.46q-3.8,5-10.79,5H3556.89v332.8a14.47,14.47,0,0,1-3.94,9.89,13.16,13.16,0,0,1-10.31,4.41h-89.13a14.27,14.27,0,0,1-9.7-4.11,13.18,13.18,0,0,1-4.54-10.19V595.43H3334.71a14.12,14.12,0,0,1-10.18-3.94q-4.1-3.94-4.1-11.52Z"/><path class="cls-5" d="M3751.1,504.56a14.1,14.1,0,0,1,3.34-9.42q3.34-3.95,10-4h89.36q4.56,0,9.73,3.65a11.35,11.35,0,0,1,5.17,9.73v424.6q0,13.38-14.89,13.37h-89.36q-13.38,0-13.37-13.37Z"/><path class="cls-5" d="M4090.89,936.15A98.28,98.28,0,0,1,4085,924.9q-2.59-5.77-5-11.85L3924,504.86a7.76,7.76,0,0,0-.46-2.74,6.87,6.87,0,0,1-.46-2.43q0-8.5,11.25-8.51h97.87q11.55,0,15.8,11.55l92.7,276.58q12.46-34.65,23.86-69.15T4187.09,641q11.09-34.65,22.49-69.15t23.86-69.15q4.25-11.55,16.72-11.55h95.74q7,0,9.88,2.58a8.74,8.74,0,0,1,2.89,6.84,12.37,12.37,0,0,1-.3,3.34v.91L4201.53,913q-1.52,4.26-3.65,9.42A65,65,0,0,1,4193,932a30.49,30.49,0,0,1-6.38,7.45,12.48,12.48,0,0,1-8.21,3h-75.07Q4093.93,942.53,4090.89,936.15Z"/><path class="cls-5" d="M4413.36,505.16q0-6.38,3.49-10.18t9.85-3.8h301.54q6.68,0,10.33,3.94t3.65,10.6v75.16a15.83,15.83,0,0,1-3.65,9.85q-3.65,4.7-10.64,4.7H4531v75.38h152a16,16,0,0,1,9.57,2.74q3.8,2.74,3.8,9.12v65.65a12.59,12.59,0,0,1-3.34,8.21q-3.35,4-9.73,4H4531v77.81h204.25q13.68,0,13.68,13.94v76.37a7.52,7.52,0,0,1-2.43,5.45q-1.22,8.49-12.46,8.49H4426.7q-6.07,0-9.7-3.19t-3.64-9.88Z"/><path class="cls-5" d="M1296.53,1232.49a9,9,0,0,1,2-4,22.67,22.67,0,0,1,9.27-6.84,14.29,14.29,0,0,1,5.17-1.06h77.81a12.93,12.93,0,0,1,8.81,3.19,39.17,39.17,0,0,1,5.47,5.62l7.6,17.32L1572.2,1658.3q2.43,6.08-.91,9.88t-11.55,3.8h-87.23q-7,0-10.79-2.58t-5.93-8.66q-6.08-15.5-11.85-30.85T1432.39,1599H1271q-5.78,15.5-11.7,30.85t-11.7,30.85q-4,11.25-15.5,11.25h-89.66a14.83,14.83,0,0,1-9.57-3q-3.8-3-1.37-9.12Zm55.32,130.08q-5.78,15.5-11.7,33.43t-11.7,36.17q-5.78,18.24-11.7,36t-11.7,33.28h93.31Z"/><path class="cls-5" d="M1626.9,1234.62q0-6.38,3.34-10.18t10-3.8h194.22a132.25,132.25,0,0,1,39.51,5.77,134.64,134.64,0,0,1,34,16,138.74,138.74,0,0,1,28,24.32,156.55,156.55,0,0,1,21.12,30.54,154.69,154.69,0,0,1,13.22,34.5,149.63,149.63,0,0,1-5.32,90.12,146.82,146.82,0,0,1-28.11,46.5,143.13,143.13,0,0,1-43.77,33q-25.53,12.62-56.53,12.92h-92.09v144.67q0,13.07-14,13.07h-90.27q-6.08,0-9.73-3.19t-3.65-9.88Zm228.87,133.13a54.89,54.89,0,0,0-3.19-18.24,50.72,50.72,0,0,0-9.27-16.26,49.33,49.33,0,0,0-14.74-11.7A41.44,41.44,0,0,0,1809,1317h-64.43V1418.5H1809a43.54,43.54,0,0,0,19.76-4.41,45.94,45.94,0,0,0,14.74-11.4,50.38,50.38,0,0,0,9.12-16.11A56.62,56.62,0,0,0,1855.77,1367.74Z"/><path class="cls-5" d="M2035.09,1234.62q0-6.38,3.34-10.18t10-3.8h194.22a132.25,132.25,0,0,1,39.51,5.77,134.64,134.64,0,0,1,34,16,138.74,138.74,0,0,1,28,24.32,156.55,156.55,0,0,1,21.12,30.54,154.69,154.69,0,0,1,13.22,34.5,149.63,149.63,0,0,1-5.32,90.12,146.82,146.82,0,0,1-28.11,46.5,143.13,143.13,0,0,1-43.77,33q-25.53,12.62-56.53,12.92h-92.09v144.67q0,13.07-14,13.07h-90.27q-6.08,0-9.73-3.19t-3.65-9.88ZM2264,1367.74a54.89,54.89,0,0,0-3.19-18.24,50.72,50.72,0,0,0-9.27-16.26,49.33,49.33,0,0,0-14.74-11.7,41.44,41.44,0,0,0-19.6-4.56h-64.43V1418.5h64.43a43.54,43.54,0,0,0,19.76-4.41,45.94,45.94,0,0,0,14.74-11.4,50.38,50.38,0,0,0,9.12-16.11A56.62,56.62,0,0,0,2264,1367.74Z"/><path class="cls-5" d="M2578.22,1232.49a9,9,0,0,1,2-4,22.67,22.67,0,0,1,9.27-6.84,14.29,14.29,0,0,1,5.17-1.06h77.81a12.93,12.93,0,0,1,8.81,3.19,39.17,39.17,0,0,1,5.47,5.62l7.6,17.32,159.57,411.53q2.43,6.08-.91,9.88t-11.55,3.8H2754.2q-7,0-10.79-2.58t-5.93-8.66q-6.08-15.5-11.85-30.85T2714.08,1599H2552.69q-5.78,15.5-11.7,30.85t-11.7,30.85q-4,11.25-15.5,11.25h-89.66a14.83,14.83,0,0,1-9.57-3q-3.8-3-1.37-9.12Zm55.32,130.08q-5.78,15.5-11.7,33.43t-11.7,36.17q-5.78,18.24-11.7,36t-11.7,33.28H2680Z"/><path class="cls-5" d="M2915,1234.62q0-6.38,3.34-10.18t10-3.8h196.34a147.63,147.63,0,0,1,58.66,11.7,153.08,153.08,0,0,1,47.72,31.76,148.29,148.29,0,0,1,32.07,47,142.12,142.12,0,0,1,11.7,57.29,136,136,0,0,1-5.62,39.36,146.86,146.86,0,0,1-15.65,35,148.46,148.46,0,0,1-23.86,29.48,156.09,156.09,0,0,1-30.24,22.64l78.11,147.11q2.12,4.26,5.47,10t3.34,10a9,9,0,0,1-3.19,7.45q-3.19,2.59-8.66,2.58H3170.28a15.17,15.17,0,0,1-9.27-3,13.77,13.77,0,0,1-5.32-8.21l-73.86-138.9H3032.6v137.08q0,13.07-14,13.07h-90.27q-6.08,0-9.73-3.19t-3.65-9.88Zm238,134.95a52.69,52.69,0,0,0-3.34-18.24,59.35,59.35,0,0,0-9.42-16.72,55.42,55.42,0,0,0-14.59-12.77,50,50,0,0,0-18.84-6.69q-8.51-.6-16-1.06t-16.26-.46H3032.6v111.54h55.92q5.47,0,9.73-.3t9.42-.91a47.93,47.93,0,0,0,19.15-6.23,50,50,0,0,0,14.29-12.46,55.08,55.08,0,0,0,8.81-16.72A60.69,60.69,0,0,0,3153,1369.56Z"/><path class="cls-5" d="M3342,1234.62q0-6.38,3.49-10.18t9.85-3.8h301.54q6.68,0,10.33,3.94t3.65,10.6v75.16a15.83,15.83,0,0,1-3.65,9.85q-3.65,4.7-10.64,4.7h-197v75.38h152a16,16,0,0,1,9.57,2.74q3.8,2.74,3.8,9.12v65.65a12.59,12.59,0,0,1-3.34,8.21q-3.35,4-9.73,4H3459.63v77.81h204.25q13.68,0,13.68,13.94V1658a7.52,7.52,0,0,1-2.43,5.45q-1.22,8.49-12.46,8.49H3355.34q-6.07,0-9.7-3.19t-3.64-9.88Z"/><path class="cls-5" d="M3741.67,1233.7a13.42,13.42,0,0,1,3.65-9.42q3.65-3.95,10-4h90a14.16,14.16,0,0,1,9.42,3.65,13.1,13.1,0,0,1,4.56,9.73v330.68h167.17a13.42,13.42,0,0,1,9.42,3.65q3.95,3.65,4,10V1658a14.5,14.5,0,0,1-3.5,9.42q-3.5,4.26-9.88,4.56H3755q-13.38,0-13.37-13.37Z"/></svg>