<svg id="Layer_1" data-name="Layer 1" xmlns="http://www.w3.org/2000/svg" viewBox="0 0 4769.78 2160"><defs><style>.cls-1{fill:#231f20;}.cls-2{fill:#ee2359;}.cls-3{fill:#70c9c4;}.cls-4{fill:#fee000;}.cls-5{fill:#f36e21;}.cls-6{fill:#e0549e;}.cls-7{fill:#3b54a5;}</style></defs><title>wagesArtboard 19</title><path class="cls-1" d="M279.08,1007.15a18.81,18.81,0,0,1,8.36-4.25,41.3,41.3,0,0,1,8.36-.91h45.89a20.87,20.87,0,0,1,9.42,2,20.33,20.33,0,0,1,6.69,5.31,28.1,28.1,0,0,1,4.41,7.58q1.67,4.25,3.19,8.79l9.42,38.79q4.56-9.39,11.09-21.37a94,94,0,0,1,17.32-22.43q10.79-10.46,27.05-17.58t40.58-7.12q38.9,0,68.08,16.52a141.22,141.22,0,0,1,48,44.4,130.61,130.61,0,0,1,15.81-20.15,128,128,0,0,1,24-19.85,136.07,136.07,0,0,1,32.07-15,128.07,128.07,0,0,1,40-5.91q34.65,0,61.85,13.33a137.75,137.75,0,0,1,46.2,36.37q19,23,28.87,53.83a214.17,214.17,0,0,1,9.88,65.75v199.08q0,11.55-5,17.48t-16,5.93H754.44q-13.07,0-17.93-4.41t-4.86-17.17v-200.9a70.41,70.41,0,0,0-4.1-24.31,61.63,61.63,0,0,0-11.4-19.6,51.08,51.08,0,0,0-17.78-13.07,56.13,56.13,0,0,0-23.25-4.71,53.58,53.58,0,0,0-21.88,4.56A58.28,58.28,0,0,0,635,1120.7a60.22,60.22,0,0,0-12.61,19.45,65,65,0,0,0-4.71,25.07v199.08q0,11.55-5,17.48t-16,5.93H526.49q-13.07,0-17.93-4.41t-4.86-17.17v-200.9a75.57,75.57,0,0,0-3.8-24.31,58.92,58.92,0,0,0-10.94-19.6,50.35,50.35,0,0,0-17.32-13.07,54.07,54.07,0,0,0-22.95-4.71,54.88,54.88,0,0,0-21.43,4.41,61.11,61.11,0,0,0-18.84,12.46,69.93,69.93,0,0,0-14,19.3,64.73,64.73,0,0,0-6.54,24.92v200.6a28.77,28.77,0,0,1-2,10.33,16.43,16.43,0,0,1-5.93,7.9,27.8,27.8,0,0,1-7.45,3.34,32.08,32.08,0,0,1-8.05.91H295.8q-13.07,0-18.84-6.38t-5.77-17V1024.42a22.19,22.19,0,0,1,2.58-10.6,19.09,19.09,0,0,1,7.14-7.58Z"/><path class="cls-1" d="M918.56,871.62q0-12.77,5.47-18.08t17-5.32h70.51q10.63,0,17.17,5.32t6.54,18.08v59.27a21.78,21.78,0,0,1-1.67,7.9,33.65,33.65,0,0,1-4.71,8.21,25.66,25.66,0,0,1-7.45,6.54,19.16,19.16,0,0,1-9.88,2.58H941.05q-22.5,0-22.49-25.23Zm0,153.79A26.31,26.31,0,0,1,924,1008.7q5.47-7,17-7h69.6a21.8,21.8,0,0,1,7.9,1.67,26.94,26.94,0,0,1,7.9,4.86,31.69,31.69,0,0,1,6.23,7.45,18.4,18.4,0,0,1,2.58,9.73v338.89q0,11.55-6.38,17.48t-18.24,5.93h-69.6q-22.5,0-22.49-23.4Z"/><path class="cls-1" d="M1116.12,1007.15a18.81,18.81,0,0,1,8.36-4.25,41.3,41.3,0,0,1,8.36-.91h45.89a20.87,20.87,0,0,1,9.42,2,20.33,20.33,0,0,1,6.69,5.31,28.1,28.1,0,0,1,4.41,7.58q1.67,4.25,3.19,8.79l9.42,38.79a147.42,147.42,0,0,1,13.22-21.37,112.17,112.17,0,0,1,22-22.43,123.71,123.71,0,0,1,31.76-17.58q18.39-7.12,42.7-7.12,34.65,0,62.92,13.33a144.18,144.18,0,0,1,48.17,36.37,166.84,166.84,0,0,1,30.85,53.83,195,195,0,0,1,10.94,65.75v199.08q0,11.55-5,17.48t-16,5.93h-70.21q-13.07,0-17.93-4.41t-4.86-17.17V1168.27a54.11,54.11,0,0,0-5.93-24.77,72.5,72.5,0,0,0-15.65-20.67,75.38,75.38,0,0,0-22-14.13,64.26,64.26,0,0,0-25.08-5.17,56.72,56.72,0,0,0-22.34,4.86,75,75,0,0,0-21,13.53,79.51,79.51,0,0,0-16.11,20.36,59.48,59.48,0,0,0-7.45,25.38v197.56a28.77,28.77,0,0,1-2,10.33,16.43,16.43,0,0,1-5.93,7.9,27.8,27.8,0,0,1-7.45,3.34,32.08,32.08,0,0,1-8.05.91h-68.69q-13.07,0-18.84-6.38t-5.77-17V1024.42a22.19,22.19,0,0,1,2.58-10.6,19.09,19.09,0,0,1,7.14-7.58Z"/><path class="cls-1" d="M1547.09,871.62q0-12.77,5.47-18.08t17-5.32h70.51q10.63,0,17.17,5.32t6.54,18.08v59.27a21.78,21.78,0,0,1-1.67,7.9,33.65,33.65,0,0,1-4.71,8.21,25.66,25.66,0,0,1-7.45,6.54,19.16,19.16,0,0,1-9.88,2.58h-70.51q-22.5,0-22.49-25.23Zm0,153.79a26.31,26.31,0,0,1,5.47-16.72q5.47-7,17-7h69.6a21.8,21.8,0,0,1,7.9,1.67,26.94,26.94,0,0,1,7.9,4.86,31.69,31.69,0,0,1,6.23,7.45,18.4,18.4,0,0,1,2.58,9.73v338.89q0,11.55-6.38,17.48t-18.24,5.93h-69.6q-22.5,0-22.49-23.4Z"/><path class="cls-1" d="M1965,949.73a16.16,16.16,0,0,1,4.25-9.42q3.65-3.95,10.33-4h105.16q11.24,0,14.59,11.55l82.67,276,83.28-276q4.25-11.55,15.5-11.55h103.95a14.76,14.76,0,0,1,9.88,3.8,14.21,14.21,0,0,1,5,9.57q10.64,107,21.73,212.3t21.73,212.3v1.52q0,11.85-13.37,11.85h-86q-14,0-14.59-13.37l-26.44-234.94-68.39,236.46q-.61,3-4.41,7.29t-7.45,4.25H2142.5q-3.65,0-7.75-4.1t-4.41-7.45L2062,1140l-26.44,234.34q-.61,13.38-14.89,13.37h-86q-13.07,0-13.07-13.37Z"/><path class="cls-1" d="M2524.85,949.73a14.1,14.1,0,0,1,3.34-9.42q3.34-3.95,10-4h89.36q4.56,0,9.73,3.65a11.35,11.35,0,0,1,5.17,9.73v424.6q0,13.38-14.89,13.37h-89.36q-13.38,0-13.37-13.37Z"/><path class="cls-1" d="M2719.36,1162.49A231,231,0,0,1,2751,1045a235.43,235.43,0,0,1,36.34-47.26,226.76,226.76,0,0,1,47-36.32,238.56,238.56,0,0,1,55.51-23.4,232.76,232.76,0,0,1,123.63,0,237.89,237.89,0,0,1,55.66,23.4,230.8,230.8,0,0,1,83.49,83.58,241.18,241.18,0,0,1,23.42,55.62,232.9,232.9,0,0,1,0,123.7,235.23,235.23,0,0,1-23.42,55.32,228.48,228.48,0,0,1-36.34,46.81,237.52,237.52,0,0,1-47.14,36.32,232.7,232.7,0,0,1-234.8,0,235.57,235.57,0,0,1-83.33-83.13,226.77,226.77,0,0,1-23.42-55.32A230.47,230.47,0,0,1,2719.36,1162.49Zm117.62-.3a129,129,0,0,0,8.5,47.11,116.36,116.36,0,0,0,23.83,38.14,111,111,0,0,0,36.27,25.53q20.94,9.28,46.14,9.27T2998,1273a110.6,110.6,0,0,0,36.43-25.53,116.33,116.33,0,0,0,23.83-38.14,134.37,134.37,0,0,0,0-94.07,117.74,117.74,0,0,0-23.83-38.45,111.23,111.23,0,0,0-82.71-35.26q-25.2,0-46.14,9.42a111.92,111.92,0,0,0-36.27,25.83,117.77,117.77,0,0,0-23.83,38.45A129.39,129.39,0,0,0,2837,1162.19Z"/><path class="cls-1" d="M3602.91,969.19a19,19,0,0,1,7.6,7.9q2.43,4.87-.91,11.55l-51.37,72.95q-3.35,5.17-7.14,5.93t-9.27-2.58A116,116,0,0,0,3509,1047.6a117.6,117.6,0,0,0-38-6.08,110.07,110.07,0,0,0-82.06,35.26,119.37,119.37,0,0,0-23.71,38.3,132.56,132.56,0,0,0,0,93.46,117.91,117.91,0,0,0,23.71,38,110.69,110.69,0,0,0,82.06,35.1,118.15,118.15,0,0,0,71.43-23.71q5.47-3.34,9.12-2.74t7.29,5.47l52,74.77q3.34,6.69.91,11.25a19.56,19.56,0,0,1-7.6,7.6,241.37,241.37,0,0,1-61.55,29.63,227.85,227.85,0,0,1-69.45,10.49,230,230,0,0,1-117.32-31.61,235.46,235.46,0,0,1-83.28-83.13,226.92,226.92,0,0,1-23.4-55.32,233.14,233.14,0,0,1,23.4-179.32,235.53,235.53,0,0,1,36.32-47.26,226.62,226.62,0,0,1,47-36.32,238.28,238.28,0,0,1,55.47-23.4A235.52,235.52,0,0,1,3542,939.86,236.49,236.49,0,0,1,3602.91,969.19Z"/><path class="cls-1" d="M3688,949.73a15.35,15.35,0,0,1,3.8-9.27,11.57,11.57,0,0,1,9.27-4.1h90.27q4.56,0,9.42,3.81a11.7,11.7,0,0,1,4.86,9.59v144.35h151.06V949.76a13.17,13.17,0,0,1,3.79-9.44,13,13,0,0,1,9.85-4h88.82a18.66,18.66,0,0,1,10.61,3q4.55,3,4.55,9.73v425.21q0,6.69-3.94,10t-10.31,3.34h-89.73a14.33,14.33,0,0,1-9.85-3.34q-3.79-3.34-3.79-10V1201.7H3805.63v172.64q0,6.38-4.1,9.88t-11.09,3.5h-89.36q-12.76,0-13.07-11.85Z"/><path class="cls-1" d="M4173.7,950.34q0-6.38,3.49-10.18t9.85-3.8h301.54q6.68,0,10.33,3.94t3.65,10.61v75.16a15.83,15.83,0,0,1-3.65,9.85q-3.65,4.7-10.64,4.7h-197V1116h152a16,16,0,0,1,9.57,2.74q3.8,2.73,3.8,9.12v65.65a12.59,12.59,0,0,1-3.34,8.21q-3.35,4-9.73,4H4291.32v77.81h204.25q13.68,0,13.68,13.94v76.37a7.52,7.52,0,0,1-2.43,5.45q-1.22,8.49-12.46,8.49H4187q-6.07,0-9.7-3.19t-3.64-9.88Z"/><path class="cls-2" d="M565.44,634.09s-156-105.18-138,0,96,165.17,138,81.19c0,0-18,103.51,36,129.74s150,57.76,150,0-108-154.6-108-154.6Z"/><path class="cls-2" d="M570.9,617.88s-147.35-117-41.64-131.54,186.44,41.66,119,107c0,0,93.26-48.4,134.55-4.84s100.32,125.55,45.26,143-180-56.29-180-56.29Z"/><path class="cls-3" d="M1351.28,1539.09c64.29-101.77,132,111.41,132,111.41S1255.3,1691,1351.28,1539.09Z"/><path class="cls-3" d="M1483.25,1663.14s-186,72.32-114,141.93,138,58.21,150,0S1483.25,1663.14,1483.25,1663.14Z"/><path class="cls-3" d="M1525.28,1460.63c-116.09-33.93-22.4,182.44-22.4,182.44S1698.59,1511.29,1525.28,1460.63Z"/><path class="cls-3" d="M1502.88,1643.07s183.13-80.11,174,23-65.09,142.07-110.79,107.69S1502.88,1643.07,1502.88,1643.07Z"/><path class="cls-4" d="M1243.3,631.3c15.69,0,30.73-13.8,30-30s-13.18-30-30-30c-15.69,0-30.73,13.8-30,30s13.18,30,30,30Z"/><path class="cls-4" d="M1363.28,595.31c15.69,0,30.73-13.8,30-30s-13.18-30-30-30c-15.69,0-30.73,13.8-30,30s13.18,30,30,30Z"/><path class="cls-4" d="M1315.29,625.3c15.69,0,30.73-13.8,30-30s-13.18-30-30-30c-15.69,0-30.73,13.8-30,30s13.18,30,30,30Z"/><path class="cls-4" d="M1465.26,601.3c15.69,0,30.73-13.8,30-30s-13.18-30-30-30c-15.69,0-30.73,13.8-30,30s13.18,30,30,30Z"/><path class="cls-4" d="M1537.24,685.29c15.69,0,30.73-13.8,30-30s-13.18-30-30-30c-15.69,0-30.73,13.8-30,30s13.18,30,30,30Z"/><path class="cls-4" d="M1663.22,661.29c15.69,0,30.73-13.8,30-30s-13.18-30-30-30c-15.69,0-30.73,13.8-30,30s13.18,30,30,30Z"/><path class="cls-4" d="M1681.21,619.3c15.69,0,30.73-13.8,30-30s-13.18-30-30-30c-15.69,0-30.73,13.8-30,30s13.18,30,30,30Z"/><path class="cls-4" d="M949.36,739.28c15.69,0,30.73-13.8,30-30s-13.18-30-30-30c-15.69,0-30.73,13.8-30,30s13.18,30,30,30Z"/><path class="cls-4" d="M883.37,619.3c15.69,0,30.73-13.8,30-30s-13.18-30-30-30c-15.69,0-30.73,13.8-30,30s13.18,30,30,30Z"/><path class="cls-4" d="M1033.34,637.3c15.69,0,30.73-13.8,30-30s-13.18-30-30-30c-15.69,0-30.73,13.8-30,30s13.18,30,30,30Z"/><path class="cls-4" d="M1141.32,745.28c15.69,0,30.73-13.8,30-30s-13.18-30-30-30c-15.69,0-30.73,13.8-30,30s13.18,30,30,30Z"/><path class="cls-4" d="M1165.32,643.3c15.69,0,30.73-13.8,30-30s-13.18-30-30-30c-15.69,0-30.73,13.8-30,30s13.18,30,30,30Z"/><path class="cls-4" d="M691.41,1549.11c15.69,0,30.73-13.8,30-30s-13.18-30-30-30c-15.69,0-30.73,13.8-30,30s13.18,30,30,30Z"/><path class="cls-4" d="M793.39,1567.11c15.69,0,30.73-13.8,30-30s-13.18-30-30-30c-15.69,0-30.73,13.8-30,30s13.18,30,30,30Z"/><path class="cls-4" d="M775.39,1645.1c15.69,0,30.73-13.8,30-30s-13.18-30-30-30c-15.69,0-30.73,13.8-30,30s13.18,30,30,30Z"/><path class="cls-4" d="M835.38,1735.08h6a30.83,30.83,0,0,0,30-30l-1.07-8a30,30,0,0,0-7.72-13.24l-6.07-4.69a29.86,29.86,0,0,0-15.14-4.1h-6a30.83,30.83,0,0,0-30,30l1.07,8a30,30,0,0,0,7.72,13.24l6.07,4.69a29.86,29.86,0,0,0,15.14,4.1Z"/><path class="cls-4" d="M883.37,1639.1c15.69,0,30.73-13.8,30-30s-13.18-30-30-30c-15.69,0-30.73,13.8-30,30s13.18,30,30,30Z"/><path class="cls-4" d="M937.36,1537.12c15.69,0,30.73-13.8,30-30s-13.18-30-30-30c-15.69,0-30.73,13.8-30,30s13.18,30,30,30Z"/><path class="cls-4" d="M1045.34,1645.1c15.69,0,30.73-13.8,30-30s-13.18-30-30-30c-15.69,0-30.73,13.8-30,30s13.18,30,30,30Z"/><path class="cls-4" d="M985.35,1723.08c15.69,0,30.73-13.8,30-30s-13.18-30-30-30c-15.69,0-30.73,13.8-30,30s13.18,30,30,30Z"/><path class="cls-4" d="M1123.32,1735.08c15.69,0,30.73-13.8,30-30s-13.18-30-30-30c-15.69,0-30.73,13.8-30,30s13.18,30,30,30Z"/><path class="cls-4" d="M1129.32,1627.1c15.69,0,30.73-13.8,30-30s-13.18-30-30-30c-15.69,0-30.73,13.8-30,30s13.18,30,30,30Z"/><path class="cls-4" d="M1243.3,1699.08c15.69,0,30.73-13.8,30-30s-13.18-30-30-30c-15.69,0-30.73,13.8-30,30s13.18,30,30,30Z"/><path class="cls-4" d="M1255.3,1765.07c15.69,0,30.73-13.8,30-30s-13.18-30-30-30c-15.69,0-30.73,13.8-30,30s13.18,30,30,30Z"/><path class="cls-4" d="M1315.29,1729.08c15.69,0,30.73-13.8,30-30s-13.18-30-30-30c-15.69,0-30.73,13.8-30,30s13.18,30,30,30Z"/><path class="cls-4" d="M1177.31,1597.11c15.69,0,30.73-13.8,30-30s-13.18-30-30-30c-15.69,0-30.73,13.8-30,30s13.18,30,30,30Z"/><path class="cls-4" d="M1177.31,1759.07c15.69,0,30.73-13.8,30-30s-13.18-30-30-30c-15.69,0-30.73,13.8-30,30s13.18,30,30,30Z"/><path class="cls-4" d="M1183.31,1693.09c15.69,0,30.73-13.8,30-30s-13.18-30-30-30c-15.69,0-30.73,13.8-30,30s13.18,30,30,30Z"/><path class="cls-4" d="M1675.21,1567.11c15.69,0,30.73-13.8,30-30s-13.18-30-30-30c-15.69,0-30.73,13.8-30,30s13.18,30,30,30Z"/><path class="cls-4" d="M1699.21,1591.11c15.69,0,30.73-13.8,30-30s-13.18-30-30-30c-15.69,0-30.73,13.8-30,30s13.18,30,30,30Z"/><path class="cls-4" d="M1741.2,1531.12c15.69,0,30.73-13.8,30-30s-13.18-30-30-30c-15.69,0-30.73,13.8-30,30s13.18,30,30,30Z"/><path class="cls-4" d="M1819.19,1561.11c15.69,0,30.73-13.8,30-30s-13.18-30-30-30c-15.69,0-30.73,13.8-30,30s13.18,30,30,30Z"/><path class="cls-4" d="M1795.19,1639.1c15.69,0,30.73-13.8,30-30s-13.18-30-30-30c-15.69,0-30.73,13.8-30,30s13.18,30,30,30Z"/><path class="cls-4" d="M1933.16,1627.1c15.69,0,30.73-13.8,30-30s-13.18-30-30-30c-15.69,0-30.73,13.8-30,30s13.18,30,30,30Z"/><path class="cls-4" d="M1957.16,1549.11c15.69,0,30.73-13.8,30-30s-13.18-30-30-30c-15.69,0-30.73,13.8-30,30s13.18,30,30,30Z"/><path class="cls-4" d="M2059.14,1585.11c15.69,0,30.73-13.8,30-30s-13.18-30-30-30c-15.69,0-30.73,13.8-30,30s13.18,30,30,30Z"/><path class="cls-4" d="M2155.12,1675.09c15.69,0,30.73-13.8,30-30s-13.18-30-30-30c-15.69,0-30.73,13.8-30,30s13.18,30,30,30Z"/><path class="cls-5" d="M3537.78,1729.07c8-122-88-312.07-192-179s-88,129,0,155S3537.78,1729.07,3537.78,1729.07Z"/><path class="cls-5" d="M3540.76,1746.66s-312.72-44-264.59,104,144.12,136,192.12,60S3540.76,1746.66,3540.76,1746.66Z"/><path class="cls-4" d="M2757.78,1577.09c15.69,0,30.73-13.8,30-30s-13.18-30-30-30c-15.69,0-30.73,13.8-30,30s13.18,30,30,30Z"/><path class="cls-4" d="M2901.78,1617.09c15.69,0,30.73-13.8,30-30s-13.18-30-30-30c-15.69,0-30.73,13.8-30,30s13.18,30,30,30Z"/><path class="cls-4" d="M2985.78,1725.09c15.69,0,30.73-13.8,30-30s-13.18-30-30-30c-15.69,0-30.73,13.8-30,30s13.18,30,30,30Z"/><path class="cls-4" d="M2977.78,1873.09c15.69,0,30.73-13.8,30-30s-13.18-30-30-30c-15.69,0-30.73,13.8-30,30s13.18,30,30,30Z"/><path class="cls-4" d="M2857.78,1933.09c15.69,0,30.73-13.8,30-30s-13.18-30-30-30c-15.69,0-30.73,13.8-30,30s13.18,30,30,30Z"/><path class="cls-4" d="M3113.78,1793.09c15.69,0,30.73-13.8,30-30s-13.18-30-30-30c-15.69,0-30.73,13.8-30,30s13.18,30,30,30Z"/><path class="cls-4" d="M3165.78,1701.09c15.69,0,30.73-13.8,30-30s-13.18-30-30-30c-15.69,0-30.73,13.8-30,30s13.18,30,30,30Z"/><path class="cls-4" d="M3061.78,1685.09c15.69,0,30.73-13.8,30-30s-13.18-30-30-30c-15.69,0-30.73,13.8-30,30s13.18,30,30,30Z"/><path class="cls-4" d="M3161.78,1765.09c15.69,0,30.73-13.8,30-30s-13.18-30-30-30c-15.69,0-30.73,13.8-30,30s13.18,30,30,30Z"/><path class="cls-4" d="M3253.78,1733.09c15.69,0,30.73-13.8,30-30s-13.18-30-30-30c-15.69,0-30.73,13.8-30,30s13.18,30,30,30Z"/><path class="cls-4" d="M3217.78,1805.09c15.69,0,30.73-13.8,30-30s-13.18-30-30-30c-15.69,0-30.73,13.8-30,30s13.18,30,30,30Z"/><path class="cls-4" d="M2925.78,1781.09c15.69,0,30.73-13.8,30-30s-13.18-30-30-30c-15.69,0-30.73,13.8-30,30s13.18,30,30,30Z"/><path class="cls-4" d="M2921.78,1777.09c15.69,0,30.73-13.8,30-30s-13.18-30-30-30c-15.69,0-30.73,13.8-30,30s13.18,30,30,30Z"/><path class="cls-4" d="M2545.78,1733.09c15.69,0,30.73-13.8,30-30s-13.18-30-30-30c-15.69,0-30.73,13.8-30,30s13.18,30,30,30Z"/><path class="cls-4" d="M2541.78,1961.09c15.69,0,30.73-13.8,30-30s-13.18-30-30-30c-15.69,0-30.73,13.8-30,30s13.18,30,30,30Z"/><path class="cls-4" d="M2765.78,1781.09c15.69,0,30.73-13.8,30-30s-13.18-30-30-30c-15.69,0-30.73,13.8-30,30s13.18,30,30,30Z"/><path class="cls-6" d="M2813.92,429.69s-130-227.47-205.81-101.1-10.83,232.76,75.82,192.2S2813.92,429.69,2813.92,429.69Z"/><path class="cls-6" d="M2723.65,599.58c58.64,82.24,148,212.83,184.14,97.29s-93.88-267.19-93.88-267.19S2687.28,548.57,2723.65,599.58Z"/><path class="cls-6" d="M2804.94,382.67s-87.1-109.91-29.57-171.52,140.58-58.33,166.21,28.22-92.4,143.12-92.4,143.12,78.29-59.76,143.52-.57S3116.08,538.74,3091,598.22,2924.73,543,2804.94,382.67Z"/><path class="cls-4" d="M3091.72,822c15.69,0,30.73-13.8,30-30s-13.18-30-30-30c-15.69,0-30.73,13.8-30,30s13.18,30,30,30Z"/><path class="cls-4" d="M3195.72,734c15.69,0,30.73-13.8,30-30s-13.18-30-30-30c-15.69,0-30.73,13.8-30,30s13.18,30,30,30Z"/><path class="cls-4" d="M3251.72,834c15.69,0,30.73-13.8,30-30s-13.18-30-30-30c-15.69,0-30.73,13.8-30,30s13.18,30,30,30Z"/><path class="cls-4" d="M3303.72,662c15.69,0,30.73-13.8,30-30s-13.18-30-30-30c-15.69,0-30.73,13.8-30,30s13.18,30,30,30Z"/><path class="cls-4" d="M3231.72,538c15.69,0,30.73-13.8,30-30s-13.18-30-30-30c-15.69,0-30.73,13.8-30,30s13.18,30,30,30Z"/><path class="cls-4" d="M3279.72,478c15.69,0,30.73-13.8,30-30s-13.18-30-30-30c-15.69,0-30.73,13.8-30,30s13.18,30,30,30Z"/><path class="cls-4" d="M3195.72,350c15.69,0,30.73-13.8,30-30s-13.18-30-30-30c-15.69,0-30.73,13.8-30,30s13.18,30,30,30Z"/><path class="cls-4" d="M3447.72,490c15.69,0,30.73-13.8,30-30s-13.18-30-30-30c-15.69,0-30.73,13.8-30,30s13.18,30,30,30Z"/><path class="cls-4" d="M3527.72,658c15.69,0,30.73-13.8,30-30s-13.18-30-30-30c-15.69,0-30.73,13.8-30,30s13.18,30,30,30Z"/><path class="cls-4" d="M3619.72,810c15.69,0,30.73-13.8,30-30s-13.18-30-30-30c-15.69,0-30.73,13.8-30,30s13.18,30,30,30Z"/><path class="cls-4" d="M3783.72,718c15.69,0,30.73-13.8,30-30s-13.18-30-30-30c-15.69,0-30.73,13.8-30,30s13.18,30,30,30Z"/><path class="cls-4" d="M3755.72,554c15.69,0,30.73-13.8,30-30s-13.18-30-30-30c-15.69,0-30.73,13.8-30,30s13.18,30,30,30Z"/><path class="cls-4" d="M4063.72,758c15.69,0,30.73-13.8,30-30s-13.18-30-30-30c-15.69,0-30.73,13.8-30,30s13.18,30,30,30Z"/><path class="cls-4" d="M4199.72,646c15.69,0,30.73-13.8,30-30s-13.18-30-30-30c-15.69,0-30.73,13.8-30,30s13.18,30,30,30Z"/><path class="cls-4" d="M3971.72,602c15.69,0,30.73-13.8,30-30s-13.18-30-30-30c-15.69,0-30.73,13.8-30,30s13.18,30,30,30Z"/><path class="cls-4" d="M4323.72,822c15.69,0,30.73-13.8,30-30s-13.18-30-30-30c-15.69,0-30.73,13.8-30,30s13.18,30,30,30Z"/><path class="cls-4" d="M4037.78,845.09c15.69,0,30.73-13.8,30-30s-13.18-30-30-30c-15.69,0-30.73,13.8-30,30s13.18,30,30,30Z"/><path class="cls-4" d="M2539.72,702c15.69,0,30.73-13.8,30-30s-13.18-30-30-30c-15.69,0-30.73,13.8-30,30s13.18,30,30,30Z"/><path class="cls-4" d="M2893.78,849.09c15.69,0,30.73-13.8,30-30s-13.18-30-30-30c-15.69,0-30.73,13.8-30,30s13.18,30,30,30Z"/><path class="cls-4" d="M3231.72,586c15.69,0,30.73-13.8,30-30s-13.18-30-30-30c-15.69,0-30.73,13.8-30,30s13.18,30,30,30Z"/><path class="cls-4" d="M3335.72,554c15.69,0,30.73-13.8,30-30s-13.18-30-30-30c-15.69,0-30.73,13.8-30,30s13.18,30,30,30Z"/><path class="cls-4" d="M3303.72,642c15.69,0,30.73-13.8,30-30s-13.18-30-30-30c-15.69,0-30.73,13.8-30,30s13.18,30,30,30Z"/><path class="cls-4" d="M3231.72,538c15.69,0,30.73-13.8,30-30s-13.18-30-30-30c-15.69,0-30.73,13.8-30,30s13.18,30,30,30Z"/><path class="cls-4" d="M3279.72,434c15.69,0,30.73-13.8,30-30s-13.18-30-30-30c-15.69,0-30.73,13.8-30,30s13.18,30,30,30Z"/><path class="cls-4" d="M3143.72,426c15.69,0,30.73-13.8,30-30s-13.18-30-30-30c-15.69,0-30.73,13.8-30,30s13.18,30,30,30Z"/><path class="cls-4" d="M3119.72,298c15.69,0,30.73-13.8,30-30s-13.18-30-30-30c-15.69,0-30.73,13.8-30,30s13.18,30,30,30Z"/><path class="cls-4" d="M3183.72,330c15.69,0,30.73-13.8,30-30s-13.18-30-30-30c-15.69,0-30.73,13.8-30,30s13.18,30,30,30Z"/><path class="cls-4" d="M3255.72,538c15.69,0,30.73-13.8,30-30s-13.18-30-30-30c-15.69,0-30.73,13.8-30,30s13.18,30,30,30Z"/><path class="cls-4" d="M3367.72,578c15.69,0,30.73-13.8,30-30s-13.18-30-30-30c-15.69,0-30.73,13.8-30,30s13.18,30,30,30Z"/><path class="cls-4" d="M3447.72,442c15.69,0,30.73-13.8,30-30s-13.18-30-30-30c-15.69,0-30.73,13.8-30,30s13.18,30,30,30Z"/><path class="cls-7" d="M199.51,1435.63c16.09,0,16.11-25,0-25s-16.11,25,0,25Z"/><path class="cls-7" d="M247.5,1513.62c16.09,0,16.11-25,0-25s-16.11,25,0,25Z"/><path class="cls-7" d="M343.48,1447.63c16.09,0,16.11-25,0-25s-16.11,25,0,25Z"/><path class="cls-7" d="M481.45,1459.63c16.09,0,16.11-25,0-25s-16.11,25,0,25Z"/><path class="cls-7" d="M529.44,1597.6c16.09,0,16.11-25,0-25s-16.11,25,0,25Z"/><path class="cls-7" d="M631.42,1471.63c16.09,0,16.11-25,0-25s-16.11,25,0,25Z"/><path class="cls-7" d="M823.38,1495.62c16.09,0,16.11-25,0-25s-16.11,25,0,25Z"/><path class="cls-7" d="M925.36,1699.58c16.09,0,16.11-25,0-25s-16.11,25,0,25Z"/><path class="cls-7" d="M1069.34,1447.63c16.09,0,16.11-25,0-25s-16.11,25,0,25Z"/><path class="cls-7" d="M2611,1573.61c16.09,0,16.11-25,0-25s-16.11,25,0,25Z"/><path class="cls-7" d="M2797,1651.59c16.09,0,16.11-25,0-25s-16.11,25,0,25Z"/><path class="cls-7" d="M2983,1501.62c16.09,0,16.11-25,0-25s-16.11,25,0,25Z"/><path class="cls-7" d="M3162.92,1585.6c16.09,0,16.11-25,0-25s-16.11,25,0,25Z"/><path class="cls-7" d="M3042.94,1585.6c16.09,0,16.11-25,0-25s-16.11,25,0,25Z"/><path class="cls-7" d="M3240.9,1585.6c16.09,0,16.11-25,0-25s-16.11,25,0,25Z"/><path class="cls-7" d="M3066.94,1735.57c16.09,0,16.11-25,0-25s-16.11,25,0,25Z"/><path class="cls-7" d="M2971,1789.56c16.09,0,16.11-25,0-25s-16.11,25,0,25Z"/><path class="cls-7" d="M3078.93,1939.53c16.09,0,16.11-25,0-25s-16.11,25,0,25Z"/><path class="cls-7" d="M3246.9,1831.55c16.09,0,16.11-25,0-25s-16.11,25,0,25Z"/><path class="cls-7" d="M3126.92,1867.55c16.09,0,16.11-25,0-25s-16.11,25,0,25Z"/><path class="cls-7" d="M2809,1807.56c16.09,0,16.11-25,0-25s-16.11,25,0,25Z"/><path class="cls-7" d="M3252.9,1471.63c16.09,0,16.11-25,0-25s-16.11,25,0,25Z"/><path class="cls-7" d="M3564.84,1483.62c16.09,0,16.11-25,0-25s-16.11,25,0,25Z"/><path class="cls-7" d="M3382.78,824.63c16.09,0,16.11-25,0-25s-16.11,25,0,25Z"/><path class="cls-7" d="M3058.85,692.65c16.09,0,16.11-25,0-25s-16.11,25,0,25Z"/><path class="cls-7" d="M2950.87,620.67c16.09,0,16.11-25,0-25s-16.11,25,0,25Z"/><path class="cls-7" d="M2974.86,752.64c16.09,0,16.11-25,0-25s-16.11,25,0,25Z"/><path class="cls-7" d="M3166.83,674.66c16.09,0,16.11-25,0-25s-16.11,25,0,25Z"/><path class="cls-7" d="M3148.83,596.67c16.09,0,16.11-25,0-25s-16.11,25,0,25Z"/><path class="cls-7" d="M3142.83,500.69c16.09,0,16.11-25,0-25s-16.11,25,0,25Z"/><path class="cls-7" d="M2968.86,800.63c16.09,0,16.11-25,0-25s-16.11,25,0,25Z"/><path class="cls-7" d="M2992.86,674.66c16.09,0,16.11-25,0-25s-16.11,25,0,25Z"/><path class="cls-7" d="M3738.8,1465.63c16.09,0,16.11-25,0-25s-16.11,25,0,25Z"/><path class="cls-7" d="M3924.76,853.75c16.09,0,16.11-25,0-25s-16.11,25,0,25Z"/><path class="cls-7" d="M3904.68,716.65c16.09,0,16.11-25,0-25s-16.11,25,0,25Z"/><path class="cls-7" d="M4308.69,829.76c16.09,0,16.11-25,0-25s-16.11,25,0,25Z"/><path class="cls-7" d="M4458.66,865.75c16.09,0,16.11-25,0-25s-16.11,25,0,25Z"/><path class="cls-7" d="M4444.57,806.63c16.09,0,16.11-25,0-25s-16.11,25,0,25Z"/><path class="cls-7" d="M943.36,799.76c16.09,0,16.11-25,0-25s-16.11,25,0,25Z"/><path class="cls-7" d="M1057.34,679.79c16.09,0,16.11-25,0-25s-16.11,25,0,25Z"/><path class="cls-7" d="M961.36,643.79c16.09,0,16.11-25,0-25s-16.11,25,0,25Z"/><path class="cls-7" d="M991.35,559.81c16.09,0,16.11-25,0-25s-16.11,25,0,25Z"/><path class="cls-7" d="M1129.32,643.79c16.09,0,16.11-25,0-25s-16.11,25,0,25Z"/><path class="cls-7" d="M1303.29,703.78c16.09,0,16.11-25,0-25s-16.11,25,0,25Z"/><path class="cls-7" d="M1183.31,679.79c16.09,0,16.11-25,0-25s-16.11,25,0,25Z"/><path class="cls-7" d="M1381.27,643.79c16.09,0,16.11-25,0-25s-16.11,25,0,25Z"/><path class="cls-7" d="M1195.31,757.77c16.09,0,16.11-25,0-25s-16.11,25,0,25Z"/><path class="cls-7" d="M1453.26,649.79c16.09,0,16.11-25,0-25s-16.11,25,0,25Z"/><path class="cls-7" d="M1267.3,673.79c16.09,0,16.11-25,0-25s-16.11,25,0,25Z"/><path class="cls-7" d="M1513.25,607.8c16.09,0,16.11-25,0-25s-16.11,25,0,25Z"/><path class="cls-7" d="M1459.26,493.82c16.09,0,16.11-25,0-25s-16.11,25,0,25Z"/><path class="cls-7" d="M1285.29,457.83c16.09,0,16.11-25,0-25s-16.11,25,0,25Z"/><path class="cls-7" d="M1303.29,529.82c16.09,0,16.11-25,0-25s-16.11,25,0,25Z"/><path class="cls-7" d="M1735.2,637.79c16.09,0,16.11-25,0-25s-16.11,25,0,25Z"/><path class="cls-7" d="M1795.19,673.79c16.09,0,16.11-25,0-25s-16.11,25,0,25Z"/><path class="cls-7" d="M1885.17,1597.6c16.09,0,16.11-25,0-25s-16.11,25,0,25Z"/><path class="cls-7" d="M1879.17,1501.62c16.09,0,16.11-25,0-25s-16.11,25,0,25Z"/><path class="cls-7" d="M2065.14,1489.62c16.09,0,16.11-25,0-25s-16.11,25,0,25Z"/><path class="cls-7" d="M2125.12,1579.61c16.09,0,16.11-25,0-25s-16.11,25,0,25Z"/><path class="cls-7" d="M1987.15,1681.58c16.09,0,16.11-25,0-25s-16.11,25,0,25Z"/><path class="cls-7" d="M2167.12,1765.57c16.09,0,16.11-25,0-25s-16.11,25,0,25Z"/><path class="cls-7" d="M2251.1,1651.59c16.09,0,16.11-25,0-25s-16.11,25,0,25Z"/><path class="cls-7" d="M2263.1,1711.58c16.09,0,16.11-25,0-25s-16.11,25,0,25Z"/><path class="cls-7" d="M2053.14,1663.59c16.09,0,16.11-25,0-25s-16.11,25,0,25Z"/><path class="cls-7" d="M2119.13,1735.57c16.09,0,16.11-25,0-25s-16.11,25,0,25Z"/><path class="cls-7" d="M2635,1849.55c16.09,0,16.11-25,0-25s-16.11,25,0,25Z"/><path class="cls-7" d="M2917,1699.58c16.09,0,16.11-25,0-25s-16.11,25,0,25Z"/><path class="cls-7" d="M2977,1771.57c16.09,0,16.11-25,0-25s-16.11,25,0,25Z"/><path class="cls-7" d="M3024.94,1789.56c16.09,0,16.11-25,0-25s-16.11,25,0,25Z"/><path class="cls-7" d="M3394.78,728.65c16.09,0,16.11-25,0-25s-16.11,25,0,25Z"/><path class="cls-7" d="M3562.75,542.68c16.09,0,16.11-25,0-25s-16.11,25,0,25Z"/><path class="cls-7" d="M2477,776.64c16.09,0,16.11-25,0-25s-16.11,25,0,25Z"/><path class="cls-7" d="M2483,596.67c16.09,0,16.11-25,0-25s-16.11,25,0,25Z"/><path class="cls-7" d="M2656.93,668.66c16.09,0,16.11-25,0-25s-16.11,25,0,25Z"/><path class="cls-7" d="M2590.94,758.64c16.09,0,16.11-25,0-25s-16.11,25,0,25Z"/><path class="cls-7" d="M2351,734.65c16.09,0,16.11-25,0-25s-16.11,25,0,25Z"/></svg>