<svg id="Layer_1" data-name="Layer 1" xmlns="http://www.w3.org/2000/svg" viewBox="0 0 4728.6 1931.61"><defs><style>.cls-1{fill:#231f20;}.cls-2{fill:#fff;}</style></defs><title>wagesArtboard 20</title><path class="cls-1" d="M1139.91,740.54a14.1,14.1,0,0,1,3.34-9.42q3.34-3.95,10-4h99.39a20.85,20.85,0,0,1,8.81,2.13,19.27,19.27,0,0,1,7.9,7.29Q1308,798.9,1346,859.38t76.9,122.79V738.72a14.86,14.86,0,0,1,4.86-8.51,12.9,12.9,0,0,1,8.51-3h86.62a16.23,16.23,0,0,1,10.64,3.5q4.25,3.5,4.26,9.88v426.12q0,6.08-3.65,9t-10,2.89h-97a10.13,10.13,0,0,1-7-2.74,47.89,47.89,0,0,1-6.38-7.29l-79.94-132.21q-39.51-65.34-80.24-132.21v261.08q0,6.69-3,10t-10.94,3.34h-86.32q-7,0-10.18-3.8a13.93,13.93,0,0,1-3.19-9.27Z"/><path class="cls-1" d="M1638.06,740.54a14.1,14.1,0,0,1,3.34-9.42q3.34-3.95,10-4h89.36q4.56,0,9.73,3.65a11.35,11.35,0,0,1,5.17,9.73v424.6q0,13.38-14.89,13.37h-89.36q-13.38,0-13.37-13.37Z"/><path class="cls-1" d="M1910.38,1032.63q5.17,4.26,13.22,11.4a177.27,177.27,0,0,0,18.39,14.13,154.22,154.22,0,0,0,30.7,16.11,89,89,0,0,0,31.91,5.78q15.5,0,26-3.49t16.57-9.26a32.82,32.82,0,0,0,8.66-13.36,49.74,49.74,0,0,0,2.58-16.1q0-9.41-7.14-16.85a74.14,74.14,0,0,0-17.48-13.21,149.1,149.1,0,0,0-21.58-9.87q-11.25-4.1-19.45-6.83-36.47-12.75-63.83-27.48t-45.59-32.8A122.8,122.8,0,0,1,1856,891q-9.12-21.71-9.12-48.44,0-28.24,11.4-51.32a112.7,112.7,0,0,1,32.52-39.48q21.12-16.4,50.91-25.35t66.56-9a221.84,221.84,0,0,1,53,6.23,202.08,202.08,0,0,1,50,19.91q10.33,6.08,19.6,12.61a205.65,205.65,0,0,1,16.26,12.61,77.15,77.15,0,0,1,11.09,11.55q4.1,5.47,4.1,9.42a14.09,14.09,0,0,1-2,7.29,46.37,46.37,0,0,1-5.93,7.6l-46.5,49.54q-5.17,5.17-10.33,5.17a13.23,13.23,0,0,1-7.75-2.43,97.93,97.93,0,0,1-7.75-6.08l-2.74-2.43q-6.08-5.17-13.53-10.64a121.14,121.14,0,0,0-16-9.88,107.94,107.94,0,0,0-17.93-7.29,65.06,65.06,0,0,0-19.15-2.89,101.34,101.34,0,0,0-18.84,1.67,52.7,52.7,0,0,0-15.5,5.32,29.46,29.46,0,0,0-10.64,9.57,28,28,0,0,0,.3,29.18q4.25,6.23,12.77,11.55a117.6,117.6,0,0,0,21.12,10q12.61,4.72,29.33,10.18,32.21,10.64,59.42,22.34t47,27.66a114.37,114.37,0,0,1,30.85,38.14q11.09,22.19,11.09,53.8,0,33.44-13.68,60.64a138.64,138.64,0,0,1-37.54,46.35q-23.86,19.15-56.08,29.63t-69.3,10.49a196.46,196.46,0,0,1-68.69-12.49,263.7,263.7,0,0,1-62.92-33.53,162.17,162.17,0,0,1-20.52-17.38q-8.36-8.53-13.22-13.71l-.91-.92a1.71,1.71,0,0,0-.61-.76,2.16,2.16,0,0,1-.61-.46,1.7,1.7,0,0,0-.61-.76,2.25,2.25,0,0,1-.61-.46q-7-7.62-7-12.2,0-5.18,7-11.58l52.58-50.15q6.38-4.56,10.33-4.56a11.29,11.29,0,0,1,5.77,1.82A56.75,56.75,0,0,1,1910.38,1032.63Z"/><path class="cls-1" d="M2231.33,953.3A231,231,0,0,1,2263,835.83a235.4,235.4,0,0,1,36.34-47.26,226.77,226.77,0,0,1,47-36.32,238.6,238.6,0,0,1,55.51-23.4,232.76,232.76,0,0,1,123.63,0,237.93,237.93,0,0,1,55.66,23.4,230.82,230.82,0,0,1,83.49,83.58A241.21,241.21,0,0,1,2688,891.45a232.89,232.89,0,0,1,0,123.7,235.22,235.22,0,0,1-23.42,55.32,228.48,228.48,0,0,1-36.34,46.81,237.59,237.59,0,0,1-47.14,36.32,232.7,232.7,0,0,1-234.8,0,235.57,235.57,0,0,1-83.33-83.13,226.76,226.76,0,0,1-23.42-55.32A230.47,230.47,0,0,1,2231.33,953.3ZM2349,953a129,129,0,0,0,8.5,47.11,116.34,116.34,0,0,0,23.83,38.14,111,111,0,0,0,36.27,25.53q20.94,9.27,46.14,9.27t46.29-9.27a110.62,110.62,0,0,0,36.43-25.53,116.31,116.31,0,0,0,23.83-38.14,134.37,134.37,0,0,0,0-94.07,117.76,117.76,0,0,0-23.83-38.45,111.23,111.23,0,0,0-82.71-35.26q-25.2,0-46.14,9.42a111.93,111.93,0,0,0-36.27,25.83A117.79,117.79,0,0,0,2357.45,906,129.4,129.4,0,0,0,2349,953Z"/><path class="cls-1" d="M2759.88,740.24a13.42,13.42,0,0,1,3.65-9.42q3.65-3.95,10-4h90a14.16,14.16,0,0,1,9.42,3.65,13.1,13.1,0,0,1,4.56,9.73v330.68h167.17a13.42,13.42,0,0,1,9.42,3.65q3.95,3.65,4,10v79.94a14.5,14.5,0,0,1-3.5,9.42q-3.5,4.26-9.88,4.56H2773.25q-13.38,0-13.37-13.37Z"/><path class="cls-1" d="M3095.73,953.3a231,231,0,0,1,31.63-117.47,235.4,235.4,0,0,1,36.34-47.26,226.77,226.77,0,0,1,47-36.32,238.6,238.6,0,0,1,55.51-23.4,232.76,232.76,0,0,1,123.63,0,237.93,237.93,0,0,1,55.66,23.4A230.82,230.82,0,0,1,3529,835.83a241.21,241.21,0,0,1,23.42,55.62,232.89,232.89,0,0,1,0,123.7,235.22,235.22,0,0,1-23.42,55.32,228.48,228.48,0,0,1-36.34,46.81,237.59,237.59,0,0,1-47.14,36.32,232.7,232.7,0,0,1-234.8,0,235.57,235.57,0,0,1-83.33-83.13,226.76,226.76,0,0,1-23.42-55.32A230.47,230.47,0,0,1,3095.73,953.3Zm117.62-.3a129,129,0,0,0,8.5,47.11,116.34,116.34,0,0,0,23.83,38.14,111,111,0,0,0,36.27,25.53q20.94,9.27,46.14,9.27t46.29-9.27a110.62,110.62,0,0,0,36.43-25.53,116.31,116.31,0,0,0,23.83-38.14,134.37,134.37,0,0,0,0-94.07,117.76,117.76,0,0,0-23.83-38.45,111.23,111.23,0,0,0-82.71-35.26q-25.2,0-46.14,9.42a111.93,111.93,0,0,0-36.27,25.83A117.79,117.79,0,0,0,3221.85,906,129.4,129.4,0,0,0,3213.36,953Z"/><path class="cls-2" d="M939.28,653.13a129.88,129.88,0,0,1-3.34,16.41c-1.57,5.9-3.64,12.23-6,19s-5,13.94-7.66,21.6-5.13,15.67-7.52,23.91c-9.62,33-16.86,69.85-24.86,105,3.19-13.5,6.24-27.31,9.47-41.64S906,768.2,910,752.71s8.74-31.66,14.64-48.41S937.15,670.89,939.28,653.13Z"/><path class="cls-2" d="M889.55,840.36l-.24,1.09.57-2.46Z"/><path class="cls-2" d="M3621.44,1366.75c.07-1,.22-2.13.34-3.2s.24-2.17.39-3.3l.44-3.38.5-3.37c.71-4.51,1.53-9.11,2.59-13.71a155.2,155.2,0,0,1,8.88-27.38,154.82,154.82,0,0,0-8.74,26.62c-1,4.58-1.93,9.21-2.66,13.84S3621.86,1362.28,3621.44,1366.75Z"/><path class="cls-2" d="M1415.44,974.36l-4.52,10.14c-20.29,38-31.54,60-38.61,73.59s-9.71,18.82-12.27,23.65-4.85,9.35-11,21.59-15.94,32.26-32.4,68.7l-4.71,10.82-5.55,13c-2,4.68-4.19,9.62-6.35,14.9l-6.89,16.56c-2.44,5.74-4.78,11.78-7.28,18s-5.07,12.53-7.53,19.08l-7.62,19.92-7.57,20.4c-10.1,27.46-19.92,55.78-27.53,82.08-4,14.07-6.25,22-11.57,45.88l-2.92,15.47-1.38,7.42-1,6.67-1.85,12.71-1.63,11.8,1.83-.05c.57,0,1.26,0,1.61,0l2.38,0,2.12,0a8.58,8.58,0,0,0,1.11-.12l1.32-.18,2.24-.34.58-.07,1.9-.3a19,19,0,0,0,5.93-1.82,30.52,30.52,0,0,0,8.2-5.94c.78-.71,1.63-1.69,2.46-2.58.87-1.05,1.73-2,2.64-3.25s1.84-2.51,2.77-3.85,1.9-2.9,2.87-4.55a204.23,204.23,0,0,0,11.17-22.06l2.52-5.72.62-1.4a10.21,10.21,0,0,1,.66-1.33l1.1-1.89c1-1.64,1.85-3.18,2.69-4.57,3.32-5.56,5.42-8.84,4.86-7.76,2.9-5.12,7-11.88,11.92-19.8s10.78-17,17-26.83,12.9-20.44,19.37-31.44c6.42-10.7,12.79-21.54,19.3-31.83,4.6-7.52,2.85-4.8-1,1.18l-6.68,10.57-6.32,10.35q28.48-47.91,61.2-93.28l8.76-11.92c2.59-3.54,4.95-6.54,6.88-9.1,3.9-5.1,6.32-8.22,7-9.07s-.28.58-3.24,4.6-7.93,10.58-14.84,20.23c23.33-32.3,60.6-80.15,110.62-137.16,25-28.5,53.16-59.36,83.88-92s64.09-67,100-102.14,74.58-70.81,115.68-106.18,84.81-70.2,130.81-103.51c45.6-33.49,95.25-62.9,145.73-92.09,25.25-14.6,50.66-29.12,76-44.15,12.85-7.68,24.94-15.68,37.16-22.32a165.51,165.51,0,0,1,18.45-8.74c1.55-.63,3.12-1.14,4.67-1.73l1-.35.26-.08.52-.16.27-.08h0l.09,0c.08,0,.07.19,0,.27l0,.07v0s0-.08,0-.06a12.24,12.24,0,0,1-.81,1.09,22.63,22.63,0,0,1-2.05,2.23,8.06,8.06,0,0,1-.59.56l-1,.91-.84.74a3.63,3.63,0,0,0-.78.8l-1.32,1.85c-7,9.87-14,19.51-21.24,29.07s-14.48,19-21.89,28.29q-5.54,7-11.18,13.85l-5.65,6.85-5.75,6.88c-2,2.3-3.79,4.68-5.67,7l-5.59,7-11.09,14-21.85,27.79q-21.65,27.74-42.6,55.1c-55.77,72.93-107.09,143.79-152.06,209.55-22.55,32.77-43.91,64.1-63.55,93.83s-37.58,57.84-53.54,84-30,50.3-41.9,72.08l-4.43,8c-1.44,2.63-2.8,5.26-4.17,7.82l-7.87,14.84c-5,9.59-9.4,18.5-13.5,26.58l8.2-15.88,4.82-9.35,5.35-10,5.65-10.58c1.91-3.61,4-7.22,6-10.92,4.11-7.36,8.24-14.95,12.59-22.37,17.1-29.87,34.94-58.72,45.24-74.29-22.19,35.73-37.81,62.53-50.21,84.39-6.07,11-11.57,20.64-16.31,29.78l-6.94,13.18c-2.23,4.26-4.27,8.5-6.34,12.66-7.89,14.15-28.81,55.62-47.3,102.67-9.28,23.48-17.92,48.28-25,71.13-1.79,5.71-3.48,11.3-5.08,16.71l-1.18,4-.56,1.89s0,0,0,0,0,.05,0,0l0-.11-.12.26c-.64,1.39-1.31,2.73-1.9,4.12l-1.68,4.17a74.77,74.77,0,0,0-4.16,16.92,59.23,59.23,0,0,0,.16,16,60.44,60.44,0,0,0,4.57,14.33c.54,1.12,1.13,2.2,1.69,3.29l.43.82.22.41.39.6,1.57,2.42,1.56,2.41c.27.39.5.81.8,1.19l.88,1.11,3.52,4.41,3,3.83,1.53,1.92.76,1c.05.14.16,0,.25,0l.27-.13.53-.26c2.85-1.41,5.69-2.75,8.57-4.23l13.24-7.44,19.37-10.82.76-.77,43.9-45.07,9.26-9.51,4.42-4.54,4.23-4.53,8.05-8.65,7.4-8.12c19-21,32.36-36.51,42.27-48,19.73-23.07,25.62-30.16,30.75-36.18l25.59-30.15c8.1-9.53,19.15-22.58,34.94-40.79,3.93-4.57,8.22-9.4,12.79-14.63l14.82-16.65c10.64-11.85,22.68-25.21,36.44-40.17,31.82-34.66,60.32-63.78,86.88-88.46s50.85-45.92,73.23-65.16,43.06-36.52,63.18-53.19l29.95-24.69c10-8.18,19.95-16.38,30.12-24.61l-11.46,9.27L2244,936c-4.9,3.89-3.58,2.6,15.28-13,3.4-2.41,28.43-23.14,55.46-44.4l20.3-15.82,19.07-14.54L2370,836.52c4.5-3.35,8.2-5.9,10.63-7.61,9.62-7.05,24.71-17.94,41.48-29.51l12.79-8.82,13.07-8.76,6.48-4.35,6.44-4.19,12.38-8.05c8-5.14,15.41-9.74,21.59-13.67l14.64-9c6.68-4.15,6.49-4.19-4.79,2.41l12.4-7.34,18.18-10.46c13.31-7.55,28.29-15.8,40.45-22.14l8.46-4.47,7-3.6c4-2.08,6.77-3.45,7.58-3.84s-.28.22-3.85,2.12-9.68,5.08-18.65,10l7.66-4.09,7.7-4,15.23-7.9c10.05-5.2,19.9-10.19,29.41-15,19-9.49,36.68-17.94,51.86-24.78-18.11,8-36,16.59-53.85,25.44,35.08-17.62,66.63-32,96-43.2,3.68-1.37,7.3-2.78,10.91-4.07l5.38-1.92,2.67-1,.56-.2c.21-.08.43-.14.63-.24l1-.46,1.21-.54a132.61,132.61,0,0,1,19.47-6.9q4.88-1.31,9.75-2.22c1.63-.29,3.25-.57,4.86-.81.81-.13,1.62-.22,2.43-.34l1.21-.15,2-.23,1.22-.14.61-.07c.19,0,.44,0,.56-.12l1.82-.91,1.81-.91.89-.37.84-.36.8-.26.79-.27.74-.17a8.27,8.27,0,0,1,4.61,0,4,4,0,0,0,.46.14c.15.08.3.16.45.23a6.47,6.47,0,0,1,.95.53c.33.19.65.52,1,.74.17.15.33.33.51.49l.18.17.1.08a4.41,4.41,0,0,1,.37.46l.16.25a4.67,4.67,0,0,1-.16.48l-.35,1-1.67,4-.86,2.09-1,2-1.91,4.05a153.77,153.77,0,0,1-9,15.32c-3.33,4.88-6.82,9.64-10.66,14.24-7.58,9.24-16,18.07-24.61,27.15l-13,13.75q-6.44,6.89-13.05,13.84c6.78-7,13.39-13.91,20.18-21s13.55-14,20-21c-7.82,8.52-15.9,16.79-23.69,25.07s-15.25,16.06-22.62,23.67c-14.74,15.22-28.7,29.33-41.45,42.14-25.52,25.6-46.1,46.14-59.32,59.23,22.56-23.27,45.39-46.19,68-69.19-27.49,27.8-52.48,52.76-75.41,76.54-11.47,11.88-22.45,23.45-33,34.87S2567.07,883,2557.07,894c-20,22.08-39.34,43.73-58.81,66.21s-39.23,45.68-59.92,71.05l14.91-18,15.07-17.86c-13.4,16-33.83,40.45-58.78,71.91-6.22,7.88-12.79,16.14-19.49,24.9l-10.32,13.37-10.57,14c-7.23,9.49-14.48,19.5-22,29.77-3.79,5.12-7.49,10.44-11.32,15.76s-7.72,10.72-11.53,16.28l-11.67,16.82c-3.92,5.68-7.77,11.52-11.73,17.36l-5.94,8.83-5.91,8.94c-4,6-8,12-11.94,18.21-8,12.3-16,24.93-23.87,38s-15.43,26.6-22.53,40.63a461,461,0,0,0-19.44,43.62l-2.11,5.67c-.7,1.89-1.43,3.78-2,5.71l-1.93,5.77-1,2.89-.48,1.44-.12.37-.15.57-.3,1.15c-1.6,6.11-3.27,12.24-4.82,18.34,3,1.72,6,3.49,9,5.09l2.25,1.23c.76.4,1.61.68,2.41,1l2.44,1a18.21,18.21,0,0,0,2.43.89l2,.54c.61.15,1.22.33,1.84.46q1.9.32,3.81.61c1.29.13,2.59.17,3.89.24a15.11,15.11,0,0,0,2,0l2-.11a43,43,0,0,0,14.74-4.07,55,55,0,0,0,12-7.86c.87-.76,1.78-1.49,2.61-2.27l2.44-2.37c.83-.78,1.56-1.62,2.32-2.44l.86-.95a.82.82,0,0,1,.21-.21l4.34-2.85,5.08-3.42q5.07-3.43,10.06-7,10-7.07,19.69-14.6c12.94-10,25.42-20.54,37.45-31.51,3-2.76,6-5.52,8.91-8.33,1.5-1.41,2.91-2.79,4.32-4.16s2.8-2.78,4.3-4.09l17.59-16c23.52-21.45,46.55-42.84,69-63.71,45-41.77,87.85-81.39,127.63-115.92,19.88-17.27,38.89-33.38,56.86-48s34.77-27.89,50.13-39.59c30.64-23.51,55.26-41.05,70.84-52-19.32,13.25-38.47,26.75-57.31,40.69l13.12-9.86,13.23-9.71c4.4-3.26,8.84-6.44,13.3-9.61s8.88-6.39,13.36-9.52q26.84-18.89,54.29-36.88c-3.25,2.13-8.12,5.47-13.77,9.38-2.83,1.94-5.84,4.07-8.91,6.28l-9.41,6.74-4.71,3.37-4.57,3.35-8.52,6.22c-5.32,3.83-9.68,7-12.36,8.9,19.73-13.95,46.82-32.6,80.66-54.08,17-10.68,35.53-22.18,55.8-34s42.07-24.14,65.5-36.47,48.3-25.44,74.26-38.77,53.17-26.94,81.6-40.29,58.07-26.48,88.93-38.71c3.84-1.57,7.74-3,11.64-4.52l11.74-4.48,11.88-4.28,5.64-2c.64-.24,1.18-.41,1.77-.61l3.5-1.18.88-.3a2.32,2.32,0,0,1,.28.86,4.68,4.68,0,0,1-.17,1.84,13.8,13.8,0,0,1-1.56,3.38l-.5.79-1,1.52c-1.16,1.66-2.39,3.31-3.65,5A250.77,250.77,0,0,1,3212,777.57c-5.94,6.24-12.15,12.34-18.54,18.32l-2.41,2.25c-.84.79-1.55,1.4-2.7,2.56l-4.7,4.7-9.43,9.43c-6.39,6.21-12.73,12.51-19.26,18.68-25.93,24.85-53,49.32-80.27,74s-54.87,49.66-81.78,75.57c-6.76,6.44-13.41,13-20.07,19.58-3.34,3.28-6.6,6.64-9.9,10l-9.83,10-39,39.87c-52,53.09-103.48,106.64-149.45,162.61-2.89,3.48-5.68,7-8.51,10.55s-5.66,7-8.44,10.55l-8.22,10.67c-2.73,3.55-5.5,7.06-8.12,10.68l-7.94,10.76c-1.31,1.79-2.65,3.57-3.94,5.37l-3.82,5.44L2708,1300l-3.71,5.32-3.72,5.24c-10.06,14-20.8,27.89-29.65,43.39a132.71,132.71,0,0,0-11.21,24.65,90.4,90.4,0,0,0-3.31,13.48l-.26,1.73-.15,1-.12,1.32c-.12,1.76-.34,3.53-.39,5.27l-.07,5.2v5.23c3,1.16,6.09,2.24,9.1,3.3,1.53.51,3.14.88,4.71,1.33a22.42,22.42,0,0,0,2.41.55l2,.37a54.08,54.08,0,0,0,13.68.44,60,60,0,0,0,25-8.52c13.2-7.85,26-15.71,38.51-23.65,25-15.87,48.83-32,71.35-48.08l8.38-6,8.12-5.92,16.48-11,32.35-21.36,60.39-39.55c38.17-25,71.82-47.36,100-66.66,14-9.64,26.78-18.58,38-26.41s21.06-14.76,29.45-20.5l25.57-17.47c6.37-4.31,10.76-7.19,13.54-9,5.58-3.66,4.85-3,1.36-.56l-15.13,10.6-10.21,7.22c52.64-36.22,64.22-43.68,73.59-50.16,4.7-3.22,8.94-6,17.69-11.78l17.11-11.21c7.25-4.74,16.33-10.47,27.77-17.78,25-15.87-4.94,3.68-18.95,12.72l29-18.55,25.2-15.69c7.38-4.64,13.66-8.43,18.26-11.25s7.52-4.63,8.26-5.16L3302,1017.92c-5.48,3.3-8.28,4.9-10.17,5.92-3.78,2.05-3.93,1.8-14.74,8.28q59.11-37.24,119.7-72l-5.15,3.47,23.89-13.85,15.89-9,9.24-5.25c3.24-1.84,6.64-3.79,10.27-5.74l24-13.11,6.78-3.69,7.17-3.75,15.4-8,8.25-4.3,4.27-2.22,4.4-2.2,18.63-9.28c6.49-3.22,13.24-6.63,20.38-10l13-6.18c4.44-2.1,8.93-4.06,13.38-6.1l1.67-.76.42-.19.05,0,0,0-.08.09-.16.17-.64.68-2.55,2.73-5.13,5.41-5.62,5.81-10.08,10.31-28.91,29.29c-19.38,19.56-38.9,39.25-58.2,59.32-9.63,10.06-19.24,20.17-28.7,30.46l-7.1,7.72-7,7.8c-4.71,5.2-9.3,10.4-13.95,15.6-18.54,20.81-37.08,41.69-55.34,62.8q-13.7,15.83-27.15,31.85l-26.66,32c-17.68,21.45-35,43.4-50.06,67-3.72,5.93-7.37,11.9-10.75,18l-2.6,4.72a7.85,7.85,0,0,0-.45.94l-.29.68-.51,1.18-1,2.35-4.06,9.39-16.82,38.9.42,30.4.11,8.08c-.35,2,1,3.52,1.85,5.38l1.12,2.11,1.14,1.75a41.86,41.86,0,0,0,11.74,12c-.16-.09-.42-.23-.74-.44l-1.16-.85a31.09,31.09,0,0,1-3.49-2.87c-.67-.64-1.42-1.33-2.18-2.11l-2.26-2.67c-.2-.24-.41-.48-.6-.73l-.54-.79-1.13-1.66c-.37-.58-.81-1.15-1.14-1.77l-1.29-2.41-1.53-2.88c-.05-1.07,0-2.18-.08-3.31l-.09-4.8-.18-9.28-.42-23.18L3243,1262l-18.65,43.15c.16,11.86.32,23.91.47,35.2q0,1.48,0,2.95l0,1.68,0,.84.39.74,1.6,3.07.67,1.27a10.36,10.36,0,0,0,.58,1c.87,1.32,1.7,2.63,2.61,3.88s1.95,2.41,3,3.54a42.58,42.58,0,0,0,13.77,9.83,44,44,0,0,1-5.07-2.75l-2-1.28c-.59-.42-1.11-.86-1.6-1.24-1-.78-1.77-1.37-2.34-1.94l-1.26-1.25c-.55-.56-.54-.58-.07-.15l1.05,1c.23.21.48.46.78.71l1,.78a43.7,43.7,0,0,0,14,7.56,63.66,63.66,0,0,0,20.92,2.79c1.8-.09,3.62-.12,5.38-.32l2.65-.25,2.6-.35,1.29-.18,1.29-.25,2.56-.5c.84-.17,1.69-.32,2.49-.52l2.36-.63a121.31,121.31,0,0,0,15-5.12c1.79-.76,3.19-1.4,4.15-1.82l1.4-.64-1.92.81c-1.26.53-3.14,1.4-5.88,2.41a227.18,227.18,0,0,0,30.15-15.18c9.74-5.66,19.24-11.8,28.8-17.79,9.42-5.89,19.49-11.82,29.34-18s19.75-12.61,29.62-19.15c39.46-26.19,78.63-54.68,117.62-82.18s77.23-55,114.33-79.45c9.27-6.14,18.46-12,27.58-17.8s18-11.65,26.79-17a262.64,262.64,0,0,1,26.08-14.22,126.7,126.7,0,0,1,25.9-9c.73-.28,2.51-.65,5.22-1.27.68-.16,1.42-.33,2.17-.43s1.6-.29,2.45-.38l1.3-.13a12.53,12.53,0,0,1,1.33-.1l1.31,0h1a6.71,6.71,0,0,1,3.88,1.17,5.24,5.24,0,0,1,1.82,4.43,10.58,10.58,0,0,1-.09,1.4,7.37,7.37,0,0,1-.15.88l-.2,1a40.81,40.81,0,0,1-1.39,4.45,77.69,77.69,0,0,1-4.43,9.59,194.14,194.14,0,0,1-13.1,20.5c-5,7.13-10.31,14.55-15.86,22.14-11.08,15.2-23.06,31.12-34.87,47s-23.42,31.78-33.82,46.87-19.62,29.37-27,41.82c-1.9,3.08-3.57,6.11-5.21,9s-3.22,5.58-4.5,8c-2.63,5-4.65,9.43-6.17,13.14-.75,1.85-1.38,3.52-1.92,5L3633,1314a19.11,19.11,0,0,0-.85,3.16,166.39,166.39,0,0,0-8.68,31.24l-.67,3.9-.58,3.88c-.36,2.57-.72,5.2-1,7.66a102.68,102.68,0,0,0-.78,13.66,41.43,41.43,0,0,0,5.07,19.62,101.16,101.16,0,0,0,7.86,12.22c-.76-1.15-2.35-3.23-4.16-6.07a63,63,0,0,1-5.65-10.56,40.93,40.93,0,0,1-3-14.52c-.24-5.7.5-12.58,1.48-19.94a174,174,0,0,1,11.05-43.17,152.13,152.13,0,0,1,9.37-19c1.69-2.93,3.42-5.68,5.27-8.49l5.15-7.94,4.17-7.2,2.85-4.17,2.77-3.9,5.09-7.14c3.28-4.43,6.12-8.34,8.7-11.74l6.78-8.88,5.12-6.52c5.79-7.38,7.9-9.8,9.87-12.2l42.78-51.52c1-1.05-2.23,3.05-8.59,10.83s-15.84,19.22-27,33-24,29.94-36.71,47.4c-6.3,8.76-12.68,17.79-18.68,27.08-1.49,2.31-3.06,4.66-4.49,6.93l-2.07,3.38-2,3.42a153.54,153.54,0,0,0-6.93,14c1.85-4.27,3.89-8.46,6.15-12.54.54-1,1.13-2,1.72-3s1.15-2,1.78-3l1.84-3,2-3.06c2.67-4.07,5.28-8.14,8-12.09l4.07-5.93c1.36-2,2.77-3.89,4.15-5.82,11-15.43,22.3-29.88,32.88-43.07s20.48-25.11,29-35.38,15.55-18.88,20.65-25.3c12.08-14.55,17.72-21.54,20.4-24.77s2.38-2.74,2.39-2.62.08,0,.64-.63,1.6-1.92,3.53-4.31l3.61-4.51c1.46-1.82,3.26-4.15,5.3-6.93s4.39-6.08,6.94-10.16c1.28-2,2.61-4.28,4-6.79a71.9,71.9,0,0,0,4-8.68c.23-.57.44-1.22.65-1.85s.42-1.2.62-2l.58-2.25c.2-.95.38-2,.52-3a29.94,29.94,0,0,0,.22-3c0-.51.07-1,.05-1.53l-.1-1.51-.15-1.51-.32-1.47-.33-1.47c-.15-.48-.34-.94-.51-1.41a19.05,19.05,0,0,0-7.29-9.4c-.42-.29-.82-.6-1.25-.88l-1.37-.72a14.77,14.77,0,0,0-2.87-1.21c-1-.31-2-.65-3-.95s-2.1-.41-3.17-.56c-.51-.07-1.11-.16-1.55-.19l-1.18-.06-2.36-.09c-1.45,0-2.8.08-4.2.15l-4,.41-3.72.61c-1.24.22-2.5.39-3.72.66l-3.67.85c-2.48.52-4.84,1.29-7.26,2a167,167,0,0,0-27.59,11.51c-8.83,4.55-17.34,9.62-25.67,14.83-4.17,2.6-8.28,5.25-12.38,7.88l-12.23,7.82q-12.44,7.89-24.7,16c-16.33,10.74-32.3,21.65-47.65,32.22l1-.83c-18.64,12.87-36,25.17-52.51,36.87l-47.21,33.51c-30.08,21.43-57.7,41.12-85.43,59.59-13.87,9.23-27.75,18.16-42,26.83-7,4.23-14.63,8.84-21.8,13.4s-14.44,9.09-21.79,13.39a244.46,244.46,0,0,1-22.52,11.87,99.34,99.34,0,0,1-23.33,7.67c-8.08,1.34-16.49,1.46-23.39-.6a24.93,24.93,0,0,1-9-4.69,6.22,6.22,0,0,1-.92-.84l-.9-.87c-.6-.59-1.08-1.31-1.65-1.94s-1-1.47-1.48-2.19a3.2,3.2,0,0,1-.35-.58l-.25-.49.06.13c0,.06-.08-.2,0-.08l.37.71.44.63.86,1.27a10.08,10.08,0,0,0,.95,1.16c.33.37.63.77,1,1.13s.72.65,1.07,1l.52.51c.18.16.39.29.58.44q.58.43,1.15.88a22.85,22.85,0,0,1-5.43-5.7l-.6-.91-.31-.46c-.1-.16-.18-.34-.27-.51l-.13-.26c0-.08,0,0,0,0l0,.09c0,.09,0,0,0,0v-.5l0-3.45-.36-27.66,18.75-43.4,1.32-3.05.66-1.53a3.3,3.3,0,0,1,.29-.62l3.14-5.69c1-1.91,2.2-3.79,3.31-5.7l1.69-2.87,1.77-2.85c2.32-3.83,4.84-7.61,7.34-11.45s5.18-7.63,7.91-11.43c10.83-15.25,22.93-30.42,35.4-45.55,6.24-7.57,12.59-15.13,18.93-22.72s12.59-15,18.92-22.41c-9.72,11.34-18.69,22-20.33,23.77-.8.88.27-.5,4.06-5.12s10.26-12.44,20.48-24.42c19.63-22.84,38.07-43.61,55.42-63.11l25.27-28.3c4.08-4.53,8.1-9,12.16-13.36l6-6.52,6-6.4c31.86-33.92,62.14-64,93.36-95.36l14.82-15.25,23.48-24.43,13.78-14.69,6.86-7.32,6.67-7.2,26.69-28.82,5.79-6.21,2.94-3.15.72-.78-1,.44-2,.89-16.16,7.28-34.17,15.4-18,8.12-9.2,4.19-4.66,2.12c-1.56.71-3.11,1.41-4.74,2.2l-29.52,14.05c-3.55,1.66-7.11,3.44-10.72,5.24l-11,5.46-11.28,5.6c-3.81,1.89-7.67,3.79-11.53,5.81-15.47,8-31.76,16.29-48.5,25.41-16.86,8.91-34.16,18.65-52.18,28.64-17.87,10.24-36.45,20.78-55.36,32.09-37.93,22.47-77.8,47.14-119.16,73.89s-84.22,55.6-128.3,86.2l-33.28,23.27-16.77,11.74-17,11.72q-34.21,23.44-70,47l-72.7,47.7-37.05,24.41L2835,1304.53l-4.74,3.16-2.37,1.58-2.31,1.68-9.18,6.68q-36.26,26.21-74.78,50.73-19.23,12.22-39,24c-1.47.91-2.83,1.62-4.25,2.31s-2.83,1.27-4.26,1.79a36.12,36.12,0,0,1-8.67,2,34.59,34.59,0,0,1-8.8-.28l-.75-.13-.23-.06a3.38,3.38,0,0,1-.45-.16c0-.17,0-.35,0-.52l0-.26.3-2a71.24,71.24,0,0,1,2.64-10.63,114.46,114.46,0,0,1,9.64-21c7.92-13.87,18.05-27.13,28.16-41.13l3.79-5.32,3.72-5.34,7.28-10.37c4.78-7,9.9-13.72,14.9-20.55l3.77-5.11,3.88-5,7.77-10.08c2.56-3.38,5.26-6.67,7.91-10l8-9.95c43-52.78,90.34-102.43,137.82-151.17l35.63-36.42,17.75-18.15c5.91-6,11.75-11.93,17.66-17.85,23.71-23.52,48-46.17,72.29-68.35s48.59-43.94,72.29-65.72,46.78-43.64,68.78-65.83l2.07-2.07.52-.52.26-.26c-2-2.09,4.74,4.31-4.31-4.75,8.46,8.44,2.82,2.93,4.58,4.49l.21-.19.5-.46,4.28-4q4.3-4,8.5-8.17c5.6-5.51,11.05-11.13,16.32-17a216.64,216.64,0,0,0,15.09-18.48l.88-1.24.94-1.36c1-1.45,2-2.95,2.86-4.45a66.21,66.21,0,0,0,4.7-9.05,39.7,39.7,0,0,0,2.6-8.63,25.07,25.07,0,0,0,.18-7.59,19.81,19.81,0,0,0-.74-3.44c-.36-1.11-.82-2.17-1.32-3.31l-.77-1.73-.41-.9-.21-.46c0-.24-.29,0-.42-.06l-3.9.57-15.55,2.25-7.74,1.12-1,.14a4.22,4.22,0,0,0-1,.22c-.81.28-1.64.55-2.41.83l-3.21,1.16-10.36,3.73c-13.74,5-27.18,10.24-40.35,15.58-52.64,21.43-100.7,44.74-144.55,66.9-21.92,11.09-42.78,21.95-62.57,32.32-9.91,5.2-19.51,10.22-28.9,15.22l-13.87,7.42c-4.57,2.42-9,4.94-13.39,7.34-35.12,19.38-65.21,37.47-89.93,53l14.12-8.86c-69,42.47-144.1,95.42-221.11,158.68q-28.85,23.77-58,49.36T2493.17,1183c-39.42,36-79.46,73.57-121,111.43l-7.79,7.11-7.92,7.16-7.94,7.19-2,1.81-1.94,1.88-3.87,3.74q-7.58,7.24-15.45,14.26c-5.27,4.65-10.6,9.25-16.05,13.75q-16.35,13.48-33.83,25.86c-5.83,4.11-11.73,8.16-17.74,12.06l-1.43.93-1.08.72a3.51,3.51,0,0,0-1,.8l-2.52,2.75c-1.06,1.23-2.21,2.23-3.32,3.35a43.64,43.64,0,0,1-7,5.38,25.13,25.13,0,0,1-7.22,3.14,21.53,21.53,0,0,1-7.24.55q-.92-.17-1.85-.3c-.62-.07-1.24-.33-1.87-.46a2.68,2.68,0,0,1-.53-.15,3.49,3.49,0,0,1-.33-.13,5.7,5.7,0,0,1-.64-.33l-.16-.09a1.86,1.86,0,0,1,.09-.37l.23-.79.47-1.59.23-.8.07-.23.21-.64.43-1.28,3.44-10.24,3.79-10.16c1.3-3.38,2.73-6.71,4.09-10.08,11.28-26.79,25.48-52.69,41.17-78.08,7.84-12.71,16-25.32,24.33-38l12.56-19,12.7-18.83q25.69-37.55,53.1-74.35t56.41-72.66c19.23-24,39-47.6,59-71s40.4-46.59,61-69.51c10.27-11.49,20.67-22.85,31-34.23l15.64-17c5.23-5.63,10.42-11.24,15.71-16.79,42.12-44.55,86.06-87.28,128.36-131.11,10.59-10.95,21-22.07,31.36-32.91,5.22-5.47,10.47-11,15.64-16.72s10.25-11.68,15-18a177.49,177.49,0,0,0,13.09-19.95l2.8-5.3c.93-1.77,1.73-3.6,2.59-5.4.41-.91.87-1.8,1.25-2.72l1.14-2.76,1.14-2.76.28-.69a8.28,8.28,0,0,0,.32-.84l.76-2.31,3.06-9.21c.26-.39.05-.75-.23-1.1l-.69-1.07-1.38-2.14-2.86-4.19c-1.11-1.28-2.19-2.67-3.33-3.87l-1.54-1.46a17.51,17.51,0,0,0-1.56-1.3c-.55-.42-1.08-.84-1.65-1.24l-1.82-1.13c-.31-.18-.61-.37-.92-.54l-1-.48c-.66-.31-1.33-.62-2-.9a28.85,28.85,0,0,0-4.26-1.25c-.72-.14-1.45-.3-2.18-.39s-1.45-.13-2.17-.18a16.31,16.31,0,0,0-2.13,0c-.7,0-1.41,0-2.1.1l-2,.27-1,.15-1,.21a31.94,31.94,0,0,0-3.68,1l-1.76.59-1.65.68-.82.35c-.22.1-.67.28-.68.3l-.57.29-.29.14c-.08,0-.23.13-.24.11l-.23,0-1,.12-1.47.2c-1,.13-2,.27-2.94.43-2,.3-3.9.64-5.84,1q-5.82,1.13-11.54,2.72a153.13,153.13,0,0,0-22.17,8.06l-.89.4-.84.3-2.62.94-5.24,1.88c-3.5,1.25-6.94,2.6-10.41,3.9q-10.36,4-20.55,8.21c-27.17,11.28-53.39,23.79-79,36.64s-50.49,25.89-75.14,39.34l-18.27,10.22-18,10.45-4.47,2.6-4.42,2.67-8.82,5.33-8.78,5.32-8.66,5.43c-11.58,7.16-22.87,14.57-34.11,21.86l-16.63,11.14-4.14,2.77-4.09,2.82-8.15,5.62q-32.5,22.51-63,45.41t-59.13,45.66l-7.15,5.66-7.06,5.69-14,11.29-27.31,22.39c-35.86,29.51-70,57.67-101.76,84.8-19.74,16.65-41.14,35.18-63.13,55-11,9.9-22.17,20.29-33.19,31s-22,21.72-32.8,32.9c-21.62,22.36-42.67,45.38-62.82,67.74-5,5.6-10,11.11-14.94,16.66l-7.34,8.25-7.18,8.19c-9.52,10.85-18.64,21.49-27.4,31.72l12.29-14.24,7.86-9c3.82-4.33,4.93-5.48,3.82-4.14-2.2,2.71-13.2,15.48-28.33,33.29-23.92,28.17-42.43,50.26-57.14,67.44s-25.46,29.52-33.42,38.51c-15.93,18-20.41,22.71-22.78,25.42s-2.79,3.21-11.05,12.12c-1,1.11-2.16,2.37-3.51,3.75l-4.48,4.62-12.08,12.43-39.08,40.11-22.54,12.88-.49.28c-.16.08-.35.28-.45,0s-.5-.6-.73-.94l-.35-.51-.35-.59-.09-.15,0-.07,0,0-.06-.12-.49-1c-.32-.67-.69-1.32-1-2a36.81,36.81,0,0,1-3-18.33,53.75,53.75,0,0,1,3.92-15.57c.49-1.35,1.17-2.69,1.78-4.05l.87-1.89.55-1.92.69-2.43q1.38-4.88,2.89-9.93c4-13.46,8.55-27.79,13.78-42.88s11.13-30.93,17.82-47.39q5-12.35,10.61-25.14c3.75-8.53,7.77-17.17,11.78-26,16.41-35.28,36.07-72.6,58.45-111.43s47.69-79.08,75-120.58,56.7-84.19,87.06-128,62.57-88.17,96-132.83,68.15-89.62,103.66-134.48l13.29-16.73c2.19-2.82,4.5-5.49,6.78-8.22l6.92-8.35q13.78-16.75,27-34T2229.21,548l3.16-4.43.95-1.33.28-.24c.37-.33.8-.69,1.19-1.07a44.82,44.82,0,0,0,4.57-5c.36-.47.72-.91,1.06-1.4l.52-.78.69-1a23.09,23.09,0,0,0,1.14-2.08c.35-.7.73-1.39,1.05-2.1a32,32,0,0,0,1.5-4.36c.17-.74.43-1.47.52-2.21l.32-2.21a30.43,30.43,0,0,0-.32-8.57c-.06-.34-.1-.69-.17-1l-.25-1c-.17-.66-.32-1.34-.52-2-.45-1.27-.86-2.55-1.35-3.82s-1-2.55-1.47-3.86l-.38-1a4.45,4.45,0,0,0-.42-.73l-.87-1.36c-2.94.61-5.93,1.17-8.82,1.84l-4.36,1c-1.45.33-3,.61-4.26,1l-4.05,1.2-2,.6c-.66.2-1.44.41-1.78.55l-5.29,1.92a182.64,182.64,0,0,0-20,9.34c-12.83,6.88-24.68,14.63-36.45,21.77l-4.41,2.65-4.5,2.65-9,5.3-18,10.49-36,20.8c-47.95,27.69-95.45,55.5-139.62,86.64-5.57,3.85-10.95,7.83-16.36,11.76l-16.17,11.77-15.86,12-7.89,6-3.93,3-3.87,3-15.43,12.09-7.67,6-7.54,6.12-15,12.17c-2.5,2-5,4.06-7.4,6.12l-7.33,6.14c-39,32.65-75.58,65.55-109.66,97.82-68.16,64.56-126.46,126.4-175,179.48-24.24,26.6-45.9,51.19-64.7,73.31l-6.94,8.15-6.63,8c-4.33,5.21-8.55,10.21-12.5,15.1l-11.42,14-10.29,13c-36,46-72.8,97.51-105.86,153.26-4.21,7-8.16,13.82-12.34,20.65s-8.45,13.63-12.78,20.45c-8.66,13.65-17.53,27.34-26.08,41.38-2.13,3.51-4.26,7-6.34,10.59-1.05,1.77-2.08,3.56-3.11,5.35l-.75,1.3c-.12.2-.2.42-.3.64-.74,1.72-1.5,3.44-2.38,5.09a15,15,0,0,1-3.28,4.51,2.67,2.67,0,0,1-1.25.58s-.14,0-.15,0l0-.17,0-.35.1-.69c.12-.92.25-1.84.41-2.75.33-2.07.74-4.12,1.18-6.16l.16-.76.27-1.15.6-2.53.36-1.49.83-3.2,1.65-6.4c4.5-17,9.63-33.72,15.05-50.09s11.14-32.41,16.89-48.14c2.88-7.85,5.73-15.68,8.64-23.31s5.76-15.21,8.66-22.65c-2.14,5.55-4.17,11.14-6.26,16.71,2.6-6.79,5.59-14.81,9.28-23.86l5.79-14.42c2.07-5.06,4.33-10.36,6.66-15.93s4.76-11.39,7.42-17.4l8.22-18.78,9.08-20.06c3.13-6.9,6.5-14,9.89-21.27,13.72-29.14,29.6-61.29,47.36-95.71s37.36-71.14,58.23-109.58c10.44-19.18,21.09-39,32.19-58.69,2.72-5,5.66-9.85,8.52-14.81s5.72-9.94,8.72-14.87c6-9.88,11.93-19.88,18.2-29.8,24.75-39.86,51.74-79.94,79.1-120.49s55.17-81.56,81.42-123.39l4.94-7.83L1694,565l9.65-15.77c6.37-10.64,12.53-21.42,18.18-32.51a344.56,344.56,0,0,0,15.33-34.06c1.14-2.9,2.18-5.84,3.21-8.78.54-1.46,1-3,1.49-4.43l.72-2.22.36-1.11.18-.56c.06-.19.11-.33.21-.68l2-7.27,1-3.63.89-3.76,1.77-7.53,1.73-7.61-2.68-1.14a1.67,1.67,0,0,0-.37-.13l-.52-.1-1-.19-2-.35a67.32,67.32,0,0,0-7.76-1,38.8,38.8,0,0,0-17.27,3.93c-.75.31-1.49.71-2.23,1.08s-1.49.73-2.21,1.17l-2.18,1.24-1.52.93c-1.77,1.12-3.49,2.26-5.14,3.44-3.31,2.34-6.43,4.77-9.43,7.18s-5.89,4.81-8.65,7l-2,1.56-2.27,1.7-4.52,3.39c-6,4.54-11.89,9.15-17.71,13.79-23.24,18.58-45,37.81-65.7,56.88-41.26,38.07-79,75-112.28,109.53-16.65,17.22-32.13,33.86-46.42,49.65-7.18,7.86-14,15.59-20.54,23-3.28,3.71-6.43,7.4-9.55,11s-6.18,7.1-9.1,10.6c-5.89,7-11.53,13.58-16.76,20l-7.68,9.31-7.15,8.88-6.71,8.36-6.2,7.91c-2,2.54-3.85,5-5.66,7.39s-3.54,4.64-5.15,6.83c3-4,6.11-8,9.16-12l9.36-11.84c-15.2,19.2-27.52,36.18-38.07,51.06s-19.26,27.75-26.9,39c-15.26,22.58-26.15,38.92-36.48,54.06-5.16,7.57-10.17,14.85-15.47,22.47s-10.93,15.52-17.36,24.41-13.67,18.74-22.14,30.23-18.18,24.61-29.39,40.18c3.11-4-.65,1.5-8.5,12.88-1.95,2.87-4.18,6-6.57,9.64s-5,7.5-7.75,11.71-5.57,8.68-8.45,13.39-5.93,9.61-8.93,14.69c-12.16,20.27-25,43-37.54,63.41l-4.65,7.58-4.63,7.3c-3,4.83-6.09,9.33-9,13.69-.73,1.08-1.42,2.17-2.15,3.21l-2.15,3.07-4.12,5.86c-1.31,1.91-2.64,3.68-3.92,5.38l-3.67,4.89,1.27-2-2.68,3.58-1.38,1.84-1.47,1.82-6.12,7.6c-1,1.33-2.17,2.58-3.31,3.89l-2.84,3.25-1,1.2-1.12,1.18-1.16,1.22-.3.31-.15.16c0,.05-.1.13-.15,0a5.41,5.41,0,0,1-.59-.62,6.54,6.54,0,0,1-1.25-3.26,12.12,12.12,0,0,1-.09-1.84v-.47l0-.53,0-.31,0-.46.15-1.46c.47-3.92,1.24-8,2.18-12.31s2-8.68,3.08-13.5l.38-1.84.35-1.84.65-3.4c.41-2.27.91-4.56,1.39-6.86,1.94-9.19,4.31-18.58,7-28.13,5.32-19.11,12-38.86,18.79-59.21,13.58-40.61,28.4-82.86,43.66-124s30.93-81.24,45.87-117.69l-1.93,5.87c11.74-29,26.16-64,42.14-101.47s33.48-77.49,51.18-116.59c8.84-19.56,17.73-38.9,26.45-57.6L1295,571.2c4.13-8.85,8.61-17.18,13.24-25.32s9.35-16,13.91-23.59c2.27-3.82,4.51-7.59,6.67-11.32s4.26-7.37,6.27-11.1a121.58,121.58,0,0,0,9.84-22.78c.28-1,.56-2,.8-3l.18-.75.21-1c.13-.7.3-1.35.4-2.07a39.92,39.92,0,0,0,.62-8.41,29.77,29.77,0,0,0-1.17-7.5c-.33-1.16-.67-2.29-1-3.44l-.57-1.73-.29-.86-.42-.65-3.83-.2-3.49-.11c-1.12-.06-2.25,0-3.32,0l-1.59,0c-.52,0-1.07.13-1.59.19l-3.07.42c-1,.22-2,.47-2.94.7s-1.92.44-2.81.76l-2.11.72a76.45,76.45,0,0,0-9.16,4.16c-2.88,1.55-5.63,3.2-8.3,4.85l-7.79,4.88-7.95,4.81c-10.76,6.49-21.85,13.2-33,20.47-5.6,3.63-11.22,7.4-16.83,11.36-2.82,2-5.57,4-8.33,6s-5.55,4-8.32,6.11c-11.12,8.24-22.34,16.85-33.54,25.92-22.38,18.14-44.76,38.09-65.69,60.73-5.22,5.67-10.37,11.48-15.36,17.51s-9.76,12.08-14.64,18.16c-9.64,12.21-19.36,24.58-28.94,37.26-4.84,6.3-9.56,12.74-14.36,19.15s-9.51,12.94-14.16,19.55c-9.43,13.13-18.6,26.59-27.63,40.26s-17.71,27.69-26.21,41.89-16.52,28.78-24.22,43.56c-1.95,3.68-3.77,7.43-5.67,11.15s-3.76,7.45-5.56,11.18q-5.45,11.19-10.78,22.44-10.67,22.48-21,45l-20.74,44.9-1.31,2.85-.69,1.56-.33.78-.75,1.85c-.46,1.15-.93,2.3-1.46,3.43a20.38,20.38,0,0,1-1.86,3.24,8.17,8.17,0,0,1-2.72,2.52,9.17,9.17,0,0,1-1-3.94,25.09,25.09,0,0,1,.12-4.11c.14-1.37.35-2.73.59-4.1l.78-4,1.34-6.53c.91-4.39,1.86-8.8,2.66-13.49.2-1.18.39-2.36.55-3.62l.43-3.35c.28-2.17.54-4.33.87-6.49,1.23-8.65,2.71-17.24,4.37-25.79,3.06-15.07,6.69-30.11,10.36-45.24l5.48-22.77q2.67-11.43,5.24-22.85c6.85-30.42,13.47-60.66,22.54-89.91,2.56-8.6,5.35-17,8.35-25.6l2.13-7.25c1.33-4.57,3.22-11.08,5-18.83.91-3.87,1.73-8.09,2.44-12.48a124.72,124.72,0,0,0,1.32-13.72,98.85,98.85,0,0,0-2.65-27.25l-1.32-5.3-4.29,2.16a18.33,18.33,0,0,0-6.09,5,22.37,22.37,0,0,0-3.36,6,27.12,27.12,0,0,0-1.61,11c0,.8.14,1.57.24,2.3s.23,1.36.35,2c.24,1.26.47,2.38.71,3.36a14.58,14.58,0,0,0,1.36,4c.88,1.34,1.7-.16,2.41-5.52l.26-2.19c.08-.79.16-1.69.28-2.41a27.52,27.52,0,0,1,1.28-5.17,19.82,19.82,0,0,1,3-5.57,10.71,10.71,0,0,1,5-3.78L942.75,628a100,100,0,0,1-.46,23.5,115.62,115.62,0,0,1-3,14.76c-1.37,5.26-3.15,10.87-5.3,16.9s-4.6,12.46-7.19,19.43-5.28,14.5-7.82,22.5-5.08,16.48-7.52,25.44-4.81,18.4-7.18,28.31l1-6.07c-5.78,24.73-10.74,49.4-16.4,73.77-5.18,22-9.85,41.15-13.16,57.63S870.27,934.3,869,945c-.56,4.49-1.52,8.91-2.24,12.51l-1.84,8.82-.95,4.45-.11.43c0,.16-.07.23-.07.22a1.12,1.12,0,0,1,0-.28l0-.45c1-5.2,2.13-10.31,3.16-15.28.51-2.48,1-4.93,1.38-7.27l.27-1.72.23-1.71.51-3.94c1.38-10.5,3.15-20.91,5.18-31.21,4-20.62,9-40.84,13.71-60.91-5.23,22.08-8.28,35-9.67,41.16s-1.34,5.71-.44,1.32,2.71-12.61,4.82-21.83l6.33-27.85c-4.24,18.41-8.77,36.64-12.57,54.21-1.9,8.78-3.63,17.39-5.11,25.74q-.56,3.13-1.06,6.21c-.34,2.05-.68,4.08-1,6.1s-.62,4-.87,6l-.77,5.75c-.22,1.87-.46,3.26-.57,4s-.15,1-.08.68.21-1,.41-2.11l.29-1.81.32-2.32c.91-7.45,2.74-18.88,4.1-26C871.19,925,870,932.51,869,940.4l-.73,5.75c-.24,1.71-.55,3.54-.9,5.43-.71,3.79-1.55,7.77-2.39,11.88l-1.25,6.26-.35,1.79-.52,2.86c-.33,1.91-.69,3.82-1,5.73-.63,3.83-1,7.58-1.37,11.24a89.08,89.08,0,0,0-.22,10.22,47.2,47.2,0,0,0,2.94,15.57c.84,2,1.76,4,2.78,6.17s2.16,4.46,3.61,7.2c4-2.36,7-4.34,9.73-6.24.7-.48,1.38-1,2-1.42l1-.7c.16-.12.33-.23.49-.36l.49-.43,1.94-1.73,1.93-2a60.24,60.24,0,0,0,7.72-10.91,146,146,0,0,0,7.16-15.47c1.11-2.77,2.27-5.6,3.21-7.84l.9-2,1-2.23,4.13-8.87,8.12-17.46c19.54-42.34,20.38-43.53,22-46.57.81-1.51,1.81-3.47,5.52-11.17l7.94-16.49,6.16-12.66c2.33-4.81,5.06-10.07,8.07-16.08,21-40.95,45.42-80.05,71.8-117.74,13.19-18.85,26.87-37.36,40.88-55.64l10.56-13.66,10.67-13.59,10.76-13.52c1.79-2.25,3.58-4.36,5.37-6.55.9-1.08,1.77-2.18,2.69-3.25l2.77-3.19c3.65-4.29,7.49-8.42,11.3-12.59s7.78-8.19,11.81-12.16c8-8,16.24-15.77,24.75-23.28,17-15.08,34.76-29.29,53-43,4.58-3.4,9.15-6.82,13.78-10.17s9.14-6.61,13.81-9.79c9.3-6.34,18.89-12.39,28.63-18.35l14.69-8.91,7.47-4.53,7.34-4.6a82.88,82.88,0,0,1,13.4-7.13c.53-.24,1.05-.38,1.58-.57.23-.07.2-.08.28-.1l.36-.08a3,3,0,0,1,.74,0c.16.15.15.48.15.71a3.1,3.1,0,0,1,0,.38l0,.22,0,.22-.18.74a78.87,78.87,0,0,1-5.56,14.64c-2.37,5-5.17,9.92-8.13,15.05s-6,10.18-9,15.3c-6.12,10.24-12.37,20.62-18.21,31.44q-2.2,4-4.29,8.2c-1.4,2.73-2.78,5.61-4.07,8.31l-7.67,16.25q-30.54,65-59.45,130.83T1154.67,842c-18.38,44.28-36.17,89-53,134.09s-32.93,90.54-48.28,136.29c-7.68,22.84-15.42,46.05-21.26,70.12q-2.21,9-4,18.18l-.87,4.49c-.24,1.27-.55,2.65-.86,4l-2.06,8.78c-.7,3-1.38,6.14-2,9.35-.3,1.6-.57,3.24-.82,4.9l-.34,2.52-.14,1.28-.07.64,0,.32c0,.09,0,.23,0,.42l-.15,2.06c0,.69-.11,1.36-.11,2.11,0,1.45-.11,2.93,0,4.35l.08,2.15.22,2.08a38.63,38.63,0,0,0,.64,4,18.12,18.12,0,0,0,.46,1.9l.51,1.86.63,1.73.32.87.37.8a30.63,30.63,0,0,0,3.42,5.88,43,43,0,0,0,4.39,4.7l2.41,2.32c.85.65,1.67,2.25,2.6,1l10.84-7c1.81-1.2,3.6-2.3,5.43-3.57,2-2.1,4-4.07,5.93-6.34l7.53-8.56c2-2.4,3.94-4.84,5.91-7.26s4-4.83,5.79-7.34l5.6-7.46c.95-1.24,1.85-2.49,2.74-3.77l2.68-3.8c7.22-10.09,13.86-20.47,20.47-30.86s12.83-20.92,19-31.42c12.44-21,24.55-42,37.58-62.17,1.64-2.51,3.22-5.08,4.91-7.55l5-7.43c1.65-2.48,3.41-5,5.14-7.44l5.24-7.43q10.53-14.85,21.37-29.62c7.93-10.52-1.39,2.13-11.08,15.7,12.71-17.65,25.52-35,38.05-52.26q9.4-13,18.55-26t17.89-26c23.44-34.59,45.6-68.71,68.73-101.32,11.56-16.3,23.35-32.23,35.57-47.66s24.84-30.76,37.65-45.74,25.74-29.83,39-44.42c6.57-7.34,13.3-14.55,20-21.81l10.14-10.8,5.08-5.4,5.13-5.36,10.49-10.8,8.76-8.84c5.28-5.35,9.59-9.57,13.2-13.12,7.21-7.11,11.75-11.41,16.44-15.92-3.53,3.46,16.3-16.61,52.08-50.3,18-16.82,39.69-37,65.21-58.38q9.56-8,19.84-16.13,5.13-4.07,10.45-8.12l5.36-4.06,5.63-4.23c4-3.09,7.48-6.05,11-8.86a129.48,129.48,0,0,1,10.55-7.68l1.38-.86.08,0,.18-.08a.68.68,0,0,1,.2,0h.1s0,.06,0,.08l0,.16,0,.08-.06.2-.29,1-1.82,5.63c-2.53,7.5-5.44,15-8.68,22.42a418.21,418.21,0,0,1-22.82,44.27c-4.24,7.3-8.81,14.64-13.31,22s-9.12,14.71-13.75,22.06-9.33,14.66-14.05,22-9.49,14.59-14.26,21.85c-19.12,29-38.55,57.66-57.3,85.49s-36.8,54.88-53.34,80.63c-4.11,6.46-8.21,12.77-12.13,19l-11.51,18.49c-7.37,12.19-14.49,23.82-20.93,35.05-6.59,11.14-12.47,21.89-18,31.87l-15.09,27.65C1427.72,951.41,1416.5,972.4,1415.44,974.36Z"/></svg>