<?xml version="1.0" encoding="utf-8"?>
<!-- Generator: Adobe Illustrator 21.0.2, SVG Export Plug-In . SVG Version: 6.00 Build 0)  -->
<svg version="1.1" id="Layer_1" xmlns="http://www.w3.org/2000/svg" xmlns:xlink="http://www.w3.org/1999/xlink" x="0px" y="0px"
	 viewBox="0 0 4372.7 2099.6" style="enable-background:new 0 0 4372.7 2099.6;" xml:space="preserve">
<style type="text/css">
	.st0{opacity:0.45;fill:#F7EC27;enable-background:new    ;}
	.st1{opacity:7.000000e-02;fill:#82CFCB;enable-background:new    ;}
	.st2{opacity:0.15;fill:#82CFCB;enable-background:new    ;}
	.st3{opacity:9.000000e-02;fill:#82CFCB;enable-background:new    ;}
	.st4{opacity:0.22;fill:#82CFCB;enable-background:new    ;}
	.st5{enable-background:new    ;}
	.st6{fill:#231F20;}
</style>
<title>reformationArtboard 16</title>
<path class="st0" d="M2637.1,372.3c316-24.4,438.2,207,378.9,331.5c0,0-209.3-49.3-322.9,16c-118.4,68-279.8,161.3-279.8,161.3
	c-41.3-15.2-46.8-69.8-72-137.3C2287.4,599.7,2398.3,390.7,2637.1,372.3z"/>
<path class="st1" d="M3286,1074.5c59.7-83,144-191.4,222-65.9s117.6-68.6,197.5-39.2s584.9,497.6,424.7,625.1
	s-1036.1,332.4-1078.1,92S3225.7,1158.5,3286,1074.5z"/>
<path class="st2" d="M2158.3,1069c0,0,150.1-185.6,240.7-211.1s-119.2,168.3,0,174.3s155.3-131.6,304.6-147.7
	s60.5,177.7,198.5,147.7s36-208.4,180-149.2s275.9-11.9,425.9,125.6s299.9,636.3,144,665.9s-1643.7,186.4-1691.7,0
	S2158.3,1069,2158.3,1069z"/>
<path class="st3" d="M1336.4,1056.4c0,0,222-388.7,425.9-395.4s130,210,311.9,196.9s281.9-135.5,287.9,10.4s257.9,794.8,102,812.3
	s-1157.8,141.9-1265.8-46.3s144-548.1,144-548.1L1336.4,1056.4z"/>
<path class="st4" d="M178.5,1656.7c0,0,390.9-730.4,477.7-773.7s-51.7,168.8,68.3,186s126-215.8,255-234.3s45,203.9,135,215.7
	s52.8-319.5,169.4-199.9s214.5,288,214.5,288s240,458.7-24,542.1S112.4,1867.3,178.5,1656.7z"/>
<g class="st5">
	<path class="st6" d="M442.1,1169.2c0-4.3,1.1-7.6,3.3-10.2c2.2-2.5,5.6-3.8,10-3.8h194.2c14,0,27.2,1.9,39.5,5.8
		c12.4,3.9,23.7,9.2,34,16c10.3,6.8,19.7,14.9,28,24.3c8.3,9.4,15.3,19.6,21.1,30.5c5.8,10.9,10.2,22.4,13.2,34.5
		c3,12.1,4.6,24.3,4.6,36.6c0,18.2-3.3,36.1-9.9,53.5c-6.6,17.4-16,32.9-28.1,46.5c-12.2,13.6-26.7,24.6-43.8,33
		c-17,8.4-35.9,12.7-56.5,12.9h-92.1v144.7c0,8.7-4.7,13.1-14,13.1h-90.3c-4.1,0-7.3-1.1-9.7-3.2s-3.6-5.4-3.6-9.9V1169.2z
		 M670.9,1302.3c0-6.1-1.1-12.2-3.2-18.2s-5.2-11.5-9.3-16.3c-4.1-4.8-9-8.7-14.7-11.7c-5.8-3-12.3-4.6-19.6-4.6h-64.4V1353h64.4
		c7.3,0,13.9-1.5,19.8-4.4c5.9-2.9,10.8-6.7,14.7-11.4c4-4.7,7-10,9.1-16.1C669.9,1315.1,670.9,1308.8,670.9,1302.3z"/>
</g>
<g class="st5">
	<path class="st6" d="M985.2,1167c0.2-1.2,0.9-2.5,2-4c1.1-1.4,2.5-2.7,4.1-4c1.6-1.2,3.3-2.2,5.2-2.9c1.8-0.7,3.5-1.1,5.2-1.1h77.8
		c3.4,0,6.4,1.1,8.8,3.2c2.4,2.1,4.3,4,5.5,5.6l7.6,17.3l159.6,411.5c1.6,4.1,1.3,7.3-0.9,9.9c-2.2,2.5-6.1,3.8-11.5,3.8h-87.2
		c-4.7,0-8.3-0.9-10.8-2.6c-2.5-1.7-4.5-4.6-5.9-8.7c-4.1-10.3-8-20.6-11.9-30.8c-3.9-10.2-7.7-20.5-11.5-30.8H959.7
		c-3.9,10.3-7.8,20.6-11.7,30.8c-4,10.2-7.9,20.5-11.7,30.8c-2.6,7.5-7.8,11.2-15.5,11.2h-89.7c-3.9,0-7-1-9.6-3
		c-2.5-2-3-5.1-1.4-9.1L985.2,1167z M1040.5,1297.1c-3.9,10.3-7.8,21.5-11.7,33.4c-4,12-7.9,24-11.7,36.2
		c-3.9,12.2-7.8,24.2-11.7,36s-7.9,22.9-11.7,33.3h93.3L1040.5,1297.1z"/>
</g>
<g class="st5">
	<path class="st6" d="M1220.7,1168.5c0-4,1.4-7.3,4.1-9.7c2.7-2.4,6.1-3.6,10.2-3.6h327c3.6,0,6.9,1.1,9.7,3.3
		c2.8,2.2,4.5,5.6,4.9,10v75.5c0,3.6-1.3,7.1-3.8,10.5c-2.5,3.3-6.1,5-10.8,5h-104.9v332.8c0,3.7-1.3,6.9-3.9,9.9
		c-2.6,2.9-6.1,4.4-10.3,4.4h-89.1c-3.4,0-6.7-1.4-9.7-4.1c-3-2.7-4.5-6.1-4.5-10.2v-332.8H1235c-4.1,0-7.4-1.3-10.2-3.9
		c-2.7-2.6-4.1-6.5-4.1-11.5V1168.5z"/>
</g>
<g class="st5">
	<path class="st6" d="M1697,1167c0.2-1.2,0.9-2.5,2-4c1.1-1.4,2.5-2.7,4.1-4c1.6-1.2,3.3-2.2,5.2-2.9c1.8-0.7,3.5-1.1,5.2-1.1h77.8
		c3.4,0,6.4,1.1,8.8,3.2c2.4,2.1,4.3,4,5.5,5.6l7.6,17.3l159.6,411.5c1.6,4.1,1.3,7.3-0.9,9.9c-2.2,2.5-6.1,3.8-11.5,3.8H1873
		c-4.7,0-8.3-0.9-10.8-2.6c-2.5-1.7-4.5-4.6-5.9-8.7c-4.1-10.3-8-20.6-11.9-30.8c-3.9-10.2-7.7-20.5-11.5-30.8h-161.4
		c-3.9,10.3-7.8,20.6-11.7,30.8c-4,10.2-7.9,20.5-11.7,30.8c-2.6,7.5-7.8,11.2-15.5,11.2h-89.7c-3.9,0-7-1-9.6-3
		c-2.5-2-3-5.1-1.4-9.1L1697,1167z M1752.3,1297.1c-3.9,10.3-7.8,21.5-11.7,33.4c-4,12-7.9,24-11.7,36.2c-3.9,12.2-7.8,24.2-11.7,36
		s-7.9,22.9-11.7,33.3h93.3L1752.3,1297.1z"/>
</g>
<g class="st5">
	<path class="st6" d="M2281.5,1282.5c-10.3-7.3-21.4-13-33.1-17c-11.8-4.1-24.3-6.1-37.7-6.1c-16.8,0-32.2,3.2-46.2,9.6
		c-14,6.4-26,15-36,26c-10,10.9-17.9,23.8-23.6,38.4c-5.7,14.7-8.5,30.3-8.5,47c0,16.6,2.8,32.2,8.5,46.8
		c5.7,14.6,13.5,27.3,23.6,38.1c10,10.8,22,19.4,36,25.7c14,6.3,29.4,9.4,46.2,9.4c7.1,0,14.1-0.5,21.1-1.5c7-1,14.4-2.3,22.3-4
		v-79.6c0-3.8,1.1-7,3.3-9.6c2.2-2.5,5.6-3.8,10-3.8h82.7c3,0,6.3,1.2,9.7,3.6c3.4,2.4,5.2,5.7,5.2,9.7v147.1
		c0,5.5-2.9,9.9-8.8,13.4c-9.5,6.5-20.1,12.1-31.6,16.7c-11.5,4.7-23.6,8.5-36.2,11.5c-12.6,3-25.3,5.3-38.1,6.8
		c-12.9,1.5-25.4,2.3-37.5,2.3c-21.5,0-42.1-2.7-61.9-8.2c-19.8-5.5-38.2-13.3-55.5-23.4c-17.2-10.1-32.9-22.2-47-36.3
		c-14.1-14.1-26.2-29.7-36.3-46.8c-10.1-17.1-17.9-35.6-23.4-55.3c-5.5-19.8-8.2-40.4-8.2-61.9c0-21.5,2.7-42.1,8.2-61.9
		c5.5-19.8,13.3-38.3,23.4-55.6c10.1-17.3,22.2-33.1,36.3-47.3c14.1-14.2,29.7-26.3,47-36.3c17.2-10,35.7-17.8,55.5-23.4
		c19.8-5.6,40.4-8.4,61.9-8.4c24.3,0,47.3,3.4,68.8,10.2c21.6,6.8,41.9,16.6,60.9,29.3c3.4,2,6.1,4.7,7.9,8.1
		c1.8,3.3,1.4,7.1-1.2,11.4l-49.2,71.1c-2.6,3.2-5.3,5.4-7.9,6.5C2289.5,1286.2,2285.9,1285.4,2281.5,1282.5z"/>
	<path class="st6" d="M2432.2,1381.3c0-21.5,2.7-42.1,8.2-61.9c5.5-19.8,13.3-38.3,23.4-55.6c10.1-17.3,22.3-33.1,36.3-47.3
		c14.1-14.2,29.8-26.3,47-36.3c17.2-10,35.7-17.8,55.5-23.4c19.8-5.6,40.4-8.4,61.9-8.4c21.3,0,41.9,2.8,61.7,8.4
		c19.9,5.6,38.4,13.4,55.7,23.4c17.2,10,32.9,22.1,47.1,36.3c14.2,14.2,26.3,29.9,36.3,47.3c10,17.3,17.8,35.9,23.4,55.6
		c5.6,19.8,8.4,40.4,8.4,61.9c0,21.5-2.8,42.1-8.4,61.9c-5.6,19.8-13.4,38.2-23.4,55.3c-10,17.1-22.2,32.7-36.3,46.8
		c-14.2,14.1-29.9,26.2-47.1,36.3c-17.2,10.1-35.8,17.9-55.7,23.4s-40.5,8.2-61.7,8.2c-21.5,0-42.1-2.7-61.9-8.2
		c-19.8-5.5-38.3-13.3-55.5-23.4c-17.2-10.1-32.9-22.2-47-36.3c-14.1-14.1-26.2-29.7-36.3-46.8c-10.1-17.1-17.9-35.6-23.4-55.3
		C2435,1423.4,2432.2,1402.8,2432.2,1381.3z M2549.8,1381c0,16.8,2.8,32.5,8.5,47.1c5.7,14.6,13.6,27.3,23.8,38.1
		c10.2,10.8,22.3,19.4,36.3,25.5c14,6.2,29.3,9.3,46.1,9.3c16.8,0,32.2-3.1,46.3-9.3c14.1-6.2,26.2-14.7,36.4-25.5
		c10.2-10.8,18.2-23.6,23.8-38.1c5.7-14.6,8.5-30.3,8.5-47.1c0-16.6-2.8-32.3-8.5-47c-5.7-14.7-13.6-27.5-23.8-38.4
		c-10.2-10.9-22.4-19.6-36.4-25.8c-14.1-6.3-29.5-9.4-46.3-9.4c-16.8,0-32.2,3.1-46.1,9.4c-14,6.3-26.1,14.9-36.3,25.8
		c-10.2,10.9-18.2,23.8-23.8,38.4C2552.7,1348.7,2549.8,1364.4,2549.8,1381z"/>
	<path class="st6" d="M2972.6,1168.6c0-3.6,1.1-6.8,3.3-9.4c2.2-2.6,5.6-4,10-4h99.4c2.8,0,5.8,0.7,8.8,2.1c3,1.4,5.7,3.9,7.9,7.3
		c25.7,41.5,51.3,82.5,76.6,122.8c25.3,40.3,51,81.3,76.9,122.8v-243.5c0.8-3.6,2.4-6.5,4.9-8.5c2.4-2,5.3-3,8.5-3h86.6
		c4.3,0,7.8,1.2,10.6,3.5c2.8,2.3,4.3,5.6,4.3,9.9v426.1c0,4.1-1.2,7-3.6,9c-2.4,1.9-5.8,2.9-10,2.9h-97c-2.6,0-5-0.9-7-2.7
		c-2-1.8-4.2-4.3-6.4-7.3c-27-44.6-53.6-88.6-79.9-132.2c-26.3-43.6-53.1-87.6-80.2-132.2v261.1c0,4.5-1,7.8-3,10
		c-2,2.2-5.7,3.3-10.9,3.3H2986c-4.7,0-8.1-1.3-10.2-3.8c-2.1-2.5-3.2-5.6-3.2-9.3V1168.6z"/>
	<path class="st6" d="M3470.8,1168.6c0-3.6,1.1-6.8,3.3-9.4c2.2-2.6,5.6-4,10-4h89.4c3,0,6.3,1.2,9.7,3.6c3.4,2.4,5.2,5.7,5.2,9.7
		v424.6c0,8.9-5,13.4-14.9,13.4h-89.4c-8.9,0-13.4-4.5-13.4-13.4V1168.6z"/>
	<path class="st6" d="M3815.4,1167c0.2-1.2,0.9-2.5,2-4c1.1-1.4,2.5-2.7,4.1-4c1.6-1.2,3.3-2.2,5.2-2.9c1.8-0.7,3.5-1.1,5.2-1.1
		h77.8c3.4,0,6.4,1.1,8.8,3.2c2.4,2.1,4.3,4,5.5,5.6l7.6,17.3l159.6,411.5c1.6,4.1,1.3,7.3-0.9,9.9c-2.2,2.5-6.1,3.8-11.5,3.8h-87.2
		c-4.7,0-8.3-0.9-10.8-2.6c-2.5-1.7-4.5-4.6-5.9-8.7c-4.1-10.3-8-20.6-11.9-30.8c-3.9-10.2-7.7-20.5-11.5-30.8h-161.4
		c-3.9,10.3-7.8,20.6-11.7,30.8c-4,10.2-7.9,20.5-11.7,30.8c-2.6,7.5-7.8,11.2-15.5,11.2h-89.7c-3.9,0-7-1-9.6-3
		c-2.5-2-3-5.1-1.4-9.1L3815.4,1167z M3870.8,1297.1c-3.9,10.3-7.8,21.5-11.7,33.4c-4,12-7.9,24-11.7,36.2
		c-3.9,12.2-7.8,24.2-11.7,36c-4,11.9-7.9,22.9-11.7,33.3h93.3L3870.8,1297.1z"/>
</g>
<path class="st6" d="M270.9,1644.4c-0.8-7.4,3.5-14.4,7.6-20.2c5.3-7.5,11.6-14.3,18-20.9c14.6-15.1,27.9-31,41.1-47.4
	c16.5-20.4,33.1-40.8,48.8-61.9c8-10.8,15.8-21.7,23.7-32.5c7.4-10.2,15.3-20,22.5-30.3c14.8-21.1,27.8-44,47.5-61
	c2.4-2.1-1.1-5.6-3.5-3.5c-17.5,15.1-29.9,35-42.8,54c-14.6,21.5-30.7,42.1-46.1,63.2c-16.7,22.9-34.6,45-52.4,67.1
	c-13.5,16.7-27,33.1-41.9,48.5c-7,7.2-13.9,14.6-19.6,22.8c-4.4,6.4-8.8,14.2-7.9,22.2C266.2,1647.6,271.2,1647.7,270.9,1644.4
	L270.9,1644.4z"/>
<path class="st6" d="M522.4,1118c7.2-7.4,10.8-17,16.7-25.3c7-9.8,16.3-18,24-27.3c7.9-9.5,14.9-19.7,22.4-29.5
	c8.2-10.7,16.6-21.2,25-31.7c15.8-19.8,31.8-39.1,49.2-57.5c16.4-17.3,33.8-33.8,48.2-52.9c14.3-18.9,26.6-39.2,41.4-57.8
	c14.4-18,30.1-35,45.7-52s31.3-33.8,45.9-51.7c14-17.3,25.7-35.8,38-54.4s26.6-38.5,46.4-49.5c20.2-11.3,42.9-6.7,64.2-1.5
	c9.4,2.2,18.1,6.6,25.4,12.8c6.6,5.5,12.5,11.7,19.2,17.2c14.1,11.5,29.9,15.4,47.5,10.1c17.8-5.4,34.8-15.8,53.2-5.9
	c16.6,8.9,27.9,25.7,39.5,39.9c6.8,8.3,14,16.3,20.7,24.8c7.8,10,15.3,20.2,22.7,30.4c14,19.3,28,38.5,41,58.6
	c12.8,19.9,25.2,40.1,38.3,59.8c6.5,9.8,13.2,19.5,20.3,28.9s15.1,18,22,27.5c6.5,8.9,10.8,19.1,15.4,29c4.7,10,10.6,19.5,17.5,28.2
	c15.1,19.3,28.4,39.8,42.9,59.6c7.1,9.7,14.4,19.1,22.1,28.2c2.1,2.5,5.6-1.1,3.5-3.5c-16.7-19.7-31.3-40.9-45.8-62.3
	c-6.6-9.6-13.9-18.6-20.9-27.8c-7.2-9.4-12.4-19.5-17.4-30.2c-4.6-10.1-9.5-19.9-16.6-28.5c-7.7-9.4-15.4-18.6-22.6-28.4
	c-14.3-19.6-27.2-40.1-40.1-60.6c-25.7-40.7-53-80.8-83.3-118.2c-6.4-7.8-13.1-15.3-19.4-23.2c-6.1-7.6-12.1-15.3-18.9-22.2
	c-12.3-12.5-27.3-22-45.5-18.7c-18.7,3.4-35.7,16.8-55.4,10.7c-17-5.3-27.8-21.2-41.8-31.2c-8-5.7-16.6-8.4-26.1-10.7
	c-10.2-2.5-20.7-4.7-31.3-4.9c-21.5-0.4-39,9.7-53.8,24.7c-15.7,16-27.2,35.1-39.3,53.8c-12.8,19.8-27.8,38.1-43.4,55.8
	c-31,35-64.4,67.8-91.1,106.3c-13.6,19.6-26.6,39.4-43.1,56.7c-17.7,18.5-35.7,36.7-52.4,56.1c-16.8,19.6-32.7,40.1-48.4,60.6
	c-8.1,10.5-15.7,21.6-24.2,31.8c-7.3,8.8-15.8,16.7-22.9,25.8c-6.7,8.5-10.2,19-17.8,26.8C516.6,1116.7,520.1,1120.3,522.4,1118
	L522.4,1118z"/>
<path class="st6" d="M1374.2,998c23.6-23.3,49.7-44,73.3-67.2c25-24.5,49-50.1,73.1-75.4c46.3-48.7,90.3-99.4,137.2-147.5
	c22.9-23.8,47.2-46.2,72.8-67.1c12.5-10.1,25-20.2,37-30.9c12.3-11.1,23.7-23.1,35.3-34.9c11.3-11.6,22.7-23.2,34.6-34.4
	c10.9-10.3,22.4-19.7,33.8-29.4c19.2-16.3,37.8-33.4,59.1-46.8c20.1-12.7,44.3-22.9,68.4-16.5c13.1,3.4,24.9,11.3,34.1,21
	c3.3,3.4,6,7.5,9.9,10.3c4.3,3.1,9.7,4.2,14.9,4.6c13.1,1.1,24.4-4.4,36.2-8.9s22.7-5.8,33.4,1.7c18.2,12.6,26,35.5,41.3,51
	c8.8,8.9,20.5,16.4,33.5,16c11.9-0.4,24.5-10.9,34.7-0.9c13.6,13.3,25.2,28.8,35.9,44.4c25,36.6,45.4,76.4,63.9,116.7
	c17.6,38.3,33.3,77.6,47.4,117.3c8.5,24.1,17.5,48.6,22.9,73.6c0.5,1.9,0.8,3.8,0.9,5.8c0,3.2,5,3.2,5,0c0.1-6.2-2.4-13-4-18.9
	c-3.5-12.7-7.5-25.3-11.7-37.9c-12.6-37.8-26.9-75.1-42.5-111.8c-18-42-37.8-83.5-61.5-122.6c-10.5-17.7-22.3-34.6-35.1-50.7
	c-5.7-7.1-11.7-13.9-18.2-20.3c-9.2-8.9-20-3.9-30.7-1c-28.4,7.6-45.4-23.9-58.8-43c-5.9-8.5-12.5-17-21.3-22.7
	c-8.9-5.8-18.8-6.8-29-3.9c-13.1,3.6-24.9,11.5-38.9,11.4c-6.3-0.1-12.8-1.1-17.6-5.6c-4.1-3.9-7.4-8.5-11.7-12.4
	c-18.2-16.3-41.1-23.5-65.1-18.1s-45.2,20.4-64.2,35.5c-9.9,7.9-19.5,16.2-29.1,24.5c-10.8,9.3-22,18.2-32.5,27.8
	c-24.5,22.3-46.4,47.3-70.5,70s-51.3,41.9-75.8,64.2c-50.3,45.8-94.6,98-140.6,147.9c-47.2,51.1-94.8,102.4-147,148.5
	c-12.3,10.9-24.6,21.8-36.3,33.4C1368.4,996.8,1371.9,1000.3,1374.2,998L1374.2,998z"/>
<path class="st6" d="M2232.4,1069.5c11.8-21.5,30.1-38.5,49.5-53.1c8.9-6.7,18.3-12.7,26.9-19.8c9.4-7.9,18.3-16.2,26.9-25
	c17.2-17.4,34.1-34.8,52.7-50.9c21.1-18.2,42.4-36.1,63.8-54c42.5-35.4,85-70.9,127.5-106.4c20.4-17.1,40.1-35.2,61.1-51.6
	c20.1-15.8,41.8-29.4,64.8-40.5c46.8-22.3,98.6-37.9,150.8-36c24.8,0.9,45.8,12.8,67.5,23.6c21.4,10.6,43.5,19,63.9,31.6
	c22.1,13.6,42.2,30.2,63.1,45.6c22.2,16.3,44.3,32.7,67.3,47.9c21.7,14.4,44,27.9,64.8,43.6c21.5,16.3,42.8,33,63.7,49.9
	c10.6,8.5,20.5,17.8,31.1,26.3c9.3,7.5,19.6,13.6,29.2,20.5c10.6,7.6,20,16.7,30,25s20.9,14.9,31,22.9c19.5,15.4,37,33.1,56.4,48.6
	c19,15.2,42.9,23.5,59.4,41.7c8.1,8.9,14.7,19.1,22.4,28.4c2,2.5,5.6-1.1,3.5-3.5c-7.9-9.6-14.6-20.2-23.1-29.3
	c-8.1-8.7-18-15.3-28.2-21.3c-11.2-6.5-22.2-12.8-32.2-21s-19.4-16.7-28.9-25.2c-9.1-8.2-18.3-16.3-28-23.8
	c-10.6-8.2-21.9-15.3-32.1-24c-9.4-8-18.4-16.4-28.5-23.6c-11-7.8-22.5-14.7-32.6-23.6c-20.6-18.1-42.1-34.8-63.7-51.5
	c-20.7-16.1-41.2-31.8-63.2-46.2c-46.5-30.3-90.9-63.2-135.5-96.2c-19.5-14.4-40.5-26.5-62.6-36.3c-11.1-5-22.2-9.8-33.1-15.3
	c-10.1-5.1-20.2-10.3-30.9-14.2c-23.3-8.3-48.9-6.9-73-3.8c-25.5,3.5-50.5,9.9-74.5,19c-23.6,8.8-46.7,19.4-68.1,32.7
	c-21.1,13.1-40.5,28.5-59.1,44.9c-42.6,37.3-86.5,73.1-130,109.3c-21.8,18.1-43.5,36.1-65.1,54.4c-20.6,17.4-41.6,34.5-60.7,53.6
	c-17.3,17.3-33.6,35.8-52.8,51.1c-18.8,15.1-39,27.4-55.6,45.2c-7.8,8.3-14.5,17.4-19.9,27.3
	C2226.6,1069.7,2230.9,1072.2,2232.4,1069.5L2232.4,1069.5z"/>
<path class="st6" d="M3389.3,1004.4c27-16.8,54.1-33.7,80.7-51.2c22.1-14.6,43.2-31.1,66.6-43.8c21-11.5,44-21.4,67.9-24.8
	c11.3-1.8,22.9-1,33.9,2.2c13.1,4.1,25.6,9.8,37.2,17.2c23.2,14.4,43.1,33.5,61.7,53.2c9.1,9.7,18.2,19.2,28.2,27.9
	c10.6,9.2,21.6,18,31.7,27.8c11,10.7,18.7,22,26.2,35.2c8.4,14.8,16.4,29.8,24.6,44.7c10,18.3,19.9,36.7,30.6,54.6
	c4.1,7,8.3,13.9,12.9,20.6c2.8,4.1,5.8,8.5,9.6,11.8c2.4,2.1,6-1.4,3.5-3.5c-8.5-7.4-14.3-19-20-28.5c-9.6-16.1-18.6-32.5-27.6-48.9
	c-8.7-16-17.3-32-26.2-47.9c-6.1-10.8-12-21.8-20.1-31.2c-18.7-21.5-42.9-37.3-62.3-58.2c-18.4-19.8-37.5-39.2-59.6-55
	c-19.6-13.9-43.9-27.3-68.5-28.1c-23.5-0.8-47,7.6-68,17.3c-22.8,10.4-42.8,24.5-63.4,38.6c-26.8,18.4-54.3,35.8-81.9,53l-20.2,12.6
	C3384,1001.7,3386.5,1006,3389.3,1004.4L3389.3,1004.4z"/>
<path class="st6" d="M686.1,900.2c-0.8,12.8-9.3,24.8-15.7,35.5c-6.5,11-13.9,22.6-16.1,35.4c-2,11.5,2.1,24.8,13.4,30
	c13.2,6.1,27.8-4.7,37.2-13.1c15.7-13.9,30.5-29.1,45.1-44.1c12.3-12.6,25-24.8,40.7-33.1c7.7-4,15.4-6.4,24.1-6.5
	c9.1,0.1,18.2,1.4,27,3.7c8.8,2.1,17.3,5.1,25.5,9c8.1,3.9,15.7,8.9,23.8,12.8c7.4,3.5,15.3,6.2,23.6,5.9s16.2-3.3,23.6-6.4
	c16.3-6.8,31.1-16.3,45.5-26.6c14.8-10.6,29.9-21.6,47.2-27.7c18.2-6.6,38.3-5.1,55.3,4c31.5,16.4,51.6,46.3,75.1,71.7
	c8.9,9.6,18.7,18.1,28.4,26.7s19.5,17,29.9,24.6c15.4,11.2,42.1,29.4,60.3,13.6c10-8.7,15.9-21.7,20.4-33.9
	c5.3-14.3,8.8-29.3,11.5-44.3c1.1-6.2,2.1-12.4,2.9-18.6c0.4-3.2-4.4-4.5-4.8-1.3c-3.8,27.4-8.7,57.2-22.9,81.3
	c-5.7,9.5-13.3,18.8-25.3,17.9c-11.8-0.9-23-7.8-32.6-14.1c-10.8-7.4-21.1-15.5-30.8-24.2c-8.6-7.5-17.4-15-25.6-23
	c-23.6-23.3-41.8-51.8-69-71.3c-14-10.1-30.2-17.8-47.7-18.2c-16.3-0.4-31.8,5.6-45.8,13.5c-29.7,16.8-55.6,43.9-90.2,50.8
	c-19,3.8-34.7-10-50.8-17.6c-15-7.1-31.2-11.5-47.8-12.8c-16.2-1.2-29.7,3.8-43,12.7c-14.3,9.6-25.9,21.9-38,34.1
	c-13.6,13.8-27.2,28.3-42.1,40.6c-6.1,5-13.7,10.3-21.8,10.8c-7.9,0.5-14.1-5.6-16.6-12.6c-4.3-11.8,2.3-25,7.9-35.2
	c6.3-11.6,14-22.5,19.2-34.7c2.1-4.7,3.5-9.8,3.9-15c0.2-3.2-4.8-3.2-5,0L686.1,900.2z"/>
<path class="st6" d="M1644.8,726.9c2.7-8.4,12.2-13.2,19.6-16.7c8.2-3.9,16.9-7.5,25.8-9.5c9.8-2.2,20.1-1.6,28,5.3
	c7.4,6.5,11.8,15.9,14.1,25.3c4.5,18.3,2.2,37.6,7,55.8c4.2,16.2,14.9,29.9,29.6,37.8c27.8,14.7,62.8,7.9,90-4.5
	c14.9-6.8,29.6-14.7,45.4-19.1c15.1-4.2,32.2-4.8,43.2,8.1c6.8,8,9.6,18.6,12.3,28.5c2.6,9.4,5.9,18.6,9.8,27.5
	c8.4,19.4,15.6,38.6,30,54.5c21.1,23.2,57.1,49.9,90,35.7c17.7-7.6,26.3-24.1,33.8-40.8c9.1-20.1,21.6-37.5,37-53.3
	c7-7.2,14-13.2,23.4-16.8c8.8-3.5,18.3-5.2,27.8-5.2c9.2,0,18.6,2.4,27.7,3.7c25.9,3.7,51.9,6.7,77.8,9.7
	c24.3,2.7,48.7,5.6,73.1,7.2c2.9,0.2,5.8,0.4,8.7,0.3c3.2,0,3.2-5,0-5c-20.4,0.1-41.2-3.1-61.5-5.3c-28.1-3-56.3-6.3-84.3-10
	c-8.8-1.2-17.7-2.3-26.5-3.9c-15.5-2.8-31-1.8-45.7,4.3c-18.1,7.5-31.5,24.4-43,39.7c-6.4,8.3-11.8,17.3-16.3,26.8
	c-4.1,8.7-7.6,17.7-12.9,25.8c-11.3,17.3-30.4,25-50.5,20.2c-18.4-4.5-34.7-16.3-48.1-29.3c-7-6.6-13.2-14-18.3-22.1
	c-6-9.7-10.3-20.4-14.6-30.9c-4.1-9.8-8.4-19.2-11.3-29.4c-2.6-9.4-4.9-19.2-9.7-27.8c-18-32.4-56.9-17.3-82.9-5.2
	c-14.3,6.6-28.1,13.5-43.5,17c-16.5,3.7-34.4,4.5-50.5-1.1c-17.4-6.1-30.6-20.4-35.2-38.3c-4.8-18.3-2.6-37.5-7-55.8
	c-4.1-16.7-15.1-33.6-33.6-35.3c-8.9-0.8-17.8,1.7-26.1,4.7c-7.9,2.9-16,6.2-23.3,10.6c-6.1,3.7-11.9,8.5-14.1,15.5
	C1639,728.7,1643.8,730.1,1644.8,726.9L1644.8,726.9z"/>
<path class="st6" d="M2408.4,898.5c-14.8,19-17.7,49.6,3.8,65.2c10.3,7.5,23.5,8.1,35.3,4.2c18.1-5.9,35.2-16.7,51.3-26.7
	c17-10.6,33.4-22,50.2-32.8c17.1-11,34.4-22.5,54.3-27.2c9.5-2.2,19.1-3.4,28.7-4.8c11-1.6,21.4-2.4,32.5-0.4
	c21,3.8,40.7,12.6,61.7,16.7c10.2,2,20.5,3.5,30.7,5.1c9,1.4,17.9,3.4,26.9,4.6c8.5,1.2,17.2,1.7,25.7,0c8.3-1.7,15.3-5.8,21.9-11
	c13.2-10.3,23.8-23.8,38.1-32.8c8.4-5.2,17.9-8.2,27.4-10.8c11.1-3.2,22.5-5.2,34-5.8c20-0.8,38,5.4,54.6,16.2
	c8,5.2,15.3,11.2,23,16.7c8.3,6,17,11.5,25.7,17c17.2,10.9,33.5,22.5,49.5,35c14.5,11.3,29,22.6,44.2,32.8
	c26.8,18,60.4,37.3,94,32.8c27.2-3.7,53.2-21.3,62.8-47.6c2.4-6.7,3.7-13.7,3.8-20.9c0.1-3.2-4.9-3.2-5,0
	c-0.8,29.8-23.5,53.3-51.4,61.3c-32.4,9.3-65-6.7-92-23.5c-30.9-19.3-57.8-44.3-88.2-64.3c-16.6-11-33.5-21.1-49.4-33.2
	c-13.6-10.3-28.1-20-44.7-24.5c-18.6-5-38.3-2.8-56.7,1.7c-17.2,4.3-32.6,10.1-46.1,21.7c-12.2,10.4-23,24.6-37.8,31.5
	c-17,7.8-36.6,1.9-54.1-1c-19.8-3.4-39.6-5.7-58.9-11.6c-18.5-5.7-37.1-13-56.8-12.5c-9,0.2-18.1,2.1-27.1,3.4
	c-9.5,1.4-19.1,3-28.3,6.1c-17.7,5.9-33.8,17.2-49.4,27.3c-16,10.4-31.7,21.3-48,31.4c-7.9,4.9-15.9,9.6-24.1,13.9
	c-8.4,4.5-17.2,9.3-26.4,11.9c-12.3,3.5-25.5,1.2-34.2-8.6c-8.2-9.2-10.3-22.6-7.5-34.3c1.7-6.8,4.8-13.2,9.2-18.7
	C2414,899.5,2410.4,895.9,2408.4,898.5L2408.4,898.5z"/>
<path class="st6" d="M3476.2,1058c11.4,10.4,25.1,18.4,40.5,20.9c15.2,2.4,30.4-0.9,43.7-8.6c25-14.3,43.7-37.4,69.4-50.9
	c12.8-6.7,28.5-11.2,42.7-6c14.9,5.5,25.9,19.3,39.2,27.6c7.3,4.6,15,8.6,22.1,13.6c6.9,4.9,12.8,11,18.6,17.1s11.3,12.3,17.8,17.5
	c3.9,3.1,7.6,5.9,12.5,6.8c11.7,2.1,24.6-0.9,36.1-3c6.7-1.2,13.3-2.5,20-3.6c5.1-0.8,10.6-1.7,15.7-0.8c3.1,0.6,4.5-4.3,1.3-4.8
	c-9.1-1.6-19.1,0.8-28.1,2.4c-11.8,2.1-23.7,4.9-35.8,5.3c-4.1,0.1-8.8,0.2-12.6-1.8c-6.9-3.6-12.7-10.1-18-15.7
	c-5.6-5.9-10.9-12-17-17.4s-12.9-9.7-19.9-13.8c-7.7-4.6-15.5-9-22.5-14.7c-5.6-4.6-11-9.5-16.9-13.6c-11.6-7.9-24.6-9.9-38.2-7
	c-27.5,6.1-48.8,28.1-70.1,45c-13.7,10.9-28.6,20.9-46.7,21.9c-19.1,1.1-36.6-7.5-50.4-20.1
	C3477.4,1052.3,3473.8,1055.8,3476.2,1058L3476.2,1058z"/>
</svg>
