<?xml version="1.0" encoding="utf-8"?>
<!-- Generator: Adobe Illustrator 21.0.2, SVG Export Plug-In . SVG Version: 6.00 Build 0)  -->
<svg version="1.1" id="Layer_1" xmlns="http://www.w3.org/2000/svg" xmlns:xlink="http://www.w3.org/1999/xlink" x="0px" y="0px"
	 viewBox="0 0 5388.8 2168.2" style="enable-background:new 0 0 5388.8 2168.2;" xml:space="preserve">
<style type="text/css">
	.st0{fill:#FED8B8;}
	.st1{fill:#D4EDF1;}
	.st2{fill:#FDF6B2;}
	.st3{fill:#D5EEF6;}
	.st4{enable-background:new    ;}
	.st5{fill:#231F20;}
</style>
<title>reformationArtboard 17</title>
<path class="st0" d="M4488,567.2c183.5-142.1,775-286.5,819.5,238.4S5384,1897.5,5000,1734S4048,908,4488,567.2z"/>
<path class="st1" d="M3670.9,659.1c171.7-140.6,936,264.8,880,688s-1000,252.3-1000,21.7S3542.9,763.9,3670.9,659.1z"/>
<path class="st2" d="M2176.4,618.3c268.5-299,1295.5-287.5,1319.5-36.1s360,858.5-168,983s-1208,119.7-1208-161.9
	S2024.8,787.1,2176.4,618.3z"/>
<path class="st0" d="M1192.3,1396.8c60.8,334.2,1017,213.3,1104.6,22.1s-40.2-820.5-405.9-745S1095.7,865.6,1192.3,1396.8z"/>
<path class="st3" d="M1083.3,613.6c219.4-48.5,643.1,12,646.4,243.2s62.6,687.7-442.1,577.8S617.6,978.2,771.3,805.1
	S957.8,641.3,1083.3,613.6z"/>
<path class="st2" d="M176.9,398.8c99.2-161,398.7-189.2,518.9-40.7S1168,1500.1,944,1683.3s-846.2,131.4-827.1-190.7
	S65.7,579.1,176.9,398.8z"/>
<g class="st4">
	<path class="st5" d="M349.4,821.1c0-4.3,1.1-7.6,3.3-10.2c2.2-2.5,5.6-3.8,10-3.8h196.3c20.9,0,40.4,3.9,58.7,11.7
		c18.2,7.8,34.1,18.4,47.7,31.8c13.6,13.4,24.3,29,32.1,47c7.8,17.9,11.7,37,11.7,57.3c0,13.8-1.9,26.9-5.6,39.4
		c-3.8,12.5-9,24.1-15.7,35c-6.7,10.8-14.6,20.7-23.9,29.5c-9.2,8.8-19.3,16.4-30.2,22.6l78.1,147.1c1.4,2.8,3.2,6.2,5.5,10
		c2.2,3.9,3.3,7.2,3.3,10c0,3.2-1.1,5.7-3.2,7.4c-2.1,1.7-5,2.6-8.7,2.6H604.7c-3.4,0-6.5-1-9.3-3c-2.7-2-4.5-4.8-5.3-8.2
		l-73.9-138.9H467v137.1c0,8.7-4.7,13.1-14,13.1h-90.3c-4.1,0-7.3-1.1-9.7-3.2s-3.6-5.4-3.6-9.9V821.1z M587.4,956
		c0-6.1-1.1-12.2-3.3-18.2c-2.2-6.1-5.4-11.7-9.4-16.7c-4.1-5.1-8.9-9.3-14.6-12.8c-5.7-3.4-12-5.7-18.8-6.7c-5.7-0.4-11-0.8-16-1.1
		c-5-0.3-10.4-0.5-16.3-0.5H467v111.5H523c3.6,0,6.9-0.1,9.7-0.3c2.8-0.2,6-0.5,9.4-0.9c7.1-0.8,13.5-2.9,19.1-6.2
		c5.7-3.3,10.4-7.5,14.3-12.5c3.8-5,6.8-10.5,8.8-16.7C586.4,968.9,587.4,962.5,587.4,956z"/>
	<path class="st5" d="M776.4,821.1c0-4.3,1.2-7.6,3.5-10.2c2.3-2.5,5.6-3.8,9.9-3.8h301.5c4.5,0,7.9,1.3,10.3,3.9s3.6,6.2,3.6,10.6
		v75.2c0,3.4-1.2,6.7-3.6,9.8c-2.4,3.1-6,4.7-10.6,4.7h-197v75.4h152c3.8,0,7,0.9,9.6,2.7c2.5,1.8,3.8,4.9,3.8,9.1v65.7
		c0,2.8-1.1,5.6-3.3,8.2c-2.2,2.6-5.5,4-9.7,4H894.1v77.8h204.2c9.1,0,13.7,4.6,13.7,13.9v76.4c0,2-0.8,3.8-2.4,5.5
		c-0.8,5.7-5,8.5-12.5,8.5H789.8c-4,0-7.3-1.1-9.7-3.2c-2.4-2.1-3.6-5.4-3.6-9.9V821.1z"/>
	<path class="st5" d="M1189.2,821.1c0-4.3,1.2-7.6,3.5-10c2.3-2.4,5.1-3.7,8.4-4h290.9c4.7,0,8.2,1.3,10.5,3.9
		c2.3,2.6,3.5,6.2,3.5,10.6v75.2c0,3.4-1.2,6.7-3.6,9.8c-2.4,3.1-6,4.7-10.6,4.7h-184.8v94.2h136.5c3.8,0,7.1,1.1,9.7,3.2
		c2.6,2.1,4,5.5,4,10.2v72.6c0,3.4-1.2,6.7-3.5,9.9c-2.3,3.1-5.5,4.7-9.6,4.7h-137.1v139.2c0,8.7-4.7,13.1-14,13.1h-92.7
		c-7.3-1-10.9-5.3-10.9-12.8V821.1z"/>
	<path class="st5" d="M1560,1033.3c0-21.5,2.7-42.1,8.2-61.9c5.5-19.8,13.3-38.3,23.4-55.6c10.1-17.3,22.3-33.1,36.3-47.3
		c14.1-14.2,29.8-26.3,47-36.3c17.2-10,35.7-17.8,55.5-23.4c19.8-5.6,40.4-8.4,61.9-8.4c21.3,0,41.9,2.8,61.7,8.4
		c19.9,5.6,38.4,13.4,55.7,23.4c17.2,10,32.9,22.1,47.1,36.3c14.2,14.2,26.3,29.9,36.3,47.3c10,17.3,17.8,35.9,23.4,55.6
		c5.6,19.8,8.4,40.4,8.4,61.9c0,21.5-2.8,42.1-8.4,61.9c-5.6,19.8-13.4,38.2-23.4,55.3c-10,17.1-22.2,32.7-36.3,46.8
		c-14.2,14.1-29.9,26.2-47.1,36.3c-17.2,10.1-35.8,17.9-55.7,23.4s-40.5,8.2-61.7,8.2c-21.5,0-42.1-2.7-61.9-8.2
		c-19.8-5.5-38.3-13.3-55.5-23.4c-17.2-10.1-32.9-22.2-47-36.3c-14.1-14.1-26.2-29.7-36.3-46.8c-10.1-17.1-17.9-35.6-23.4-55.3
		C1562.7,1075.3,1560,1054.7,1560,1033.3z M1677.6,1032.9c0,16.8,2.8,32.5,8.5,47.1c5.7,14.6,13.6,27.3,23.8,38.1
		c10.2,10.8,22.3,19.4,36.3,25.5c14,6.2,29.3,9.3,46.1,9.3c16.8,0,32.2-3.1,46.3-9.3c14.1-6.2,26.2-14.7,36.4-25.5
		c10.2-10.8,18.2-23.6,23.8-38.1c5.7-14.6,8.5-30.3,8.5-47.1c0-16.6-2.8-32.3-8.5-47c-5.7-14.7-13.6-27.5-23.8-38.4
		c-10.2-10.9-22.4-19.6-36.4-25.8c-14.1-6.3-29.5-9.4-46.3-9.4c-16.8,0-32.2,3.1-46.1,9.4c-14,6.3-26.1,14.9-36.3,25.8
		c-10.2,10.9-18.2,23.8-23.8,38.4C1680.4,1000.7,1677.6,1016.3,1677.6,1032.9z"/>
	<path class="st5" d="M2099.8,821.1c0-4.3,1.1-7.6,3.3-10.2c2.2-2.5,5.6-3.8,10-3.8h196.3c20.9,0,40.4,3.9,58.7,11.7
		c18.2,7.8,34.1,18.4,47.7,31.8c13.6,13.4,24.3,29,32.1,47c7.8,17.9,11.7,37,11.7,57.3c0,13.8-1.9,26.9-5.6,39.4
		c-3.8,12.5-9,24.1-15.7,35c-6.7,10.8-14.6,20.7-23.9,29.5c-9.2,8.8-19.3,16.4-30.2,22.6l78.1,147.1c1.4,2.8,3.2,6.2,5.5,10
		c2.2,3.9,3.3,7.2,3.3,10c0,3.2-1.1,5.7-3.2,7.4c-2.1,1.7-5,2.6-8.7,2.6h-104.3c-3.4,0-6.5-1-9.3-3c-2.7-2-4.5-4.8-5.3-8.2
		l-73.9-138.9h-49.2v137.1c0,8.7-4.7,13.1-14,13.1h-90.3c-4.1,0-7.3-1.1-9.7-3.2s-3.6-5.4-3.6-9.9V821.1z M2337.8,956
		c0-6.1-1.1-12.2-3.3-18.2c-2.2-6.1-5.4-11.7-9.4-16.7c-4.1-5.1-8.9-9.3-14.6-12.8c-5.7-3.4-12-5.7-18.8-6.7c-5.7-0.4-11-0.8-16-1.1
		c-5-0.3-10.4-0.5-16.3-0.5h-41.9v111.5h55.9c3.6,0,6.9-0.1,9.7-0.3c2.8-0.2,6-0.5,9.4-0.9c7.1-0.8,13.5-2.9,19.1-6.2
		c5.7-3.3,10.4-7.5,14.3-12.5c3.8-5,6.8-10.5,8.8-16.7C2336.7,968.9,2337.8,962.5,2337.8,956z"/>
	<path class="st5" d="M2552,820.5c0.4-3.6,1.8-6.8,4.3-9.4c2.4-2.6,5.9-4,10.3-4h105.2c7.5,0,12.4,3.9,14.6,11.5l82.7,276l83.3-276
		c2.8-7.7,8-11.5,15.5-11.5h103.9c3.6,0,6.9,1.3,9.9,3.8c2.9,2.5,4.6,5.7,5,9.6c7.1,71.3,14.3,142.1,21.7,212.3
		c7.4,70.2,14.6,141,21.7,212.3v1.5c0,7.9-4.5,11.9-13.4,11.9h-86c-9.3,0-14.2-4.5-14.6-13.4l-26.4-234.9l-68.4,236.5
		c-0.4,2-1.9,4.5-4.4,7.3c-2.5,2.8-5,4.3-7.4,4.3h-79.9c-2.4,0-5-1.4-7.8-4.1s-4.2-5.2-4.4-7.4l-68.4-235.9l-26.4,234.3
		c-0.4,8.9-5.4,13.4-14.9,13.4h-86c-8.7,0-13.1-4.5-13.1-13.4L2552,820.5z"/>
</g>
<g class="st4">
	<path class="st5" d="M3239.8,819c0.2-1.2,0.9-2.5,2-4c1.1-1.4,2.5-2.7,4.1-4c1.6-1.2,3.3-2.2,5.2-2.9c1.8-0.7,3.5-1.1,5.2-1.1h77.8
		c3.4,0,6.4,1.1,8.8,3.2c2.4,2.1,4.3,4,5.5,5.6l7.6,17.3l159.6,411.5c1.6,4.1,1.3,7.3-0.9,9.9c-2.2,2.5-6.1,3.8-11.6,3.8h-87.2
		c-4.7,0-8.3-0.9-10.8-2.6c-2.5-1.7-4.5-4.6-5.9-8.7c-4.1-10.3-8-20.6-11.9-30.8c-3.9-10.2-7.7-20.5-11.5-30.8h-161.4
		c-3.9,10.3-7.8,20.6-11.7,30.8c-4,10.2-7.9,20.5-11.7,30.8c-2.6,7.5-7.8,11.2-15.5,11.2h-89.7c-3.9,0-7-1-9.6-3
		c-2.5-2-3-5.1-1.4-9.1L3239.8,819z M3295.1,949.1c-3.9,10.3-7.8,21.5-11.7,33.4c-4,12-7.9,24-11.7,36.2c-3.9,12.2-7.8,24.2-11.7,36
		s-7.9,22.9-11.7,33.3h93.3L3295.1,949.1z"/>
</g>
<g class="st4">
	<path class="st5" d="M3475.4,820.5c0-4,1.4-7.3,4.1-9.7c2.7-2.4,6.1-3.6,10.2-3.6h327c3.6,0,6.9,1.1,9.7,3.3
		c2.8,2.2,4.5,5.6,4.9,10v75.5c0,3.6-1.3,7.1-3.8,10.5c-2.5,3.3-6.1,5-10.8,5h-104.9v332.8c0,3.7-1.3,6.9-3.9,9.9
		c-2.6,2.9-6.1,4.4-10.3,4.4h-89.1c-3.4,0-6.7-1.4-9.7-4.1c-3-2.7-4.5-6.1-4.5-10.2V911.4h-104.6c-4.1,0-7.4-1.3-10.2-3.9
		c-2.7-2.6-4.1-6.5-4.1-11.5V820.5z"/>
	<path class="st5" d="M3906,820.5c0-3.6,1.1-6.8,3.3-9.4c2.2-2.6,5.6-4,10-4h89.4c3,0,6.3,1.2,9.7,3.6c3.4,2.4,5.2,5.7,5.2,9.7
		v424.6c0,8.9-5,13.4-14.9,13.4h-89.4c-8.9,0-13.4-4.5-13.4-13.4V820.5z"/>
	<path class="st5" d="M4100.6,1033.3c0-21.5,2.7-42.1,8.2-61.9c5.5-19.8,13.3-38.3,23.4-55.6c10.1-17.3,22.3-33.1,36.3-47.3
		c14.1-14.2,29.8-26.3,47-36.3c17.2-10,35.7-17.8,55.5-23.4c19.8-5.6,40.4-8.4,61.9-8.4c21.3,0,41.9,2.8,61.7,8.4
		c19.9,5.6,38.4,13.4,55.7,23.4c17.2,10,32.9,22.1,47.1,36.3c14.2,14.2,26.3,29.9,36.3,47.3c10,17.3,17.8,35.9,23.4,55.6
		s8.4,40.4,8.4,61.9c0,21.5-2.8,42.1-8.4,61.9c-5.6,19.8-13.4,38.2-23.4,55.3c-10,17.1-22.2,32.7-36.3,46.8
		c-14.2,14.1-29.9,26.2-47.1,36.3c-17.2,10.1-35.8,17.9-55.7,23.4c-19.9,5.5-40.5,8.2-61.7,8.2c-21.5,0-42.1-2.7-61.9-8.2
		s-38.3-13.3-55.5-23.4c-17.2-10.1-32.9-22.2-47-36.3c-14.1-14.1-26.2-29.7-36.3-46.8c-10.1-17.1-17.9-35.6-23.4-55.3
		C4103.3,1075.3,4100.6,1054.7,4100.6,1033.3z M4218.2,1032.9c0,16.8,2.8,32.5,8.5,47.1c5.7,14.6,13.6,27.3,23.8,38.1
		c10.2,10.8,22.3,19.4,36.3,25.5c14,6.2,29.3,9.3,46.1,9.3c16.8,0,32.2-3.1,46.3-9.3c14.1-6.2,26.2-14.7,36.4-25.5
		c10.2-10.8,18.2-23.6,23.8-38.1c5.7-14.6,8.5-30.3,8.5-47.1c0-16.6-2.8-32.3-8.5-47c-5.7-14.7-13.6-27.5-23.8-38.4
		c-10.2-10.9-22.4-19.6-36.4-25.8c-14.1-6.3-29.5-9.4-46.3-9.4c-16.8,0-32.2,3.1-46.1,9.4c-14,6.3-26.1,14.9-36.3,25.8
		c-10.2,10.9-18.2,23.8-23.8,38.4C4221,1000.7,4218.2,1016.3,4218.2,1032.9z"/>
	<path class="st5" d="M4641,820.5c0-3.6,1.1-6.8,3.3-9.4c2.2-2.6,5.6-4,10-4h99.4c2.8,0,5.8,0.7,8.8,2.1c3,1.4,5.7,3.9,7.9,7.3
		c25.7,41.5,51.3,82.5,76.6,122.8c25.3,40.3,51,81.3,76.9,122.8V818.7c0.8-3.6,2.4-6.5,4.9-8.5c2.4-2,5.3-3,8.5-3h86.6
		c4.3,0,7.8,1.2,10.6,3.5c2.8,2.3,4.3,5.6,4.3,9.9v426.1c0,4.1-1.2,7-3.6,9c-2.4,1.9-5.8,2.9-10,2.9h-97c-2.6,0-5-0.9-7-2.7
		c-2-1.8-4.2-4.3-6.4-7.3c-27-44.6-53.6-88.6-79.9-132.2c-26.3-43.6-53.1-87.6-80.2-132.2v261.1c0,4.5-1,7.8-3,10
		c-2,2.2-5.7,3.3-10.9,3.3h-86.3c-4.7,0-8.1-1.3-10.2-3.8c-2.1-2.5-3.2-5.6-3.2-9.3V820.5z"/>
</g>
</svg>
