<svg id="Layer_1" data-name="Layer 1" xmlns="http://www.w3.org/2000/svg" xmlns:xlink="http://www.w3.org/1999/xlink" viewBox="0 0 5144 1960"><defs><style>.cls-1{fill:url(#linear-gradient);}.cls-2{fill:url(#linear-gradient-2);}.cls-3{fill:url(#linear-gradient-3);}.cls-4{fill:url(#linear-gradient-4);}.cls-5{fill:url(#linear-gradient-5);}.cls-6{fill:url(#linear-gradient-6);}.cls-7{fill:url(#linear-gradient-7);}.cls-8{fill:url(#linear-gradient-8);}.cls-9{fill:#231f20;}</style><linearGradient id="linear-gradient" x1="1034.44" y1="1435.14" x2="2607.07" y2="1435.14" gradientUnits="userSpaceOnUse"><stop offset="0" stop-color="#fff" stop-opacity="0.4"/><stop offset="1" stop-color="#a7dde8"/></linearGradient><linearGradient id="linear-gradient-2" x1="872.48" y1="658.29" x2="2607.07" y2="658.29" xlink:href="#linear-gradient"/><linearGradient id="linear-gradient-3" x1="872.48" y1="1147.2" x2="2607.07" y2="1147.2" xlink:href="#linear-gradient"/><linearGradient id="linear-gradient-4" x1="1801.75" y1="81.43" x2="2330.03" y2="1033.31" xlink:href="#linear-gradient"/><linearGradient id="linear-gradient-5" x1="3099.75" y1="185.63" x2="2823.88" y2="827.21" xlink:href="#linear-gradient"/><linearGradient id="linear-gradient-6" x1="3722.64" y1="696.49" x2="2697.46" y2="1139.17" xlink:href="#linear-gradient"/><linearGradient id="linear-gradient-7" x1="3475.8" y1="1323.48" x2="3009.2" y2="1245.21" xlink:href="#linear-gradient"/><linearGradient id="linear-gradient-8" x1="2854.84" y1="1950.02" x2="2748.99" y2="1312.82" xlink:href="#linear-gradient"/></defs><title>wagesArtboard 22</title><polygon class="cls-1" points="1034.44 1477.13 1598.33 1825.06 2607.07 1045.22 1034.44 1477.13"/><polygon class="cls-2" points="2607.07 1045.22 1172.41 271.37 872.48 817.26 2607.07 1045.22"/><polygon class="cls-3" points="1034.44 1477.13 872.48 817.26 2607.07 1045.22 1034.44 1477.13"/><polygon class="cls-4" points="2572 145.4 1172.41 271.37 2607.07 1045.22 2572 145.4"/><polygon class="cls-5" points="3607.93 271.37 2607.07 1045.22 2572 145.4 3607.93 271.37"/><polygon class="cls-6" points="4069.84 1021.22 2607.07 1045.22 3607.93 271.37 4069.84 1021.22"/><polygon class="cls-7" points="4069.84 1825.06 2607.07 1045.22 4069.84 1021.22 4069.84 1825.06"/><polygon class="cls-8" points="4069.84 1825.06 2607.07 1045.22 1598.33 1825.06 4069.84 1825.06"/><path class="cls-9" d="M1647.86,448.52a12.79,12.79,0,0,1,3.8-9.7q3.79-3.63,10.48-3.64H2015a15.15,15.15,0,0,1,9.88,3.34q4.1,3.35,4.1,10V510q0,2.44-.15,4.56a17,17,0,0,1-1.67,5.47l-220.05,262.3h208.81a14.55,14.55,0,0,1,9.72,3.34q3.95,3.35,4,10.33v75.68a16.13,16.13,0,0,1-3.8,10,12,12,0,0,1-9.88,4.86H1663.05a14.1,14.1,0,0,1-10.18-4q-4.1-4-4.1-11v-65.4a13.49,13.49,0,0,1,2.13-7.91l219.44-258.88h-208.2q-6.69,0-10.48-3.49t-3.8-11.36Z"/><path class="cls-9" d="M2228.37,447a9,9,0,0,1,2-4,22.67,22.67,0,0,1,9.27-6.84,14.28,14.28,0,0,1,5.17-1.06h77.81a12.93,12.93,0,0,1,8.81,3.19,39.23,39.23,0,0,1,5.47,5.62l7.6,17.32L2504,872.85q2.43,6.08-.91,9.88t-11.55,3.8h-87.23q-7,0-10.79-2.58t-5.93-8.66q-6.08-15.5-11.85-30.85t-11.55-30.85H2202.84q-5.78,15.5-11.7,30.85t-11.7,30.85q-4,11.25-15.5,11.25h-89.66a14.82,14.82,0,0,1-9.57-3q-3.81-3-1.37-9.12Zm55.32,130.08q-5.78,15.5-11.7,33.43t-11.7,36.17q-5.78,18.24-11.7,36T2236.88,716h93.31Z"/><path class="cls-9" d="M2565.13,449.16q0-6.38,3.34-10.18t10-3.8h196.34a147.63,147.63,0,0,1,58.66,11.7,153.08,153.08,0,0,1,47.72,31.76,148.29,148.29,0,0,1,32.06,47A142.1,142.1,0,0,1,2925,582.9a135.91,135.91,0,0,1-5.62,39.36,146.78,146.78,0,0,1-15.65,35,148.39,148.39,0,0,1-23.86,29.48,156.06,156.06,0,0,1-30.24,22.64l78.11,147.11q2.12,4.26,5.47,10t3.34,10a9,9,0,0,1-3.19,7.45q-3.19,2.59-8.66,2.58H2820.43a15.17,15.17,0,0,1-9.27-3,13.76,13.76,0,0,1-5.32-8.21L2732,736.39h-49.24V873.46q0,13.07-14,13.07H2578.5q-6.08,0-9.73-3.19t-3.65-9.88Zm238,134.95a52.67,52.67,0,0,0-3.34-18.24,59.33,59.33,0,0,0-9.42-16.72,55.4,55.4,0,0,0-14.59-12.77,50,50,0,0,0-18.84-6.69q-8.51-.6-16-1.06t-16.26-.46h-41.94V639.73h55.93q5.47,0,9.72-.3t9.42-.91a47.92,47.92,0,0,0,19.15-6.23,50,50,0,0,0,14.29-12.46,55,55,0,0,0,8.81-16.72A60.66,60.66,0,0,0,2803.11,584.11Z"/><path class="cls-9" d="M3121.33,447a9,9,0,0,1,2-4,22.68,22.68,0,0,1,9.27-6.84,14.29,14.29,0,0,1,5.17-1.06h77.81a12.93,12.93,0,0,1,8.81,3.19,39.12,39.12,0,0,1,5.47,5.62l7.6,17.32L3397,872.85q2.43,6.08-.91,9.88t-11.55,3.8h-87.23q-7,0-10.79-2.58t-5.93-8.66q-6.08-15.5-11.85-30.85t-11.55-30.85H3095.8q-5.78,15.5-11.7,30.85t-11.7,30.85q-4,11.25-15.5,11.25h-89.66a14.83,14.83,0,0,1-9.57-3q-3.8-3-1.37-9.12Zm55.32,130.08q-5.78,15.5-11.7,33.43t-11.7,36.17q-5.78,18.24-11.7,36T3129.84,716h93.31Z"/><path class="cls-9" d="M1174.63,1176.79q0-11.24,11.83-12.16h89.43q16.37,0,16.37,15.8v416.39a134.41,134.41,0,0,1-12,56.38,149,149,0,0,1-32.28,45.89,151.63,151.63,0,0,1-47.14,30.85,145,145,0,0,1-56.61,11.25,152.88,152.88,0,0,1-34.65-4,143.52,143.52,0,0,1-32.37-11.7,141,141,0,0,1-28.57-19.15,131.53,131.53,0,0,1-23.25-26.29q-.91-.31-.91-4.86,0-7.91,4.86-11.55l52.89-49.54a24.5,24.5,0,0,1,5.17-3.49,11.58,11.58,0,0,1,5.17-1.37,13.53,13.53,0,0,1,8.66,3.34l9.12,7.45a62.75,62.75,0,0,0,11.7,7.45,38.07,38.07,0,0,0,29.79.61,39.42,39.42,0,0,0,11.7-7.29,35.4,35.4,0,0,0,8.05-10.79,29.79,29.79,0,0,0,3-13.22Z"/><path class="cls-9" d="M1370.67,1390.76a231,231,0,0,1,31.63-117.47,235.38,235.38,0,0,1,36.34-47.26,226.75,226.75,0,0,1,47-36.32,238.59,238.59,0,0,1,55.51-23.4,232.76,232.76,0,0,1,123.63,0,237.92,237.92,0,0,1,55.66,23.4,230.79,230.79,0,0,1,83.49,83.58,241.18,241.18,0,0,1,23.42,55.62,232.89,232.89,0,0,1,0,123.7,235.22,235.22,0,0,1-23.42,55.32,228.48,228.48,0,0,1-36.34,46.81,237.63,237.63,0,0,1-47.14,36.32,232.7,232.7,0,0,1-234.8,0,235.58,235.58,0,0,1-83.33-83.13,226.76,226.76,0,0,1-23.42-55.32A230.47,230.47,0,0,1,1370.67,1390.76Zm117.62-.3a129,129,0,0,0,8.5,47.11,116.32,116.32,0,0,0,23.83,38.14,111,111,0,0,0,36.27,25.53q20.94,9.28,46.14,9.27t46.29-9.27a110.62,110.62,0,0,0,36.43-25.53,116.31,116.31,0,0,0,23.83-38.14,134.38,134.38,0,0,0,0-94.07,117.76,117.76,0,0,0-23.83-38.45A111.23,111.23,0,0,0,1603,1269.8q-25.2,0-46.14,9.42a111.93,111.93,0,0,0-36.27,25.83,117.77,117.77,0,0,0-23.83,38.45A129.42,129.42,0,0,0,1488.29,1390.46Z"/><path class="cls-9" d="M1911.06,1178a14.1,14.1,0,0,1,3.34-9.42q3.34-3.95,10-4h89.36q4.56,0,9.72,3.65a11.35,11.35,0,0,1,5.17,9.73v424.6q0,13.38-14.89,13.37h-89.36q-13.38,0-13.37-13.37Z"/><path class="cls-9" d="M2127.77,1178a14.1,14.1,0,0,1,3.34-9.42q3.34-3.95,10-4h99.39a20.85,20.85,0,0,1,8.81,2.13,19.28,19.28,0,0,1,7.9,7.29q38.6,62.31,76.59,122.79t76.9,122.79V1176.18a14.86,14.86,0,0,1,4.86-8.51,12.9,12.9,0,0,1,8.51-3h86.62a16.22,16.22,0,0,1,10.64,3.5q4.25,3.5,4.26,9.88v426.12q0,6.08-3.65,9t-10,2.89h-97a10.13,10.13,0,0,1-7-2.74,47.79,47.79,0,0,1-6.38-7.29l-79.94-132.21q-39.52-65.34-80.24-132.21v261.08q0,6.69-3,10t-10.94,3.34h-86.32q-7,0-10.18-3.8a13.93,13.93,0,0,1-3.19-9.27Z"/><path class="cls-9" d="M2804.62,1177.7a13.42,13.42,0,0,1,3.65-9.42q3.65-3.95,10-4h90a14.16,14.16,0,0,1,9.42,3.65,13.11,13.11,0,0,1,4.56,9.73v330.68h167.17a13.42,13.42,0,0,1,9.42,3.65q3.95,3.65,4,10V1602a14.5,14.5,0,0,1-3.5,9.42q-3.5,4.26-9.88,4.56H2818q-13.38,0-13.37-13.37Z"/><path class="cls-9" d="M3174.81,1178a14.1,14.1,0,0,1,3.34-9.42q3.34-3.95,10-4h89.36q4.56,0,9.72,3.65a11.35,11.35,0,0,1,5.17,9.73v424.6q0,13.38-14.89,13.37h-89.36q-13.38,0-13.37-13.37Z"/><path class="cls-9" d="M3392.73,1178.62q0-6.38,3.49-10a12.3,12.3,0,0,1,8.36-4h290.87q7,0,10.48,3.94t3.5,10.6v75.16a15.83,15.83,0,0,1-3.65,9.85q-3.65,4.7-10.64,4.7H3510.36v94.22h136.47a15,15,0,0,1,9.73,3.19q3.95,3.19,4,10.18v72.64a16.34,16.34,0,0,1-3.5,9.88,11.27,11.27,0,0,1-9.57,4.71H3510.36v139.2q0,13.07-14,13.07h-92.7q-10.94-1.52-10.94-12.77Z"/><path class="cls-9" d="M3784.51,1178.62q0-6.38,3.49-10.18t9.86-3.8h301.54q6.68,0,10.33,3.94t3.65,10.6v75.16a15.83,15.83,0,0,1-3.65,9.85q-3.65,4.7-10.64,4.7h-197v75.38h152a16,16,0,0,1,9.57,2.74q3.8,2.74,3.8,9.12v65.65a12.59,12.59,0,0,1-3.34,8.21q-3.35,4-9.72,4H3902.13v77.81h204.25q13.68,0,13.68,13.94V1602a7.52,7.52,0,0,1-2.43,5.45q-1.22,8.49-12.46,8.49H3797.85q-6.07,0-9.7-3.19t-3.64-9.88Z"/></svg>