<svg id="Layer_1" data-name="Layer 1" xmlns="http://www.w3.org/2000/svg" viewBox="0 0 3623.28 2099.58"><defs><style>.cls-1{font-size:607.88px;fill:#231f20;font-family:COCOGOOSE, COCOGOOSE;}.cls-2{letter-spacing:0.03em;}.cls-3{letter-spacing:0em;}.cls-4{fill:#45b649;}.cls-5{fill:#c61c6f;}.cls-6{fill:#f7ec15;}</style></defs><title>reformationArtboard 15</title><text class="cls-1" transform="translate(88.95 1240.85)">EVER<tspan class="cls-2" x="1695.03" y="0">L</tspan><tspan class="cls-3" x="2071.61" y="0">ANE</tspan></text><path class="cls-4" d="M90.69,1591.45c16.55-14.34,29-32.48,43.23-49,14.52-16.8,31.91-30.24,50-42.9s35.7-25.8,53.89-38.19c18.41-12.55,38.2-25.11,59.15-33,10.91-4.1,22.62-5.28,33.68-8.9,10.39-3.4,20.11-8.56,30.42-12.17,19.95-7,42-8.62,63-8A254.46,254.46,0,0,1,488,1409.47c21,6.12,40.17,16.15,60.24,24.66,24,10.16,48.76,19.12,70,34.42,9.79,7,19,15,29.69,20.74,11.06,6,23.08,10.3,33,18.17,2.5,2,6.06-1.54,3.54-3.54-8.54-6.76-18.34-11.12-28.06-15.9-9.87-4.85-18.53-11-27.3-17.61-9.43-7.07-18.93-13.81-29.48-19.14s-21.35-10-32.21-14.5c-11.61-4.86-23.29-9.59-34.69-14.94-9.42-4.42-18.76-8.81-28.56-12.35a260.49,260.49,0,0,0-63.36-14.12,223.35,223.35,0,0,0-63.24,2.5,144.12,144.12,0,0,0-29.43,9.23,199.07,199.07,0,0,1-34.91,11.68c-44.7,10-81.07,41.26-117.82,66.75-20.31,14.09-41.13,27.88-58.28,45.85-17.41,18.23-30.92,39.93-50.08,56.53-2.44,2.11,1.11,5.63,3.54,3.54Z"/><path class="cls-4" d="M98.73,1593.53c-8.56,7.39-10,22.36-13.55,32.74a269.79,269.79,0,0,0-8.74,32.57c-4.15,20.32,1.6,68.34,30.82,47.14,20.67-15,27.45-42.22,27.56-67.24.06-11.86,1.88-25.56-.62-37.2-2-9.19-17.48-31.28-27.47-16.21"/><path class="cls-4" d="M94.73,1577.16c.77-8.89-12.79-16.69-18.84-20.75-11-7.36-21-6.45-33.27-9-22-4.53-44.59,1.73-57.8,21.86-14.41,22-2.82,39.68,21.92,40.88,24,1.16,47.92-5.36,64-24.83"/><path class="cls-4" d="M206.73,1474.87c-17.59,1.37-33.22-20.56-48.34-26.43-18.87-7.33-40.77-10.31-52.21,10.9-8.07,15-3.58,33.94,13.4,39.54,7,2.29,16.7,1.11,24.05.83,11.55-.44,20.25-7.76,31.11-8.48"/><path class="cls-4" d="M218.73,1487.15c-12.35,25.67-24.8,49.13-30.32,77.58-2.67,13.73.54,27.85,11,37.44,13.6,12.4,23.62,7.29,35.47-3.28,20.27-18.09,26-48.57,31-74.71,2.85-15,4.05-33.59-10.92-41.59-9.89-5.29-21.65-7.54-32.26-3.63"/><path class="cls-4" d="M346.73,1372.58c18.27-18.58,3.93-48-13.7-60.52-25-17.74-56.6-20-82.36-2.78-23.28,15.54-37.29,47.76-8.15,65.22,22.6,13.55,51.83,10.18,76.21,6.26"/><path class="cls-4" d="M382.73,1442.14c-23.2-6.3-49,8.74-61.87,28.46-12.11,18.56-23.33,56.18.5,70.41,23,13.75,51.72-17,64.56-33.41,9.56-12.18,18-23.56,21.21-39,3.32-15.77,1.53-18.92-12.4-26.41"/><path class="cls-4" d="M506.73,1307.11c7.88-4.11,18.54-11.28,27.89-10.92,10.38.4,21.63,11.65,27.5,19.72,10.4,14.31,11.63,47.86,8.64,65.11-2.17,12.53-7.69,16.2-20.05,13.67-13.69-2.81-19.59-10.57-27.15-22-11.5-17.44-24.82-45.7-4.83-61.44"/><path class="cls-4" d="M574.73,1491.24c-1.77-30.64-31.68-32.07-55.66-32.92-21.8-.78-60.71,10.24-64.49,36.9-4.14,29.16,26.81,32.45,48.06,32.93,11.66.26,25.21,2.41,35.3-4.71,12.77-9,21.41-21.85,32.8-32.2"/><path class="cls-4" d="M670.73,1474.87c-11.71-8.56-20.81-9.93-28.17-24.37a111.83,111.83,0,0,1-12.1-44.28c-1.39-24.94,17.78-64,46.87-48.48,24.66,13.14,42.16,45.45,46.87,73.12,2.55,15-5,30.31-17.18,39.48-12,9-23.47,2.39-36.29.44"/><path class="cls-4" d="M674.73,1552.61c-19.81-22.18-57.28-16.89-80.29-4.38-13.65,7.42-22.27,17.41-25.07,32.93-2.3,12.79-.61,31.23,13,36.38,22.83,8.66,57.49,7.54,80.56.91,16-4.59,24.36-17.43,29.72-33,6.24-18.09,1.85-28.6-13.9-36.94"/><path class="cls-4" d="M796.57,1329.43c13.09,22.14,34.76,36,57.45,46.92,11.28,5.41,22.76,10.61,34.32,15.41,12.79,5.31,26.63,8.28,40.32,10.09,14.76,2,28.4.52,42.87-2.73,15.28-3.43,30.84-5.44,46-9.36a234.42,234.42,0,0,0,80.87-38.76q10.07-7.4,19.71-15.35c6.48-5.35,13.53-10.65,19-17.08,9.93-11.71,13.65-26.93,16-41.73.51-3.15-4.31-4.5-4.82-1.33-2.12,13.1-5.09,26.75-13.21,37.58-4.32,5.77-10.21,10.32-15.67,15q-8.69,7.38-17.76,14.3c-23.31,17.74-48.15,31.62-76.31,40-14,4.18-28.19,6.26-42.46,9.1-14.84,3-29.39,7.45-44.69,6.36a172,172,0,0,1-38.3-7.25c-11.92-3.68-23.3-9.37-34.65-14.52-24.93-11.3-50-24.87-64.39-49.18-1.64-2.77-6-.26-4.32,2.52Z"/><path class="cls-4" d="M1157.23,756.17c-.09-11.8.56-23.2,5.38-34.15a326.69,326.69,0,0,1,19-36.14c13.13-21.86,30.38-41.59,49.54-58.35,18.76-16.41,39.29-30.3,63.95-35.61,12.23-2.64,24.7-3.82,37.11-5.34,11.93-1.47,23.65-4,35.72-2.61,25.07,2.94,44.83,18.17,64.43,32.68A368.83,368.83,0,0,0,1497.1,655a112,112,0,0,0,32,9.63,310,310,0,0,0,33.72,3c12,.39,24.75.56,36.5-2.19,11.25-2.64,21.83-7.93,32.17-13,11.58-5.63,22.39-11.45,32.08-20.06,10.22-9.08,19.12-19.81,27.43-30.64s14.88-22.31,21.1-34.38c2.67-5.17,5.23-10.38,6.5-16.09s1.76-12.73,5.9-17.33c2.15-2.39-1.38-5.93-3.54-3.54-6.66,7.4-5.85,18.24-9.59,27a192.67,192.67,0,0,1-18.85,33.83c-14.06,20.23-31.5,41.08-53.92,52.22-10.79,5.36-21.71,11-33.13,14.91-12,4.1-24.74,4.46-37.29,4.33a303.82,303.82,0,0,1-35.26-2.57A113.87,113.87,0,0,1,1498,649.91a369.4,369.4,0,0,1-67.38-40.8c-18.26-13.91-37.8-26.89-61.1-29.94-12.16-1.59-23.65.7-35.66,2.21-11.74,1.48-23.55,2.58-35.19,4.75s-23,5.43-33.43,11-20.43,12.8-29.73,20.29a256.41,256.41,0,0,0-56.22,62.76A294.66,294.66,0,0,0,1157.65,721c-4.8,11.33-5.52,23-5.42,35.19,0,3.22,5,3.22,5,0Z"/><path class="cls-4" d="M794.73,1412.17c0,28.85-3.71,60.89,7.81,88.19,7.15,16.94,14.59,29.45,32.19,36.35,15.38,6,24.42-7,27.68-20.81,7.09-30,6.82-65.85.15-95.87-3.38-15.22-16.88-35.6-35.14-31.71-17.19,3.66-15.86,20.63-24.7,31.85"/><path class="cls-4" d="M898.73,1304.17c-16.07,7.18-36.72,29.45-15.46,44.57,15.36,10.92,48.12.41,63.11-6.29,12.88-5.75,45.81-27.37,30-44.65-11.07-12.11-42.11-12-53.67-1.63"/><path class="cls-4" d="M1014.73,1440.17c9.67,10.11,27.51,19.73,39.85,26.15,15.06,7.83,32.39,15.54,49,19,25.71,5.38,69.82,6.63,63.28-33.18-5.16-31.41-53.49-51.27-80.36-59.17-24-7-73.55-.82-67.79,35.17"/><path class="cls-4" d="M1030.73,1356.17c-.21-19,5.89-36.19,16.81-52.09,9.53-13.88,27-40.59,45.2-22,12.43,12.72,4.83,38.1-6.63,49.44-9.51,9.4-40.06,24.61-51.38,12.6"/><path class="cls-4" d="M1034.73,680.17c-2.25,13,6.23,25.6,12.83,35.87,8.83,13.74,16.46,29.78,35.46,28.75,30.07-1.63,15.78-50.32,9.71-66.62-10-26.84-18.41-61.64-53.39-65.75-13.16-1.54-18.51,14.69-20.06,25.54-1.86,12.95,6.21,29.31,15.46,38.21"/><path class="cls-4" d="M1222.73,708.17c-11.49,6.81-29.87,19.43-31.85,34.08-1.81,13.39,12,20.13,23.66,20.19,27.7.15,61.62-13.25,79.88-34.09,15-17.13,43.56-57.49,4.47-67.66-11.75-3.05-33.4-2.41-44.39,2.89-6.14,3-10.58,8.25-15.64,12.6-7.69,6.62-16,10.2-24.14,16"/><path class="cls-4" d="M1210.73,584.17c-1.2-11.08-6.27-20.79-7.7-31.7a196.25,196.25,0,0,1-.49-40.41c1.93-21.37,11.74-62.5,40.18-62.76,26.46-.25,30.7,40.17,27.84,58.82-3.39,22.08-25.57,64.13-51.83,64"/><path class="cls-4" d="M1306.73,628.17c18.75-9.2,39.48-9.32,60-8.19,16.11.89,54,7,59.85,25.08,9,27.71-30,20.8-43.64,19.17-13.91-1.66-23.65-6.15-36.17-12.09s-21.8-6.86-28-20"/><path class="cls-4" d="M1386.73,552.17c2.31-27.19,30.86-50.05,52.22-63.5,20.27-12.76,59.78-12.77,72.32,11.21,13.5,25.81-8.46,50.07-32.56,56.46-23.71,6.29-56.37,16.91-76-4.17"/><path class="cls-4" d="M1462.73,688.17c-1.67,14.1,4.9,32.65,12.72,44.08,7.51,11,27.16,34.86,42.86,24.68,14.08-9.13,3.94-35.57-2.22-45.06a60.49,60.49,0,0,0-45.35-27.7"/><path class="cls-4" d="M1482.73,612.17c18.6-21.76,38.89-32.67,63.11-47.19,15.72-9.42,43.66-18.22,53.52,2.92,9,19.31-15.15,35.66-32.43,39.56-22.2,5-45.54,4.73-68.19,4.71"/><path class="cls-4" d="M1642.73,696.17c7.08,1.34,14.34,14.33,19.83,18.93,11,9.24,20.45,20.24,32.29,28.56,15.65,11,38,14.31,47.23-6.22,9.77-21.7-5.39-36.64-23.28-45.35-11.92-5.8-21.5-11.74-35.16-12.3-10.47-.43-18.88,2.65-28.9,4.38"/><path class="cls-4" d="M1554.73,704.17c7.89,8,10.22,19.69,18.7,27.38,5.65,5.13,19.17,15.37,25.76,8.49s5.16-20.72-.78-27.06c-7.5-8-19.9-8.83-27.68-16.81"/><path class="cls-4" d="M1666.73,584.17,1663,587c-19.7-9.17-29.83-40-35.4-59-5-17.11-7.26-39.51,13.78-47.33,24.32-9,34.12,18.56,41.59,35.54,8.36,19,13.93,49.39-8.19,60"/><path class="cls-4" d="M1714.73,624.17c4.45-10.86,18.39-10.6,28-13.07,11.47-2.94,21.16-3.86,33-2.09,8.31,1.24,17.11,1.89,23.47,7.67a23.38,23.38,0,0,1,4.21,28.76c-9.22,15.18-36.05,19.79-52.63,19.18-21.36-.79-38.92-27.79-36-48.46"/><path class="cls-4" d="M1520.32,1316.84c4.43,11.8,2.9,24.77,8,36.41s9.84,23.33,16.27,34.15,13.75,21.42,20.91,31.79a161.44,161.44,0,0,0,23.9,27.66,339.15,339.15,0,0,0,28.22,22.79c9.1,6.69,19.6,10.68,30,14.78,10.66,4.18,20.93,9.29,31.62,13.42,11.52,4.44,23.43,6.92,35.41,9.75,12.75,3,25.47,6.21,38.4,8.36,12.67,2.11,25.17,2.48,38,2.81s25.23.86,37.84-1.32,25.19-5,37.86-7.23c20.56-3.54,38.25-15.63,54.13-28.53,8.48-6.88,16.82-14,25-21.21s14.37-16,20-25.3c6.71-11.11,14.39-21.79,20.3-33.34,6.16-12,9.74-24.84,14.15-37.53,4.35-12.54,8.94-25,11.14-38.13,1.85-11,2.63-23.47,9.44-32.75,1.91-2.6-2.43-5.09-4.32-2.52-5.38,7.33-7.12,16.66-8.58,25.44a209,209,0,0,1-7.11,31c-7.41,22.65-14,46-27.29,66-5.89,8.88-11,18.24-17,27.09-6.26,9.33-14.16,16.33-22.62,23.59-16.1,13.81-32.43,28.6-52.35,36.68-10.42,4.23-21.34,5.15-32.26,7.38-12.55,2.57-24.91,5.79-37.79,6.07-25.46.56-50.67-1.11-75.53-6.67-23.36-5.22-46.45-10.18-68.42-19.9-10.4-4.6-21.07-8.56-31.47-13.15-11.07-4.88-20.33-12.14-29.74-19.64-10.23-8.14-20.08-16.86-28.39-27-9.08-11.08-16.25-23.57-24.29-35.39-7.5-11-12.89-22.94-18.24-35.11-3.12-7.08-5.53-13.62-6.44-21.34-.82-7-1.46-13.81-4-20.45-1.12-3-6-1.69-4.82,1.33Z"/><path class="cls-4" d="M2044.5,1085.94c5.63-5,8-11.25,8.38-18.62.22-4-.07-8,.18-12,.34-5.31,2-10.39,3.79-15.36,3.45-9.54,6.07-19.48,10.06-28.8a137.76,137.76,0,0,1,14.83-26c11.93-16.64,27.63-30.46,44-42.57A301,301,0,0,1,2151,925.8c8.12-4.82,16.65-8.88,24.37-14.36,15.46-11,28.62-24.78,42-38.12s24-28.36,33.3-44.83c19.1-33.74,35.29-71,35.34-110.47,0-20.83-4.51-41.22-5.85-61.94-1.16-18-5-33.92-19.69-45.68-2.49-2-6.05,1.53-3.54,3.54,6.7,5.35,12,11.86,14.72,20,2.41,7.12,3,14.65,3.5,22.09,1.14,17.72,4.75,35.14,5.62,52.88,2,40.21-12.86,78-31.95,112.56-9.17,16.62-19.28,32.62-32.8,46.07-13.24,13.16-26.12,27-41.18,38.1-7.12,5.26-14.91,9.19-22.57,13.58q-13.12,7.53-25.44,16.33c-15.27,10.92-30.12,23.18-42.19,37.62-13.24,15.84-22.08,33.38-28.17,53-3.09,10-8.05,19.36-8.5,30-.41,9.75,1.07,19.12-7,26.25-2.42,2.13,1.13,5.65,3.54,3.54Z"/><path class="cls-4" d="M1486.73,1368.17c-16.93,16.85-47.61,108.09.21,106.86,14.78-.38,27.17-34.59,31-46.87,3.54-11.42,5.69-23.18,5.27-35.17-.54-15.2-7.44-19-20.46-24.81"/><path class="cls-4" d="M1590.73,1360.17c10.42,15.49,30.23,31.14,49,35.46,8.1,1.86,17.45,2.63,23.46-3.79,6.81-7.28,8.83-18.81,5.76-27.82-5.42-15.88-30.21-31.24-46.2-35.31-18.72-4.76-38.94,6.85-36,27.46"/><path class="cls-4" d="M1574.73,1516.17c-.17,20.05-3.84,39-4.06,59.1-.11,9.63-1.34,23.81,8.58,29.67,9.33,5.51,25-.13,29.36-8.79,9-18,9.91-48.13.49-65.66-5.26-9.79-14.23-21.73-26.21-22.68s-9.55,9.59-16.15,16.36"/><path class="cls-4" d="M1726.73,1448.17c10.49-1.83,74.08-5.65,47.32-28.3-11.91-10.08-29.33-11.82-44.21-11.87-10.65,0-47,3.17-46.28,21.36.48,11.8,22.42,16,31.17,14.81"/><path class="cls-4" d="M1674.73,1548.17a174.67,174.67,0,0,0,11.71,63.21c6.58,16.53,32.17,49.14,52.76,33.44,7-5.37,9.92-20.53,10-28.68.12-12.94-8.8-24.69-15.4-35.08-5.32-8.38-43.07-59.18-55.07-36.89"/><path class="cls-4" d="M1774.73,1476.17c9.89-17.33,87.52-81.1,96.2-34,3.16,17.12-23.81,25.7-36.32,29.08-14.5,3.92-36.66,18.08-47.89.9"/><path class="cls-4" d="M1798.73,1568.17c2.18,19.84,9.91,39.57,24.81,53.25,12.35,11.34,39.19,25.67,51.72,6.11,18-28-55.19-97.37-72.53-71.36"/><path class="cls-4" d="M1894.73,1340.17c-14.48,12.12-13.12,42.83-12.29,59.79.84,17.22,13.62,55.26,34,32.6,14-15.58,15.84-40.68,14.52-60.6-.75-11.25-5.86-24.31-15.08-31.57s-15-2-25.18-.23"/><path class="cls-4" d="M1918.73,1524.17c6.22-9.07,18.16-9.52,28-12,13.1-3.35,23-6,36.11-.32,25.64,11.13,38,41.68,13.18,60.62-18.71,14.27-49.18,18-70.94,9.25-26.67-10.67-32.14-47.88-10.32-65.52"/><path class="cls-4" d="M1978.73,1340.17c-16.9,3-30.72-24.61-21.87-37.71,10.28-15.21,21.18,13.39,21.87,21.71"/><path class="cls-4" d="M2026.73,1360.17c-1.73-11.72,19.05-19.33,27.69-21.35,13-3.06,31.25.37,37,14.15,9.55,22.7-44.49,45-56.73,27.2"/><path class="cls-4" d="M2010.73,1428.17c3.41-13.89,29.21-13.88,40.18-15.37,18.26-2.48,23.07,11.57,19.87,27.51-6.18,30.77-79.67,28.75-68-4.14"/><path class="cls-4" d="M2018.73,996.17c10.51-12.52-11.42-42.79-18.9-52.44-5.56-7.17-8.77-12.28-17.28-8.29-6.86,3.22-10.54,14-11.65,20.55-3.48,20.44-.2,39.13,19.85,48.83,21,10.15,25.2-7.25,28-24.65"/><path class="cls-4" d="M2066.73,948.17c-13.72-24-57.94-77.19-8.1-89.63,17.73-4.42,31.32,17.56,35.46,32.53,6,21.77-1,36-19.36,49.1"/><path class="cls-4" d="M2082.73,1052.17c13.88,0,30.18,2.41,43.21-3.54,12.39-5.65,32-26,24.43-40.95-6.47-12.82-33.56-10.7-43.82-7a36.08,36.08,0,0,0-17.8,13.61c-5.3,7.95-3.7,18.73-10,25.85"/><path class="cls-4" d="M2150.73,976.17c16.94,0,32.39,1.89,48.07-5.64s32.16-27.63,9.39-37.72c-15.76-7-37.33-2.29-48.93,10.09-10.6,11.32-15.37,37.35,7.47,37.27"/><path class="cls-4" d="M2146.73,892.17c-11.6.58-20.09-26.91-24.27-36-6.56-14.28-7.06-33.3,12.2-36.24,17.35-2.64,26.33,14.53,32.44,28.25,7.65,17.2,4.47,31.56-12.36,40"/><path class="cls-4" d="M2218.73,896.17c-1.18-15.51,34-26.41,42.1-13.88,11.39,17.52-20.19,29.15-33.11,25.56-1.48-5.86,2.28-9.9,3-15.68"/><path class="cls-4" d="M2218.73,828.17c-12,2.75-23.86-14.47-28.29-23.71-6.11-12.78-11.78-32.88-2.12-44.87,9-11.21,25.08-1.2,32.39,8.76,6.43,8.75,11.31,28.88,10,39.83"/><path class="cls-4" d="M2294.73,756.17c-5.09-14.67,16.4-30.76,27.81-36.26,13.52-6.52,31.93-10.41,42.74,2.45,22.56,26.84-38.68,64.9-54.55,41.81"/><path class="cls-4" d="M2246.73,688.17c-10.85.51-18.24-11.13-25.79-17.1s-17-12.1-26.38-14.46c-25.11-6.3-21,15.65-14,32.05,6.87,16.23,22.37,40.74,42.49,43.34,19.76,2.56,19.87-26.8,19.71-39.84"/><path class="cls-4" d="M2302.73,692.17c0-17.09,3.81-31.11,19.94-40.49,12.48-7.26,34.12-19.85,45.44-3.91,8.67,12.22-.45,27.2-13.1,31.67-14.63,5.17-32.9,6.82-48.27,8.73"/><path class="cls-4" d="M2437.23,728.17c5.52-43.5,19.52-88.17,46.24-123.46,14.66-19.36,33.86-32.61,53.51-46.45,21.79-15.35,44.34-29.07,69.42-38.39,6.15-2.29,12.55-4.3,19.14-4.64,6.31-.33,12.79.81,19.07,1.41,13,1.25,25.5,3.16,37.43,8.61C2701.38,534.07,2718,548,2731.8,564c14.71,17,26.5,36.5,35.61,57s12.64,42.73,22.75,62.67c3.37,6.64,6.8,13.25,8.85,20.44,1.92,6.75,3.68,13.49,6.14,20.08,4.8,12.83,10.53,25.62,17.84,37.22,14.06,22.32,34,39.63,54,56.52,2.44,2.07,6-1.45,3.54-3.54-18.78-15.92-37.79-32.16-51.48-52.87-7.31-11-13-23.2-17.82-35.5s-7.23-25.53-13-37.55c-2.62-5.42-5.54-10.69-8-16.19-2.66-6-4.1-12.17-5.8-18.46a241.42,241.42,0,0,0-10.65-30.74A238.34,238.34,0,0,0,2739.13,565c-13.68-16.77-30.23-31.66-49.56-41.62A100.77,100.77,0,0,0,2656.45,513c-12.11-1.65-25.53-4.14-37.67-1.93-12.8,2.34-25.42,8.31-37.07,14a294.7,294.7,0,0,0-35.86,21.07c-19.81,13.34-41,26.68-57.11,44.49-33.73,37.22-50.29,88.58-56.51,137.61-.4,3.18,4.6,3.15,5,0Z"/><path class="cls-4" d="M2364.32,1287.51a120.64,120.64,0,0,0,6.17,98c7.44,14.26,17.46,27.86,30.31,37.67,12.44,9.5,26.59,13.88,41.54,17.67,17.89,4.54,35.79,10.32,54.48,9.59,19.22-.75,39-5.22,57.61-9.82a349.1,349.1,0,0,0,53.29-18.16c18.2-7.76,36.12-15.15,55.29-20.17,10.37-2.71,20.65-5.75,31.12-8.06a177.74,177.74,0,0,1,32.37-3.79c16.23-.57,36.85-3.55,50.46,7.46,2.48,2,6-1.51,3.54-3.54-10.86-8.79-25.32-9.72-38.76-9.49-16.45.28-32.83,1-48.93,4.53-18.25,4-37,8.7-54.54,15.11s-34.19,14.64-51.64,21.11a342.1,342.1,0,0,1-55.52,14.93c-19.47,3.68-38.48,6.64-58.16,2.75-9-1.78-17.78-4.32-26.64-6.62-8-2.07-16-3.79-23.65-6.85-15.22-6.09-27.56-16.64-37.19-29.78-23.82-32.48-30.32-73.35-16.34-111.26,1.12-3-3.72-4.33-4.82-1.33Z"/><path class="cls-4" d="M2298.73,1300.17c-18.19,8.2-27.3,22.68-36.16,40-6.69,13.08-14.41,35.57,7.89,36.63,32.84,1.56,70-55.9,36.27-76.63"/><path class="cls-4" d="M2398.73,1292.17c1.29,17.73,12.66,29.08,26.31,39.72,10.44,8.13,32.25,21,41.36,3.64,14.55-27.77-33.77-54.43-55.67-51.36"/><path class="cls-4" d="M2330.73,1380.17c-7.35,14.93-42.69,69.59-11.69,77.9,13.14,3.52,20.29-11.08,21.52-22.22,1-9.4,0-36.73-5.83-43.68"/><path class="cls-4" d="M2406.73,1380.17c9.65,11.56,56.06,37.28,65.51,13.74s-43.63-21.62-53.51-21.74"/><path class="cls-4" d="M2406.73,1496.17c-22.39,12.23,71,60.62,65.89,22.17-2.37-17.9-24.35-25.92-37.86-32.34-19.18-9.12-33.82-9.57-44,10.17"/><path class="cls-4" d="M2494.73,1404.17c-1.66-19.89,25.15-29.81,39.78-36.27,16.23-7.17,43.87-5.23,37.93,19.94-7.34,31.08-86.93,41.47-73.71,4.33"/><path class="cls-4" d="M2502.73,1496.17c1.14,15.43,9.72,25.49,23.92,32.37,11.64,5.64,29.9,10.51,39.84-1,22.09-25.63-32.55-37-47.76-39.36"/><path class="cls-4" d="M2602.73,1384.17c-5.91-14.64-3.77-29.35-4.06-44.9-.33-16.93,2.1-34,20.41-41.34,18.62-7.48,23.15,8.66,24.9,22.94,2.76,22.56-9.75,36.37-25.24,51.3"/><path class="cls-4" d="M2606.73,1460.17c-1.4-7.18,6.52-8.26,11.62-8.65,10.12-.76,17.85,5.16,23.87,12.51,9.86,12,18.89,37.83,6.42,50.2-13.67,13.55-29.13,3.13-40.09-7.85-15.06-15.08-17.93-29.84-21.82-50.21"/><path class="cls-4" d="M2674.73,1364.17c-6.55-12.53-8.82-21.81-8.26-35.89.5-12.45,9.14-32.49,24.4-31.86,10.9.45,16.69,15,17.87,24.44,2.52,20.08-9.64,24.32-22,35.32"/><path class="cls-4" d="M2662.73,1444.17c1.33,16,13.17,31.8,22.82,44.38,9.33,12.15,33.27,20.18,43.08,4,10.31-17,0-31.16-11.74-44-5.78-6.34-13.49-15.6-22.16-17.66-9.61-2.29-14.71,4.7-24,5.34"/><path class="cls-4" d="M2754.73,1360.17l-3.4-.38c-7.39-15.65,14-34.64,23.17-43.68,13.75-13.5,32.52-26.34,44.38-5.19,8.59,15.32,8.9,32-7.89,41.52-9.9,5.63-40.4,23.47-48.26,7.73"/><path class="cls-4" d="M2754.73,1432.17c2,13.3,5.23,32.9,12.52,44.06,9.12,14,31,31.35,45.89,14,25-29.23-33.3-87.8-50.41-66"/><path class="cls-4" d="M2474.73,712.17c-8.21-22.55,31.32-42.62,48.11-52.27,15.83-9.1,41.38-15.44,52.32,3,12.83,21.65-7.89,33-24.35,41.33s-49.2,21.66-64.08,3.92"/><path class="cls-4" d="M2414.73,636.17c0-17,2.21-35.29-.83-52.09-2.22-12.29-14.12-46.79-31.45-27.56-12.17,13.51-5.64,41.58-3,56.62,1.52,8.73,4.82,18,12,23.55,5.82,4.56,24.71,12,19.32-4.52"/><path class="cls-4" d="M2466.73,556.17c1.76-16.25,28-87.38.17-89-16.37-1-26.55,25-29.42,36.86-4.52,18.69.45,35.41,9.25,52.19"/><path class="cls-4" d="M2518.73,604.17c7.65-14.72,18.26-18.65,33.86-22.06,13.15-2.88,32.82-9.65,41.2,6.09-9.42,19.47-55.77,34.33-71.06,16"/><path class="cls-4" d="M2534.73,532.17c-19.53-3.1-15.66-20.13-20-36-3.62-13.17-6.74-36.81,8.83-45,11.74-6.16,22.35,8.26,26.46,17.76,8,18.54,2.29,30.95-7.27,47.17"/><path class="cls-4" d="M2646.73,548.17c1.22,9.58-3.53,18.54-4.21,28a217.16,217.16,0,0,0-.08,24c.46,10.82,12.09,43.8,26.47,37.89,15.67-6.44,9.85-33.89,6.9-45.69-4.73-18.93-5.08-45.3-25.29-55.58a17.75,17.75,0,0,0-7.79,11.38"/><path class="cls-4" d="M2654.73,484.17c-13.81-13.35,1.36-39.72,7.73-53,7.28-15.19,34.47-48,54.25-32.57,14.7,11.47,7.28,40,0,53.21-9.28,16.83-33.46,39.21-54,40.35"/><path class="cls-4" d="M2602.73,456.17c-10,5-25.57,21.16-9.88,30.25,14.25,8.25,19.21-11.95,17.88-22.25"/><path class="cls-4" d="M2614.73,368.17c-6.59,3.24-26.38,19.69-8.33,23.53,9.87,2.1,17.15-13.23,8.33-19.53"/><path class="cls-4" d="M2742.73,516.17c17.16-13.63,32.19-30.47,52.11-40.48,16.17-8.13,46.68-7.53,44,16.34-2.64,23.3-23.91,29.33-44.09,31.83-17.78,2.2-43,4.17-36-19.68"/><path class="cls-4" d="M2718.73,580.17c-10.22,11.36-15,19.19-18,33.85-1.77,8.56-12.56,34.41.33,39.71,15,6.15,17.91-48.39,17.69-57.56"/><path class="cls-4" d="M2750.73,668.17c-21.7-.35-31.16,54.25-12,63.06,16.54-6.93,16.31-32.31,16-47.06"/><path class="cls-4" d="M2782.73,576.17c19.85-3.53,82.73-19.06,84.93,16.11,1,15.91-24.94,21.8-36.93,23.35-19.52,2.53-29.37-14.49-40-27.46"/><path class="cls-4" d="M2822.73,652.17c6.49-9.45,27.82.29,36,3.82,12.12,5.25,34.88,14.89,31.91,32.17-2.19,12.76-22.22,9.4-31.89,6-14.38-5.08-27.2-17.94-36-30"/><path class="cls-4" d="M2850.73,748.17l-1.74-4.06c11.38-16.19,47.88-.08,50.68,17.13,4.37,26.9-37,5.1-44.93-5.07"/><path class="cls-4" d="M3040.32,1364.84c6.05,35.86,26.32,67.59,52.17,92.59s57.93,46.82,93.12,55.93c20.64,5.34,42,6.89,63.12,3.45,18.44-3,33.82-11.81,48-23.66,14.36-12,28.44-25,39.41-40.2,11.19-15.52,19.63-32.85,27.74-50.11,4.88-10.38,9.5-21,11.85-32.31s1.33-21.46-.57-32.56c-1.73-10.1-3.08-20.14-4-30.34-.65-7.3-1.42-15.65-6.7-21.22-2.22-2.34-5.75,1.2-3.54,3.54,4.81,5.08,4.94,13.73,5.45,20.3.59,7.62,1.68,15.09,2.89,22.64,1.69,10.55,3.94,20.69,2.46,31.43-1.37,10-4.84,19.53-8.85,28.7-7.18,16.37-15.15,32.75-24.67,47.9-9.84,15.67-22.31,28.3-35.9,40.7-13,11.86-27.21,23.34-44.45,28.17-19.82,5.56-41.69,5-61.71.88-35.12-7.14-66.08-26.34-92.69-49.86-28.85-25.5-51.86-58.78-58.36-97.29-.53-3.17-5.35-1.82-4.82,1.33Z"/><path class="cls-4" d="M3320.89,750.91c-5.62-9-12.83-16.91-17.83-26.26a216.53,216.53,0,0,1-13.25-30.14c-6.85-19.64-3.57-40.15,2.17-59.66,11.68-39.66,34.64-75.08,48.57-114,7.92-22.1,13-45.17,12.68-68.73,0-3.21-5-3.22-5,0,.62,44.65-18.87,85.4-37.56,124.83-8.63,18.19-17.5,36.4-23.28,55.74-5.46,18.29-9.32,38.53-4.21,57.34,3.07,11.27,8.52,21.85,13.31,32.45,5.12,11.32,13.53,20.45,20.08,30.9,1.7,2.72,6,.21,4.32-2.52Z"/><path class="cls-4" d="M2998.73,1420.17c-2.7,7-18.11,63.54-.08,59.85,18.59-3.8,25.2-54.22.08-51.85"/><path class="cls-4" d="M3078.73,1376.17c10.88-.59,17.35,11.29,25.79,16.22,7.74,4.52,18.12,8.3,26.33,12.06,12.38,5.68,46.73,10.23,43.61-12.11-2.81-20.1-31.82-33.27-47.64-40.34-8.18-3.66-18.48-7.18-27.49-6.41-11.69,1-15.61,9.33-20.6,18.57"/><path class="cls-4" d="M3050.73,1484.17c-7.88,7.51-5.35,37.84-3.88,48,1.67,11.56,19.7,47.91,36.37,36.73,11.66-7.82,13.07-29.47,7.87-40.62-7.18-15.4-15.47-39.62-36.36-40.11"/><path class="cls-4" d="M3130.73,1456.17c14.66,7.5,27.22,11.91,43.81,12.08,13.86.14,48.11,2.17,53.71-16.08,4-12.95-16.57-18.13-26.16-19.68-17.52-2.84-38.22-1.62-51.35,11.68"/><path class="cls-4" d="M3182.73,1552.17c-5.59,13.86-4.67,29-4.27,43.89.4,14.62,13.21,40.64,32.11,29.93,12.68-7.19,14.2-34.26,10.07-46.11-5.41-15.53-21.07-26.06-37.91-23.71"/><path class="cls-4" d="M3258.73,1504.17a199,199,0,0,1-12.19-56.89c-1.19-19.11.48-45.27,19.89-55.76,19-10.29,36,5.61,31.77,25.35s-17.51,45-31.47,59.3"/><path class="cls-4" d="M3262.73,1560.17c7.87-12.39,33.19-21.45,48.1-22.07,18.57-.77,36.19,14.79,31.45,34s-20,30.58-38.66,33.55c-24.06,3.83-27-15.06-40.89-29.45"/><path class="cls-4" d="M3334.73,1424.17c-18.54,2.68-34.47-15.12-40.27-30.92-5.31-14.46-17.26-44.24-3.3-56.74,17.41-15.58,46.08,9.08,55.25,23.35,10.43,16.24,5.62,43.17-7.68,56.3"/><path class="cls-4" d="M3366.73,1424.17c10.54-16.44,33.87-23.19,52.89-24.19,14.88-.79,43.6-5.2,47.31,14,4.31,22.32-16.67,25.25-32.23,29.16-14.61,3.67-41.81,13.4-52-3"/><path class="cls-4" d="M3346.73,1488.17c12.33-4.79,34.77-13.89,48-11.67,23.47,3.94,33.08,25.51,17.8,43.7-9.32,11.09-32.23,12.14-45.86,8.44s-35.81-20.93-19.93-36.47"/><path class="cls-4" d="M3330.73,1308.17c-10.14,2.93-15,2.2-24.16-3.62-6.78-4.32-15.53-10.21-10-18.74,12.34-19.21,29.66,10.95,30.2,22.36"/><path class="cls-4" d="M3394.73,1356.17c-3.13-24.3,21.33-35.88,40-44.16,19.12-8.47,40.95-8.87,52.51,11.87,11.93,21.39-10.71,33.35-28.23,37.47-22.14,5.22-50.68,8.33-64.3-13.18"/><path class="cls-4" d="M3262.73,724.17c-10.16-.55-17.18-7.05-24.7-12.9-10.78-8.39-23-13.59-35.38-19.34-9.26-4.32-21.5-8.35-27.59,2.8-3.61,6.6-.46,19.26,2.14,25.44,9.68,23,34.22,32.27,56.62,37.26,9.59,2.14,23.45,6.13,28.66-6,3.9-9.06-3.87-19.8-7.76-27.25"/><path class="cls-4" d="M3330.73,728.17c-1-27.05,21.15-54.47,39.91-72.27,16.9-16,54.4-31,56.73,5.06,1,15.39-11.22,21.8-20.68,31.08-12.59,12.35-20,22.13-36.07,30.34-10.67,5.45-25.63,14.54-38.36,9.45-12.16-4.86-12.69-17.22-9.52-27.67"/><path class="cls-4" d="M3238.73,616.17c-5.4-11.45-10.5-21.35-21.7-28a57,57,0,0,1-18.41-12.06,37.35,37.35,0,0,0-16-11.92c-25.51-5.89-28.63,32.66-23.62,48.39,3.49,11,20,19.51,27.71,27.54,11.29,11.74,18.22,19.91,35.35,20.56,29.65,1.12,12.09-29.91,4.62-44.53"/><path class="cls-4" d="M3322.73,608.17c10-20.92,25.52-31.52,43.79-45.15,10.1-7.53,23.47-16.3,35.77-7.49,7.61,5.45,10.43,15.93,8.25,24.6-2.41,9.59-13.88,20.88-20.53,28.22-7.15,7.9-21.39,17.86-31.44,21.52-9.7,3.53-18.87,1.48-27.34-5.35s-6.05-16.7-12.51-24.36"/><path class="cls-4" d="M3266.73,532.17c-.28-10.81-8.76-20-14.93-28-7.83-10.22-14.71-23.26-24.88-31.35-7.54-6-22.57-16.3-31.87-8.39-6.38,5.42-5.31,16.35-4.22,23.62,1.76,11.72,7.49,19.67,15.63,28.14,10.11,10.53,20.83,23.63,33.24,31.46,6.54,4.13,20.65,13.21,27.67,5.2,6.53-7.45-3.47-19.53-8.63-24.66"/><path class="cls-4" d="M3354.73,520.17c11.37-23.92,27.58-42.18,52.22-52.35,14.8-6.11,45.06-5,35.32,19.57-6.87,17.37-34.76,27.1-50.65,33-7.53,2.77-25,10.86-32.65,4.51-8.23-6.8-3.64-15.75,3.76-20.68"/><path class="cls-4" d="M3306.73,464.17c15.21-22.26-25.73-109.24-48.35-80.44-9.93,12.64.79,40.46,5.94,53.33,4,10.08,27.13,53.17,38.41,31.11"/><path class="cls-4" d="M3382.73,412.17c-1-28.8,19.2-50.2,44.14-62.39,10.26-5,19.08-9.45,25.77,2,6.09,10.42,5,22.56.56,33.3a81.31,81.31,0,0,1-58.55,48.54c-30,6.29-29.39-35.29-11.92-49.45"/><path class="cls-5" d="M94.78,704.85q.1,2,0-.08-.46,2.44.06.41a4.5,4.5,0,0,1-1.42,2.47q1.48-1.4-.57.37-2.64.93-.71.32-3,.25-.91.2a5.31,5.31,0,0,1-3.18-.88q1.38.85.12,0a3.64,3.64,0,0,1-1.44-1.44q-.76-2.19-.09,0a4.59,4.59,0,0,1,1-4q-1.54,1.48,0,.16-1.91,1,0,.05,2.35-.15.14-.12a4.28,4.28,0,0,1,3.79,1.54l3.21,5.52q.29,2.71.25.74a6.57,6.57,0,0,1-1,3.7,8.54,8.54,0,0,1-4.92,3.64c1.56-.49-4.13-.2-3.49,0q1.39.39-1.51-.68,1.62,1-.86-.76c1.65,1.85-1.68-2-.11-.09q-1-2.56-.33-.53.42,2,0-.33c0,.51-.47,3.58,0,1.51a20.41,20.41,0,0,1-.65,2.36q.77-1.68.17-.55t.63-.59q-1.47,1.46.69-.27c-2.64.76,2.83-.72.25,0q3.21-.28,1.18-.16-2-.09,1.21.23c-1.26-.39-2.11-1.38.35.29-2-1.37,1.88,1.95.31.34q-1.32-1.43.69,1-.94-1.71.44,1.2c-.33-1.37,0,2.67-.13,3.31q.55-1.85-.45.87,1-1.63-.37.4l-8.84,3.66c-3-.23-5.45-5.89-4.81-2.68l5.74-14.12c-2.24,1.72,5.64-.53,6-.45.64.14,3,2,2.21,1.17s.66,1.09.81,1.46c1.4,3.4-.73,8-3.66,10H72c1.71.85,0-.82.18-.13.26,1.18-1.05-1.85.07,0s-.53-1.36,0,.05.21-2.7,0-.13c-.12,1.73,0,0,.19-.69-.58,2,.5-.81.85-1.27.9-1.16,2-1.44,3.13-2.12l1.4-.15q-1.95-.06-.44,0c.86.07,2.57,1.31,1,.12a8,8,0,0,1,1.89,1.87c-1.3-1.82,0,1.87-.33-.43-.19-1.54-.3-.43-.07.47-.05-.2.1-3.12-.12-1.25s.18-.78.4-1.16c-1.25,2.15.42-.29-.39,1s1.81-.81-.65.74c-1,.64.06.18.6-.07-.08,0-2.81.59-1.33.15q1.27.38-.26-.23l1,.59c-1-1.73.37,1.29-.12,0-.25-.63-.26,1.68-.09.1s.42.61.09.19q.18-.82,0,.18-.4,1.43.44-.64L79,722,82,719a7.2,7.2,0,0,1,4.73-.83q1.8.33.26,0l1.57.71c0-.14-2.63-1.55-.79-.3s-.76-.71-.63-.67c-1-.31-.51-.45.38.56-1.32-1.48-.05-1.13-.47-.66q.6,1.51.15,0l.28,1.85c-.12.74-1.7,4.58-.63,2.89l-7.47,5.74c-1.5.37-3.89-1.12-4.6-2.19V713.5l-2.79,4.36c-3.64,5.69-1.18,13.79,4.48,17.1a12.71,12.71,0,0,0,17.1-4.48l2.79-4.36a12.32,12.32,0,0,0,0-12.62c-3.08-4.68-7-8.23-12.54-9.66-6.8-1.76-15,.2-18.76,6.43-4.77,7.87-2.29,17.38,3.31,24,4.82,5.71,12.16,9.5,19.73,8.47,10.25-1.39,15.82-11,15.93-20.7.24-21.65-27.47-35.3-42.85-18.33-12.68,14-4.76,39.69,15.12,40.74,23.94,1.27,27.64-32.5,8.38-42.11-3.87-1.93-8.79-2.57-12.62,0-9,6-10.64,17-4.09,25.56,5.28,6.91,16.21,11.46,24,5.48,4.76-3.66,7-8.09,5.74-14.12-2.88-14.32-22.5-22.22-31.24-8.06a19.86,19.86,0,0,0,2.93,24.65A22.33,22.33,0,0,0,92,741.11c10.41-3.64,15.6-14.45,15.9-25,.28-9.68-5.13-19.43-14.61-22.54A17.49,17.49,0,0,0,71,704.72c-1.57,4.93-1.31,11.39,2,15.53,4,5,10.72,7.44,17,6.95,11.86-.93,21.8-11,21.4-23.16-.42-12.82-12.39-22.91-25.09-20S68.11,699.48,70.68,711.5c1.41,6.6,9.14,10.44,15.38,8.73,6.83-1.88,10.14-8.75,8.73-15.38Z"/><path class="cls-5" d="M150.73,715.67q-2.27-.08.31.25a10.72,10.72,0,0,1-1.75-.48,4.45,4.45,0,0,1,2.63,1.53,9.71,9.71,0,0,1-1.14-1.15q1.66,2.21.61.49,1,2.6.36.65-.44-2,0,.77a16.4,16.4,0,0,1-.07-1.77q.13-2.11-.2.62a18.07,18.07,0,0,1,.4-1.79q.67-2-.31.37a17.13,17.13,0,0,1,.86-1.65q1.14-1.72-.32.25a15,15,0,0,1,1.31-1.35q-2,1.41-.23.25,1.85-1-.29,0c0-.37,1.14-.46,2.7-.26q-2.06-.23.13.26-1.76-.85.18.15,1.83,1.2.2,0,1.47,1.59.2-.06,1,1.89.18-.15.54,2.13.13-.24-.06,2.18,0-.11.83-1.79-.31.24.71-1.26-.9.6a3.86,3.86,0,0,1,2.32-1.34q-2.06.53.87,0-2.08-.07.92.2-1.93-.6.7.41a12,12,0,0,1-1.42-.85q2.11,1.7.61.33t.36.58a13.43,13.43,0,0,1-.85-1.43q1,2.62.37.72-.45-2,.09,1,.07-2.07-.2,1-1.31,2.64-.34.85a4.68,4.68,0,0,1-2.06,2q1.76-1-.18-.13a22.62,22.62,0,0,1,2.27-.65q2.28-.44-.32-.09a15.31,15.31,0,0,1,1.7-.09q2.13.11-1.2-.23,1.9.55-1.34-.66,1.6,1-1.32-1-2.05-2.94-1.15-1.35-1.28-3.42-.81-1.6-.38-3.74-.32-1.79c0,2.08.56-3.72,0-.59s.05-.5.23-.27-1,1.74-1.15,2c-.71,1.76,2.28-2.43.26-.5q-1.4,1.24,1.44-1.08-1.61.94,1.89-.71c1.92-.58,7,.07,9.51,2.63q2.12,3,1.16,1.38,1.24,3.2.64,1.24l-1.26,9.63,2.65-4.36c8.37-13.79-13.24-26.37-21.59-12.62-3.94,6.5-5.89,12.7-1.52,19.55a15.1,15.1,0,0,0,16.34,6.8c7.44-1.92,12.47-8.41,14.94-15.4,2.93-8.31,1.14-18.14-6.71-23.09-8.84-5.58-22.63-2.88-30.08,3.93-18.75,17.15,6.23,48.31,27.68,36.48,12-6.63,16.7-22.23,9.29-33.93-6.69-10.55-20.81-15.56-32.58-11.27-11.57,4.21-18.85,15.69-18.62,27.91.25,13.48,10.49,23.94,24.06,23.82,16.08-.14,16.12-25.14,0-25Z"/><path class="cls-5" d="M131.23,648.17c0-.07-.06-2.68,0-2.67.84.49-1.29,4-1.6,4.36a8.35,8.35,0,0,1-4.05,2.72c2.13-.71-3.06.1-.33.15l-10.79-6.19c1.62,2.35-.16-.82-.33-2.06a6.59,6.59,0,0,1,.57-4.29c1.21-2.31,1.49-2.87,3.42-4.06-1.58,1,3.26-1,1.35-.54s3.51-.28,1.54-.25q3.85.69,2,.21l2.18.9a5.67,5.67,0,0,1,2.89,2.82q1.23,3.32.72,1.42.35,3.41.33,1.29l-6.19,10.79c1.18-.86,2.54-1.48,3.7-2.33.44-.32-3,.87-.69.31,1.34-.32,3.17-.26-1,0a9.29,9.29,0,0,1,1.25,0c-.79-.06-3.58-1-1.64-.14.74.31-3.29-1.68-1.67-.7s-2.66-2.25-1.13-.91c1.26,1.11-.36,1.1-.93-1.32.07.3.42.63.55.92.6,1.34-.9-3.49-.62-1.47a5.42,5.42,0,0,0,.34,1.26c.53,1.14-.1-3.49-.22-1.63a10.48,10.48,0,0,0,0,1.34c.15,1.93.06-1.29.3-1.8a6.4,6.4,0,0,0-.33,1.48c-.3,1.84.31-1.16.74-1.59-.27.27-.35.82-.61,1.13-1.31,1.6,2-2.39,1-1.24-1.41,1.52,1.68-1.15,1.3-.9-1.82,1.24.9-.55,1.52-.48-.3,0-.79.29-1.11.33-1.6.23,3.73-.27,1.45-.26s3.24.94,1,.17c-.5-.17-1.05-.3-1.57-.44-2.49-.69,2.17,1.22.43.17-.6-.36-1.23-.7-1.84-1-2.4-1.29.45.4.34.41-.28,0-1-.89-1.18-1.07-1.5-1.2,1.16,2.27.07,0-.38-.78,1,3,.39.75-.17-.66.16,3.39.27.85a19.35,19.35,0,0,0-.21,2c.12-.89,1.27-2.53-.58,1.21a7.36,7.36,0,0,1,.41-.72c.7-1.08-2,2-1,1.18.47-.4,2.41-2.23.61-.77s.5-.08,1-.39c.88-.59-1.58.71-1.63.7.22.06.88-.27,1.13-.33,1.46-.35-.25.59-1.59.16.34.11.82-.11,1.17,0s1.73.19-.49-.12c-2.39-.33-.37,0,.08.14.05,0-2.48-1.42-1.58-.68a5.09,5.09,0,0,0,1.09.63c1.37.51-2.16-1.68-1-.7.64.53,1.6,2.13-.34-.58L118.32,640c.1,2.52.74-2.89.13-.66l.71-1.86q2-2.34,1-1.31c-1,1,2.52-1.62.71-.59s2.73-.6.45-.21c-.51.09-2.64.49-.41.19s.08-.13-.43-.08c-2.47.27,3,.39.67.15-1-.11-2.82-1.39.73.42l5.74,7.47q-.42-1.67-.08,0a4.6,4.6,0,0,1-.06,2.65q-1.23,2.51-.51,1.28t-.83,1.11a7.23,7.23,0,0,1-5.2,2.07l-2-.25q-5.44-3.87-3.13-1.44V631.26q-1.8,1.69,0,.11,7-3.5,10.56,2.68,4,1.74,3.7,5.53,0-2-.25,1.29H105.68l.28.79a6.43,6.43,0,0,1,1.13-6.23,3.29,3.29,0,0,1,1.63-2.18q1.3-.87-.31.14c-5.58,3.41-8.19,11.35-4.48,17.1s11.13,8.13,17.1,4.48c7.1-4.33,11.79-12.35,8.75-20.75-1.82-5-6.3-9.43-12.05-9.18-5.24.23-10.95,3.67-12.05,9.18-1.43,7.12.11,14.9,6.85,18.91,7.26,4.3,15.31,1.26,20.92-4.19,5.08-4.93,4.39-12.65,0-17.68-6.62-7.57-18-7-25-.38-7.25,6.86-8.47,21.35,1,26.86,12.41,7.18,31.58.11,33.58-14.72,1.25-9.3-5.79-16.39-14-19.32-6-2.14-12.64-1-18.24,1.68-11.08,5.33-16.61,19.63-10,30.5,5.82,9.54,18.72,16,29.81,13.13,9.32-2.38,14.71-11.45,15.18-20.57.42-8.17-3.71-16.58-11-20.48-10.92-5.82-31.7,1.09-30.7,15.41.64,9.11,7.15,16.67,16.62,16.94a17.86,17.86,0,0,0,17.41-12,16.6,16.6,0,0,0-1.24-12.82c-3.43-6.55-9.68-8.58-16.64-7.31-9.47,1.73-14.73,10.81-14,20,.49,6.51,5.4,12.82,12.5,12.5,6.35-.28,13-5.52,12.5-12.5Z"/><path class="cls-5" d="M195.23,668.17v-4a12.9,12.9,0,0,0-3.66-8.84,13.91,13.91,0,0,0-8.84-3.66,12.63,12.63,0,0,0-8.84,3.66,13,13,0,0,0-3.66,8.84v4a12.9,12.9,0,0,0,3.66,8.84,13.91,13.91,0,0,0,8.84,3.66,12.63,12.63,0,0,0,8.84-3.66,13,13,0,0,0,3.66-8.84Z"/><path class="cls-5" d="M66.73,672.67c16.09,0,16.11-25,0-25s-16.11,25,0,25Z"/><path class="cls-5" d="M122.73,704.67c16.09,0,16.11-25,0-25s-16.11,25,0,25Z"/><path class="cls-5" d="M114.73,768.67c16.09,0,16.11-25,0-25s-16.11,25,0,25Z"/><path class="cls-5" d="M1294.05,1376.12c-25.89-3.81-29.6,30.36-26.61,48.83,1.86,11.5,12.62,21,24.5,19.39,12.43-1.71,20.43-13.64,24.26-24.63,4.05-11.64,1.9-26.91-9.9-33.22-12.57-6.73-27,3.32-32.55,14.61-5.28,10.67-5.63,26.43,5.86,33.35,7.89,4.75,18.13,3.41,25.61-1.54,10.59-7,14.45-21,5.18-30.88-3.39-3.62-7.8-6-12.84-5.42s-9.84,3.65-13.25,7.13c-5.58,5.69-8.11,13.48-9.64,21.12-1.32,6.61,1.9,13.5,8.73,15.38,6.16,1.69,14-2.08,15.38-8.73a62.58,62.58,0,0,1,2.13-8.29c-.61,1.37,2.26-3.41.65-1.35q1.61-1.5.31-.51,1.91-1.09.68-.41l-9.63-1.26c-2.38-1.68-1.2-1-.68-.48.77.79.63,1.29-.68-1,.25.44.67,1.41-.11-.45-1.13-2.68,0,1.5-.44-1.59s-.39,1.26,0-1.77c.25-2.08.16-1.18,0-.65,1-3.13,1.11-2.4.59-1.52-1.1,1.85,1.63-2,.78-.93-1.4,1.68-.9.46.52-.14a10,10,0,0,0-2.13,1.32c-1.24,1.1,2.85-.79,0-.09s2.17.06.3.06c-2.91,0,1.88.59.45.18-.88-.25-.37-.46.45.26,2.41,2.13-1.2-1.21,1.32.79.2.16,1.75,2.08,1.32,1.33,1.47,2.56.78,2.13.52,1.13-.51-2-.4,2,0,.59.24-.77.33-3.56-.15-1.12.17-.86,1.46-4.11.33-1.87.32-.63,1.89-3.25,1.26-2.36-.88,1.23.44-.51.71-.78a24.71,24.71,0,0,1,1.87-1.77c-.31.26-1.88,1.67-.13.28.81-.64,1.78-.23-.51.18,1.68-.3-2.29,0-3.37-.5a12.46,12.46,0,0,1-1.9-1.25c-1.92-1.26-.22-1.15-.15-.09-.15-2.41-.1.94.13.62l.18.75q-.3-2.79-.22-1.29c-.35,1.07-.35,3.31.16.74a36.34,36.34,0,0,1-.94,3.86c-.21.66-.45,1.3-.68,1.95.06-.16.86-1.87.23-.58s-1.53,2.72-2.28,4.1c-1,1.81,1.12-.84-.78,1-.44.43-.92.87-1.33,1.34-1.06,1.21,1.86-.83.44-.31-2.71,1,1.73-.45-.31.24a5.37,5.37,0,0,1,4,.45c-1.12-.44.56.47.71.6-2.09-1.74,0-.23-.15,0,.2-.3-.76-1-.87-1.4,0,.14.77,3.24.74,1.6a7.84,7.84,0,0,0-.48-2.15c-.62-1.35.13,2.73.14,1.1,0-.67-.13-1.39-.17-2.07a63.71,63.71,0,0,1,0-8c0-.72.64-5.36.13-2.18.21-1.3.43-2.6.72-3.89s.72-2.7,1.12-4c.14-.46.94-2.21.15-.52-.93,2,.38-.68.43-.68l.2-.32q.78-1.22-.91,1.06c.32-.31.59-.66.92-1-1.61,1.47-3.31,2.28-7,1.73,6.67,1,13.43-1.66,15.38-8.73,1.62-5.89-2-14.39-8.73-15.38Z"/><path class="cls-5" d="M1323.94,1382.48a179.84,179.84,0,0,0,16.21,22.38c7,8.36,15.24,16.77,25.62,20.67a22.51,22.51,0,0,0,28.52-11.63c5.57-11.82.91-24.75-6.63-34.46-6.92-8.9-17.63-16.81-29.37-16.9-13.56-.1-24.38,10.77-22.59,24.49a35.79,35.79,0,0,0,19,26.35c11.95,5.8,27.47,2.85,33.19-10.23,9.85-22.53-23.54-37.84-39.44-44.86-5.53-2.44-10.52-2-15.15,2-6.37,5.45-8.58,13.51-7.51,21.61.81,6.16,3.38,11.66,4.85,17.64,3.85,15.61,28,9,24.11-6.65-1-3.92-2.57-7.63-3.66-11.51-.24-.85-.46-1.7-.64-2.56s-.18-.85,0,.16l0-1.23c-.48,1.65.33.3.09-.22.33.71-2.07,2.61.48.43l-15.15,2c5.07,2.24,10.08,4.65,14.92,7.34a101.74,101.74,0,0,1,8.78,5.42c.55.38,1.09.78,1.63,1.17-2.44-1.76.09.08.49.45,1.16,1.07,2.22,2.42,3.42,3.4,1.39,1.13-2.19-2.08-.34-.35,1,1,.06,1.8.3.37.13-.77-.59-2.41-.3-3.56-.27,1.07,1.72-2.87,1.73-2.9l-.53.56q-1.18,1-.05.12l.55-.43q-1.83,1,.66-.08a7.56,7.56,0,0,1-1.2.34q-1.44.31,1.28-.2c-2.94,0,3,.11,0,0a7.38,7.38,0,0,1-1.65-.53c3.91,1.27-2.86-2.4,0,0a39.92,39.92,0,0,1-3.41-3.33c1.82,1.89.38.6-.05-.13-.55-.93-1.08-1.88-1.62-2.81,1.59,2.73,0-.93-.39-1.92.71,1.79.32,2.25.25,1-.13-2.63-.77,2.82,0,.4a7.51,7.51,0,0,1-1.76,3c1.8-2-2.38,1.68,0,0-.28.2-2.66.86-.66.33,2.25-.59-2.79-.28.29,0,1.67.17-3-1.1-.39-.07a10.16,10.16,0,0,0,1.7.46c2.58.4-1.84-1.34.42.16.52.35,1.14.61,1.68.93.85.51,1.67,1.07,2.47,1.64-2-1.45-.55-.44-.15-.05,1.5,1.46,3,2.86,4.33,4.44-1.75-2,1.19,1.82,1.58,2.5s.78,1.46,1.17,2.2c.85,1.63-.64-2.75,0,.13.17.73.41,1.5.64,2.23.63,2.05-.68,1,0-.25a11.3,11.3,0,0,0,0,1.71q.51-2.89.11-.85-.59,1.94.46-.66c-.14.07-.73,1.59-.81,1.45l.91-1.17a12.93,12.93,0,0,1-1.29,1.26s2.25-1.82.59-.62c4.3-3.12-.25,1.26,2.08-.7.71-.6,1.2-.31-.39-.14,2.47-.27,2.31.3.81,0-1-.22-2.24-1.16.37.26-.77-.42-1.55-.79-2.3-1.23s-1.55-1-2.34-1.54c-2.59-1.6,1.72,1.64-.63-.5-1.59-1.45-3.21-2.85-4.73-4.38a120.91,120.91,0,0,1-8.24-9.26c-.19-.23-2.48-3.13-.78-.94-.65-.84-1.29-1.69-1.92-2.55q-1.75-2.37-3.43-4.79c-1.65-2.39-3.26-4.82-4.75-7.31-8.29-13.77-29.91-1.22-21.59,12.62Z"/><path class="cls-5" d="M1258.23,1308.17c-.26,13.52-1.85,26.44,10.59,35.46,13,9.42,29.34,5.46,38.39-7.26,12.61-17.71,3.3-51.87-21.48-52.46-24.28-.58-32.71,28.81-26.32,47.89,3.27,9.75,10.61,19.19,21.79,19.41,11.89.23,21.71-10.55,25.17-21.09,5.1-15.5-3.81-31.82-19.11-36.94-16.16-5.41-25.7,7.79-31.33,20.69-2.7,6.18-1.82,13.42,4.48,17.1,5.3,3.1,14.39,1.73,17.1-4.48a87.27,87.27,0,0,1,4-8.38c.4-.7.81-1.4,1.27-2.06-.11.16-1,1.43-.21.33s-.26.31-.58.25q1.57-.89.29-.22a2.38,2.38,0,0,1-1.2.42c-1.87,0-2.62-.55-.71.49a7.09,7.09,0,0,1,1.94,1.44c-.68-.74.49.9.47.87-.87-1.24-.06-.06.09.52-.6-2.3-.26,3,.12.83a13,13,0,0,1-.69,2.48c.12-.31.58-1.22-.11,0a16.13,16.13,0,0,1-1.06,1.72c.87-1.19-.37.33-.49.45a21.65,21.65,0,0,1-1.6,1.51c.23-.19,1.66-.94.59-.57l1.11-.37c-2.6.5,2.28,0,.83,0-1.61,0,2.86.52,1.32.14-1.25-.31,1.52.64,1.42.59-1.84-1,2.36,1.27,0-.13-.92-.55.58.73.71,1-.28-.49-.63-.94-.9-1.44s-.53-1.05-.81-1.58c.45.85.57,1.85.22.4-.27-1.1-.68-2.18-.93-3.29s-.42-3.7-.28-1.17c-.07-1.19-.16-2.38-.15-3.58,0-.51.06-1,0-1.53-.08-3.07-.37,1.48,0-.17.22-1.1.62-2.22.8-3.32.12-.73,1.05-2-.22.36a8.69,8.69,0,0,1,.65-1.21c1-1.28.36-.53,1.36-1.77,1.16-1.45.13-.44.14-.28-.1-1.46,1.61.62-.28-.12l.45-.14q1.42-.39-1.08,0c.29.12,1-.05,1.33,0,1.45.13-1.17-.14-1.15-.14,2.1.54-.13-.19-.49-.32a6.81,6.81,0,0,1,1.58.93c-.09-.08-1.67-1.47-.67-.47.34.34.69.71,1,1,2.13,1.89-.6-1.09.23.27a28.63,28.63,0,0,1,1.79,3.23c-1-2.21.1.88.33,1.64a13.29,13.29,0,0,1,.34,1.62c-.41-2.45-.08-.55-.11,0-.05.73,0,1.5,0,2.23,0-1.23.33-1.19,0,0-.48,1.56-1,3.38-2,4.34s-1.24,1.14-.57.59c-.44.37-2,.36-.57.26s-.23.07-.8-.16c.8.33-1.5-1-1.27-.83.48.25,0-.43-.06-.6-.41-1.32-.13-.19-.08.16a22.17,22.17,0,0,1-.1-3.31c0-3.73.53-7.44.6-11.17.31-16.09-24.69-16.09-25,0Z"/><path class="cls-5" d="M1222.73,1376.67c16.09,0,16.11-25,0-25s-16.11,25,0,25Z"/><path class="cls-5" d="M1350.73,1344.67c16.09,0,16.11-25,0-25s-16.11,25,0,25Z"/><path class="cls-5" d="M1294.73,1384.67c16.09,0,16.11-25,0-25s-16.11,25,0,25Z"/><path class="cls-5" d="M1330.73,1452.67c16.09,0,16.11-25,0-25s-16.11,25,0,25Z"/><path class="cls-5" d="M1991.23,680.17c-.1-6.8-2.3-13.58-3.42-20.26-.13-.8-.26-1.6-.38-2.41.45,3.21,0,.24,0-.5-.07-1.82-.05-3.61-.05-5.43,0-2.38,0,2,0,.47a7.36,7.36,0,0,1,.54-1.85q-1.24,2.75-.3,1l-1.11,1.41c2-1.64-2.44,1.81-.29.21l-1.57.67q1.58-.37,0-.14t.17,0q1.94.08.21-.12t0,.07l-1.57-.69c2.14,1.62-2.2-2-.23-.15-3.33-3.08-.36,0-.31,0-.91-.67-.58-2.42-.33-.28.34,2.9.29-1.07.1.16a16.58,16.58,0,0,0,.08,2.32c0,1-.11,1.91-.15,2.87.16-3.11,0-.21-.14.52-.37,1.55-.88,3.06-1.28,4.6-.66,2.57,1.16-1.65-.13.33a17.58,17.58,0,0,0-1.23,2.16c-.92,2.08,1.69-1.83.11-.21s2.42-1.52.5-.43H1993a9.67,9.67,0,0,1-1.1-.57c1.46.91.78,1.32.84.57,0-.18-1-1.08-1.13-1.23.66.69,1,1.6.29.3s-1.44-2.31-2.08-3.53c-.33-.64-.64-1.29-.94-1.94.76,1.61.16.43-.17-.56-.46-1.36-.84-2.72-1.22-4.11-.77-2.82-.28,1.17-.27-1.55a9.91,9.91,0,0,0,0-1.77c-.3-1.45-.36,2.24-.06,1,.17-.72-.81,1.63-1.14,2.07s-2.91,2.3-1.39,1.61H1972c2.65,1.54-.68-1.36.64.45a22,22,0,0,0,2.07,2.17c1.85,1.89-.61-1.16.8,1,.87,1.32,1.74,2.61,2.5,4,.25.45,1.7,3.52.75,1.22.43,1,.65,2.11,1,3.14.86,2.3.23-1.89.08,1.11q-.07,1.48.12-1.11a5.57,5.57,0,0,1,1.54-2.56c.56-.52,3.74-1.6,2-1.28a5.26,5.26,0,0,1,3.42-.06,8.58,8.58,0,0,1-1.25-.34q-1.3-.44.9.38a16.92,16.92,0,0,1-1.63-1c2.14,2.12-.07-.35-.49-.58-2.09-1.15,1.4,1.07-.8-1a13.29,13.29,0,0,1-.72-1.27q.89,2.31.23.36c-.73-2.67-.17,2.46,0-.19a5,5,0,0,1-.78,3q-1.55,1.71-.58.68t-.88.61a8.47,8.47,0,0,1-6.57.78c-2.11-.57-3.09-1.91-4.53-3.4,1.21,1.24.55,1.46,0-.25,1.06,3.4,0-1.48.14.73.14,2.53.18-2.73-.07,0q1.19-2.53.2-.76l.89-1.25a4.59,4.59,0,0,1,2.45-1.36q-2.08.55,1.15,0c-2.14-.19,3.15.89,3.4,1q2.56,2.19,1.22.86l1.27,1.57c-1.17-1.73,1.4,3.1.2,0,.5,1.27.09,2.83.29.58-.34,3.92-.36,1.35,0,.5,1-2.18-1.68,2.5,0,0q.76-1.2-.89,1.08,1.4-1.36-.91.52c2.48-1-2.94.85-.24,0q-3,.25-.82.13,2.06.11-.43-.13l-7.47-5.74c.21.35.39.71.6,1.06,1,1.59-.22-1.69-.3-.71s.81,2.59,1,3.52c.28,1.16.47,2.34.68,3.51-.59-3.35,0,.8,0,1.75,0,1.36-.07,2.71-.06,4.06,0,1.72-.13-.11.14-.8a13.62,13.62,0,0,0-.44,1.93c-.2,1-.93,1.18,0,.22q.7-1.56,0-.27l1.21-1.51c-1.28,1.1,1-.71,1.17-.82a33.27,33.27,0,0,1,3.67-1c-1.52,0,2.87.35,1.15.1-1.28-.19,1.78,1.09.45.19s-1.08-1.26-.35-.13c-1-1.53.07-.2.1.2-.14-2.09.13,1-.23-.24-.19-.67-.36-1.35-.55-2-.49-1.71,0,1.94,0,.11,0-.93-.08-1.86,0-2.79,0-.75.08-1.52.17-2.26-.24,1.85,0,.37.26-.61.2-.73.4-1.46.61-2.19.07-.23.87-2.42.34-1.12-.6,1.46.61-1.16.76-1.44.34-.6.72-1.17,1.08-1.76-1.27,2.11.89-.81,1.83-1.54l-15.15,2c-1.19-.88-1.69-2.53-.83-.47.43,1,1.05,2,1.57,3a42.6,42.6,0,0,0,4.6,6.68c4.19,5.3,13.3,4.38,17.68,0,5.24-5.24,4.2-12.36,0-17.68.63.8-1-2.29-1-2.24-.52-1-1-2-1.61-3a28.92,28.92,0,0,0-7.78-7.93c-4.81-3.55-11.07-1.25-15.15,2-17.4,13.68-17.4,49.05,5.4,57,11,3.82,21.42-2.46,24.64-13.34,2.4-8.1,1.66-17.74-.67-25.75-1.37-4.72-3.46-10.09-7.92-12.69-5.58-3.26-13.93-2.49-19.48.52-9,4.91-13.39,15.68-11.42,25.61,2.13,10.69,12,17.67,22.87,14.88,12-3.09,17.89-16,14.84-27.52s-15.07-19.43-26.19-12.63-12,20.92-5.69,31.2c5.73,9.27,17.43,16.71,28.59,13.45,13.09-3.82,16.25-18.4,11.91-29.86-3.48-9.21-11-22.19-21.24-25-6.81-1.88-13.81,2.61-17,8.5-2.86,5.36-2.77,11.36-1.8,17.17,1.49,8.95,6,18.87,12.74,25.13,6.23,5.78,14.37,6.56,20.94.78a27.77,27.77,0,0,0,6.75-9.49c4.64-10.24,6.39-23,1.43-33.41-5.36-11.3-19.5-15.42-30.5-9.71-10,5.22-12.67,16.57-11.74,27a131.58,131.58,0,0,0,2.34,14.72c.4,1.95.83,3.89,1.19,5.85a9,9,0,0,1,.36,2.13c.3-.28-.24-3.39-.2-.48.23,16.07,25.23,16.12,25,0Z"/><path class="cls-5" d="M1938.73,699.67c-15.59-.52-32.59,2.25-40.76,17.28-9.27,17.06,3.58,34.17,21.42,35.9,15.23,1.48,30.91-10.41,25.74-26.95-4.65-14.85-24.91-17.24-36.5-9.42-6.44,4.34-11.4,11.55-9.3,19.66,1.46,5.65,5.62,10.07,10.7,12.78,10.07,5.35,23.68,7,34.33,2.56,13-5.45,20.16-21.76,9.53-33.12-7.59-8.11-20.89-11-31.38-7.77-8,2.48-16.42,9.92-15.34,19,1,8.4,10.37,15.25,17.43,18.65,8.49,4.09,17.5,4.74,25.53-.91,9.64-6.78,13.32-19,7.39-29.51-7.91-14-29.52-1.42-21.59,12.62-.76-1.35-.12-2.91.36-4.18-1.49,4-.2-.6.17.26s-2.68.35.7.16c2.51-.14.6.06-.71-.37,2,.66-1.06-.57-1.48-.81a26.17,26.17,0,0,1-3.24-2.1c1.26,1-.28-.37-.73-.79-2.24-2.13.11.6-.76-1v12.62c1.08-2-1.72,1.9.25-.41,0-.05-1,.83-1,.66-.06.5-1.15.38.44-.07a9.17,9.17,0,0,0,1.23-.29c-.3.13-2.36-.06-1.19.19a8.63,8.63,0,0,0,2.18,0c2.13-.2-1.87-.65.17,0,.94.29,2,.57,2.92.81,1.31.33-1-.43-1-.47a12.91,12.91,0,0,1,1.42.76s1.89,1.28,0-.11c-1.5-1.1-.18-.13.12.21,1,1.2-1.49-2.24-.71-.93.66,1.11-.64-1.66-.61-1.53-.46-2.11-.4-1.85.41-4.28.57-1.71.17-.57,0-.13,0,0,1.5-2,.58-.78-1.87,2.43.92-.52-1.06.87-1,.72,1-.43,1.1-.45a9.17,9.17,0,0,0-1.67.48c-.13.09-2,.47-.13.1,1.68-.32.18,0-.19,0-1.14,0-2.27.1-3.4.06-.49,0-1-.08-1.49-.08-2.41,0,1.33.33-.13,0-2-.44-4-1-6-1.59,1.83.55,1.17.5-.14-.15-2.83-1.4.58.78-.42-.18-.73-.7-.77-1.56.84,1.09a8.77,8.77,0,0,1-1,9.77c1.18-1.39-1.68.71.38-.32.31-.16,2-1.11.22-.26s.49,0,.91-.17c2-.78-1.74,0,.47,0,2.38.05,0-.21-.41-.21a3.88,3.88,0,0,1,1.39.33c.56.76-.57-.12-.87-.38a8,8,0,0,1-2-2.09,5,5,0,0,1-.09-5.07c.31-.52,2.43-3.12,1.1-1.47.17-.21,2-.64.71-.4-.42.07-2.52.46-.82.25s-1.42-.1-1.9-.08c-1.81.08,2.09.55.41.1a7.26,7.26,0,0,0-1.74-.43c-1.13.09.85.13,1.14.53s-1.86-1.08-1.69-1.08c-1.16,0-.06-.85.08,0,.11.72.36,1.77.52,2.45.25,1.06-.15-.14.22-.65-.82,1.12.08-.14.4-.53,0,0,1.43-1.71.62-.81.3-.33,1.6-1.14.59-.59.59-.33,1.14-.69,1.75-1,.91-.43-.27,0,1.43-.44.67-.18,1.33-.34,2-.49.29-.06,3-.43,1.48-.27a79,79,0,0,1,10.62-.15c16.09.54,16.07-24.46,0-25Z"/><path class="cls-5" d="M2006.05,732.23a83.34,83.34,0,0,1,9-3c1.66-.45,3.34-.77,5-1.15,3.19-.71-2.47-.14.74-.1a13.37,13.37,0,0,0,3.41-.07c1.55-.54-2.8-.46-.17-.06,1.31.2,2.53,1.48.11-.11s-1.17-1.17-.67-.51c-.14-.18-2.31-4.37-1.25-1.84-1-2.31,0-.59-.12.79.17-3.26-.14-.9-.12-.52l.53-1.39q-1.11,1.71.4-.51-1.5,1.35.52-.39-1.48.77-.07.15l.68-.27a16.2,16.2,0,0,1-1.74.53c-1.91,1.2,1.95.25-.4.08-.78-.06-1.62,0-2.41,0-1.77,0,2.77.94,0,0-.88-.29-1.87-.53-2.77-.76,3.27.83.16.61,0,0,0,.22-3-2.67,0,.24a14.57,14.57,0,0,1-1.45-1.43q1.12,1.51,0-.25c0-.18.07,3,0,0s.64,2.29,0-.61l-.21,1.44q.6-2-.32.38c.43-.48,1.5-1.6-.32.31l-1.06.75q1.8-1-.23,0l1.07-.27q-1.78.23-.33.18c2.35,0-2.57-.05.71.08q-2.11-1.06-.26-.11,1.75,1.14-.22-.25c.87,1.85.56-.12-.09-.4.55.24,1.64,3.52.5.33a21.79,21.79,0,0,1,.74,2.7c-.07-.33-.43-2.87-.22-.57.27,3.09.15-2.79-.11.22l.6-1.34q-1.05,1.74.47-.31c-1.39.72-.2,0,.43-.15q-1.8,1,.25,0-2.26.57.28.07c2.82.28.4.25-.3-.17-1.52-.92,1.73,1.9-.62-.4-2.75-2.68,1.4,2-1.25-1-.54-.59-1.15-1.12-1.64-1.75,1.49,1.9-.49-1.11-.6-1.34l.44,1q-.52-2.18-.07.29a10.37,10.37,0,0,1-.88,2.59q1-1.76-.52.4,1.46-1.39-.59.32c2.7-.94-2.07.47-.21,0,.74-.2,1.47-.39,2.22-.56-4,.89.54.17.51.19l1,.05q-2.26-.37-.85-.12c.81.17,1.63.43,2.44.59,3.09.58-2.11-1.09.7.22.6.28,1.1.67,1.68,1q-1.85-1.56-.3-.22,1.41,1.51-.16-.49c.93.14,1.06,3.69.28.19.19.86.1,2-.07-.67l.25-1.67q-.6,1.94.35-.79l1-1.26q-1.17,1.09,0,.12l.61-.46a13.11,13.11,0,0,1-1.5.87c3.74-1.12-.24,0-.41,0-2.51-.69,1.71,0,.11,0a13.75,13.75,0,0,1-1.39,0q-2.14-.14.6.18l-.87-.19q-2-.62.54.4c.06.59-3.75-3.25-.16.09l.94,1.28q-.95-1.72.23.64c-.43-2.86.07,2.54,0,.08l-.29,1.87q.53-1.91-.6,1c2-2.7-1.33,1.53.1-.17-.11.13-2.53,1.86-.83.69,2.55-1.75-1.37-.06.39-.25a8.09,8.09,0,0,0,1.48-.39c1.76-.7-2.82-.09.51,0,1.24,0,2.87.7-.29-.2a15.22,15.22,0,0,0,2.14.53c-2.68-.32-1.67-1-.43-.09-2.95-2.26-1.14-.8-.48-.24l-1.17-1.46q.91,1.71-.45-1.12c.45,1.74.12-3-.24.5-.68,6.73,6.23,12.5,12.5,12.5,7.32,0,11.82-5.75,12.5-12.5,1.76-17.43-17.5-25.69-32-21.87-7.16,1.89-13.4,6.64-16.23,13.55a21.85,21.85,0,0,0,5.15,23.84c12.68,11.64,38.55,6.63,42.43-11.36,4.31-20-18.54-31.95-35.42-29.12-8.67,1.46-16.42,7.51-18.66,16.24-2.53,9.87,2.85,20.19,10.37,26.36,8.32,6.83,19.39,9.77,29.27,4.26a23.72,23.72,0,0,0,11.77-21.88c-1-20.48-26.25-34.16-42.54-19.36-15.61,14.18-3.72,37.89,14,42.75,8.87,2.44,19.15,1.52,26.62-4.11a23.28,23.28,0,0,0,7.07-27.93c-7.89-17.91-31.28-13.17-45.69-7.44-6.27,2.49-10.66,8.36-8.73,15.38,1.64,6,9.07,11.24,15.38,8.73Z"/><path class="cls-5" d="M1922.73,684.67c16.09,0,16.11-25,0-25s-16.11,25,0,25Z"/><path class="cls-5" d="M2018.73,692.67c16.09,0,16.11-25,0-25s-16.11,25,0,25Z"/><path class="cls-5" d="M1970.73,764.67c16.09,0,16.11-25,0-25s-16.11,25,0,25Z"/><path class="cls-5" d="M1974.73,736.67c16.09,0,16.11-25,0-25s-16.11,25,0,25Z"/><path class="cls-5" d="M2913.89,1315.33c-8.81,7-15.45,17-15.68,28.55-.22,11,5.23,22.85,16.4,26.35,22,6.9,39.58-21.79,29.15-40.07-5-8.84-16.36-12.77-25.4-7.54-8.62,5-13.62,16.92-12.83,26.6.81,9.84,8.25,17.67,18.31,18,8.5.31,16.64-5,20.82-12.19,5.15-8.9,6.37-22-1.07-30-7.7-8.3-19.8-6.4-27.76.24-8.79,7.33-12.07,19.24-9.3,30.2,3,11.75,14.46,24.52,27.33,18.27,17.94-8.72,25-38.48,5.64-49.65-21.2-12.21-41.91,14.92-37.1,34.72,2.84,11.7,14.2,20.43,26.43,17.17,11.35-3,18-13.84,18.22-25.07.2-8.64-2.41-19-8.41-25.51-8.29-9-21.32-5.9-26.7,4.46-3.11,6-1.54,13.58,4.48,17.1,5.61,3.28,14,1.53,17.1-4.48.85-1.64,1.75-1.71-.08-.27-3.19,2.53-7.54,3.64-11.31,1.55-1-.56-2.5-2.55-2.49-2.35a6.26,6.26,0,0,0,1,1.71c1.29,1.87-.36-2.09.12.35.18.94.58,1.89.81,2.83.09.36.66,3.16.34,1.31s.08.95.1,1.34c0,1-.07,2,0,2.91.2,2.78.56-2.3-.08.2l-.24.79q1.15-2.45.46-1.24c.11.13-.12.1-.8.86q1.5-1.09-.25,0l1.08-.57c.88-.05,3.82.5,2-.21a7.26,7.26,0,0,1,2.65,1.72q.77,1.19-.24-.41.59,1.7.18.37t-.15.25l-.07-1.36q.1-1.84-.06-.44t.16-.51c.1-.26,1.1-3.08.55-1.82-.43,1,1.11-1.82,1.36-2.21.74-1.14-.67,1,.65-.71a3.12,3.12,0,0,1,1-.78l-1,.42q2.14-.54-.26,0a11.19,11.19,0,0,1-2.3-.72c.14.06.56,1.13-.19-.35-1.23-2.43-.12,1.45-.29-1.35,0,.7-.4,3.69.13,1.1a28.68,28.68,0,0,1-.76,2.8c-.36,1.15.78-1-.4.78-.13.19-2.21,3.14-.66,1.28-.29.34-2.79,2.54-.64,1-.72.52-3.28,1.38-.55.47l9.63,1.26c-.82-.5-1.26-1.24-1-.7a18.82,18.82,0,0,1-1.27-2.25q.69,1.46-.06-.67-.49-2.28-.13-.52V1347c-.6,2.87,1.32-3.42.22-1q1.32-1.94.28-.68a16.82,16.82,0,0,1,1.66-1.69q-1.44,1.06-.36.39,1.25-.69-.79.27,2.12-.51-.8.08a7.15,7.15,0,0,1-5.33-2.26c-1.09-1.19-1.51-4.95-1.53-2.47,0,4.22.28-2.12-.23,1.51q-.71,2.1.17,0a15.37,15.37,0,0,1-.95,1.71q1.59-1.89.27-.39-1.52,1.39.61-.33a8.6,8.6,0,0,1-1,.62q-1.28.68,1.25-.5c-2.14.52,3.21.27-.1,0,2.84.24,3.54.5,4.86,1.89q1.71,2.47,1,1.21t.58,1.32q.26,3,.14.84.11-2-.13.32c.19-.79,1-3.32,1-3.29l.66-1.15q-1.22,1.36.13-.07c-2.36.88-3.5,2.41-6.43,1.66a6.17,6.17,0,0,1-3-1.64q-1.58-2.3-.44-.57c1.24,2.21-1.43-2,.07.41q-.23-2.57-.1-.35-.11,2.16.12-.14c.12,0-.07,1.06-1.07,2.45,1-1.42-1.52,1.39-1.53,1.4q1.39-1.11-.37,0,2-.79,0-.19a4.27,4.27,0,0,1,2.83,0q-2-.59.38.18c1.11,1,1.28,2.38,1,.59.43,2.77-.47-3.21-.32-1.79-.24-2.16.19-3.43,1.59-5.68,1.19-1.89,4.11-4.58,6.76-6.67,5.3-4.19,4.38-13.3,0-17.68-5.24-5.24-12.36-4.2-17.68,0Z"/><path class="cls-5" d="M2841.89,1297c11.54,10.68,39.8,29.61,47.37,4.43,4.59-15.27-6.9-30-19.95-36.65-7-3.54-14.8-5.71-22.62-4.15-11,2.2-14.28,13.61-11,23.25,4.95,14.48,23,27.12,38.49,24.3a18.84,18.84,0,0,0,15.5-18.3c.21-6.92-2.8-13.92-6.21-19.78-8.38-14.4-26.11-29.34-43.06-18.68-8.93,5.62-13,17.37-9.7,27.32,2.52,7.64,9.32,13.14,15.77,17.44,6,4,13,7.31,20.19,8.27,5.11.68,10.16,0,13.93-3.86A20.27,20.27,0,0,0,2886,1287c.25-16.24-17.51-34.62-33.81-34.53a20.49,20.49,0,0,0-20,16.65c-2,10.59,3.51,20.17,12.25,25.83,5.67,3.67,13.8,1.15,17.1-4.48,3.55-6.06,1.2-13.42-4.48-17.1l-.61-.4q1,.72-.36-.53,1.15,1.54.46.42t.26.76c.32-2.44,0,2.36-.12-.29l-.28,1.59q.46-1.6-.14-.11t.08,0a4,4,0,0,1-1.56,1.72c-.61.45-3,1.69-1.21.73q-2.39.24-.9.24,1.32,0-.55,0,2.21.74.42,0-1.57-.7,0,.06a26.84,26.84,0,0,0,2.39,1.55c-1.49-1.05-.39-.31.39.43s1.4,1.31,2.06,2c.32.33,2.35,2.75,1.07,1.07.7.93,1.21,2,1.89,2.9q.85,1.75.35.48t.16.49l.27,1q-.21-2.56-.12-.45a7,7,0,0,1,1.69-3.7l5.52-3.21q3.2-.34,1.05-.33,2.57.41,1.09.11a14.91,14.91,0,0,0-3-.84q-.79-.26-1.56-.57,1.81.76-.24-.17c-1.08-.59-2.19-1.12-3.26-1.73s-2.13-1.27-3.16-2c-.1-.06-3.15-2.36-1.34-.89-.86-.7-1.69-1.43-2.48-2.2q-.72-.7-1.39-1.46l.82,1.1c-.53-.18-1.9-2.39-.25,0a1.59,1.59,0,0,1-.1,1.12q.56-2,.27-.9c-.28.21-1.61,1.19-1.83,1.42-.43.45-2.62-1.68.65.23a39.12,39.12,0,0,1,4.38,4c.49.5.92,1.05,1.41,1.55,1.48,1.52-1.24-2,.45.66,1.2,1.91,2.44,3.76,3.47,5.78.3.58,1.42,3.49.48.87.33.93.53,2,.93,2.86,1,2.2.22-1.91.11.27s.54-1.85,1-2.53a7.19,7.19,0,0,1,3.87-2.87q-2.13.51.51,0-1.67-.08-.11.1t-.2-.09q-.75-.18-1.47-.43-1.24-.44.47.28-1-.47-2-1c-1-.56-2-1.21-3-1.85-2.87-1.87,1.26,1.34-1.21-1-.85-.81-1.67-1.62-2.44-2.51,1.59,1.82-.28-.6-.6-1.06-1.73-2.5,1.06,1.51-.22-.72q.24,2.68.2.57-.43,2.72.19.67l-8.73,8.73c.26-.09,2.83-.69.8-.36s.57.12,1,.09c2.25-.18-1.32-.43,0,0,.78.25,1.68.48,2.47.67,1.13.27,1.1.37,0-.1.84.36,1.66.79,2.46,1.23s1.58,1,2.39,1.43c1.94,1.1-.39-.47.6.38a40,40,0,0,1,3.52,3.44c-1.59-1.73-.09-.15.23.42.42.73.86,1.44,1.21,2.21-.74-1.6-.19-1.05-.17.2,0,1.56-.77-2.8-.14-.08-.13-.57,0-2.34,0-.55.05-1.67.48-.91-.52.63l10.79-6.19c-.33,0-3.27,0-1.86.16,1.24.15-1.14-.37-1.39-.47-.92-.36.22.22-1.36-.62-1-.55-2.06-1.16-3.06-1.8a54.53,54.53,0,0,1-8.35-6.71c-11.79-10.92-29.52,6.72-17.68,17.68Z"/><path class="cls-5" d="M2955.23,1292.17c.06-2.46-.16,1.77,0,.22s-1.06,2.76,0,.24c-.36.89-1.54,1.32-.31.45.28-.2,2.27-1.94.84-.86-1,.78,2.2-1.18,3-1.61,2-1.14-1,.28.41-.2.85-.29,1.69-.61,2.55-.88a78,78,0,0,1,9.29-2.15c3.16-.59-1.72.16,0,0,.73-.07,1.46-.16,2.19-.21q1.83-.14,3.67-.16L2966,1280.8c.92,1.27.62,2.05,0-.54l-.27-2q-.06,1.49.1-.31t-.09-.29l.68-1.59c-.43.67-.86,1.43-1.26,2.11.75-1.3,1.13-1.26,0-.08-.56.57-1.11,1.16-1.69,1.71s-1.5,1.34-2.28,2c1.36-1.11.56-.42-.39.21-1.46,1-2.92,1.89-4.46,2.72-.75.4-1.52.76-2.27,1.15-2.71,1.42,2.24-.54-.58.23a41.3,41.3,0,0,0-4.12,1.14c2.56-1,1.95,0,.48-.21.95.12,3.07.72,1.06,0l7.47,5.74q.86,2.5.3.62a6.38,6.38,0,0,1,.06,3.67q-1.32,2.7-.36.91-1.81,2.14-.44.6a16,16,0,0,1,1.29-1.2q-2,1.5-.24.3a26.67,26.67,0,0,0,2.61-1.47q1.92-.89-.17,0,1-.39,1.94-.74,1.92-.67,3.89-1.17c1.06-.27,2.19-.38,3.24-.67.68-.19-2.59,0,.34.09q.68,0,1.35,0-4-.64-.82.07,2.31.77.25,0,2.84,1.87-2-2.34a9,9,0,0,1-.8-5.74q1.28-2.72.32-.88-1.09,1.64.41-.39c-.88,1-1.83,1.85-2.76,2.79-1.6,1.62,1.39-.75-1.15.92a66.49,66.49,0,0,1-6.28,3.63c3.19-1.64.07-.16-.86.07s-3.24.34-1.06.24a44.61,44.61,0,0,1-4.5,0c2.82.15-1.32-.4-2-.6q2,1,.17,0-1.78-1.15.16.19c-1.37-1.76.3.76.6,1.35q-.5-2.07-.11,0,.1-2.78-.23.62.57-1.89-.48.76a14.57,14.57,0,0,1,.79-1.47c2.07-1.48-1.73,1.3.2-.3,1-.8,1.77-1.78,2.74-2.59-2.44,2,.9-.38,1.45-.73s1.11-.59,1.69-.85q-2.35,1-.42.28c.17-.68,4.38-.17,0-.23,3.54,0-1.4-.8.5-.09a5.89,5.89,0,0,1-3-1.81q1.35,1.38-.48-.74c-1.57-2.77,0,.35.16,1.57,1,6.68,9.41,10.37,15.38,8.73,7.13-2,9.76-8.68,8.73-15.38-2.54-16.54-19.87-20.23-33.11-14.1-11.9,5.52-21.79,18.22-18.24,31.9,8,30.67,57.15,19.42,65.21-5.6a17.47,17.47,0,0,0-7.63-20.36c-6.18-3.79-12.91-4.44-19.89-3.4-11.43,1.7-25,7.54-29.67,18.92-3.54,8.7-.36,20.09,9.28,23.09,5.22,1.63,11.27.43,16.25-1.43,11.18-4.19,23.19-12,28-23.39,3.35-8,1.71-19.78-7.31-23.41-6.16-2.48-14.65-.46-20.91.86-14.54,3.08-30.06,11.57-30.49,28.24-.41,16.09,24.59,16.08,25,0Z"/><path class="cls-5" d="M2910.73,1276.67c16.09,0,16.11-25,0-25s-16.11,25,0,25Z"/><path class="cls-5" d="M2866.73,1372.67c16.09,0,16.11-25,0-25s-16.11,25,0,25Z"/><path class="cls-5" d="M2966.73,1364.67c16.09,0,16.11-25,0-25s-16.11,25,0,25Z"/><path class="cls-6" d="M68.23,856.17c-.09,12.08,4.05,23.64,4.09,35.7,0,12.88-.6,25.75-.46,38.63.14,12.55,1.8,24.69,3.31,37.11s1,25,2.5,37.51,2.84,24.51,3.12,37c.28,12.83.12,25.67-.1,38.5-.44,25.94-.47,51.87-.46,77.82,0,9.47-1.16,18.83-1.35,28.29-.16,7.88.17,17.3,6.08,23.24,2.27,2.28,5.81-1.25,3.54-3.54-5.59-5.61-4.84-15.75-4.5-23,.39-8.36,1.23-16.61,1.23-25,0-24.62,0-49.24.39-73.86.45-25.36.71-50.51-2.48-75.71-1.51-11.92-1.27-23.78-2.36-35.7-1.06-11.68-3.38-23.18-3.76-34.92-.46-14.16,0-28.33.25-42.49.22-13.42-4.14-26.2-4-39.55,0-3.22-5-3.22-5,0Z"/><path class="cls-6" d="M24.23,888.17c0,20.62.12,41.24,0,61.86-.12,19.46,4.57,38.44,4.46,57.83-.06,9.64-.63,19.26-.31,28.9.33,9.8,1.22,19.57,2.06,29.34,1.71,19.79,1.73,39.44,1.77,59.28,0,8.05.42,15.92.92,23.94.41,6.66,1.37,16.19-4.15,21.08-2.41,2.14,1.13,5.66,3.54,3.54,9.08-8,5.5-24.1,4.86-34.62-1.2-19.66.5-39.41-.81-59.09-1.34-20.14-3.72-40.08-3.15-60.31.28-9.87.54-19.66-.75-29.48s-2.9-19.83-3.33-29.84c-1-24-.08-48.36-.08-72.43,0-3.22-5-3.22-5,0Z"/><path class="cls-6" d="M940.23,880.17c-1.3,12.48-7.81,23.07-13.41,34-6,11.66-11.12,23.77-16.47,35.72-5.23,11.69-10.7,23.19-14.64,35.39-4.13,12.79-7.84,25.57-13.28,37.9-5.25,11.92-11.21,23.51-16.47,35.43-5.14,11.63-8.73,23.75-12.88,35.75-4.51,13-10.63,25.37-16.5,37.83-5.42,11.5-10.2,23.28-15.48,34.85-11.33,24.85-23.46,49.47-28.78,76.47-.62,3.14,4.2,4.49,4.82,1.33,5-25.13,15.82-48.17,26.45-71.28,5.28-11.47,10-23.18,15.34-34.63s11.07-22.72,15.74-34.45c4.84-12.16,8.1-24.88,13-37,5.21-13.06,11.82-25.53,17.62-38.33a297.15,297.15,0,0,0,13.09-35.42c4-13.06,9.21-25.33,14.79-37.79,6.1-13.61,11.9-27.45,18.8-40.69,5.89-11.29,12-22.15,13.32-35,.33-3.2-4.67-3.17-5,0Z"/><path class="cls-6" d="M952.57,982.91c-8.44,14.32-13.27,30.22-19.38,45.57-6.85,17.19-15.12,34-22.9,50.83-14.77,31.86-33.4,62.08-46.41,94.75-6.08,15.26-11.05,32.39-22.92,44.34-2.27,2.29,1.26,5.82,3.54,3.54,9.85-9.92,15.14-23.25,20.12-36.05,6.11-15.7,13.25-30.75,20.71-45.86,8.36-16.94,17.46-33.53,25.67-50.55,8-16.57,15.37-33.47,23-50.2,8.11-17.77,12.92-36.93,22.89-53.84,1.64-2.78-2.68-5.3-4.32-2.52Z"/><path class="cls-6" d="M492.23,1156.17c0,13.12-.86,26.49,0,39.58.84,12.25,5.22,24,4,36.42-.33,3.2,4.68,3.18,5,0,1.27-12.42-3.1-24.15-4-36.42-.91-13.09-.05-26.47,0-39.58,0-3.22-5-3.22-5,0Z"/><path class="cls-6" d="M524.23,1156.17c.31,24.06,3.93,47.93,4,72,0,3.22,5,3.22,5,0-.07-24.07-3.69-47.94-4-72,0-3.21-5-3.22-5,0Z"/><path class="cls-6" d="M1293,985.94c6.17,6.8,3,17.42,3.17,25.71.18,9.87,2.43,19.51,4.19,29.19.58,3.16,5.4,1.82,4.82-1.33-2.05-11.28-4.55-22.38-3.87-33.92.49-8.28,1.19-16.6-4.78-23.18-2.17-2.39-5.7,1.16-3.54,3.54Z"/><path class="cls-6" d="M1316.23,996.17v40c0,3.22,5,3.22,5,0v-40c0-3.22-5-3.22-5,0Z"/><path class="cls-6" d="M1336.23,812.17v76c0,3.22,5,3.22,5,0v-76c0-3.22-5-3.22-5,0Z"/><path class="cls-6" d="M1360.23,820.17v72c0,3.22,5,3.22,5,0v-72c0-3.22-5-3.22-5,0Z"/><path class="cls-6" d="M1344.23,1140.17c1.59,13.11,2.76,26.17,4,39.3,1.25,12.74,6.11,24.75,8,37.36.49,3.17,5.31,1.82,4.82-1.33-2-12.76-7-24.91-8-37.83-1-12.57-2.37-25-3.89-37.51-.38-3.15-5.39-3.19-5,0Z"/><path class="cls-6" d="M1368.23,1148.17a520.81,520.81,0,0,0,8.09,80.66c.55,3.16,5.37,1.82,4.82-1.33a512.11,512.11,0,0,1-7.91-79.34c-.05-3.21-5.05-3.22-5,0Z"/><path class="cls-6" d="M1418.73,1294.67c21.65,0,43.24-.74,64.66-4.09,3.17-.49,1.82-5.31-1.33-4.82-21,3.27-42.14,3.89-63.34,3.91-3.22,0-3.22,5,0,5Z"/><path class="cls-6" d="M1650.73,1298.67h92c3.22,0,3.22-5,0-5h-92c-3.22,0-3.22,5,0,5Z"/><path class="cls-6" d="M1780.23,820.17c.06,25.46,2.53,50.82,3.56,76.24,1.05,25.84.45,51.79.44,77.65,0,25.5-.11,51,0,76.5a277.63,277.63,0,0,1-1.79,36.64,288.11,288.11,0,0,0-2.14,37.75c.09,29.07-.06,58.15-.06,87.22,0,3.22,5,3.22,5,0,0-25.77.12-51.54.09-77.31,0-12.87-.46-25.72,1-38.53,1.36-12,3.1-23.84,3-36-.49-51.36,1-102.78-.18-154.13-.66-28.71-3.81-57.31-3.88-86,0-3.22-5-3.22-5,0Z"/><path class="cls-6" d="M2128.23,1148.17c-.06,25.62,8.35,50.37,8,76,0,3.22,5,3.22,5,0,.35-25.64-8.06-50.39-8-76,0-3.22-5-3.22-5,0Z"/><path class="cls-6" d="M2310.73,1202.67c12.07,1.06,22.95-4.31,34.53-6.64,12.32-2.47,25.54-1.91,38-1.31s24.2,3.89,36.43,6.14c11.55,2.13,23.32,1.8,35,1.8,3.22,0,3.22-5,0-5-12.47,0-25.06.41-37.3-2.37-11.33-2.57-22.48-5-34.13-5.58s-23.94-.91-35.63.84c-12.44,1.86-24.13,8.23-36.94,7.11-3.2-.28-3.19,4.72,0,5Z"/><path class="cls-6" d="M2368.5,1053.94c4.55-4.92,12.22-3.53,18.23-3.27,3.22.14,3.21-4.86,0-5-7.52-.33-16.13-1.35-21.77,4.73-2.18,2.36,1.34,5.9,3.54,3.54Z"/><path class="cls-6" d="M2616.23,808.17c0,12.46.08,24.93,1.9,37.29.92,6.27,2.34,12.39,2.71,18.74s.24,12.56,0,18.84c-1,26.53-.63,53.08-.63,79.62,0,26.81-.4,53.63,1,80.42,1.35,26.49,3,52.86,3,79.4v93.69c0,3.22,5,3.22,5,0v-82.73c0-27-1-53.79-2.5-80.74-1.52-26.72-1.5-53.39-1.5-80.14,0-26.52-.75-53.18.24-79.68.49-13.24,1.4-26.57-.9-39.7-2.63-15-3.35-29.76-3.34-45,0-3.22-5-3.22-5,0Z"/><path class="cls-6" d="M2804.23,1068.17c1.75,13.55,5.56,26.67,7.72,40.14s2.82,27.18,5.35,40.63c2.57,13.68,1.78,27.64,3.59,41.4,1.85,14,5.51,27.78,7.34,41.82.41,3.15,5.42,3.19,5,0-1.73-13.26-5-26.24-7-39.45-2.05-13.69-1.24-27.62-3.42-41.29s-3.58-27.16-5.49-40.77c-2-14.29-6.24-28.17-8.09-42.49-.41-3.15-5.41-3.19-5,0Z"/><path class="cls-6" d="M2836.23,1112.17c.17,12.93,1.09,25.83,2.12,38.71,1,11.9,1.5,23.86,3.54,35.63,1.75,10.11,3.46,20,4.36,30.21.65,7.3,1.43,15.64,6.71,21.21,2.22,2.34,5.75-1.2,3.54-3.54-5.33-5.63-5.09-15.58-5.64-22.81-.72-9.54-2.9-18.83-4.46-28.25-1.93-11.65-2.35-23.59-3.28-35.35-.94-11.92-1.73-23.86-1.89-35.82,0-3.21-5-3.22-5,0Z"/><path class="cls-6" d="M2868.32,1152.84c8.29,21.73,8.86,45.21,12,68,.44,3.17,5.26,1.82,4.82-1.33-3.14-22.79-3.71-46.27-12-68-1.14-3-6-1.69-4.82,1.33Z"/><path class="cls-6" d="M3088.32,800.84a128.08,128.08,0,0,1,7.25,36.06,295,295,0,0,0,5.82,39.34,135.4,135.4,0,0,1,3.15,21.62c.28,7-.62,13.9-.67,20.86a73.07,73.07,0,0,0,2.45,18.13,96.29,96.29,0,0,1,2.56,20.7c.35,14.19-.61,28.36-.64,42.54,0,12.9,1.9,25.57,4.38,38.19,2.79,14.15,5.27,27.49,3.47,42-1.65,13.34-6.25,26-8,39.36-3.71,28.07.06,56.41.14,84.57,0,3.22,5,3.22,5,0-.07-25.72-3.19-51.5-.95-77.2,1.16-13.25,5.23-25.64,7.59-38.65a103.74,103.74,0,0,0,.1-38.78c-2.58-13.27-5.61-26.47-6.46-40-.91-14.4.35-28.89.43-43.29a170.44,170.44,0,0,0-.67-20c-.73-6.48-3-12.63-3.94-19.07s-.28-13.25.05-19.84a104.38,104.38,0,0,0-1.12-21.31c-2.45-15.94-6.53-31.25-7.58-47.4-.88-13.48-2.85-26.38-7.54-39.1-1.1-3-5.94-1.7-4.82,1.33Z"/><path class="cls-6" d="M3521,1161.94c4.16,4.64,4.17,11.49,4.32,17.38a98.83,98.83,0,0,0,1.42,15.77c1.93,10.43,2.9,22.58,10.26,30.85,2.14,2.41,5.67-1.14,3.54-3.54-4-4.46-5.47-10.66-6.71-16.35-1.21-5.54-2.4-11.28-3.09-16.91-1.27-10.31,1.37-22.29-6.2-30.74-2.15-2.4-5.68,1.15-3.54,3.54Z"/><path class="cls-6" d="M3472.23,980.17c-.16,16.69,5.46,32.36,8.09,48.66.51,3.17,5.33,1.82,4.82-1.33-2.56-15.86-8.07-31.1-7.91-47.34,0-3.22-5-3.22-5,0Z"/><path class="cls-6" d="M3529,810.4c-7.56,8.09-7.06,20.19-5.8,30.45,1.43,11.72,5.15,23.46,5.07,35.31,0,3.22,5,3.22,5,0,.07-10.29-2.81-20.52-4.4-30.63-1.54-9.81-3.83-23.58,3.67-31.61,2.2-2.35-1.33-5.89-3.54-3.54Z"/><path class="cls-6" d="M3552.23,820.17c0,16.37.93,32.57,4.09,48.66.62,3.15,5.44,1.82,4.82-1.33-3.07-15.65-3.9-31.42-3.91-47.34,0-3.22-5-3.22-5,0Z"/><path class="cls-6" d="M3500.23,992.17c1,9.22,1.81,18.89,8.73,25.77,2.29,2.27,5.82-1.26,3.54-3.54-5.9-5.86-6.43-14.41-7.27-22.23-.34-3.17-5.34-3.2-5,0Z"/><path class="cls-6" d="M3538.07,1166.58c5.77,1.22,8.35,8.3,10.55,13.08,2.29,5,4.37,10.35,8.35,14.28,2.29,2.26,5.83-1.27,3.54-3.54-8-7.89-8.33-25.94-21.1-28.64-3.14-.66-4.48,4.15-1.33,4.82Z"/><path class="cls-4" d="M128.5,521.94c8.57-8.25,12.31-19.57,18.61-29.38,3.32-5.16,7.76-9.42,11.9-13.92,4.55-4.94,9.11-9.89,14-14.49a84.91,84.91,0,0,1,14.47-11.27c6-3.59,12.69-6.19,19-9.23,13.17-6.32,26.27-12.86,39.85-18.26,24.47-9.71,50.31-14,76.61-11.76,11.89,1,23.81,3.48,34.63,8.63,12.52,6,25.33,11.77,36.84,19.55,11.82,8,20.53,18.45,28.65,30.05,7.13,10.2,14.74,20,22.14,30,15.25,20.59,28.62,42.46,42.18,64.17,13.07,20.93,26.36,41.78,41.6,61.22,16,20.41,34.44,37.34,54.28,53.9,22.94,19.15,46.36,38.1,73.39,51.24a71.35,71.35,0,0,0,21.76,6.79c7.37,1,14.85,1.39,22.13,3,15.39,3.39,30.1,9.69,46.17,8.53,3.19-.23,3.22-5.23,0-5-15,1.09-28.88-4.49-43.18-8-13.69-3.32-28.12-2.24-41.17-8.16-25.35-11.5-47.62-28.81-68.93-46.45-20.44-16.92-40.15-33.79-57-54.46-16.32-20.06-30.26-41.92-43.94-63.82-13.57-21.71-26.91-43.6-42.08-64.24-7.68-10.45-15.65-20.61-23.09-31.24-7.16-10.23-14.75-20.06-24.72-27.72C391.57,433.11,379,427.07,366.44,421c-10.9-5.26-21.49-9.33-33.52-11.19a163.63,163.63,0,0,0-72.67,5.32c-15.21,4.72-29.74,11.44-44.07,18.31-13.24,6.34-27.82,11.68-39.41,20.84-11,8.68-21.19,19.58-30.07,30.35-8.58,10.4-11.9,24.29-21.72,33.75-2.32,2.24,1.22,5.77,3.54,3.54Z"/><path class="cls-4" d="M170.73,520.17c0,9.91-5.22,68.64,12.11,58.74,7.87-4.5,11.45-22.74,11.42-30.66,0-6.62-10.32-38.05-19.53-36.09"/><path class="cls-4" d="M130.73,456.17c-15.82,0-33.34-2.46-48.29,3.64-12.08,4.93-31.95,24.35-15.38,36,18.23,12.86,89.82-28.27,67.67-43.67"/><path class="cls-4" d="M210.73,416.17c-17.67-6.92-37.7-7.92-56.09-13.16-10.65-3-18.45-3.84-27.81,3.13-6.17,4.6-15.22,14.61-8.84,22.61,3.6,4.52,12.18,4,17.35,3.7,12-.71,23.44-3.75,35.49-4.3,8.86-.4,15.45,0,24.05-3.7,3.7-1.6,25.07-10.21,11.86-16.29"/><path class="cls-4" d="M210.73,472.17c-5.77,14.3-3.91,28.59-4,43.79,0,7.91-3.93,42.34,11.64,31.6,11.68-8.06,8.31-32,8.31-43.61,0-9.82,3.09-37.95-12-39.78"/><path class="cls-4" d="M274.73,384.17c-6.88-7.7-46.54-64.22-55.75-31.27-3.32,11.9,11.16,20.76,19.56,25.47,5.5,3.08,34.76,17.34,32.18-2.21"/><path class="cls-4" d="M274.73,444.17c-5.08,9.93-31.15,77.14-4,72,8.86-1.69,15.37-29,17.24-36,2.44-9.11,4-15.59-.67-24.44-3-5.68-10-14.9-16.58-7.56"/><path class="cls-4" d="M338.73,396.17c-12.78-8.36-21.24-24.51-23.47-39.78-2.07-14.18,11.17-40.45,29.28-30.42,11,6.11,19,30.66,20.06,42.2,1.55,17.48-5.81,35.24-25.87,36"/><path class="cls-4" d="M346.73,456.17c-15.69-22.48-55,38.37-44.67,57.42,8.53,15.68,24.4,1,32.85-6.15,12.88-10.95,17.2-27.08,19.82-43.27"/><path class="cls-4" d="M438.73,460.17c0-13.44.21-26.9-.06-40.33-.13-6.62-2.45-17.36,1.35-23.24,3.53-5.45,13.41-9.15,19-11.4,21.67,13.86,20.95,85.62-12.3,79"/><path class="cls-4" d="M414.73,508.17c-13.73,5-32.62,10-43.4,20.6-9.41,9.27-19.78,33.36-8.27,44,13.28,12.23,38.5-1.26,47-12.29,10.54-13.58,12.81-27.71,12.62-44.27"/><path class="cls-4" d="M498.73,556.17c0-14.38-1.79-29.74-.58-44C499.23,499.41,514,482,527,490.54c6.55,4.32,6.77,8.49,7.94,15.35,1.32,7.75,4.1,18.47,3.22,26.38-.77,6.9-13.26,42.08-23.38,23.91"/><path class="cls-4" d="M466.73,604.17c-15.3-1.83-29-7.8-44.08-.48-13.36,6.49-29.38,22.31-17.48,38.12,8.55,11.36,29.37,6.85,40.76,2.63,16.75-6.21,31-17.06,24.8-36.27"/><path class="cls-4" d="M570.73,644.17c-6.94-10.5-9.75-35.93-7.87-48,1.49-9.6,15.42-44.8,31.37-32.85,6.31,4.72,4.27,14.09,5.45,20.76,1.46,8.23,3.73,15.52,3.33,24-.45,9.45-5.93,54.68-24.29,40.09"/><path class="cls-4" d="M518.73,680.17c-16.58,0-39.83-4.07-56,.31-16.83,4.56-39.07,28.78-26.05,45.19,11.12,14,35.24,13.65,50.13,6.79C503,725,526,718,522.73,696.17"/><path class="cls-4" d="M642.73,704.17c-7.41-14.88-34.44-61.34-7.73-70.24,13.45-4.48,18.08,7.55,23.79,18.06,7.68,14.14,10.39,25,3.94,40.18"/><path class="cls-4" d="M622.73,752.17c-13.84.08-41.63-29.63-54.86-8.38-12.55,20.18,28.45,27.14,38.86,16.38"/></svg>