<?xml version="1.0" encoding="utf-8"?>
<!-- Generator: Adobe Illustrator 21.0.2, SVG Export Plug-In . SVG Version: 6.00 Build 0)  -->
<svg version="1.1" id="Layer_1" xmlns="http://www.w3.org/2000/svg" xmlns:xlink="http://www.w3.org/1999/xlink" x="0px" y="0px"
	 viewBox="0 0 3623.3 2099.6" style="enable-background:new 0 0 3623.3 2099.6;" xml:space="preserve">
<style type="text/css">
	.st0{enable-background:new    ;}
	.st1{fill:#231F20;}
	.st2{fill:#45B649;}
	.st3{fill:#C61C6F;}
	.st4{fill:#F7EC15;}
</style>
<title>reformationArtboard 15</title>
<g class="st0">
	<path class="st1" d="M137.9,803.5c0-4.3,1.2-7.6,3.5-10.2c2.3-2.5,5.6-3.8,9.9-3.8h301.5c4.5,0,7.9,1.3,10.3,3.9
		c2.4,2.6,3.6,6.2,3.6,10.6v75.2c0,3.4-1.2,6.7-3.6,9.8c-2.4,3.1-6,4.7-10.6,4.7h-197v75.4h152c3.8,0,7,0.9,9.6,2.7
		c2.5,1.8,3.8,4.9,3.8,9.1v65.7c0,2.8-1.1,5.6-3.3,8.2c-2.2,2.6-5.5,4-9.7,4H255.5v77.8h204.2c9.1,0,13.7,4.6,13.7,13.9v76.4
		c0,2-0.8,3.8-2.4,5.5c-0.8,5.7-5,8.5-12.5,8.5H151.2c-4,0-7.3-1.1-9.7-3.2c-2.4-2.1-3.6-5.4-3.6-9.9V803.5z"/>
	<path class="st1" d="M672.5,1234.5c-2.2-3.6-4.2-7.4-5.9-11.2c-1.7-3.8-3.4-7.8-5-11.9L505.6,803.2c0-1-0.2-1.9-0.5-2.7
		c-0.3-0.8-0.5-1.6-0.5-2.4c0-5.7,3.7-8.5,11.2-8.5h97.9c7.7,0,13,3.9,15.8,11.5l92.7,276.6c8.3-23.1,16.3-46.1,23.9-69.1
		c7.6-23,15.1-46,22.5-69.1c7.4-23.1,14.9-46.1,22.5-69.1c7.6-23,15.5-46,23.9-69.1c2.8-7.7,8.4-11.5,16.7-11.5h95.7
		c4.7,0,7.9,0.9,9.9,2.6c1.9,1.7,2.9,4,2.9,6.8c0,1.6-0.1,2.7-0.3,3.3v0.9l-156.8,408.2c-1,2.8-2.2,6-3.6,9.4
		c-1.4,3.4-3,6.6-4.9,9.6c-1.8,2.9-4,5.4-6.4,7.4c-2.4,2-5.2,3-8.2,3H685C678.7,1240.8,674.5,1238.7,672.5,1234.5z"/>
	<path class="st1" d="M995,803.5c0-4.3,1.2-7.6,3.5-10.2c2.3-2.5,5.6-3.8,9.9-3.8h301.5c4.5,0,7.9,1.3,10.3,3.9s3.6,6.2,3.6,10.6
		v75.2c0,3.4-1.2,6.7-3.6,9.8c-2.4,3.1-6,4.7-10.6,4.7h-197v75.4h152c3.8,0,7,0.9,9.6,2.7c2.5,1.8,3.8,4.9,3.8,9.1v65.7
		c0,2.8-1.1,5.6-3.3,8.2c-2.2,2.6-5.5,4-9.7,4h-152.3v77.8h204.2c9.1,0,13.7,4.6,13.7,13.9v76.4c0,2-0.8,3.8-2.4,5.5
		c-0.8,5.7-5,8.5-12.5,8.5h-307.3c-4,0-7.3-1.1-9.7-3.2c-2.4-2.1-3.6-5.4-3.6-9.9V803.5z"/>
	<path class="st1" d="M1405.9,803.5c0-4.3,1.1-7.6,3.3-10.2c2.2-2.5,5.6-3.8,10-3.8h196.3c20.9,0,40.4,3.9,58.7,11.7
		c18.2,7.8,34.1,18.4,47.7,31.8c13.6,13.4,24.3,29,32.1,47c7.8,17.9,11.7,37,11.7,57.3c0,13.8-1.9,26.9-5.6,39.4
		c-3.8,12.5-9,24.1-15.7,35c-6.7,10.8-14.6,20.7-23.9,29.5c-9.2,8.8-19.3,16.4-30.2,22.6l78.1,147.1c1.4,2.8,3.2,6.2,5.5,10
		c2.2,3.9,3.3,7.2,3.3,10c0,3.2-1.1,5.7-3.2,7.4c-2.1,1.7-5,2.6-8.7,2.6h-104.3c-3.4,0-6.5-1-9.3-3c-2.7-2-4.5-4.8-5.3-8.2
		l-73.9-138.9h-49.2v137.1c0,8.7-4.7,13.1-14,13.1h-90.3c-4.1,0-7.3-1.1-9.7-3.2s-3.6-5.4-3.6-9.9V803.5z M1643.9,938.4
		c0-6.1-1.1-12.2-3.3-18.2c-2.2-6.1-5.4-11.7-9.4-16.7c-4.1-5.1-8.9-9.3-14.6-12.8c-5.7-3.4-12-5.7-18.8-6.7c-5.7-0.4-11-0.8-16-1.1
		c-5-0.3-10.4-0.5-16.3-0.5h-41.9v111.5h55.9c3.6,0,6.9-0.1,9.7-0.3c2.8-0.2,6-0.5,9.4-0.9c7.1-0.8,13.5-2.9,19.1-6.2
		c5.7-3.3,10.4-7.5,14.3-12.5c3.8-5,6.8-10.5,8.8-16.7C1642.9,951.2,1643.9,944.9,1643.9,938.4z"/>
</g>
<g class="st0">
	<path class="st1" d="M1822.3,802.6c0-3.6,1.2-6.8,3.6-9.4c2.4-2.6,5.8-4,10-4h90c3.4,0,6.6,1.2,9.4,3.6c2.8,2.4,4.4,5.7,4.6,9.7
		v330.7h167.2c3.6,0,6.8,1.2,9.4,3.6c2.6,2.4,4,5.8,4,10v79.9c0,3.4-1.2,6.6-3.5,9.4c-2.3,2.8-5.6,4.4-9.9,4.6h-271.4
		c-8.9,0-13.4-4.5-13.4-13.4V802.6z"/>
</g>
<g class="st0">
	<path class="st1" d="M2338.7,801.4c0.2-1.2,0.9-2.5,2-4c1.1-1.4,2.5-2.7,4.1-4c1.6-1.2,3.3-2.2,5.2-2.9c1.8-0.7,3.5-1.1,5.2-1.1
		h77.8c3.4,0,6.4,1.1,8.8,3.2c2.4,2.1,4.3,4,5.5,5.6l7.6,17.3l159.6,411.5c1.6,4.1,1.3,7.3-0.9,9.9c-2.2,2.5-6.1,3.8-11.6,3.8h-87.2
		c-4.7,0-8.3-0.9-10.8-2.6c-2.5-1.7-4.5-4.6-5.9-8.7c-4.1-10.3-8-20.6-11.9-30.8c-3.9-10.2-7.7-20.5-11.5-30.8h-161.4
		c-3.9,10.3-7.8,20.6-11.7,30.8c-4,10.2-7.9,20.5-11.7,30.8c-2.6,7.5-7.8,11.2-15.5,11.2h-89.7c-3.9,0-7-1-9.6-3
		c-2.5-2-3-5.1-1.4-9.1L2338.7,801.4z M2394,931.4c-3.9,10.3-7.8,21.5-11.7,33.4c-4,12-7.9,24-11.7,36.2c-3.9,12.2-7.8,24.2-11.7,36
		s-7.9,22.9-11.7,33.3h93.3L2394,931.4z"/>
	<path class="st1" d="M2676,802.9c0-3.6,1.1-6.8,3.3-9.4c2.2-2.6,5.6-4,10-4h99.4c2.8,0,5.8,0.7,8.8,2.1c3,1.4,5.7,3.9,7.9,7.3
		c25.7,41.5,51.3,82.5,76.6,122.8c25.3,40.3,51,81.3,76.9,122.8V801c0.8-3.6,2.4-6.5,4.9-8.5c2.4-2,5.3-3,8.5-3h86.6
		c4.3,0,7.8,1.2,10.6,3.5c2.8,2.3,4.3,5.6,4.3,9.9V1229c0,4.1-1.2,7-3.6,9c-2.4,1.9-5.8,2.9-10,2.9h-97c-2.6,0-5-0.9-7-2.7
		c-2-1.8-4.2-4.3-6.4-7.3c-27-44.6-53.6-88.6-79.9-132.2c-26.3-43.6-53.1-87.6-80.2-132.2v261.1c0,4.5-1,7.8-3,10
		c-2,2.2-5.7,3.3-10.9,3.3h-86.3c-4.7,0-8.1-1.3-10.2-3.8c-2.1-2.5-3.2-5.6-3.2-9.3V802.9z"/>
	<path class="st1" d="M3173,803.5c0-4.3,1.2-7.6,3.5-10.2c2.3-2.5,5.6-3.8,9.9-3.8h301.5c4.5,0,7.9,1.3,10.3,3.9s3.6,6.2,3.6,10.6
		v75.2c0,3.4-1.2,6.7-3.6,9.8c-2.4,3.1-6,4.7-10.6,4.7h-197v75.4h152c3.8,0,7,0.9,9.6,2.7c2.5,1.8,3.8,4.9,3.8,9.1v65.7
		c0,2.8-1.1,5.6-3.3,8.2c-2.2,2.6-5.5,4-9.7,4h-152.3v77.8h204.2c9.1,0,13.7,4.6,13.7,13.9v76.4c0,2-0.8,3.8-2.4,5.5
		c-0.8,5.7-5,8.5-12.5,8.5h-307.3c-4,0-7.3-1.1-9.7-3.2c-2.4-2.1-3.6-5.4-3.6-9.9V803.5z"/>
</g>
<path class="st2" d="M90.7,1591.4c16.6-14.3,29-32.5,43.2-49c14.5-16.8,31.9-30.2,50-42.9s35.7-25.8,53.9-38.2
	c18.4-12.6,38.2-25.1,59.1-33c10.9-4.1,22.6-5.3,33.7-8.9c10.4-3.4,20.1-8.6,30.4-12.2c20-7,42-8.6,63-8
	c21.7,0.7,43.1,4.1,63.9,10.2c21,6.1,40.2,16.2,60.2,24.7c24,10.2,48.8,19.1,70,34.4c9.8,7,19,15,29.7,20.7
	c11.1,6,23.1,10.3,33,18.2c2.5,2,6.1-1.5,3.5-3.5c-8.5-6.8-18.3-11.1-28.1-15.9c-9.9-4.8-18.5-11-27.3-17.6
	c-9.4-7.1-18.9-13.8-29.5-19.1s-21.3-10-32.2-14.5c-11.6-4.9-23.3-9.6-34.7-14.9c-9.4-4.4-18.8-8.8-28.6-12.3
	c-20.4-7.3-41.7-12.1-63.4-14.1c-21.1-2.2-42.4-1.3-63.2,2.5c-10.1,2-20,5.1-29.4,9.2c-11.3,5-22.9,8.9-34.9,11.7
	c-44.7,10-81.1,41.3-117.8,66.8c-20.3,14.1-41.1,27.9-58.3,45.8c-17.4,18.2-30.9,39.9-50.1,56.5C84.6,1590,88.2,1593.5,90.7,1591.4
	L90.7,1591.4z"/>
<path class="st2" d="M98.7,1593.5c-8.6,7.4-10,22.4-13.6,32.7c-3.6,10.7-6.5,21.5-8.7,32.6c-4.2,20.3,1.6,68.3,30.8,47.1
	c20.7-15,27.5-42.2,27.6-67.2c0.1-11.9,1.9-25.6-0.6-37.2c-2-9.2-17.5-31.3-27.5-16.2"/>
<path class="st2" d="M94.7,1577.2c0.8-8.9-12.8-16.7-18.8-20.8c-11-7.4-21-6.4-33.3-9c-22-4.5-44.6,1.7-57.8,21.9
	c-14.4,22-2.8,39.7,21.9,40.9c24,1.2,47.9-5.4,64-24.8"/>
<path class="st2" d="M206.7,1474.9c-17.6,1.4-33.2-20.6-48.3-26.4c-18.9-7.3-40.8-10.3-52.2,10.9c-8.1,15-3.6,33.9,13.4,39.5
	c7,2.3,16.7,1.1,24.1,0.8c11.6-0.4,20.3-7.8,31.1-8.5"/>
<path class="st2" d="M218.7,1487.2c-12.4,25.7-24.8,49.1-30.3,77.6c-2.7,13.7,0.5,27.8,11,37.4c13.6,12.4,23.6,7.3,35.5-3.3
	c20.3-18.1,26-48.6,31-74.7c2.9-15,4-33.6-10.9-41.6c-9.9-5.3-21.6-7.5-32.3-3.6"/>
<path class="st2" d="M346.7,1372.6c18.3-18.6,3.9-48-13.7-60.5c-25-17.7-56.6-20-82.4-2.8c-23.3,15.5-37.3,47.8-8.1,65.2
	c22.6,13.6,51.8,10.2,76.2,6.3"/>
<path class="st2" d="M382.7,1442.1c-23.2-6.3-49,8.7-61.9,28.5c-12.1,18.6-23.3,56.2,0.5,70.4c23,13.8,51.7-17,64.6-33.4
	c9.6-12.2,18-23.6,21.2-39c3.3-15.8,1.5-18.9-12.4-26.4"/>
<path class="st2" d="M506.7,1307.1c7.9-4.1,18.5-11.3,27.9-10.9c10.4,0.4,21.6,11.7,27.5,19.7c10.4,14.3,11.6,47.9,8.6,65.1
	c-2.2,12.5-7.7,16.2-20,13.7c-13.7-2.8-19.6-10.6-27.2-22c-11.5-17.4-24.8-45.7-4.8-61.4"/>
<path class="st2" d="M574.7,1491.2c-1.8-30.6-31.7-32.1-55.7-32.9c-21.8-0.8-60.7,10.2-64.5,36.9c-4.1,29.2,26.8,32.4,48.1,32.9
	c11.7,0.3,25.2,2.4,35.3-4.7c12.8-9,21.4-21.8,32.8-32.2"/>
<path class="st2" d="M670.7,1474.9c-11.7-8.6-20.8-9.9-28.2-24.4c-7.1-13.8-11.2-28.8-12.1-44.3c-1.4-24.9,17.8-64,46.9-48.5
	c24.7,13.1,42.2,45.4,46.9,73.1c2.5,15-5,30.3-17.2,39.5c-12,9-23.5,2.4-36.3,0.4"/>
<path class="st2" d="M674.7,1552.6c-19.8-22.2-57.3-16.9-80.3-4.4c-13.7,7.4-22.3,17.4-25.1,32.9c-2.3,12.8-0.6,31.2,13,36.4
	c22.8,8.7,57.5,7.5,80.6,0.9c16-4.6,24.4-17.4,29.7-33c6.2-18.1,1.8-28.6-13.9-36.9"/>
<path class="st2" d="M796.6,1329.4c13.1,22.1,34.8,36,57.5,46.9c11.3,5.4,22.8,10.6,34.3,15.4c12.8,5.3,26.6,8.3,40.3,10.1
	c14.8,2,28.4,0.5,42.9-2.7c15.3-3.4,30.8-5.4,46-9.4c29.2-7.6,56.7-20.8,80.9-38.8c6.7-4.9,13.3-10.1,19.7-15.3
	c6.5-5.3,13.5-10.7,19-17.1c9.9-11.7,13.7-26.9,16-41.7c0.5-3.2-4.3-4.5-4.8-1.3c-2.1,13.1-5.1,26.8-13.2,37.6
	c-4.3,5.8-10.2,10.3-15.7,15c-5.8,4.9-11.7,9.7-17.8,14.3c-23.3,17.7-48.2,31.6-76.3,40c-14,4.2-28.2,6.3-42.5,9.1
	c-14.8,3-29.4,7.4-44.7,6.4c-13-1-25.8-3.4-38.3-7.3c-11.9-3.7-23.3-9.4-34.7-14.5c-24.9-11.3-50-24.9-64.4-49.2
	C799.2,1324.1,794.9,1326.6,796.6,1329.4L796.6,1329.4z"/>
<path class="st2" d="M1157.2,756.2c-0.1-11.8,0.6-23.2,5.4-34.2c5.6-12.4,11.9-24.5,19-36.1c13.1-21.9,30.4-41.6,49.5-58.3
	c18.8-16.4,39.3-30.3,63.9-35.6c12.2-2.6,24.7-3.8,37.1-5.3c11.9-1.5,23.7-4,35.7-2.6c25.1,2.9,44.8,18.2,64.4,32.7
	c20.2,15,41.9,27.8,64.7,38.4c10.1,4.8,20.9,8,32,9.6c11.2,1.6,22.4,2.6,33.7,3c12,0.4,24.8,0.6,36.5-2.2c11.3-2.6,21.8-7.9,32.2-13
	c11.6-5.6,22.4-11.5,32.1-20.1c10.2-9.1,19.1-19.8,27.4-30.6s14.9-22.3,21.1-34.4c2.7-5.2,5.2-10.4,6.5-16.1s1.8-12.7,5.9-17.3
	c2.2-2.4-1.4-5.9-3.5-3.5c-6.7,7.4-5.8,18.2-9.6,27c-5.1,11.9-11.4,23.2-18.8,33.8c-14.1,20.2-31.5,41.1-53.9,52.2
	c-10.8,5.4-21.7,11-33.1,14.9c-12,4.1-24.7,4.5-37.3,4.3c-11.8-0.2-23.6-1-35.3-2.6c-12.1-1.5-23.9-5-34.9-10.2
	c-23.8-11.2-46.4-24.8-67.4-40.8c-18.3-13.9-37.8-26.9-61.1-29.9c-12.2-1.6-23.7,0.7-35.7,2.2c-11.7,1.5-23.6,2.6-35.2,4.8
	s-23,5.4-33.4,11s-20.4,12.8-29.7,20.3c-22.1,17.7-41.1,38.9-56.2,62.8c-8.3,13-15.5,26.7-21.6,40.8c-4.8,11.3-5.5,23-5.4,35.2
	C1152.2,759.4,1157.2,759.4,1157.2,756.2L1157.2,756.2z"/>
<path class="st2" d="M794.7,1412.2c0,28.8-3.7,60.9,7.8,88.2c7.2,16.9,14.6,29.4,32.2,36.3c15.4,6,24.4-7,27.7-20.8
	c7.1-30,6.8-65.8,0.2-95.9c-3.4-15.2-16.9-35.6-35.1-31.7c-17.2,3.7-15.9,20.6-24.7,31.8"/>
<path class="st2" d="M898.7,1304.2c-16.1,7.2-36.7,29.4-15.5,44.6c15.4,10.9,48.1,0.4,63.1-6.3c12.9-5.8,45.8-27.4,30-44.7
	c-11.1-12.1-42.1-12-53.7-1.6"/>
<path class="st2" d="M1014.7,1440.2c9.7,10.1,27.5,19.7,39.8,26.2c15.1,7.8,32.4,15.5,49,19c25.7,5.4,69.8,6.6,63.3-33.2
	c-5.2-31.4-53.5-51.3-80.4-59.2c-24-7-73.5-0.8-67.8,35.2"/>
<path class="st2" d="M1030.7,1356.2c-0.2-19,5.9-36.2,16.8-52.1c9.5-13.9,27-40.6,45.2-22c12.4,12.7,4.8,38.1-6.6,49.4
	c-9.5,9.4-40.1,24.6-51.4,12.6"/>
<path class="st2" d="M1034.7,680.2c-2.3,13,6.2,25.6,12.8,35.9c8.8,13.7,16.5,29.8,35.5,28.8c30.1-1.6,15.8-50.3,9.7-66.6
	c-10-26.8-18.4-61.6-53.4-65.8c-13.2-1.5-18.5,14.7-20.1,25.5c-1.9,13,6.2,29.3,15.5,38.2"/>
<path class="st2" d="M1222.7,708.2c-11.5,6.8-29.9,19.4-31.8,34.1c-1.8,13.4,12,20.1,23.7,20.2c27.7,0.2,61.6-13.3,79.9-34.1
	c15-17.1,43.6-57.5,4.5-67.7c-11.8-3-33.4-2.4-44.4,2.9c-6.1,3-10.6,8.3-15.6,12.6c-7.7,6.6-16,10.2-24.1,16"/>
<path class="st2" d="M1210.7,584.2c-1.2-11.1-6.3-20.8-7.7-31.7c-1.6-13.4-1.7-27-0.5-40.4c1.9-21.4,11.7-62.5,40.2-62.8
	c26.5-0.3,30.7,40.2,27.8,58.8c-3.4,22.1-25.6,64.1-51.8,64"/>
<path class="st2" d="M1306.7,628.2c18.8-9.2,39.5-9.3,60-8.2c16.1,0.9,54,7,59.8,25.1c9,27.7-30,20.8-43.6,19.2
	c-13.9-1.7-23.7-6.2-36.2-12.1s-21.8-6.9-28-20"/>
<path class="st2" d="M1386.7,552.2c2.3-27.2,30.9-50,52.2-63.5c20.3-12.8,59.8-12.8,72.3,11.2c13.5,25.8-8.5,50.1-32.6,56.5
	c-23.7,6.3-56.4,16.9-76-4.2"/>
<path class="st2" d="M1462.7,688.2c-1.7,14.1,4.9,32.7,12.7,44.1c7.5,11,27.2,34.9,42.9,24.7c14.1-9.1,3.9-35.6-2.2-45.1
	c-10-15.7-26.8-26-45.3-27.7"/>
<path class="st2" d="M1482.7,612.2c18.6-21.8,38.9-32.7,63.1-47.2c15.7-9.4,43.7-18.2,53.5,2.9c9,19.3-15.2,35.7-32.4,39.6
	c-22.2,5-45.5,4.7-68.2,4.7"/>
<path class="st2" d="M1642.7,696.2c7.1,1.3,14.3,14.3,19.8,18.9c11,9.2,20.4,20.2,32.3,28.6c15.7,11,38,14.3,47.2-6.2
	c9.8-21.7-5.4-36.6-23.3-45.3c-11.9-5.8-21.5-11.7-35.2-12.3c-10.5-0.4-18.9,2.7-28.9,4.4"/>
<path class="st2" d="M1554.7,704.2c7.9,8,10.2,19.7,18.7,27.4c5.7,5.1,19.2,15.4,25.8,8.5s5.2-20.7-0.8-27.1
	c-7.5-8-19.9-8.8-27.7-16.8"/>
<path class="st2" d="M1666.7,584.2l-3.7,2.8c-19.7-9.2-29.8-40-35.4-59c-5-17.1-7.3-39.5,13.8-47.3c24.3-9,34.1,18.6,41.6,35.5
	c8.4,19,13.9,49.4-8.2,60"/>
<path class="st2" d="M1714.7,624.2c4.4-10.9,18.4-10.6,28-13.1c11.5-2.9,21.2-3.9,33-2.1c8.3,1.2,17.1,1.9,23.5,7.7
	c7.9,7.4,9.7,19.4,4.2,28.8c-9.2,15.2-36.1,19.8-52.6,19.2c-21.4-0.8-38.9-27.8-36-48.5"/>
<path class="st2" d="M1520.3,1316.8c4.4,11.8,2.9,24.8,8,36.4s9.8,23.3,16.3,34.2s13.8,21.4,20.9,31.8c6.9,10.1,14.9,19.4,23.9,27.7
	c9,8.1,18.4,15.7,28.2,22.8c9.1,6.7,19.6,10.7,30,14.8c10.7,4.2,20.9,9.3,31.6,13.4c11.5,4.4,23.4,6.9,35.4,9.8
	c12.8,3,25.5,6.2,38.4,8.4c12.7,2.1,25.2,2.5,38,2.8s25.2,0.9,37.8-1.3s25.2-5,37.9-7.2c20.6-3.5,38.3-15.6,54.1-28.5
	c8.5-6.9,16.8-14,25-21.2s14.4-16,20-25.3c6.7-11.1,14.4-21.8,20.3-33.3c6.2-12,9.7-24.8,14.2-37.5c4.3-12.5,8.9-25,11.1-38.1
	c1.8-11,2.6-23.5,9.4-32.8c1.9-2.6-2.4-5.1-4.3-2.5c-5.4,7.3-7.1,16.7-8.6,25.4c-1.6,10.5-4,20.9-7.1,31c-7.4,22.7-14,46-27.3,66
	c-5.9,8.9-11,18.2-17,27.1c-6.3,9.3-14.2,16.3-22.6,23.6c-16.1,13.8-32.4,28.6-52.3,36.7c-10.4,4.2-21.3,5.2-32.3,7.4
	c-12.6,2.6-24.9,5.8-37.8,6.1c-25.5,0.6-50.7-1.1-75.5-6.7c-23.4-5.2-46.4-10.2-68.4-19.9c-10.4-4.6-21.1-8.6-31.5-13.2
	c-11.1-4.9-20.3-12.1-29.7-19.6c-10.2-8.1-20.1-16.9-28.4-27c-9.1-11.1-16.3-23.6-24.3-35.4c-7.5-11-12.9-22.9-18.2-35.1
	c-3.1-7.1-5.5-13.6-6.4-21.3c-0.8-7-1.5-13.8-4-20.4C1524,1312.5,1519.1,1313.8,1520.3,1316.8L1520.3,1316.8z"/>
<path class="st2" d="M2044.5,1085.9c5.6-5,8-11.3,8.4-18.6c0.2-4-0.1-8,0.2-12c0.3-5.3,2-10.4,3.8-15.4c3.4-9.5,6.1-19.5,10.1-28.8
	c4-9.2,9-17.9,14.8-26c11.9-16.6,27.6-30.5,44-42.6c8.1-6,16.6-11.6,25.3-16.8c8.1-4.8,16.6-8.9,24.4-14.4
	c15.5-11,28.6-24.8,42-38.1s24-28.4,33.3-44.8c19.1-33.7,35.3-71,35.3-110.5c0-20.8-4.5-41.2-5.9-61.9c-1.2-18-5-33.9-19.7-45.7
	c-2.5-2-6.1,1.5-3.5,3.5c6.7,5.3,12,11.9,14.7,20c2.4,7.1,3,14.7,3.5,22.1c1.1,17.7,4.8,35.1,5.6,52.9c2,40.2-12.9,78-31.9,112.6
	c-9.2,16.6-19.3,32.6-32.8,46.1c-13.2,13.2-26.1,27-41.2,38.1c-7.1,5.3-14.9,9.2-22.6,13.6c-8.7,5-17.2,10.5-25.4,16.3
	c-15.3,10.9-30.1,23.2-42.2,37.6c-13.2,15.8-22.1,33.4-28.2,53c-3.1,10-8.1,19.4-8.5,30c-0.4,9.8,1.1,19.1-7,26.3
	C2038.6,1084.6,2042.1,1088.1,2044.5,1085.9L2044.5,1085.9z"/>
<path class="st2" d="M1486.7,1368.2c-16.9,16.8-47.6,108.1,0.2,106.9c14.8-0.4,27.2-34.6,31-46.9c3.5-11.4,5.7-23.2,5.3-35.2
	c-0.5-15.2-7.4-19-20.5-24.8"/>
<path class="st2" d="M1590.7,1360.2c10.4,15.5,30.2,31.1,49,35.5c8.1,1.9,17.4,2.6,23.5-3.8c6.8-7.3,8.8-18.8,5.8-27.8
	c-5.4-15.9-30.2-31.2-46.2-35.3c-18.7-4.8-38.9,6.8-36,27.5"/>
<path class="st2" d="M1574.7,1516.2c-0.2,20.1-3.8,39-4.1,59.1c-0.1,9.6-1.3,23.8,8.6,29.7c9.3,5.5,25-0.1,29.4-8.8
	c9-18,9.9-48.1,0.5-65.7c-5.3-9.8-14.2-21.7-26.2-22.7s-9.6,9.6-16.2,16.4"/>
<path class="st2" d="M1726.7,1448.2c10.5-1.8,74.1-5.7,47.3-28.3c-11.9-10.1-29.3-11.8-44.2-11.9c-10.7,0-47,3.2-46.3,21.4
	c0.5,11.8,22.4,16,31.2,14.8"/>
<path class="st2" d="M1674.7,1548.2c0,21.6,3.9,43,11.7,63.2c6.6,16.5,32.2,49.1,52.8,33.4c7-5.4,9.9-20.5,10-28.7
	c0.1-12.9-8.8-24.7-15.4-35.1c-5.3-8.4-43.1-59.2-55.1-36.9"/>
<path class="st2" d="M1774.7,1476.2c9.9-17.3,87.5-81.1,96.2-34c3.2,17.1-23.8,25.7-36.3,29.1c-14.5,3.9-36.7,18.1-47.9,0.9"/>
<path class="st2" d="M1798.7,1568.2c2.2,19.8,9.9,39.6,24.8,53.3c12.3,11.3,39.2,25.7,51.7,6.1c18-28-55.2-97.4-72.5-71.4"/>
<path class="st2" d="M1894.7,1340.2c-14.5,12.1-13.1,42.8-12.3,59.8c0.8,17.2,13.6,55.3,34,32.6c14-15.6,15.8-40.7,14.5-60.6
	c-0.8-11.3-5.9-24.3-15.1-31.6s-15-2-25.2-0.2"/>
<path class="st2" d="M1918.7,1524.2c6.2-9.1,18.2-9.5,28-12c13.1-3.3,23-6,36.1-0.3c25.6,11.1,38,41.7,13.2,60.6
	c-18.7,14.3-49.2,18-70.9,9.3c-26.7-10.7-32.1-47.9-10.3-65.5"/>
<path class="st2" d="M1978.7,1340.2c-16.9,3-30.7-24.6-21.9-37.7c10.3-15.2,21.2,13.4,21.9,21.7"/>
<path class="st2" d="M2026.7,1360.2c-1.7-11.7,19.1-19.3,27.7-21.3c13-3.1,31.3,0.4,37,14.2c9.6,22.7-44.5,45-56.7,27.2"/>
<path class="st2" d="M2010.7,1428.2c3.4-13.9,29.2-13.9,40.2-15.4c18.3-2.5,23.1,11.6,19.9,27.5c-6.2,30.8-79.7,28.8-68-4.1"/>
<path class="st2" d="M2018.7,996.2c10.5-12.5-11.4-42.8-18.9-52.4c-5.6-7.2-8.8-12.3-17.3-8.3c-6.9,3.2-10.5,14-11.7,20.5
	c-3.5,20.4-0.2,39.1,19.8,48.8c21,10.2,25.2-7.3,28-24.7"/>
<path class="st2" d="M2066.7,948.2c-13.7-24-57.9-77.2-8.1-89.6c17.7-4.4,31.3,17.6,35.5,32.5c6,21.8-1,36-19.4,49.1"/>
<path class="st2" d="M2082.7,1052.2c13.9,0,30.2,2.4,43.2-3.5c12.4-5.7,32-26,24.4-41c-6.5-12.8-33.6-10.7-43.8-7
	c-7.2,2.5-13.5,7.3-17.8,13.6c-5.3,8-3.7,18.7-10,25.9"/>
<path class="st2" d="M2150.7,976.2c16.9,0,32.4,1.9,48.1-5.6s32.2-27.6,9.4-37.7c-15.8-7-37.3-2.3-48.9,10.1
	c-10.6,11.3-15.4,37.3,7.5,37.3"/>
<path class="st2" d="M2146.7,892.2c-11.6,0.6-20.1-26.9-24.3-36c-6.6-14.3-7.1-33.3,12.2-36.2c17.4-2.6,26.3,14.5,32.4,28.3
	c7.6,17.2,4.5,31.6-12.4,40"/>
<path class="st2" d="M2218.7,896.2c-1.2-15.5,34-26.4,42.1-13.9c11.4,17.5-20.2,29.2-33.1,25.6c-1.5-5.9,2.3-9.9,3-15.7"/>
<path class="st2" d="M2218.7,828.2c-12,2.8-23.9-14.5-28.3-23.7c-6.1-12.8-11.8-32.9-2.1-44.9c9-11.2,25.1-1.2,32.4,8.8
	c6.4,8.8,11.3,28.9,10,39.8"/>
<path class="st2" d="M2294.7,756.2c-5.1-14.7,16.4-30.8,27.8-36.3c13.5-6.5,31.9-10.4,42.7,2.5c22.6,26.8-38.7,64.9-54.6,41.8"/>
<path class="st2" d="M2246.7,688.2c-10.9,0.5-18.2-11.1-25.8-17.1s-17-12.1-26.4-14.5c-25.1-6.3-21,15.7-14,32
	c6.9,16.2,22.4,40.7,42.5,43.3c19.8,2.6,19.9-26.8,19.7-39.8"/>
<path class="st2" d="M2302.7,692.2c0-17.1,3.8-31.1,19.9-40.5c12.5-7.3,34.1-19.8,45.4-3.9c8.7,12.2-0.4,27.2-13.1,31.7
	c-14.6,5.2-32.9,6.8-48.3,8.7"/>
<path class="st2" d="M2437.2,728.2c5.5-43.5,19.5-88.2,46.2-123.5c14.7-19.4,33.9-32.6,53.5-46.5c21.8-15.3,44.3-29.1,69.4-38.4
	c6.1-2.3,12.6-4.3,19.1-4.6c6.3-0.3,12.8,0.8,19.1,1.4c13,1.3,25.5,3.2,37.4,8.6c19.3,8.8,36,22.8,49.8,38.8
	c14.7,17,26.5,36.5,35.6,57s12.6,42.7,22.8,62.7c3.4,6.6,6.8,13.3,8.9,20.4c1.9,6.8,3.7,13.5,6.1,20.1c4.8,12.8,10.5,25.6,17.8,37.2
	c14.1,22.3,34,39.6,54,56.5c2.4,2.1,6-1.5,3.5-3.5c-18.8-15.9-37.8-32.2-51.5-52.9c-7.3-11-13-23.2-17.8-35.5s-7.2-25.5-13-37.5
	c-2.6-5.4-5.5-10.7-8-16.2c-2.7-6-4.1-12.2-5.8-18.5c-2.9-10.5-6.4-20.7-10.6-30.7c-8.7-20.9-20.4-40.5-34.7-58.1
	c-13.7-16.8-30.2-31.7-49.6-41.6c-10.4-5.3-21.6-8.9-33.1-10.4c-12.1-1.6-25.5-4.1-37.7-1.9c-12.8,2.3-25.4,8.3-37.1,14
	c-12.4,6.2-24.4,13.2-35.9,21.1c-19.8,13.3-41,26.7-57.1,44.5c-33.7,37.2-50.3,88.6-56.5,137.6
	C2431.8,731.4,2436.8,731.4,2437.2,728.2L2437.2,728.2z"/>
<path class="st2" d="M2364.3,1287.5c-11.9,32.1-9.7,67.7,6.2,98c7.4,14.3,17.5,27.9,30.3,37.7c12.4,9.5,26.6,13.9,41.5,17.7
	c17.9,4.5,35.8,10.3,54.5,9.6c19.2-0.8,39-5.2,57.6-9.8c18.2-4.6,36-10.7,53.3-18.2c18.2-7.8,36.1-15.2,55.3-20.2
	c10.4-2.7,20.6-5.8,31.1-8.1c10.7-2.3,21.5-3.5,32.4-3.8c16.2-0.6,36.9-3.6,50.5,7.5c2.5,2,6-1.5,3.5-3.5
	c-10.9-8.8-25.3-9.7-38.8-9.5c-16.4,0.3-32.8,1-48.9,4.5c-18.3,4-37,8.7-54.5,15.1s-34.2,14.6-51.6,21.1
	c-18.1,6.5-36.6,11.5-55.5,14.9c-19.5,3.7-38.5,6.6-58.2,2.8c-9-1.8-17.8-4.3-26.6-6.6c-8-2.1-16-3.8-23.6-6.8
	c-15.2-6.1-27.6-16.6-37.2-29.8c-23.8-32.5-30.3-73.3-16.3-111.3C2370.3,1285.8,2365.4,1284.5,2364.3,1287.5L2364.3,1287.5z"/>
<path class="st2" d="M2298.7,1300.2c-18.2,8.2-27.3,22.7-36.2,40c-6.7,13.1-14.4,35.6,7.9,36.6c32.8,1.6,70-55.9,36.3-76.6"/>
<path class="st2" d="M2398.7,1292.2c1.3,17.7,12.7,29.1,26.3,39.7c10.4,8.1,32.3,21,41.4,3.6c14.6-27.8-33.8-54.4-55.7-51.4"/>
<path class="st2" d="M2330.7,1380.2c-7.4,14.9-42.7,69.6-11.7,77.9c13.1,3.5,20.3-11.1,21.5-22.2c1-9.4,0-36.7-5.8-43.7"/>
<path class="st2" d="M2406.7,1380.2c9.6,11.6,56.1,37.3,65.5,13.7s-43.6-21.6-53.5-21.7"/>
<path class="st2" d="M2406.7,1496.2c-22.4,12.2,71,60.6,65.9,22.2c-2.4-17.9-24.4-25.9-37.9-32.3c-19.2-9.1-33.8-9.6-44,10.2"/>
<path class="st2" d="M2494.7,1404.2c-1.7-19.9,25.1-29.8,39.8-36.3c16.2-7.2,43.9-5.2,37.9,19.9c-7.3,31.1-86.9,41.5-73.7,4.3"/>
<path class="st2" d="M2502.7,1496.2c1.1,15.4,9.7,25.5,23.9,32.4c11.6,5.6,29.9,10.5,39.8-1c22.1-25.6-32.6-37-47.8-39.4"/>
<path class="st2" d="M2602.7,1384.2c-5.9-14.6-3.8-29.3-4.1-44.9c-0.3-16.9,2.1-34,20.4-41.3c18.6-7.5,23.1,8.7,24.9,22.9
	c2.8,22.6-9.8,36.4-25.2,51.3"/>
<path class="st2" d="M2606.7,1460.2c-1.4-7.2,6.5-8.3,11.6-8.7c10.1-0.8,17.9,5.2,23.9,12.5c9.9,12,18.9,37.8,6.4,50.2
	c-13.7,13.6-29.1,3.1-40.1-7.8c-15.1-15.1-17.9-29.8-21.8-50.2"/>
<path class="st2" d="M2674.7,1364.2c-6.6-12.5-8.8-21.8-8.3-35.9c0.5-12.4,9.1-32.5,24.4-31.9c10.9,0.4,16.7,15,17.9,24.4
	c2.5,20.1-9.6,24.3-22,35.3"/>
<path class="st2" d="M2662.7,1444.2c1.3,16,13.2,31.8,22.8,44.4c9.3,12.2,33.3,20.2,43.1,4c10.3-17,0-31.2-11.7-44
	c-5.8-6.3-13.5-15.6-22.2-17.7c-9.6-2.3-14.7,4.7-24,5.3"/>
<path class="st2" d="M2754.7,1360.2l-3.4-0.4c-7.4-15.7,14-34.6,23.2-43.7c13.8-13.5,32.5-26.3,44.4-5.2c8.6,15.3,8.9,32-7.9,41.5
	c-9.9,5.6-40.4,23.5-48.3,7.7"/>
<path class="st2" d="M2754.7,1432.2c2,13.3,5.2,32.9,12.5,44.1c9.1,14,31,31.3,45.9,14c25-29.2-33.3-87.8-50.4-66"/>
<path class="st2" d="M2474.7,712.2c-8.2-22.5,31.3-42.6,48.1-52.3c15.8-9.1,41.4-15.4,52.3,3c12.8,21.7-7.9,33-24.4,41.3
	s-49.2,21.7-64.1,3.9"/>
<path class="st2" d="M2414.7,636.2c0-17,2.2-35.3-0.8-52.1c-2.2-12.3-14.1-46.8-31.4-27.6c-12.2,13.5-5.6,41.6-3,56.6
	c1.5,8.7,4.8,18,12,23.5c5.8,4.6,24.7,12,19.3-4.5"/>
<path class="st2" d="M2466.7,556.2c1.8-16.3,28-87.4,0.2-89c-16.4-1-26.6,25-29.4,36.9c-4.5,18.7,0.4,35.4,9.3,52.2"/>
<path class="st2" d="M2518.7,604.2c7.6-14.7,18.3-18.7,33.9-22.1c13.1-2.9,32.8-9.7,41.2,6.1c-9.4,19.5-55.8,34.3-71.1,16"/>
<path class="st2" d="M2534.7,532.2c-19.5-3.1-15.7-20.1-20-36c-3.6-13.2-6.7-36.8,8.8-45c11.7-6.2,22.4,8.3,26.5,17.8
	c8,18.5,2.3,31-7.3,47.2"/>
<path class="st2" d="M2646.7,548.2c1.2,9.6-3.5,18.5-4.2,28c-0.5,8-0.5,16-0.1,24c0.5,10.8,12.1,43.8,26.5,37.9
	c15.7-6.4,9.9-33.9,6.9-45.7c-4.7-18.9-5.1-45.3-25.3-55.6c-4,2.6-6.8,6.7-7.8,11.4"/>
<path class="st2" d="M2654.7,484.2c-13.8-13.4,1.4-39.7,7.7-53c7.3-15.2,34.5-48,54.3-32.6c14.7,11.5,7.3,40,0,53.2
	c-9.3,16.8-33.5,39.2-54,40.4"/>
<path class="st2" d="M2602.7,456.2c-10,5-25.6,21.2-9.9,30.3c14.3,8.3,19.2-12,17.9-22.3"/>
<path class="st2" d="M2614.7,368.2c-6.6,3.2-26.4,19.7-8.3,23.5c9.9,2.1,17.1-13.2,8.3-19.5"/>
<path class="st2" d="M2742.7,516.2c17.2-13.6,32.2-30.5,52.1-40.5c16.2-8.1,46.7-7.5,44,16.3c-2.6,23.3-23.9,29.3-44.1,31.8
	c-17.8,2.2-43,4.2-36-19.7"/>
<path class="st2" d="M2718.7,580.2c-10.2,11.4-15,19.2-18,33.8c-1.8,8.6-12.6,34.4,0.3,39.7c15,6.2,17.9-48.4,17.7-57.6"/>
<path class="st2" d="M2750.7,668.2c-21.7-0.3-31.2,54.3-12,63.1c16.5-6.9,16.3-32.3,16-47.1"/>
<path class="st2" d="M2782.7,576.2c19.9-3.5,82.7-19.1,84.9,16.1c1,15.9-24.9,21.8-36.9,23.3c-19.5,2.5-29.4-14.5-40-27.5"/>
<path class="st2" d="M2822.7,652.2c6.5-9.5,27.8,0.3,36,3.8c12.1,5.3,34.9,14.9,31.9,32.2c-2.2,12.8-22.2,9.4-31.9,6
	c-14.4-5.1-27.2-17.9-36-30"/>
<path class="st2" d="M2850.7,748.2l-1.7-4.1c11.4-16.2,47.9-0.1,50.7,17.1c4.4,26.9-37,5.1-44.9-5.1"/>
<path class="st2" d="M3040.3,1364.8c6.1,35.9,26.3,67.6,52.2,92.6s57.9,46.8,93.1,55.9c20.6,5.3,42,6.9,63.1,3.4
	c18.4-3,33.8-11.8,48-23.7c14.4-12,28.4-25,39.4-40.2c11.2-15.5,19.6-32.8,27.7-50.1c4.9-10.4,9.5-21,11.9-32.3s1.3-21.5-0.6-32.6
	c-1.7-10.1-3.1-20.1-4-30.3c-0.6-7.3-1.4-15.7-6.7-21.2c-2.2-2.3-5.8,1.2-3.5,3.5c4.8,5.1,4.9,13.7,5.4,20.3
	c0.6,7.6,1.7,15.1,2.9,22.6c1.7,10.6,3.9,20.7,2.5,31.4c-1.4,10-4.8,19.5-8.9,28.7c-7.2,16.4-15.1,32.8-24.7,47.9
	c-9.8,15.7-22.3,28.3-35.9,40.7c-13,11.9-27.2,23.3-44.4,28.2c-19.8,5.6-41.7,5-61.7,0.9c-35.1-7.1-66.1-26.3-92.7-49.9
	c-28.9-25.5-51.9-58.8-58.4-97.3C3044.6,1360.3,3039.7,1361.7,3040.3,1364.8L3040.3,1364.8z"/>
<path class="st2" d="M3320.9,750.9c-5.6-9-12.8-16.9-17.8-26.3c-5.2-9.7-9.6-19.8-13.3-30.1c-6.9-19.6-3.6-40.2,2.2-59.7
	c11.7-39.7,34.6-75.1,48.6-114c7.9-22.1,13-45.2,12.7-68.7c0-3.2-5-3.2-5,0c0.6,44.6-18.9,85.4-37.6,124.8
	c-8.6,18.2-17.5,36.4-23.3,55.7c-5.5,18.3-9.3,38.5-4.2,57.3c3.1,11.3,8.5,21.8,13.3,32.5c5.1,11.3,13.5,20.5,20.1,30.9
	C3318.3,756.1,3322.6,753.6,3320.9,750.9L3320.9,750.9z"/>
<path class="st2" d="M2998.7,1420.2c-2.7,7-18.1,63.5-0.1,59.8c18.6-3.8,25.2-54.2,0.1-51.8"/>
<path class="st2" d="M3078.7,1376.2c10.9-0.6,17.4,11.3,25.8,16.2c7.7,4.5,18.1,8.3,26.3,12.1c12.4,5.7,46.7,10.2,43.6-12.1
	c-2.8-20.1-31.8-33.3-47.6-40.3c-8.2-3.7-18.5-7.2-27.5-6.4c-11.7,1-15.6,9.3-20.6,18.6"/>
<path class="st2" d="M3050.7,1484.2c-7.9,7.5-5.4,37.8-3.9,48c1.7,11.6,19.7,47.9,36.4,36.7c11.7-7.8,13.1-29.5,7.9-40.6
	c-7.2-15.4-15.5-39.6-36.4-40.1"/>
<path class="st2" d="M3130.7,1456.2c14.7,7.5,27.2,11.9,43.8,12.1c13.9,0.1,48.1,2.2,53.7-16.1c4-12.9-16.6-18.1-26.2-19.7
	c-17.5-2.8-38.2-1.6-51.4,11.7"/>
<path class="st2" d="M3182.7,1552.2c-5.6,13.9-4.7,29-4.3,43.9c0.4,14.6,13.2,40.6,32.1,29.9c12.7-7.2,14.2-34.3,10.1-46.1
	c-5.4-15.5-21.1-26.1-37.9-23.7"/>
<path class="st2" d="M3258.7,1504.2c-6.8-18.3-10.9-37.4-12.2-56.9c-1.2-19.1,0.5-45.3,19.9-55.8c19-10.3,36,5.6,31.8,25.3
	s-17.5,45-31.5,59.3"/>
<path class="st2" d="M3262.7,1560.2c7.9-12.4,33.2-21.4,48.1-22.1c18.6-0.8,36.2,14.8,31.4,34s-20,30.6-38.7,33.6
	c-24.1,3.8-27-15.1-40.9-29.4"/>
<path class="st2" d="M3334.7,1424.2c-18.5,2.7-34.5-15.1-40.3-30.9c-5.3-14.5-17.3-44.2-3.3-56.7c17.4-15.6,46.1,9.1,55.3,23.3
	c10.4,16.2,5.6,43.2-7.7,56.3"/>
<path class="st2" d="M3366.7,1424.2c10.5-16.4,33.9-23.2,52.9-24.2c14.9-0.8,43.6-5.2,47.3,14c4.3,22.3-16.7,25.3-32.2,29.2
	c-14.6,3.7-41.8,13.4-52-3"/>
<path class="st2" d="M3346.7,1488.2c12.3-4.8,34.8-13.9,48-11.7c23.5,3.9,33.1,25.5,17.8,43.7c-9.3,11.1-32.2,12.1-45.9,8.4
	s-35.8-20.9-19.9-36.5"/>
<path class="st2" d="M3330.7,1308.2c-10.1,2.9-15,2.2-24.2-3.6c-6.8-4.3-15.5-10.2-10-18.7c12.3-19.2,29.7,10.9,30.2,22.4"/>
<path class="st2" d="M3394.7,1356.2c-3.1-24.3,21.3-35.9,40-44.2c19.1-8.5,40.9-8.9,52.5,11.9c11.9,21.4-10.7,33.3-28.2,37.5
	c-22.1,5.2-50.7,8.3-64.3-13.2"/>
<path class="st2" d="M3262.7,724.2c-10.2-0.5-17.2-7-24.7-12.9c-10.8-8.4-23-13.6-35.4-19.3c-9.3-4.3-21.5-8.3-27.6,2.8
	c-3.6,6.6-0.5,19.3,2.1,25.4c9.7,23,34.2,32.3,56.6,37.3c9.6,2.1,23.4,6.1,28.7-6c3.9-9.1-3.9-19.8-7.8-27.3"/>
<path class="st2" d="M3330.7,728.2c-1-27,21.1-54.5,39.9-72.3c16.9-16,54.4-31,56.7,5.1c1,15.4-11.2,21.8-20.7,31.1
	c-12.6,12.3-20,22.1-36.1,30.3c-10.7,5.5-25.6,14.5-38.4,9.5c-12.2-4.9-12.7-17.2-9.5-27.7"/>
<path class="st2" d="M3238.7,616.2c-5.4-11.5-10.5-21.3-21.7-28c-6.9-2.8-13.1-6.9-18.4-12.1c-4.2-5.4-9.7-9.5-16-11.9
	c-25.5-5.9-28.6,32.7-23.6,48.4c3.5,11,20,19.5,27.7,27.5c11.3,11.7,18.2,19.9,35.4,20.6c29.6,1.1,12.1-29.9,4.6-44.5"/>
<path class="st2" d="M3322.7,608.2c10-20.9,25.5-31.5,43.8-45.2c10.1-7.5,23.5-16.3,35.8-7.5c7.6,5.5,10.4,15.9,8.3,24.6
	c-2.4,9.6-13.9,20.9-20.5,28.2c-7.1,7.9-21.4,17.9-31.4,21.5c-9.7,3.5-18.9,1.5-27.3-5.3s-6.1-16.7-12.5-24.4"/>
<path class="st2" d="M3266.7,532.2c-0.3-10.8-8.8-20-14.9-28c-7.8-10.2-14.7-23.3-24.9-31.4c-7.5-6-22.6-16.3-31.9-8.4
	c-6.4,5.4-5.3,16.4-4.2,23.6c1.8,11.7,7.5,19.7,15.6,28.1c10.1,10.5,20.8,23.6,33.2,31.5c6.5,4.1,20.6,13.2,27.7,5.2
	c6.5-7.5-3.5-19.5-8.6-24.7"/>
<path class="st2" d="M3354.7,520.2c11.4-23.9,27.6-42.2,52.2-52.4c14.8-6.1,45.1-5,35.3,19.6c-6.9,17.4-34.8,27.1-50.6,33
	c-7.5,2.8-25,10.9-32.6,4.5c-8.2-6.8-3.6-15.8,3.8-20.7"/>
<path class="st2" d="M3306.7,464.2c15.2-22.3-25.7-109.2-48.4-80.4c-9.9,12.6,0.8,40.5,5.9,53.3c4,10.1,27.1,53.2,38.4,31.1"/>
<path class="st2" d="M3382.7,412.2c-1-28.8,19.2-50.2,44.1-62.4c10.3-5,19.1-9.5,25.8,2c6.1,10.4,5,22.6,0.6,33.3
	c-10.3,24.9-32.2,43-58.6,48.5c-30,6.3-29.4-35.3-11.9-49.5"/>
<path class="st3" d="M94.8,704.8C94.8,706.2,94.8,706.2,94.8,704.8c-0.3,1.5-0.3,1.7,0.1,0.3c-0.2,1-0.7,1.8-1.4,2.5
	c1-0.9,0.8-0.8-0.6,0.4c-1.8,0.6-2,0.7-0.7,0.3c-2,0.2-2.3,0.2-0.9,0.2c-1.1,0.1-2.2-0.3-3.2-0.9c0.9,0.6,1,0.6,0.1,0
	c-0.6-0.3-1.1-0.8-1.4-1.4c-0.5-1.5-0.5-1.5-0.1,0c-0.3-1.4,0.1-2.9,1-4c-1,1-1,1,0,0.2c-1.3,0.7-1.3,0.7,0,0
	c1.6-0.1,1.6-0.1,0.1-0.1c1.4-0.2,2.9,0.4,3.8,1.5l3.2,5.5c0.2,1.8,0.3,2.1,0.3,0.7c0,1.3-0.3,2.6-1,3.7c-1.1,1.8-2.9,3.1-4.9,3.6
	c1.6-0.5-4.1-0.2-3.5,0c0.9,0.3,0.4,0-1.5-0.7c1.1,0.7,0.8,0.4-0.9-0.8c1.7,1.8-1.7-2-0.1-0.1c-0.7-1.7-0.8-1.9-0.3-0.5
	c0.3,1.3,0.3,1.2,0-0.3c0,0.5-0.5,3.6,0,1.5c-0.2,0.8-0.4,1.6-0.7,2.4c0.5-1.1,0.6-1.3,0.2-0.5c-0.4,0.8-0.2,0.6,0.6-0.6
	c-1,1-0.8,0.9,0.7-0.3c-2.6,0.8,2.8-0.7,0.3,0c2.1-0.2,2.5-0.2,1.2-0.2c-1.3-0.1-0.9,0,1.2,0.2c-1.3-0.4-2.1-1.4,0.3,0.3
	c-2-1.4,1.9,2,0.3,0.3c-0.9-1-0.7-0.6,0.7,1c-0.6-1.1-0.5-0.7,0.4,1.2c-0.3-1.4,0,2.7-0.1,3.3c0.4-1.2,0.2-0.9-0.4,0.9
	c0.7-1.1,0.5-1-0.4,0.4l-8.8,3.7c-3-0.2-5.4-5.9-4.8-2.7l5.7-14.1c-2.2,1.7,5.6-0.5,6-0.5c0.6,0.1,3,2,2.2,1.2s0.7,1.1,0.8,1.5
	c1.4,3.4-0.7,8-3.7,10H72c1.7,0.8,0-0.8,0.2-0.1c0.3,1.2-1.1-1.8,0.1,0s-0.5-1.4,0,0s0.2-2.7,0-0.1c-0.1,1.7,0,0,0.2-0.7
	c-0.6,2,0.5-0.8,0.8-1.3c0.9-1.2,2-1.4,3.1-2.1l1.4-0.2c-1.3,0-1.4,0-0.4,0c0.9,0.1,2.6,1.3,1,0.1c0.7,0.5,1.4,1.1,1.9,1.9
	c-1.3-1.8,0,1.9-0.3-0.4c-0.2-1.5-0.3-0.4-0.1,0.5c-0.1-0.2,0.1-3.1-0.1-1.3s0.2-0.8,0.4-1.2c-1.3,2.2,0.4-0.3-0.4,1
	s1.8-0.8-0.7,0.7c-1,0.6,0.1,0.2,0.6-0.1c-0.1,0-2.8,0.6-1.3,0.2c0.8,0.3,0.8,0.2-0.3-0.2l1,0.6c-1-1.7,0.4,1.3-0.1,0
	c-0.3-0.6-0.3,1.7-0.1,0.1s0.4,0.6,0.1,0.2c0.1-0.5,0.1-0.5,0,0.2c-0.3,1-0.1,0.7,0.4-0.6L79,722l3-3c1.4-0.8,3.1-1.1,4.7-0.8
	c1.2,0.2,1.3,0.2,0.3,0l1.6,0.7c0-0.1-2.6-1.5-0.8-0.3s-0.8-0.7-0.6-0.7c-1-0.3-0.5-0.5,0.4,0.6c-1.3-1.5-0.1-1.1-0.5-0.7
	c0.4,1,0.4,1,0.2,0l0.3,1.8c-0.1,0.7-1.7,4.6-0.6,2.9l-7.5,5.7c-1.5,0.4-3.9-1.1-4.6-2.2v-12.6l-2.8,4.4c-3.6,5.7-1.2,13.8,4.5,17.1
	c6,3.4,13.5,1.4,17.1-4.5l2.8-4.4c2.3-3.9,2.3-8.7,0-12.6c-3.1-4.7-7-8.2-12.5-9.7c-6.8-1.8-15,0.2-18.8,6.4
	c-4.8,7.9-2.3,17.4,3.3,24c4.8,5.7,12.2,9.5,19.7,8.5c10.3-1.4,15.8-11,15.9-20.7c0.2-21.7-27.5-35.3-42.8-18.3
	c-12.7,14-4.8,39.7,15.1,40.7c23.9,1.3,27.6-32.5,8.4-42.1c-3.9-1.9-8.8-2.6-12.6,0c-9,6-10.6,17-4.1,25.6c5.3,6.9,16.2,11.5,24,5.5
	c4.8-3.7,7-8.1,5.7-14.1c-2.9-14.3-22.5-22.2-31.2-8.1c-4.9,7.9-3.7,18.1,2.9,24.7c6,5.8,14.7,7.9,22.6,5.3
	c10.4-3.6,15.6-14.5,15.9-25c0.3-9.7-5.1-19.4-14.6-22.5c-9.1-3.1-19.1,1.8-22.2,10.9c0,0.1-0.1,0.2-0.1,0.3
	c-1.6,4.9-1.3,11.4,2,15.5c4,5,10.7,7.4,17,7c11.9-0.9,21.8-11,21.4-23.2c-0.4-12.8-12.4-22.9-25.1-20s-18.2,15.4-15.6,27.5
	c1.4,6.6,9.1,10.4,15.4,8.7C92.9,718.3,96.2,711.5,94.8,704.8L94.8,704.8z"/>
<path class="st3" d="M150.7,715.7c-1.5-0.1-1.4,0,0.3,0.3c-0.6-0.1-1.2-0.3-1.8-0.5c1,0.2,2,0.7,2.6,1.5c-0.4-0.4-0.8-0.7-1.1-1.2
	c1.1,1.5,1.3,1.6,0.6,0.5c0.7,1.7,0.8,2,0.4,0.7c-0.3-1.3-0.3-1.1,0,0.8c-0.1-0.6-0.1-1.2-0.1-1.8c0.1-1.4,0-1.2-0.2,0.6
	c0.1-0.6,0.2-1.2,0.4-1.8c0.4-1.3,0.3-1.2-0.3,0.4c0.3-0.6,0.5-1.1,0.9-1.7c0.8-1.1,0.7-1.1-0.3,0.3c0.4-0.5,0.8-0.9,1.3-1.3
	c-1.3,0.9-1.4,1-0.2,0.3c1.2-0.7,1.1-0.7-0.3,0c0-0.4,1.1-0.5,2.7-0.3c-1.4-0.2-1.3-0.1,0.1,0.3c-1.2-0.6-1.1-0.5,0.2,0.2
	c1.2,0.8,1.3,0.8,0.2,0c1,1.1,1,1,0.2-0.1c0.7,1.3,0.7,1.2,0.2-0.2c0.4,1.4,0.4,1.3,0.1-0.2c0,1.5,0,1.4,0-0.1
	c0.6-1.2,0.5-1.1-0.3,0.2c0.5-0.8,0.2-0.6-0.9,0.6c0.6-0.7,1.4-1.2,2.3-1.3c-1.4,0.4-1.1,0.4,0.9,0c-1.4,0-1.1,0,0.9,0.2
	c-1.3-0.4-1.1-0.3,0.7,0.4c-0.5-0.3-1-0.5-1.4-0.8c1.4,1.1,1.6,1.2,0.6,0.3s-0.9-0.7,0.4,0.6c-0.3-0.5-0.6-0.9-0.9-1.4
	c0.7,1.7,0.8,2,0.4,0.7c-0.3-1.3-0.3-1,0.1,1c0-1.4,0-1-0.2,1c-0.9,1.8-1,2-0.3,0.8c-0.5,0.9-1.2,1.6-2.1,2c1.2-0.7,1.1-0.7-0.2-0.1
	c0.7-0.3,1.5-0.5,2.3-0.7c1.5-0.3,1.4-0.3-0.3-0.1c0.6-0.1,1.1-0.1,1.7-0.1c1.4,0.1,1,0-1.2-0.2c1.3,0.4,0.8,0.1-1.3-0.7
	c1.1,0.7,0.6,0.3-1.3-1c-1.4-2-1.8-2.4-1.1-1.3c-0.9-2.3-1.1-2.8-0.8-1.6c-0.3-2.5-0.4-3.1-0.3-1.8c0,2.1,0.6-3.7,0-0.6
	s0.1-0.5,0.2-0.3s-1,1.7-1.1,2c-0.7,1.8,2.3-2.4,0.3-0.5c-0.9,0.8-0.5,0.5,1.4-1.1c-1.1,0.6-0.4,0.4,1.9-0.7c1.9-0.6,7,0.1,9.5,2.6
	c1.4,2,1.8,2.5,1.2,1.4c0.8,2.1,1,2.5,0.6,1.2l-1.3,9.6l2.6-4.4c8.4-13.8-13.2-26.4-21.6-12.6c-3.9,6.5-5.9,12.7-1.5,19.5
	c3.4,5.6,10,8.3,16.3,6.8c7.4-1.9,12.5-8.4,14.9-15.4c2.9-8.3,1.1-18.1-6.7-23.1c-8.8-5.6-22.6-2.9-30.1,3.9
	c-18.8,17.2,6.2,48.3,27.7,36.5c12-6.6,16.7-22.2,9.3-33.9c-6.7-10.5-20.8-15.6-32.6-11.3c-11.6,4.2-18.8,15.7-18.6,27.9
	c0.3,13.5,10.5,23.9,24.1,23.8c16.1-0.1,16.1-25.1,0-25L150.7,715.7z"/>
<path class="st3" d="M131.2,648.2c0-0.1-0.1-2.7,0-2.7c0.8,0.5-1.3,4-1.6,4.4c-1,1.3-2.5,2.2-4.1,2.7c2.1-0.7-3.1,0.1-0.3,0.2
	l-10.8-6.2c1.6,2.3-0.2-0.8-0.3-2.1c-0.3-1.5-0.1-3,0.6-4.3c1.2-2.3,1.5-2.9,3.4-4.1c-1.6,1,3.3-1,1.3-0.5s3.5-0.3,1.5-0.3
	c2.6,0.5,3.2,0.5,2,0.2l2.2,0.9c1.3,0.6,2.3,1.6,2.9,2.8c0.8,2.2,1.1,2.7,0.7,1.4c0.2,2.3,0.3,2.7,0.3,1.3l-6.2,10.8
	c1.2-0.9,2.5-1.5,3.7-2.3c0.4-0.3-3,0.9-0.7,0.3c1.3-0.3,3.2-0.3-1,0c0.4,0,0.8,0,1.3,0c-0.8-0.1-3.6-1-1.6-0.1
	c0.7,0.3-3.3-1.7-1.7-0.7s-2.7-2.3-1.1-0.9c1.3,1.1-0.4,1.1-0.9-1.3c0.1,0.3,0.4,0.6,0.6,0.9c0.6,1.3-0.9-3.5-0.6-1.5
	c0.1,0.4,0.2,0.9,0.3,1.3c0.5,1.1-0.1-3.5-0.2-1.6c0,0.4,0,0.9,0,1.3c0.2,1.9,0.1-1.3,0.3-1.8c-0.2,0.5-0.3,1-0.3,1.5
	c-0.3,1.8,0.3-1.2,0.7-1.6c-0.3,0.3-0.3,0.8-0.6,1.1c-1.3,1.6,2-2.4,1-1.2c-1.4,1.5,1.7-1.2,1.3-0.9c-1.8,1.2,0.9-0.5,1.5-0.5
	c-0.3,0-0.8,0.3-1.1,0.3c-1.6,0.2,3.7-0.3,1.4-0.3s3.2,0.9,1,0.2c-0.5-0.2-1.1-0.3-1.6-0.4c-2.5-0.7,2.2,1.2,0.4,0.2
	c-0.6-0.4-1.2-0.7-1.8-1c-2.4-1.3,0.4,0.4,0.3,0.4c-0.3,0-1-0.9-1.2-1.1c-1.5-1.2,1.2,2.3,0.1,0c-0.4-0.8,1,3,0.4,0.8
	c-0.2-0.7,0.2,3.4,0.3,0.8c-0.1,0.7-0.2,1.3-0.2,2c0.1-0.9,1.3-2.5-0.6,1.2c0.1-0.2,0.3-0.5,0.4-0.7c0.7-1.1-2,2-1,1.2
	c0.5-0.4,2.4-2.2,0.6-0.8s0.5-0.1,1-0.4c0.9-0.6-1.6,0.7-1.6,0.7c0.2,0.1,0.9-0.3,1.1-0.3c1.5-0.3-0.3,0.6-1.6,0.2
	c0.3,0.1,0.8-0.1,1.2,0s1.7,0.2-0.5-0.1c-2.4-0.3-0.4,0,0.1,0.1c0.1,0-2.5-1.4-1.6-0.7c0.3,0.3,0.7,0.5,1.1,0.6
	c1.4,0.5-2.2-1.7-1-0.7c0.6,0.5,1.6,2.1-0.3-0.6l-1.8-6.3c0.1,2.5,0.7-2.9,0.1-0.7l0.7-1.9c1.3-1.6,1.7-2,1-1.3
	c-1,1,2.5-1.6,0.7-0.6s2.7-0.6,0.4-0.2c-0.5,0.1-2.6,0.5-0.4,0.2s0.1-0.1-0.4-0.1c-2.5,0.3,3,0.4,0.7,0.2c-1-0.1-2.8-1.4,0.7,0.4
	l5.7,7.5c-0.3-1.1-0.3-1.1-0.1,0c0.2,0.9,0.2,1.8-0.1,2.7c-0.8,1.7-1,2.1-0.5,1.3c0.5-0.8,0.2-0.5-0.8,1.1c-1.4,1.4-3.3,2.1-5.2,2.1
	l-2-0.3c-3.6-2.6-4.7-3.1-3.1-1.4v-17.7c-1.2,1.1-1.2,1.2,0,0.1c4.7-2.3,8.2-1.4,10.6,2.7c2.7,1.2,3.9,3,3.7,5.5
	c0-1.3-0.1-0.9-0.3,1.3h-24.1l0.3,0.8c-0.7-2.1-0.3-4.5,1.1-6.2c0.2-0.9,0.8-1.7,1.6-2.2c0.9-0.6,0.8-0.5-0.3,0.1
	c-5.6,3.4-8.2,11.3-4.5,17.1s11.1,8.1,17.1,4.5c7.1-4.3,11.8-12.3,8.8-20.8c-1.8-5-6.3-9.4-12.1-9.2c-5.2,0.2-10.9,3.7-12.1,9.2
	c-1.4,7.1,0.1,14.9,6.8,18.9c7.3,4.3,15.3,1.3,20.9-4.2c5.1-4.9,4.4-12.7,0-17.7c-6.6-7.6-18-7-25-0.4c-7.3,6.9-8.5,21.3,1,26.9
	c12.4,7.2,31.6,0.1,33.6-14.7c1.3-9.3-5.8-16.4-14-19.3c-6-2.1-12.6-1-18.2,1.7c-11.1,5.3-16.6,19.6-10,30.5
	c5.8,9.5,18.7,16,29.8,13.1c9.3-2.4,14.7-11.5,15.2-20.6c0.4-8.2-3.7-16.6-11-20.5c-10.9-5.8-31.7,1.1-30.7,15.4
	c0.6,9.1,7.2,16.7,16.6,16.9c7.8,0.2,14.9-4.6,17.4-12c1.3-4.3,0.9-8.9-1.2-12.8c-3.4-6.5-9.7-8.6-16.6-7.3
	c-9.5,1.7-14.7,10.8-14,20c0.5,6.5,5.4,12.8,12.5,12.5C125.1,660.4,131.7,655.2,131.2,648.2L131.2,648.2z"/>
<path class="st3" d="M195.2,668.2v-4c0-3.3-1.4-6.5-3.7-8.8c-2.4-2.2-5.6-3.5-8.8-3.7c-3.3,0-6.5,1.3-8.8,3.7
	c-2.3,2.4-3.6,5.5-3.7,8.8v4c0,3.3,1.4,6.5,3.7,8.8c2.4,2.2,5.6,3.5,8.8,3.7c3.3,0,6.5-1.3,8.8-3.7
	C193.9,674.6,195.2,671.5,195.2,668.2z"/>
<path class="st3" d="M66.7,672.7c16.1,0,16.1-25,0-25S50.6,672.7,66.7,672.7z"/>
<path class="st3" d="M122.7,704.7c16.1,0,16.1-25,0-25S106.6,704.7,122.7,704.7z"/>
<path class="st3" d="M114.7,768.7c16.1,0,16.1-25,0-25S98.6,768.7,114.7,768.7z"/>
<path class="st3" d="M1294.1,1376.1c-25.9-3.8-29.6,30.4-26.6,48.8c1.9,11.5,12.6,21,24.5,19.4c12.4-1.7,20.4-13.6,24.3-24.6
	c4.1-11.6,1.9-26.9-9.9-33.2c-12.6-6.7-27,3.3-32.6,14.6c-5.3,10.7-5.6,26.4,5.9,33.3c7.9,4.8,18.1,3.4,25.6-1.5
	c10.6-7,14.4-21,5.2-30.9c-3.4-3.6-7.8-6-12.8-5.4s-9.8,3.7-13.3,7.1c-5.6,5.7-8.1,13.5-9.6,21.1c-1.3,6.6,1.9,13.5,8.7,15.4
	c6.2,1.7,14-2.1,15.4-8.7c0.5-2.8,1.2-5.6,2.1-8.3c-0.6,1.4,2.3-3.4,0.7-1.3c1.1-1,1.2-1.2,0.3-0.5c1.3-0.7,1.5-0.9,0.7-0.4
	l-9.6-1.3c-2.4-1.7-1.2-1-0.7-0.5c0.8,0.8,0.6,1.3-0.7-1c0.3,0.4,0.7,1.4-0.1-0.4c-1.1-2.7,0,1.5-0.4-1.6s-0.4,1.3,0-1.8
	c0.3-2.1,0.2-1.2,0-0.7c1-3.1,1.1-2.4,0.6-1.5c-1.1,1.8,1.6-2,0.8-0.9c-1.4,1.7-0.9,0.5,0.5-0.1c-0.8,0.3-1.5,0.8-2.1,1.3
	c-1.2,1.1,2.8-0.8,0-0.1s2.2,0.1,0.3,0.1c-2.9,0,1.9,0.6,0.4,0.2c-0.9-0.3-0.4-0.5,0.4,0.3c2.4,2.1-1.2-1.2,1.3,0.8
	c0.2,0.2,1.8,2.1,1.3,1.3c1.5,2.6,0.8,2.1,0.5,1.1c-0.5-2-0.4,2,0,0.6c0.2-0.8,0.3-3.6-0.2-1.1c0.2-0.9,1.5-4.1,0.3-1.9
	c0.3-0.6,1.9-3.3,1.3-2.4c-0.9,1.2,0.4-0.5,0.7-0.8c0.6-0.6,1.2-1.2,1.9-1.8c-0.3,0.3-1.9,1.7-0.1,0.3c0.8-0.6,1.8-0.2-0.5,0.2
	c1.7-0.3-2.3,0-3.4-0.5c-0.7-0.4-1.3-0.8-1.9-1.3c-1.9-1.3-0.2-1.2-0.2-0.1c-0.2-2.4-0.1,0.9,0.1,0.6l0.2,0.8
	c-0.2-1.9-0.3-2.3-0.2-1.3c-0.3,1.1-0.3,3.3,0.2,0.7c-0.2,1.3-0.6,2.6-0.9,3.9c-0.2,0.7-0.4,1.3-0.7,1.9c0.1-0.2,0.9-1.9,0.2-0.6
	s-1.5,2.7-2.3,4.1c-1,1.8,1.1-0.8-0.8,1c-0.4,0.4-0.9,0.9-1.3,1.3c-1.1,1.2,1.9-0.8,0.4-0.3c-2.7,1,1.7-0.4-0.3,0.2
	c1.3-0.4,2.8-0.2,4,0.4c-1.1-0.4,0.6,0.5,0.7,0.6c-2.1-1.7,0-0.2-0.2,0c0.2-0.3-0.8-1-0.9-1.4c0,0.1,0.8,3.2,0.7,1.6
	c-0.1-0.7-0.2-1.5-0.5-2.2c-0.6-1.3,0.1,2.7,0.1,1.1c0-0.7-0.1-1.4-0.2-2.1c-0.2-2.7-0.2-5.3,0-8c0-0.7,0.6-5.4,0.1-2.2
	c0.2-1.3,0.4-2.6,0.7-3.9s0.7-2.7,1.1-4c0.1-0.5,0.9-2.2,0.2-0.5c-0.9,2,0.4-0.7,0.4-0.7l0.2-0.3c0.5-0.8,0.2-0.5-0.9,1.1
	c0.3-0.3,0.6-0.7,0.9-1c-1.6,1.5-3.3,2.3-7,1.7c6.7,1,13.4-1.7,15.4-8.7C1304.4,1385.6,1300.7,1377.1,1294.1,1376.1L1294.1,1376.1z"
	/>
<path class="st3" d="M1323.9,1382.5c4.8,7.9,10.2,15.3,16.2,22.4c7,8.4,15.2,16.8,25.6,20.7c11.1,4.3,23.6-0.8,28.5-11.6
	c5.6-11.8,0.9-24.8-6.6-34.5c-6.9-8.9-17.6-16.8-29.4-16.9c-13.6-0.1-24.4,10.8-22.6,24.5c1.8,11.3,8.8,21.1,19,26.3
	c11.9,5.8,27.5,2.8,33.2-10.2c9.8-22.5-23.5-37.8-39.4-44.9c-5.5-2.4-10.5-2-15.2,2c-6.4,5.4-8.6,13.5-7.5,21.6
	c0.8,6.2,3.4,11.7,4.8,17.6c3.8,15.6,28,9,24.1-6.7c-1-3.9-2.6-7.6-3.7-11.5c-0.2-0.8-0.5-1.7-0.6-2.6s-0.2-0.8,0,0.2v-1.2
	c-0.5,1.7,0.3,0.3,0.1-0.2c0.3,0.7-2.1,2.6,0.5,0.4l-15.2,2c5.1,2.2,10.1,4.7,14.9,7.3c3,1.7,5.9,3.5,8.8,5.4
	c0.6,0.4,1.1,0.8,1.6,1.2c-2.4-1.8,0.1,0.1,0.5,0.4c1.2,1.1,2.2,2.4,3.4,3.4c1.4,1.1-2.2-2.1-0.3-0.3c1,1,0.1,1.8,0.3,0.4
	c0.1-0.8-0.6-2.4-0.3-3.6c-0.3,1.1,1.7-2.9,1.7-2.9l-0.5,0.6c-0.8,0.7-0.8,0.7-0.1,0.1l0.6-0.4c-1.2,0.7-1,0.6,0.7-0.1
	c-0.4,0.1-0.8,0.3-1.2,0.3c-1,0.2-0.5,0.1,1.3-0.2c-2.9,0,3,0.1,0,0c-0.6-0.1-1.1-0.3-1.7-0.5c3.9,1.3-2.9-2.4,0,0
	c-1.2-1-2.3-2.2-3.4-3.3c1.8,1.9,0.4,0.6-0.1-0.1c-0.6-0.9-1.1-1.9-1.6-2.8c1.6,2.7,0-0.9-0.4-1.9c0.7,1.8,0.3,2.3,0.3,1
	c-0.1-2.6-0.8,2.8,0,0.4c-0.3,1.1-0.9,2.2-1.8,3c1.8-2-2.4,1.7,0,0c-0.3,0.2-2.7,0.9-0.7,0.3c2.3-0.6-2.8-0.3,0.3,0
	c1.7,0.2-3-1.1-0.4-0.1c0.6,0.2,1.1,0.4,1.7,0.5c2.6,0.4-1.8-1.3,0.4,0.2c0.5,0.3,1.1,0.6,1.7,0.9c0.8,0.5,1.7,1.1,2.5,1.6
	c-2-1.4-0.6-0.4-0.2-0.1c1.5,1.5,3,2.9,4.3,4.4c-1.8-2,1.2,1.8,1.6,2.5s0.8,1.5,1.2,2.2c0.8,1.6-0.6-2.8,0,0.1
	c0.2,0.7,0.4,1.5,0.6,2.2c0.6,2.1-0.7,1,0-0.3c0,0.6,0,1.1,0,1.7c0.3-1.9,0.4-2.2,0.1-0.8c-0.4,1.3-0.2,1.1,0.5-0.7
	c-0.1,0.1-0.7,1.6-0.8,1.4l0.9-1.2c-0.4,0.4-0.8,0.9-1.3,1.3c0,0,2.3-1.8,0.6-0.6c4.3-3.1-0.3,1.3,2.1-0.7c0.7-0.6,1.2-0.3-0.4-0.1
	c2.5-0.3,2.3,0.3,0.8,0c-1-0.2-2.2-1.2,0.4,0.3c-0.8-0.4-1.6-0.8-2.3-1.2s-1.6-1-2.3-1.5c-2.6-1.6,1.7,1.6-0.6-0.5
	c-1.6-1.4-3.2-2.8-4.7-4.4c-2.9-2.9-5.7-6-8.2-9.3c-0.2-0.2-2.5-3.1-0.8-0.9c-0.7-0.8-1.3-1.7-1.9-2.6c-1.2-1.6-2.3-3.2-3.4-4.8
	c-1.7-2.4-3.3-4.8-4.8-7.3c-8.3-13.8-29.9-1.2-21.6,12.6L1323.9,1382.5z"/>
<path class="st3" d="M1258.2,1308.2c-0.3,13.5-1.8,26.4,10.6,35.5c13,9.4,29.3,5.5,38.4-7.3c12.6-17.7,3.3-51.9-21.5-52.5
	c-24.3-0.6-32.7,28.8-26.3,47.9c3.3,9.8,10.6,19.2,21.8,19.4c11.9,0.2,21.7-10.6,25.2-21.1c5.1-15.5-3.8-31.8-19.1-36.9
	c-16.2-5.4-25.7,7.8-31.3,20.7c-2.7,6.2-1.8,13.4,4.5,17.1c5.3,3.1,14.4,1.7,17.1-4.5c1.2-2.9,2.5-5.7,4-8.4
	c0.4-0.7,0.8-1.4,1.3-2.1c-0.1,0.2-1,1.4-0.2,0.3s-0.3,0.3-0.6,0.3c1-0.6,1.1-0.7,0.3-0.2c-0.4,0.2-0.8,0.4-1.2,0.4
	c-1.9,0-2.6-0.6-0.7,0.5c0.7,0.4,1.4,0.9,1.9,1.4c-0.7-0.7,0.5,0.9,0.5,0.9c-0.9-1.2-0.1-0.1,0.1,0.5c-0.6-2.3-0.3,3,0.1,0.8
	c-0.1,0.8-0.4,1.7-0.7,2.5c0.1-0.3,0.6-1.2-0.1,0c-0.3,0.6-0.7,1.2-1.1,1.7c0.9-1.2-0.4,0.3-0.5,0.4c-0.5,0.5-1,1-1.6,1.5
	c0.2-0.2,1.7-0.9,0.6-0.6l1.1-0.4c-2.6,0.5,2.3,0,0.8,0c-1.6,0,2.9,0.5,1.3,0.1c-1.3-0.3,1.5,0.6,1.4,0.6c-1.8-1,2.4,1.3,0-0.1
	c-0.9-0.6,0.6,0.7,0.7,1c-0.3-0.5-0.6-0.9-0.9-1.4s-0.5-1.1-0.8-1.6c0.4,0.8,0.6,1.8,0.2,0.4c-0.3-1.1-0.7-2.2-0.9-3.3
	s-0.4-3.7-0.3-1.2c-0.1-1.2-0.2-2.4-0.2-3.6c0-0.5,0.1-1,0-1.5c-0.1-3.1-0.4,1.5,0-0.2c0.2-1.1,0.6-2.2,0.8-3.3
	c0.1-0.7,1.1-2-0.2,0.4c0.2-0.4,0.4-0.8,0.7-1.2c1-1.3,0.4-0.5,1.4-1.8c1.2-1.4,0.1-0.4,0.1-0.3c-0.1-1.5,1.6,0.6-0.3-0.1l0.4-0.1
	c0.9-0.3,0.6-0.3-1.1,0c0.3,0.1,1-0.1,1.3,0c1.4,0.1-1.2-0.1-1.2-0.1c2.1,0.5-0.1-0.2-0.5-0.3c0.6,0.2,1.1,0.6,1.6,0.9
	c-0.1-0.1-1.7-1.5-0.7-0.5c0.3,0.3,0.7,0.7,1,1c2.1,1.9-0.6-1.1,0.2,0.3c0.7,1,1.3,2.1,1.8,3.2c-1-2.2,0.1,0.9,0.3,1.6
	c0.1,0.5,0.3,1.1,0.3,1.6c-0.4-2.4-0.1-0.6-0.1,0c-0.1,0.7,0,1.5,0,2.2c0-1.2,0.3-1.2,0,0c-0.5,1.6-1,3.4-2,4.3s-1.2,1.1-0.6,0.6
	c-0.4,0.4-2,0.4-0.6,0.3s-0.2,0.1-0.8-0.2c0.8,0.3-1.5-1-1.3-0.8c0.5,0.3,0-0.4-0.1-0.6c-0.4-1.3-0.1-0.2-0.1,0.2
	c-0.1-1.1-0.1-2.2-0.1-3.3c0-3.7,0.5-7.4,0.6-11.2C1283.6,1292.1,1258.6,1292.1,1258.2,1308.2L1258.2,1308.2z"/>
<path class="st3" d="M1222.7,1376.7c16.1,0,16.1-25,0-25S1206.6,1376.7,1222.7,1376.7z"/>
<path class="st3" d="M1350.7,1344.7c16.1,0,16.1-25,0-25S1334.6,1344.7,1350.7,1344.7z"/>
<path class="st3" d="M1294.7,1384.7c16.1,0,16.1-25,0-25S1278.6,1384.7,1294.7,1384.7z"/>
<path class="st3" d="M1330.7,1452.7c16.1,0,16.1-25,0-25S1314.6,1452.7,1330.7,1452.7z"/>
<path class="st3" d="M1991.2,680.2c-0.1-6.8-2.3-13.6-3.4-20.3c-0.1-0.8-0.3-1.6-0.4-2.4c0.4,3.2,0,0.2,0-0.5
	c-0.1-1.8-0.1-3.6-0.1-5.4c0-2.4,0,2,0,0.5c0.1-0.6,0.3-1.3,0.5-1.8c-0.8,1.8-0.9,2.2-0.3,1l-1.1,1.4c2-1.6-2.4,1.8-0.3,0.2
	l-1.6,0.7c1.1-0.2,1.1-0.3,0-0.1s-1,0.2,0.2,0c1.3,0.1,1.4,0,0.2-0.1s-1.2-0.1,0,0.1l-1.6-0.7c2.1,1.6-2.2-2-0.2-0.2
	c-3.3-3.1-0.4,0-0.3,0c-0.9-0.7-0.6-2.4-0.3-0.3c0.3,2.9,0.3-1.1,0.1,0.2c0,0.8,0,1.5,0.1,2.3c0,1-0.1,1.9-0.2,2.9
	c0.2-3.1,0-0.2-0.1,0.5c-0.4,1.5-0.9,3.1-1.3,4.6c-0.7,2.6,1.2-1.7-0.1,0.3c-0.5,0.7-0.9,1.4-1.2,2.2c-0.9,2.1,1.7-1.8,0.1-0.2
	s2.4-1.5,0.5-0.4h12.6c-0.4-0.2-0.7-0.4-1.1-0.6c1.5,0.9,0.8,1.3,0.8,0.6c0-0.2-1-1.1-1.1-1.2c0.7,0.7,1,1.6,0.3,0.3
	s-1.4-2.3-2.1-3.5c-0.3-0.6-0.6-1.3-0.9-1.9c0.8,1.6,0.2,0.4-0.2-0.6c-0.5-1.4-0.8-2.7-1.2-4.1c-0.8-2.8-0.3,1.2-0.3-1.5
	c0.1-0.6,0.1-1.2,0-1.8c-0.3-1.5-0.4,2.2-0.1,1c0.2-0.7-0.8,1.6-1.1,2.1s-2.9,2.3-1.4,1.6H1972c2.7,1.5-0.7-1.4,0.6,0.5
	c0.6,0.8,1.3,1.5,2.1,2.2c1.8,1.9-0.6-1.2,0.8,1c0.9,1.3,1.7,2.6,2.5,4c0.3,0.5,1.7,3.5,0.8,1.2c0.4,1,0.7,2.1,1,3.1
	c0.9,2.3,0.2-1.9,0.1,1.1c0,1,0,0.6,0.1-1.1c0.3-1,0.8-1.9,1.5-2.6c0.6-0.5,3.7-1.6,2-1.3c1.1-0.4,2.3-0.4,3.4-0.1
	c-0.4-0.1-0.8-0.2-1.3-0.3c-0.9-0.3-0.6-0.2,0.9,0.4c-0.6-0.3-1.1-0.6-1.6-1c2.1,2.1-0.1-0.3-0.5-0.6c-2.1-1.2,1.4,1.1-0.8-1
	c-0.3-0.4-0.5-0.8-0.7-1.3c0.6,1.5,0.7,1.7,0.2,0.4c-0.7-2.7-0.2,2.5,0-0.2c0.1,1.1-0.2,2.1-0.8,3c-1,1.1-1.2,1.4-0.6,0.7
	c0.6-0.7,0.4-0.5-0.9,0.6c-2,1.1-4.4,1.4-6.6,0.8c-2.1-0.6-3.1-1.9-4.5-3.4c1.2,1.2,0.6,1.5,0-0.3c1.1,3.4,0-1.5,0.1,0.7
	c0.1,2.5,0.2-2.7-0.1,0c0.8-1.7,0.9-1.9,0.2-0.8l0.9-1.3c0.7-0.7,1.5-1.2,2.4-1.4c-1.4,0.4-1,0.4,1.2,0c-2.1-0.2,3.2,0.9,3.4,1
	c1.7,1.5,2.1,1.7,1.2,0.9l1.3,1.6c-1.2-1.7,1.4,3.1,0.2,0c0.5,1.3,0.1,2.8,0.3,0.6c-0.3,3.9-0.4,1.3,0,0.5c1-2.2-1.7,2.5,0,0
	c0.5-0.8,0.2-0.4-0.9,1.1c0.9-0.9,0.6-0.7-0.9,0.5c2.5-1-2.9,0.8-0.2,0c-2,0.2-2.3,0.2-0.8,0.1c1.4,0.1,1.2,0-0.4-0.1l-7.5-5.7
	c0.2,0.3,0.4,0.7,0.6,1.1c1,1.6-0.2-1.7-0.3-0.7s0.8,2.6,1,3.5c0.3,1.2,0.5,2.3,0.7,3.5c-0.6-3.3,0,0.8,0,1.8c0,1.4-0.1,2.7-0.1,4.1
	c0,1.7-0.1-0.1,0.1-0.8c-0.2,0.6-0.3,1.3-0.4,1.9c-0.2,1-0.9,1.2,0,0.2c0.5-1,0.5-1.1,0-0.3l1.2-1.5c-1.3,1.1,1-0.7,1.2-0.8
	c1.2-0.4,2.4-0.7,3.7-1c-1.5,0,2.9,0.3,1.2,0.1c-1.3-0.2,1.8,1.1,0.4,0.2s-1.1-1.3-0.3-0.1c-1-1.5,0.1-0.2,0.1,0.2
	c-0.1-2.1,0.1,1-0.2-0.2c-0.2-0.7-0.4-1.3-0.6-2c-0.5-1.7,0,1.9,0,0.1c0-0.9-0.1-1.9,0-2.8c0-0.8,0.1-1.5,0.2-2.3
	c-0.2,1.8,0,0.4,0.3-0.6c0.2-0.7,0.4-1.5,0.6-2.2c0.1-0.2,0.9-2.4,0.3-1.1c-0.6,1.5,0.6-1.2,0.8-1.4c0.3-0.6,0.7-1.2,1.1-1.8
	c-1.3,2.1,0.9-0.8,1.8-1.5l-15.2,2c-1.2-0.9-1.7-2.5-0.8-0.5c0.4,1,1.1,2,1.6,3c1.3,2.4,2.9,4.6,4.6,6.7c4.2,5.3,13.3,4.4,17.7,0
	c5.2-5.2,4.2-12.4,0-17.7c0.6,0.8-1-2.3-1-2.2c-0.5-1-1-2-1.6-3c-2.1-3.1-4.7-5.8-7.8-7.9c-4.8-3.5-11.1-1.3-15.2,2
	c-17.4,13.7-17.4,49,5.4,57c11,3.8,21.4-2.5,24.6-13.3c2.4-8.1,1.7-17.7-0.7-25.8c-1.4-4.7-3.5-10.1-7.9-12.7
	c-5.6-3.3-13.9-2.5-19.5,0.5c-9,4.9-13.4,15.7-11.4,25.6c2.1,10.7,12,17.7,22.9,14.9c12-3.1,17.9-16,14.8-27.5s-15.1-19.4-26.2-12.6
	s-12,20.9-5.7,31.2c5.7,9.3,17.4,16.7,28.6,13.5c13.1-3.8,16.3-18.4,11.9-29.9c-3.5-9.2-11-22.2-21.2-25c-6.8-1.9-13.8,2.6-17,8.5
	c-2.9,5.4-2.8,11.4-1.8,17.2c1.5,9,6,18.9,12.7,25.1c6.2,5.8,14.4,6.6,20.9,0.8c2.9-2.7,5.2-5.9,6.8-9.5c4.6-10.2,6.4-23,1.4-33.4
	c-5.4-11.3-19.5-15.4-30.5-9.7c-10,5.2-12.7,16.6-11.7,27c0.5,4.9,1.3,9.9,2.3,14.7c0.4,2,0.8,3.9,1.2,5.8c0.2,0.7,0.3,1.4,0.4,2.1
	c0.3-0.3-0.2-3.4-0.2-0.5c0.2,16.1,25.2,16.1,25,0L1991.2,680.2z"/>
<path class="st3" d="M1938.7,699.7c-15.6-0.5-32.6,2.3-40.8,17.3c-9.3,17.1,3.6,34.2,21.4,35.9c15.2,1.5,30.9-10.4,25.7-27
	c-4.7-14.8-24.9-17.2-36.5-9.4c-6.4,4.3-11.4,11.5-9.3,19.7c1.5,5.7,5.6,10.1,10.7,12.8c10.1,5.3,23.7,7,34.3,2.6
	c13-5.5,20.2-21.8,9.5-33.1c-7.6-8.1-20.9-11-31.4-7.8c-8,2.5-16.4,9.9-15.3,19c1,8.4,10.4,15.3,17.4,18.7
	c8.5,4.1,17.5,4.7,25.5-0.9c9.6-6.8,13.3-19,7.4-29.5c-7.9-14-29.5-1.4-21.6,12.6c-0.8-1.3-0.1-2.9,0.4-4.2c-1.5,4-0.2-0.6,0.2,0.3
	s-2.7,0.3,0.7,0.2c2.5-0.1,0.6,0.1-0.7-0.4c2,0.7-1.1-0.6-1.5-0.8c-1.1-0.6-2.2-1.3-3.2-2.1c1.3,1-0.3-0.4-0.7-0.8
	c-2.2-2.1,0.1,0.6-0.8-1v12.6c1.1-2-1.7,1.9,0.3-0.4c0,0-1,0.8-1,0.7c-0.1,0.5-1.2,0.4,0.4-0.1c0.4-0.1,0.8-0.2,1.2-0.3
	c-0.3,0.1-2.4-0.1-1.2,0.2c0.7,0.1,1.5,0.1,2.2,0c2.1-0.2-1.9-0.7,0.2,0c0.9,0.3,2,0.6,2.9,0.8c1.3,0.3-1-0.4-1-0.5
	c0.5,0.2,1,0.5,1.4,0.8c0,0,1.9,1.3,0-0.1c-1.5-1.1-0.2-0.1,0.1,0.2c1,1.2-1.5-2.2-0.7-0.9c0.7,1.1-0.6-1.7-0.6-1.5
	c-0.5-2.1-0.4-1.8,0.4-4.3c0.6-1.7,0.2-0.6,0-0.1c0,0,1.5-2,0.6-0.8c-1.9,2.4,0.9-0.5-1.1,0.9c-1,0.7,1-0.4,1.1-0.5
	c-0.6,0.1-1.1,0.3-1.7,0.5c-0.1,0.1-2,0.5-0.1,0.1c1.7-0.3,0.2,0-0.2,0c-1.1,0-2.3,0.1-3.4,0.1c-0.5,0-1-0.1-1.5-0.1
	c-2.4,0,1.3,0.3-0.1,0c-2-0.4-4-1-6-1.6c1.8,0.5,1.2,0.5-0.1-0.2c-2.8-1.4,0.6,0.8-0.4-0.2c-0.7-0.7-0.8-1.6,0.8,1.1
	c1.7,3.2,1.3,7-1,9.8c1.2-1.4-1.7,0.7,0.4-0.3c0.3-0.2,2-1.1,0.2-0.3s0.5,0,0.9-0.2c2-0.8-1.7,0,0.5,0c2.4,0,0-0.2-0.4-0.2
	c0.5,0,1,0.1,1.4,0.3c0.6,0.8-0.6-0.1-0.9-0.4c-0.8-0.6-1.5-1.3-2-2.1c-0.9-1.5-1-3.5-0.1-5.1c0.3-0.5,2.4-3.1,1.1-1.5
	c0.2-0.2,2-0.6,0.7-0.4c-0.4,0.1-2.5,0.5-0.8,0.3s-1.4-0.1-1.9-0.1c-1.8,0.1,2.1,0.5,0.4,0.1c-0.6-0.2-1.1-0.4-1.7-0.4
	c-1.1,0.1,0.8,0.1,1.1,0.5s-1.9-1.1-1.7-1.1c-1.2,0-0.1-0.8,0.1,0c0.1,0.7,0.4,1.8,0.5,2.5c0.3,1.1-0.2-0.1,0.2-0.7
	c-0.8,1.1,0.1-0.1,0.4-0.5c0,0,1.4-1.7,0.6-0.8c0.3-0.3,1.6-1.1,0.6-0.6c0.6-0.3,1.1-0.7,1.8-1c0.9-0.4-0.3,0,1.4-0.4
	c0.7-0.2,1.3-0.3,2-0.5c0.3-0.1,3-0.4,1.5-0.3c3.5-0.3,7.1-0.3,10.6-0.2c16.1,0.5,16.1-24.5,0-25L1938.7,699.7z"/>
<path class="st3" d="M2006.1,732.2c2.9-1.2,5.9-2.2,9-3c1.7-0.5,3.3-0.8,5-1.2c3.2-0.7-2.5-0.1,0.7-0.1c1.1,0.1,2.3,0.1,3.4-0.1
	c1.6-0.5-2.8-0.5-0.2-0.1c1.3,0.2,2.5,1.5,0.1-0.1s-1.2-1.2-0.7-0.5c-0.1-0.2-2.3-4.4-1.3-1.8c-1-2.3,0-0.6-0.1,0.8
	c0.2-3.3-0.1-0.9-0.1-0.5l0.5-1.4c-0.7,1.1-0.6,1,0.4-0.5c-1,0.9-0.8,0.8,0.5-0.4c-1,0.5-1,0.6-0.1,0.2l0.7-0.3
	c-0.6,0.2-1.2,0.4-1.7,0.5c-1.9,1.2,1.9,0.3-0.4,0.1c-0.8-0.1-1.6,0-2.4,0c-1.8,0,2.8,0.9,0,0c-0.9-0.3-1.9-0.5-2.8-0.8
	c3.3,0.8,0.2,0.6,0,0c0,0.2-3-2.7,0,0.2c-0.5-0.4-1-0.9-1.4-1.4c0.7,1,0.7,0.9,0-0.3c0-0.2,0.1,3,0,0s0.6,2.3,0-0.6l-0.2,1.4
	c0.4-1.3,0.3-1.2-0.3,0.4c0.4-0.5,1.5-1.6-0.3,0.3l-1.1,0.8c1.2-0.7,1.1-0.7-0.2,0l1.1-0.3c-1.2,0.2-1.3,0.2-0.3,0.2
	c2.3,0-2.6,0,0.7,0.1c-1.4-0.7-1.5-0.7-0.3-0.1c1.2,0.8,1.1,0.7-0.2-0.3c0.9,1.8,0.6-0.1-0.1-0.4c0.6,0.2,1.6,3.5,0.5,0.3
	c0.3,0.9,0.6,1.8,0.7,2.7c-0.1-0.3-0.4-2.9-0.2-0.6c0.3,3.1,0.2-2.8-0.1,0.2l0.6-1.3c-0.7,1.2-0.5,1.1,0.5-0.3
	c-1.4,0.7-0.2,0,0.4-0.2c-1.2,0.7-1.1,0.7,0.3,0c-1.5,0.4-1.4,0.4,0.3,0.1c2.8,0.3,0.4,0.3-0.3-0.2c-1.5-0.9,1.7,1.9-0.6-0.4
	c-2.8-2.7,1.4,2-1.3-1c-0.5-0.6-1.2-1.1-1.6-1.8c1.5,1.9-0.5-1.1-0.6-1.3l0.4,1c-0.3-1.5-0.4-1.4-0.1,0.3c-0.2,0.9-0.5,1.8-0.9,2.6
	c0.7-1.2,0.5-1-0.5,0.4c1-0.9,0.8-0.8-0.6,0.3c2.7-0.9-2.1,0.5-0.2,0c0.7-0.2,1.5-0.4,2.2-0.6c-4,0.9,0.5,0.2,0.5,0.2l1,0
	c-1.5-0.2-1.8-0.3-0.8-0.1c0.8,0.2,1.6,0.4,2.4,0.6c3.1,0.6-2.1-1.1,0.7,0.2c0.6,0.3,1.1,0.7,1.7,1c-1.2-1-1.3-1.1-0.3-0.2
	c0.9,1,0.9,0.8-0.2-0.5c0.9,0.1,1.1,3.7,0.3,0.2c0.2,0.9,0.1,2-0.1-0.7l0.3-1.7c-0.4,1.3-0.3,1,0.3-0.8l1-1.3
	c-0.8,0.7-0.8,0.8,0,0.1l0.6-0.5c-0.5,0.3-1,0.6-1.5,0.9c3.7-1.1-0.2,0-0.4,0c-2.5-0.7,1.7,0,0.1,0c-0.5,0-0.9,0-1.4,0
	c-1.4-0.1-1.2,0,0.6,0.2l-0.9-0.2c-1.3-0.4-1.2-0.3,0.5,0.4c0.1,0.6-3.8-3.3-0.2,0.1l0.9,1.3c-0.6-1.1-0.6-0.9,0.2,0.6
	c-0.4-2.9,0.1,2.5,0,0.1l-0.3,1.9c0.4-1.3,0.2-0.9-0.6,1c2-2.7-1.3,1.5,0.1-0.2c-0.1,0.1-2.5,1.9-0.8,0.7c2.6-1.8-1.4-0.1,0.4-0.3
	c0.5-0.1,1-0.2,1.5-0.4c1.8-0.7-2.8-0.1,0.5,0c1.2,0,2.9,0.7-0.3-0.2c0.7,0.2,1.4,0.4,2.1,0.5c-2.7-0.3-1.7-1-0.4-0.1
	c-2.9-2.3-1.1-0.8-0.5-0.2l-1.2-1.5c0.6,1.1,0.5,0.8-0.4-1.1c0.4,1.7,0.1-3-0.2,0.5c-0.7,6.7,6.2,12.5,12.5,12.5
	c7.3,0,11.8-5.8,12.5-12.5c1.8-17.4-17.5-25.7-32-21.9c-7.2,1.9-13.4,6.6-16.2,13.5c-3.3,8.3-1.3,17.7,5.2,23.8
	c12.7,11.6,38.6,6.6,42.4-11.4c4.3-20-18.5-32-35.4-29.1c-8.7,1.5-16.4,7.5-18.7,16.2c-2.5,9.9,2.8,20.2,10.4,26.4
	c8.3,6.8,19.4,9.8,29.3,4.3c7.7-4.5,12.3-13,11.8-21.9c-1-20.5-26.3-34.2-42.5-19.4c-15.6,14.2-3.7,37.9,14,42.8
	c8.9,2.4,19.2,1.5,26.6-4.1c8.5-6.6,11.4-18.1,7.1-27.9c-7.9-17.9-31.3-13.2-45.7-7.4c-6.3,2.5-10.7,8.4-8.7,15.4
	C1992.4,729.5,1999.8,734.7,2006.1,732.2L2006.1,732.2z"/>
<path class="st3" d="M1922.7,684.7c16.1,0,16.1-25,0-25S1906.6,684.7,1922.7,684.7z"/>
<path class="st3" d="M2018.7,692.7c16.1,0,16.1-25,0-25S2002.6,692.7,2018.7,692.7z"/>
<path class="st3" d="M1970.7,764.7c16.1,0,16.1-25,0-25S1954.6,764.7,1970.7,764.7z"/>
<path class="st3" d="M1974.7,736.7c16.1,0,16.1-25,0-25S1958.6,736.7,1974.7,736.7z"/>
<path class="st3" d="M2913.9,1315.3c-8.8,7-15.4,17-15.7,28.6c-0.2,11,5.2,22.8,16.4,26.3c22,6.9,39.6-21.8,29.1-40.1
	c-5-8.8-16.4-12.8-25.4-7.5c-8.6,5-13.6,16.9-12.8,26.6c0.8,9.8,8.3,17.7,18.3,18c8.5,0.3,16.6-5,20.8-12.2c5.1-8.9,6.4-22-1.1-30
	c-7.7-8.3-19.8-6.4-27.8,0.2c-8.8,7.3-12.1,19.2-9.3,30.2c3,11.8,14.5,24.5,27.3,18.3c17.9-8.7,25-38.5,5.6-49.7
	c-21.2-12.2-41.9,14.9-37.1,34.7c2.8,11.7,14.2,20.4,26.4,17.2c11.4-3,18-13.8,18.2-25.1c0.2-8.6-2.4-19-8.4-25.5
	c-8.3-9-21.3-5.9-26.7,4.5c-3.1,6-1.5,13.6,4.5,17.1c5.6,3.3,14,1.5,17.1-4.5c0.9-1.6,1.8-1.7-0.1-0.3c-3.2,2.5-7.5,3.6-11.3,1.6
	c-1-0.6-2.5-2.6-2.5-2.3c0.2,0.6,0.6,1.2,1,1.7c1.3,1.9-0.4-2.1,0.1,0.3c0.2,0.9,0.6,1.9,0.8,2.8c0.1,0.4,0.7,3.2,0.3,1.3
	s0.1,0.9,0.1,1.3c0,1-0.1,2,0,2.9c0.2,2.8,0.6-2.3-0.1,0.2l-0.2,0.8c0.8-1.6,0.9-2,0.5-1.2c0.1,0.1-0.1,0.1-0.8,0.9
	c1-0.7,0.9-0.7-0.3,0l1.1-0.6c0.9-0.1,3.8,0.5,2-0.2c1,0.4,1.9,1,2.6,1.7c0.5,0.8,0.4,0.7-0.2-0.4c0.4,1.1,0.5,1.3,0.2,0.4
	c-0.3-0.9-0.3-0.8-0.1,0.3l-0.1-1.4c0.1-1.2,0-1.4-0.1-0.4c-0.1,0.9-0.1,0.8,0.2-0.5c0.1-0.3,1.1-3.1,0.6-1.8
	c-0.4,1,1.1-1.8,1.4-2.2c0.7-1.1-0.7,1,0.6-0.7c0.3-0.3,0.6-0.6,1-0.8l-1,0.4c1.4-0.4,1.3-0.4-0.3,0c-0.8-0.2-1.6-0.4-2.3-0.7
	c0.1,0.1,0.6,1.1-0.2-0.3c-1.2-2.4-0.1,1.4-0.3-1.3c0,0.7-0.4,3.7,0.1,1.1c-0.2,0.9-0.5,1.9-0.8,2.8c-0.4,1.2,0.8-1-0.4,0.8
	c-0.1,0.2-2.2,3.1-0.7,1.3c-0.3,0.3-2.8,2.5-0.6,1c-0.7,0.5-3.3,1.4-0.6,0.5l9.6,1.3c-0.8-0.5-1.3-1.2-1-0.7
	c-0.5-0.7-0.9-1.5-1.3-2.3c0.5,1,0.4,0.8-0.1-0.7c-0.3-1.5-0.4-1.7-0.1-0.5v-1.3c-0.6,2.9,1.3-3.4,0.2-1c0.9-1.3,1-1.5,0.3-0.7
	c0.5-0.6,1.1-1.2,1.7-1.7c-1,0.7-1.1,0.8-0.4,0.4c0.8-0.5,0.6-0.4-0.8,0.3c1.4-0.3,1.1-0.3-0.8,0.1c-2,0-4-0.8-5.3-2.3
	c-1.1-1.2-1.5-4.9-1.5-2.5c0,4.2,0.3-2.1-0.2,1.5c-0.5,1.4-0.4,1.4,0.2,0c-0.3,0.6-0.6,1.2-0.9,1.7c1.1-1.3,1.1-1.4,0.3-0.4
	c-1,0.9-0.8,0.8,0.6-0.3c-0.3,0.2-0.7,0.4-1,0.6c-0.9,0.5-0.4,0.3,1.3-0.5c-2.1,0.5,3.2,0.3-0.1,0c2.8,0.2,3.5,0.5,4.9,1.9
	c1.1,1.6,1.5,2.1,1,1.2c-0.5-0.8-0.3-0.4,0.6,1.3c0.2,2,0.2,2.3,0.1,0.8c0.1-1.3,0-1.2-0.1,0.3c0.2-0.8,1-3.3,1-3.3l0.7-1.2
	c-0.8,0.9-0.8,0.9,0.1-0.1c-2.4,0.9-3.5,2.4-6.4,1.7c-1.1-0.3-2.2-0.8-3-1.6c-1.1-1.5-1.2-1.7-0.4-0.6c1.2,2.2-1.4-2,0.1,0.4
	c-0.2-1.7-0.2-1.8-0.1-0.3c-0.1,1.4,0,1.4,0.1-0.1c0.1,0-0.1,1.1-1.1,2.4c1-1.4-1.5,1.4-1.5,1.4c0.9-0.7,0.8-0.7-0.4,0
	c1.3-0.5,1.3-0.6,0-0.2c0.9-0.3,1.9-0.3,2.8,0c-1.3-0.4-1.2-0.3,0.4,0.2c1.1,1,1.3,2.4,1,0.6c0.4,2.8-0.5-3.2-0.3-1.8
	c-0.2-2.2,0.2-3.4,1.6-5.7c1.2-1.9,4.1-4.6,6.8-6.7c5.3-4.2,4.4-13.3,0-17.7C2926.3,1310.1,2919.2,1311.1,2913.9,1315.3
	L2913.9,1315.3z"/>
<path class="st3" d="M2841.9,1297c11.5,10.7,39.8,29.6,47.4,4.4c4.6-15.3-6.9-30-19.9-36.7c-7-3.5-14.8-5.7-22.6-4.2
	c-11,2.2-14.3,13.6-11,23.3c4.9,14.5,23,27.1,38.5,24.3c8.9-1.6,15.4-9.3,15.5-18.3c0.2-6.9-2.8-13.9-6.2-19.8
	c-8.4-14.4-26.1-29.3-43.1-18.7c-8.9,5.6-13,17.4-9.7,27.3c2.5,7.6,9.3,13.1,15.8,17.4c6,4,13,7.3,20.2,8.3c5.1,0.7,10.2,0,13.9-3.9
	c3.4-3.7,5.4-8.5,5.4-13.6c0.3-16.2-17.5-34.6-33.8-34.5c-9.8,0.1-18.2,7-20,16.7c-2,10.6,3.5,20.2,12.3,25.8
	c5.7,3.7,13.8,1.2,17.1-4.5c3.6-6.1,1.2-13.4-4.5-17.1l-0.6-0.4c0.7,0.5,0.5,0.3-0.4-0.5c0.8,1,0.9,1.2,0.5,0.4
	c-0.5-0.7-0.4-0.5,0.3,0.8c0.3-2.4,0,2.4-0.1-0.3l-0.3,1.6c0.3-1.1,0.3-1.1-0.1-0.1c-0.4,1-0.4,1,0.1,0c-0.3,0.7-0.9,1.3-1.6,1.7
	c-0.6,0.4-3,1.7-1.2,0.7c-1.6,0.2-1.9,0.2-0.9,0.2c0.9,0,0.7,0-0.6,0c1.5,0.5,1.6,0.5,0.4,0c-1-0.5-1-0.4,0,0.1
	c0.8,0.6,1.6,1.1,2.4,1.6c-1.5-1.1-0.4-0.3,0.4,0.4s1.4,1.3,2.1,2c0.3,0.3,2.4,2.8,1.1,1.1c0.7,0.9,1.2,2,1.9,2.9
	c0.6,1.2,0.7,1.3,0.4,0.5c-0.3-0.8-0.3-0.7,0.2,0.5l0.3,1c-0.1-1.7-0.2-1.9-0.1-0.4c0.2-1.4,0.8-2.7,1.7-3.7l5.5-3.2
	c2.1-0.2,2.5-0.3,1.1-0.3c1.7,0.3,2.1,0.3,1.1,0.1c-1-0.4-2-0.7-3-0.8c-0.5-0.2-1-0.4-1.6-0.6c1.2,0.5,1.1,0.5-0.2-0.2
	c-1.1-0.6-2.2-1.1-3.3-1.7s-2.1-1.3-3.2-2c-0.1-0.1-3.1-2.4-1.3-0.9c-0.9-0.7-1.7-1.4-2.5-2.2c-0.5-0.5-0.9-1-1.4-1.5l0.8,1.1
	c-0.5-0.2-1.9-2.4-0.3,0c0.1,0.4,0.1,0.8-0.1,1.1c0.4-1.3,0.5-1.6,0.3-0.9c-0.3,0.2-1.6,1.2-1.8,1.4c-0.4,0.4-2.6-1.7,0.6,0.2
	c1.6,1.2,3,2.6,4.4,4c0.5,0.5,0.9,1.1,1.4,1.6c1.5,1.5-1.2-2,0.4,0.7c1.2,1.9,2.4,3.8,3.5,5.8c0.3,0.6,1.4,3.5,0.5,0.9
	c0.3,0.9,0.5,2,0.9,2.9c1,2.2,0.2-1.9,0.1,0.3s0.5-1.8,1-2.5c0.9-1.4,2.3-2.4,3.9-2.9c-1.4,0.3-1.2,0.3,0.5,0
	c-1.1-0.1-1.2,0-0.1,0.1c1,0.1,1,0.1-0.2-0.1c-0.5-0.1-1-0.3-1.5-0.4c-0.8-0.3-0.7-0.2,0.5,0.3c-0.7-0.3-1.3-0.6-2-1
	c-1-0.6-2-1.2-3-1.8c-2.9-1.9,1.3,1.3-1.2-1c-0.9-0.8-1.7-1.6-2.4-2.5c1.6,1.8-0.3-0.6-0.6-1.1c-1.7-2.5,1.1,1.5-0.2-0.7
	c0.2,1.8,0.2,2,0.2,0.6c-0.3,1.8-0.2,2,0.2,0.7l-8.7,8.7c0.3-0.1,2.8-0.7,0.8-0.4s0.6,0.1,1,0.1c2.3-0.2-1.3-0.4,0,0
	c0.8,0.3,1.7,0.5,2.5,0.7c1.1,0.3,1.1,0.4,0-0.1c0.8,0.4,1.7,0.8,2.5,1.2s1.6,1,2.4,1.4c1.9,1.1-0.4-0.5,0.6,0.4
	c1.2,1.1,2.4,2.2,3.5,3.4c-1.6-1.7-0.1-0.2,0.2,0.4c0.4,0.7,0.9,1.4,1.2,2.2c-0.7-1.6-0.2-1.1-0.2,0.2c0,1.6-0.8-2.8-0.1-0.1
	c-0.1-0.6,0-2.3,0-0.6c0.1-1.7,0.5-0.9-0.5,0.6l10.8-6.2c-0.3,0-3.3,0-1.9,0.2c1.2,0.2-1.1-0.4-1.4-0.5c-0.9-0.4,0.2,0.2-1.4-0.6
	c-1-0.6-2.1-1.2-3.1-1.8c-3-2-5.8-4.2-8.4-6.7C2847.8,1268.4,2830.1,1286,2841.9,1297L2841.9,1297z"/>
<path class="st3" d="M2955.2,1292.2c0.1-2.5-0.2,1.8,0,0.2s-1.1,2.8,0,0.2c-0.4,0.9-1.5,1.3-0.3,0.4c0.3-0.2,2.3-1.9,0.8-0.9
	c-1,0.8,2.2-1.2,3-1.6c2-1.1-1,0.3,0.4-0.2c0.9-0.3,1.7-0.6,2.6-0.9c3.1-0.9,6.2-1.6,9.3-2.2c3.2-0.6-1.7,0.2,0,0
	c0.7-0.1,1.5-0.2,2.2-0.2c1.2-0.1,2.4-0.1,3.7-0.2l-10.9-6.2c0.9,1.3,0.6,2.1,0-0.5l-0.3-2c0,1,0,0.9,0.1-0.3s0.1-1.3-0.1-0.3
	l0.7-1.6c-0.4,0.7-0.9,1.4-1.3,2.1c0.8-1.3,1.1-1.3,0-0.1c-0.6,0.6-1.1,1.2-1.7,1.7s-1.5,1.3-2.3,2c1.4-1.1,0.6-0.4-0.4,0.2
	c-1.5,1-2.9,1.9-4.5,2.7c-0.8,0.4-1.5,0.8-2.3,1.2c-2.7,1.4,2.2-0.5-0.6,0.2c-1.4,0.3-2.8,0.7-4.1,1.1c2.6-1,1.9,0,0.5-0.2
	c0.9,0.1,3.1,0.7,1.1,0l7.5,5.7c0.6,1.7,0.7,1.9,0.3,0.6c0.4,1.2,0.4,2.5,0.1,3.7c-0.9,1.8-1,2.1-0.4,0.9c-1.2,1.4-1.4,1.6-0.4,0.6
	c0.4-0.4,0.8-0.8,1.3-1.2c-1.3,1-1.4,1.1-0.2,0.3c0.9-0.4,1.8-0.9,2.6-1.5c1.3-0.6,1.2-0.6-0.2,0c0.7-0.3,1.3-0.5,1.9-0.7
	c1.3-0.4,2.6-0.8,3.9-1.2c1.1-0.3,2.2-0.4,3.2-0.7c0.7-0.2-2.6,0,0.3,0.1c0.5,0,0.9,0,1.4,0c-2.7-0.4-2.9-0.4-0.8,0.1
	c1.5,0.5,1.6,0.5,0.3,0c1.9,1.2,1.2,0.5-2-2.3c-0.9-1.8-1.2-3.8-0.8-5.7c0.9-1.8,1-2.1,0.3-0.9c-0.7,1.1-0.6,1,0.4-0.4
	c-0.9,1-1.8,1.8-2.8,2.8c-1.6,1.6,1.4-0.8-1.1,0.9c-2,1.3-4.1,2.5-6.3,3.6c3.2-1.6,0.1-0.2-0.9,0.1s-3.2,0.3-1.1,0.2
	c-1.5,0.1-3,0.1-4.5,0c2.8,0.2-1.3-0.4-2-0.6c1.3,0.7,1.4,0.7,0.2,0c-1.2-0.8-1.1-0.7,0.2,0.2c-1.4-1.8,0.3,0.8,0.6,1.3
	c-0.3-1.4-0.4-1.4-0.1,0c0.1-1.9,0-1.6-0.2,0.6c0.4-1.3,0.2-1-0.5,0.8c0.2-0.5,0.5-1,0.8-1.5c2.1-1.5-1.7,1.3,0.2-0.3
	c1-0.8,1.8-1.8,2.7-2.6c-2.4,2,0.9-0.4,1.4-0.7s1.1-0.6,1.7-0.8c-1.6,0.7-1.7,0.8-0.4,0.3c0.2-0.7,4.4-0.2,0-0.2
	c3.5,0-1.4-0.8,0.5-0.1c-1.2-0.3-2.2-0.9-3-1.8c0.9,0.9,0.7,0.7-0.5-0.7c-1.6-2.8,0,0.3,0.2,1.6c1,6.7,9.4,10.4,15.4,8.7
	c7.1-2,9.8-8.7,8.7-15.4c-2.5-16.5-19.9-20.2-33.1-14.1c-11.9,5.5-21.8,18.2-18.2,31.9c8,30.7,57.1,19.4,65.2-5.6
	c2.5-7.7-0.7-16.2-7.6-20.4c-6.2-3.8-12.9-4.4-19.9-3.4c-11.4,1.7-25,7.5-29.7,18.9c-3.5,8.7-0.4,20.1,9.3,23.1
	c5.2,1.6,11.3,0.4,16.3-1.4c11.2-4.2,23.2-12,28-23.4c3.4-8,1.7-19.8-7.3-23.4c-6.2-2.5-14.6-0.5-20.9,0.9
	c-14.5,3.1-30.1,11.6-30.5,28.2C2929.9,1308.2,2954.9,1308.2,2955.2,1292.2L2955.2,1292.2z"/>
<path class="st3" d="M2910.7,1276.7c16.1,0,16.1-25,0-25S2894.6,1276.7,2910.7,1276.7z"/>
<path class="st3" d="M2866.7,1372.7c16.1,0,16.1-25,0-25S2850.6,1372.7,2866.7,1372.7z"/>
<path class="st3" d="M2966.7,1364.7c16.1,0,16.1-25,0-25S2950.6,1364.7,2966.7,1364.7z"/>
<path class="st4" d="M68.2,856.2c-0.1,12.1,4.1,23.6,4.1,35.7c0,12.9-0.6,25.8-0.5,38.6c0.1,12.5,1.8,24.7,3.3,37.1s1,25,2.5,37.5
	s2.8,24.5,3.1,37c0.3,12.8,0.1,25.7-0.1,38.5c-0.4,25.9-0.5,51.9-0.5,77.8c0,9.5-1.2,18.8-1.3,28.3c-0.2,7.9,0.2,17.3,6.1,23.2
	c2.3,2.3,5.8-1.3,3.5-3.5c-5.6-5.6-4.8-15.8-4.5-23c0.4-8.4,1.2-16.6,1.2-25c0-24.6,0-49.2,0.4-73.9c0.4-25.4,0.7-50.5-2.5-75.7
	c-1.5-11.9-1.3-23.8-2.4-35.7c-1.1-11.7-3.4-23.2-3.8-34.9c-0.5-14.2,0-28.3,0.3-42.5c0.2-13.4-4.1-26.2-4-39.5
	C73.3,853,68.3,853,68.2,856.2L68.2,856.2z"/>
<path class="st4" d="M24.2,888.2c0,20.6,0.1,41.2,0,61.9c-0.1,19.5,4.6,38.4,4.5,57.8c-0.1,9.6-0.6,19.3-0.3,28.9
	c0.3,9.8,1.2,19.6,2.1,29.3c1.7,19.8,1.7,39.4,1.8,59.3c0,8.1,0.4,15.9,0.9,23.9c0.4,6.7,1.4,16.2-4.1,21.1
	c-2.4,2.1,1.1,5.7,3.5,3.5c9.1-8,5.5-24.1,4.9-34.6c-1.2-19.7,0.5-39.4-0.8-59.1c-1.3-20.1-3.7-40.1-3.2-60.3
	c0.3-9.9,0.5-19.7-0.8-29.5s-2.9-19.8-3.3-29.8c-1-24-0.1-48.4-0.1-72.4C29.3,885,24.3,885,24.2,888.2L24.2,888.2z"/>
<path class="st4" d="M940.2,880.2c-1.3,12.5-7.8,23.1-13.4,34c-6,11.7-11.1,23.8-16.5,35.7c-5.2,11.7-10.7,23.2-14.6,35.4
	c-4.1,12.8-7.8,25.6-13.3,37.9c-5.3,11.9-11.2,23.5-16.5,35.4c-5.1,11.6-8.7,23.8-12.9,35.8c-4.5,13-10.6,25.4-16.5,37.8
	c-5.4,11.5-10.2,23.3-15.5,34.8c-11.3,24.8-23.5,49.5-28.8,76.5c-0.6,3.1,4.2,4.5,4.8,1.3c5-25.1,15.8-48.2,26.5-71.3
	c5.3-11.5,10-23.2,15.3-34.6s11.1-22.7,15.7-34.4c4.8-12.2,8.1-24.9,13-37c5.2-13.1,11.8-25.5,17.6-38.3
	c5.1-11.5,9.5-23.3,13.1-35.4c4-13.1,9.2-25.3,14.8-37.8c6.1-13.6,11.9-27.5,18.8-40.7c5.9-11.3,12-22.2,13.3-35
	C945.6,877.1,940.6,877.1,940.2,880.2L940.2,880.2z"/>
<path class="st4" d="M952.6,982.9c-8.4,14.3-13.3,30.2-19.4,45.6c-6.8,17.2-15.1,34-22.9,50.8c-14.8,31.9-33.4,62.1-46.4,94.8
	c-6.1,15.3-11,32.4-22.9,44.3c-2.3,2.3,1.3,5.8,3.5,3.5c9.8-9.9,15.1-23.3,20.1-36.1c6.1-15.7,13.3-30.8,20.7-45.9
	c8.4-16.9,17.5-33.5,25.7-50.6c8-16.6,15.4-33.5,23-50.2c8.1-17.8,12.9-36.9,22.9-53.8C958.5,982.7,954.2,980.1,952.6,982.9
	L952.6,982.9z"/>
<path class="st4" d="M492.2,1156.2c0,13.1-0.9,26.5,0,39.6c0.8,12.3,5.2,24,4,36.4c-0.3,3.2,4.7,3.2,5,0c1.3-12.4-3.1-24.2-4-36.4
	c-0.9-13.1,0-26.5,0-39.6C497.2,1153,492.2,1153,492.2,1156.2z"/>
<path class="st4" d="M524.2,1156.2c0.3,24.1,3.9,47.9,4,72c0,3.2,5,3.2,5,0c-0.1-24.1-3.7-47.9-4-72
	C529.2,1153,524.2,1153,524.2,1156.2z"/>
<path class="st4" d="M1293,985.9c6.2,6.8,3,17.4,3.2,25.7c0.2,9.9,2.4,19.5,4.2,29.2c0.6,3.2,5.4,1.8,4.8-1.3
	c-2.1-11.3-4.6-22.4-3.9-33.9c0.5-8.3,1.2-16.6-4.8-23.2C1294.4,980,1290.8,983.6,1293,985.9L1293,985.9z"/>
<path class="st4" d="M1316.2,996.2v40c0,3.2,5,3.2,5,0v-40C1321.2,992.9,1316.2,992.9,1316.2,996.2L1316.2,996.2z"/>
<path class="st4" d="M1336.2,812.2v76c0,3.2,5,3.2,5,0v-76C1341.2,809,1336.2,809,1336.2,812.2z"/>
<path class="st4" d="M1360.2,820.2v72c0,3.2,5,3.2,5,0v-72C1365.2,817,1360.2,817,1360.2,820.2z"/>
<path class="st4" d="M1344.2,1140.2c1.6,13.1,2.8,26.2,4,39.3c1.3,12.7,6.1,24.8,8,37.4c0.5,3.2,5.3,1.8,4.8-1.3
	c-2-12.8-7-24.9-8-37.8c-1-12.6-2.4-25-3.9-37.5C1348.8,1137,1343.8,1137,1344.2,1140.2L1344.2,1140.2z"/>
<path class="st4" d="M1368.2,1148.2c0.6,27.1,3.3,54,8.1,80.7c0.6,3.2,5.4,1.8,4.8-1.3c-4.7-26.2-7.3-52.7-7.9-79.3
	C1373.2,1145,1368.2,1144.9,1368.2,1148.2L1368.2,1148.2z"/>
<path class="st4" d="M1418.7,1294.7c21.7,0,43.2-0.7,64.7-4.1c3.2-0.5,1.8-5.3-1.3-4.8c-21,3.3-42.1,3.9-63.3,3.9
	C1415.5,1289.7,1415.5,1294.7,1418.7,1294.7L1418.7,1294.7z"/>
<path class="st4" d="M1650.7,1298.7h92c3.2,0,3.2-5,0-5h-92C1647.5,1293.7,1647.5,1298.7,1650.7,1298.7z"/>
<path class="st4" d="M1780.2,820.2c0.1,25.5,2.5,50.8,3.6,76.2c1.1,25.8,0.4,51.8,0.4,77.7c0,25.5-0.1,51,0,76.5
	c0.2,12.2-0.4,24.5-1.8,36.6c-1.5,12.5-2.3,25.1-2.1,37.8c0.1,29.1-0.1,58.2-0.1,87.2c0,3.2,5,3.2,5,0c0-25.8,0.1-51.5,0.1-77.3
	c0-12.9-0.5-25.7,1-38.5c1.4-12,3.1-23.8,3-36c-0.5-51.4,1-102.8-0.2-154.1c-0.7-28.7-3.8-57.3-3.9-86
	C1785.3,817,1780.3,817,1780.2,820.2L1780.2,820.2z"/>
<path class="st4" d="M2128.2,1148.2c-0.1,25.6,8.4,50.4,8,76c0,3.2,5,3.2,5,0c0.4-25.6-8.1-50.4-8-76
	C2133.2,1145,2128.2,1145,2128.2,1148.2z"/>
<path class="st4" d="M2310.7,1202.7c12.1,1.1,22.9-4.3,34.5-6.6c12.3-2.5,25.5-1.9,38-1.3s24.2,3.9,36.4,6.1
	c11.6,2.1,23.3,1.8,35,1.8c3.2,0,3.2-5,0-5c-12.5,0-25.1,0.4-37.3-2.4c-11.3-2.6-22.5-5-34.1-5.6s-23.9-0.9-35.6,0.8
	c-12.4,1.9-24.1,8.2-36.9,7.1C2307.5,1197.4,2307.5,1202.4,2310.7,1202.7L2310.7,1202.7z"/>
<path class="st4" d="M2368.5,1053.9c4.6-4.9,12.2-3.5,18.2-3.3c3.2,0.1,3.2-4.9,0-5c-7.5-0.3-16.1-1.3-21.8,4.7
	C2362.8,1052.8,2366.3,1056.3,2368.5,1053.9z"/>
<path class="st4" d="M2616.2,808.2c0,12.5,0.1,24.9,1.9,37.3c0.9,6.3,2.3,12.4,2.7,18.7s0.2,12.6,0,18.8c-1,26.5-0.6,53.1-0.6,79.6
	c0,26.8-0.4,53.6,1,80.4c1.4,26.5,3,52.9,3,79.4v93.7c0,3.2,5,3.2,5,0v-82.7c0-27-1-53.8-2.5-80.7c-1.5-26.7-1.5-53.4-1.5-80.1
	c0-26.5-0.8-53.2,0.2-79.7c0.5-13.2,1.4-26.6-0.9-39.7c-2.6-15-3.4-29.8-3.3-45C2621.2,805,2616.2,805,2616.2,808.2L2616.2,808.2z"
	/>
<path class="st4" d="M2804.2,1068.2c1.8,13.6,5.6,26.7,7.7,40.1s2.8,27.2,5.4,40.6c2.6,13.7,1.8,27.6,3.6,41.4
	c1.9,14,5.5,27.8,7.3,41.8c0.4,3.2,5.4,3.2,5,0c-1.7-13.3-5-26.2-7-39.4c-2.1-13.7-1.2-27.6-3.4-41.3s-3.6-27.2-5.5-40.8
	c-2-14.3-6.2-28.2-8.1-42.5C2808.8,1065,2803.8,1065,2804.2,1068.2L2804.2,1068.2z"/>
<path class="st4" d="M2836.2,1112.2c0.2,12.9,1.1,25.8,2.1,38.7c1,11.9,1.5,23.9,3.5,35.6c1.8,10.1,3.5,20,4.4,30.2
	c0.6,7.3,1.4,15.6,6.7,21.2c2.2,2.3,5.8-1.2,3.5-3.5c-5.3-5.6-5.1-15.6-5.6-22.8c-0.7-9.5-2.9-18.8-4.5-28.3
	c-1.9-11.7-2.4-23.6-3.3-35.3c-0.9-11.9-1.7-23.9-1.9-35.8C2841.2,1108.9,2836.2,1108.9,2836.2,1112.2L2836.2,1112.2z"/>
<path class="st4" d="M2868.3,1152.8c8.3,21.7,8.9,45.2,12,68c0.4,3.2,5.3,1.8,4.8-1.3c-3.1-22.8-3.7-46.3-12-68
	C2872,1148.5,2867.1,1149.8,2868.3,1152.8z"/>
<path class="st4" d="M3088.3,800.8c4.1,11.6,6.6,23.8,7.3,36.1c1.1,13.2,3,26.4,5.8,39.3c1.6,7.1,2.7,14.3,3.1,21.6
	c0.3,7-0.6,13.9-0.7,20.9c0.1,6.1,0.9,12.2,2.4,18.1c1.6,6.8,2.5,13.7,2.6,20.7c0.4,14.2-0.6,28.4-0.6,42.5
	c0,12.9,1.9,25.6,4.4,38.2c2.8,14.2,5.3,27.5,3.5,42c-1.6,13.3-6.3,26-8,39.4c-3.7,28.1,0.1,56.4,0.1,84.6c0,3.2,5,3.2,5,0
	c-0.1-25.7-3.2-51.5-0.9-77.2c1.2-13.3,5.2-25.6,7.6-38.7c2.5-12.8,2.5-26,0.1-38.8c-2.6-13.3-5.6-26.5-6.5-40
	c-0.9-14.4,0.4-28.9,0.4-43.3c0.2-6.7-0.1-13.4-0.7-20c-0.7-6.5-3-12.6-3.9-19.1s-0.3-13.3,0.1-19.8c0.4-7.1,0-14.3-1.1-21.3
	c-2.4-15.9-6.5-31.3-7.6-47.4c-0.9-13.5-2.9-26.4-7.5-39.1C3092,796.6,3087.2,797.9,3088.3,800.8L3088.3,800.8z"/>
<path class="st4" d="M3521,1161.9c4.2,4.6,4.2,11.5,4.3,17.4c0.1,5.3,0.5,10.6,1.4,15.8c1.9,10.4,2.9,22.6,10.3,30.8
	c2.1,2.4,5.7-1.1,3.5-3.5c-4-4.5-5.5-10.7-6.7-16.3c-1.2-5.5-2.4-11.3-3.1-16.9c-1.3-10.3,1.4-22.3-6.2-30.7
	C3522.4,1156,3518.9,1159.5,3521,1161.9z"/>
<path class="st4" d="M3472.2,980.2c-0.2,16.7,5.5,32.4,8.1,48.7c0.5,3.2,5.3,1.8,4.8-1.3c-2.6-15.9-8.1-31.1-7.9-47.3
	C3477.2,976.9,3472.2,976.9,3472.2,980.2L3472.2,980.2z"/>
<path class="st4" d="M3529,810.4c-7.6,8.1-7.1,20.2-5.8,30.5c1.4,11.7,5.1,23.5,5.1,35.3c0,3.2,5,3.2,5,0
	c0.1-10.3-2.8-20.5-4.4-30.6c-1.5-9.8-3.8-23.6,3.7-31.6C3534.7,811.6,3531.2,808,3529,810.4L3529,810.4z"/>
<path class="st4" d="M3552.2,820.2c0,16.4,0.9,32.6,4.1,48.7c0.6,3.2,5.4,1.8,4.8-1.3c-3.1-15.7-3.9-31.4-3.9-47.3
	C3557.2,816.9,3552.2,816.9,3552.2,820.2L3552.2,820.2z"/>
<path class="st4" d="M3500.2,992.2c1,9.2,1.8,18.9,8.7,25.8c2.3,2.3,5.8-1.3,3.5-3.5c-5.9-5.9-6.4-14.4-7.3-22.2
	C3504.9,989,3499.9,989,3500.2,992.2L3500.2,992.2z"/>
<path class="st4" d="M3538.1,1166.6c5.8,1.2,8.4,8.3,10.6,13.1c2.3,5,4.4,10.3,8.4,14.3c2.3,2.3,5.8-1.3,3.5-3.5
	c-8-7.9-8.3-25.9-21.1-28.6C3536.3,1161.1,3534.9,1165.9,3538.1,1166.6L3538.1,1166.6z"/>
<path class="st2" d="M128.5,521.9c8.6-8.3,12.3-19.6,18.6-29.4c3.3-5.2,7.8-9.4,11.9-13.9c4.6-4.9,9.1-9.9,14-14.5
	c4.4-4.3,9.3-8,14.5-11.3c6-3.6,12.7-6.2,19-9.2c13.2-6.3,26.3-12.9,39.8-18.3c24.5-9.7,50.3-14,76.6-11.8c11.9,1,23.8,3.5,34.6,8.6
	c12.5,6,25.3,11.8,36.8,19.5c11.8,8,20.5,18.5,28.6,30c7.1,10.2,14.7,20,22.1,30c15.3,20.6,28.6,42.5,42.2,64.2
	c13.1,20.9,26.4,41.8,41.6,61.2c16,20.4,34.4,37.3,54.3,53.9c22.9,19.2,46.4,38.1,73.4,51.2c6.8,3.4,14.2,5.7,21.8,6.8
	c7.4,1,14.8,1.4,22.1,3c15.4,3.4,30.1,9.7,46.2,8.5c3.2-0.2,3.2-5.2,0-5c-15,1.1-28.9-4.5-43.2-8c-13.7-3.3-28.1-2.2-41.2-8.2
	c-25.3-11.5-47.6-28.8-68.9-46.5c-20.4-16.9-40.2-33.8-57-54.5c-16.3-20.1-30.3-41.9-43.9-63.8c-13.6-21.7-26.9-43.6-42.1-64.2
	c-7.7-10.5-15.6-20.6-23.1-31.2c-7.2-10.2-14.8-20.1-24.7-27.7c-11-8.5-23.6-14.6-36.2-20.6c-10.9-5.3-21.5-9.3-33.5-11.2
	c-24.3-3.7-49.2-1.9-72.7,5.3c-15.2,4.7-29.7,11.4-44.1,18.3c-13.2,6.3-27.8,11.7-39.4,20.8c-11,8.7-21.2,19.6-30.1,30.4
	c-8.6,10.4-11.9,24.3-21.7,33.8C122.7,520.6,126.2,524.2,128.5,521.9L128.5,521.9z"/>
<path class="st2" d="M170.7,520.2c0,9.9-5.2,68.6,12.1,58.7c7.9-4.5,11.4-22.7,11.4-30.7c0-6.6-10.3-38-19.5-36.1"/>
<path class="st2" d="M130.7,456.2c-15.8,0-33.3-2.5-48.3,3.6c-12.1,4.9-32,24.4-15.4,36c18.2,12.9,89.8-28.3,67.7-43.7"/>
<path class="st2" d="M210.7,416.2c-17.7-6.9-37.7-7.9-56.1-13.2c-10.6-3-18.4-3.8-27.8,3.1c-6.2,4.6-15.2,14.6-8.8,22.6
	c3.6,4.5,12.2,4,17.4,3.7c12-0.7,23.4-3.8,35.5-4.3c8.9-0.4,15.4,0,24.1-3.7c3.7-1.6,25.1-10.2,11.9-16.3"/>
<path class="st2" d="M210.7,472.2c-5.8,14.3-3.9,28.6-4,43.8c0,7.9-3.9,42.3,11.6,31.6c11.7-8.1,8.3-32,8.3-43.6
	c0-9.8,3.1-38-12-39.8"/>
<path class="st2" d="M274.7,384.2c-6.9-7.7-46.5-64.2-55.8-31.3c-3.3,11.9,11.2,20.8,19.6,25.5c5.5,3.1,34.8,17.3,32.2-2.2"/>
<path class="st2" d="M274.7,444.2c-5.1,9.9-31.1,77.1-4,72c8.9-1.7,15.4-29,17.2-36c2.4-9.1,4-15.6-0.7-24.4
	c-3-5.7-10-14.9-16.6-7.6"/>
<path class="st2" d="M338.7,396.2c-12.8-8.4-21.2-24.5-23.5-39.8c-2.1-14.2,11.2-40.5,29.3-30.4c11,6.1,19,30.7,20.1,42.2
	c1.5,17.5-5.8,35.2-25.9,36"/>
<path class="st2" d="M346.7,456.2c-15.7-22.5-55,38.4-44.7,57.4c8.5,15.7,24.4,1,32.9-6.1c12.9-11,17.2-27.1,19.8-43.3"/>
<path class="st2" d="M438.7,460.2c0-13.4,0.2-26.9-0.1-40.3c-0.1-6.6-2.5-17.4,1.4-23.2c3.5-5.5,13.4-9.1,19-11.4
	c21.7,13.9,21,85.6-12.3,79"/>
<path class="st2" d="M414.7,508.2c-13.7,5-32.6,10-43.4,20.6c-9.4,9.3-19.8,33.4-8.3,44c13.3,12.2,38.5-1.3,47-12.3
	c10.5-13.6,12.8-27.7,12.6-44.3"/>
<path class="st2" d="M498.7,556.2c0-14.4-1.8-29.7-0.6-44c1.1-12.8,15.8-30.2,28.8-21.6c6.5,4.3,6.8,8.5,7.9,15.4
	c1.3,7.8,4.1,18.5,3.2,26.4c-0.8,6.9-13.3,42.1-23.4,23.9"/>
<path class="st2" d="M466.7,604.2c-15.3-1.8-29-7.8-44.1-0.5c-13.4,6.5-29.4,22.3-17.5,38.1c8.5,11.4,29.4,6.8,40.8,2.6
	c16.8-6.2,31-17.1,24.8-36.3"/>
<path class="st2" d="M570.7,644.2c-6.9-10.5-9.8-35.9-7.9-48c1.5-9.6,15.4-44.8,31.4-32.8c6.3,4.7,4.3,14.1,5.5,20.8
	c1.5,8.2,3.7,15.5,3.3,24c-0.5,9.5-5.9,54.7-24.3,40.1"/>
<path class="st2" d="M518.7,680.2c-16.6,0-39.8-4.1-56,0.3c-16.8,4.6-39.1,28.8-26,45.2c11.1,14,35.2,13.7,50.1,6.8
	C503,725,526,718,522.7,696.2"/>
<path class="st2" d="M642.7,704.2c-7.4-14.9-34.4-61.3-7.7-70.2c13.5-4.5,18.1,7.5,23.8,18.1c7.7,14.1,10.4,25,3.9,40.2"/>
<path class="st2" d="M622.7,752.2c-13.8,0.1-41.6-29.6-54.9-8.4c-12.5,20.2,28.5,27.1,38.9,16.4"/>
</svg>
