<svg id="Layer_1" data-name="Layer 1" xmlns="http://www.w3.org/2000/svg" viewBox="0 0 4372.72 2099.58"><defs><style>.cls-1{fill:#f7ec27;opacity:0.45;}.cls-2,.cls-3,.cls-4,.cls-5{fill:#82cfcb;}.cls-2{opacity:0.07;}.cls-3{opacity:0.15;}.cls-4{opacity:0.09;}.cls-5{opacity:0.22;}.cls-6{font-size:607.88px;font-family:COCOGOOSE, COCOGOOSE;}.cls-10,.cls-6{fill:#231f20;}.cls-7{letter-spacing:-0.12em;}.cls-8{letter-spacing:-0.14em;}.cls-9{letter-spacing:-0.06em;}</style></defs><title>reformationArtboard 16</title><path class="cls-1" d="M2637.05,372.26c316-24.42,438.2,207,378.9,331.55,0,0-209.34-49.27-322.9,16-118.41,68-279.8,161.27-279.8,161.27-41.32-15.2-46.75-69.75-72-137.29C2287.41,599.74,2398.25,390.72,2637.05,372.26Z"/><path class="cls-2" d="M3286,1074.53c59.7-83,144-191.43,222-65.88s117.58-68.6,197.48-39.24,584.9,497.58,424.67,625.13-1036.06,332.4-1078.05,92S3225.7,1158.46,3286,1074.53Z"/><path class="cls-3" d="M2158.27,1069S2308.41,883.41,2399,857.89s-119.19,168.34,0,174.33,155.25-131.57,304.64-147.65,60.5,177.65,198.47,147.65,36-208.41,180-149.2S3358,871.1,3508,1008.65s299.94,636.33,144,665.88-1643.67,186.41-1691.66,0S2158.27,1069,2158.27,1069Z"/><path class="cls-4" d="M1336.43,1056.42s222-388.65,425.91-395.39,130,210,311.94,196.86,281.94-135.52,287.94,10.4,257.95,794.76,102,812.27-1157.77,141.93-1265.75-46.25,144-548.11,144-548.11Z"/><path class="cls-5" d="M178.53,1656.74S569.43,926.36,656.25,883s-51.67,168.84,68.31,186,126-215.75,254.95-234.26,45,203.87,135,215.65,52.79-319.48,169.43-199.89,214.49,288,214.49,288,240,458.72-24,542.13S112.41,1867.34,178.53,1656.74Z"/><text class="cls-6" transform="translate(398.91 1606.53)">P<tspan class="cls-7" x="408.18" y="0">A</tspan><tspan class="cls-8" x="797.52" y="0">T</tspan><tspan class="cls-9" x="1119.99" y="0">A</tspan><tspan x="1548.84" y="0">GONIA</tspan></text><path class="cls-10" d="M270.9,1644.45c-.8-7.42,3.47-14.37,7.56-20.22,5.27-7.53,11.64-14.27,18-20.86,14.64-15.09,27.91-31,41.12-47.39,16.47-20.44,33.11-40.81,48.76-61.89,8-10.77,15.78-21.71,23.69-32.54,7.42-10.16,15.3-20,22.54-30.28,14.82-21.07,27.81-44,47.52-61,2.44-2.11-1.11-5.63-3.54-3.54-17.52,15.14-29.89,35-42.76,54-14.6,21.54-30.74,42.13-46.09,63.15-16.74,22.91-34.64,45-52.43,67.07-13.47,16.73-27,33.08-41.92,48.47-7,7.18-13.9,14.55-19.6,22.82-4.41,6.4-8.76,14.19-7.9,22.24.34,3.17,5.34,3.2,5,0Z"/><path class="cls-10" d="M522.36,1118c7.2-7.39,10.83-17,16.7-25.3,6.95-9.84,16.31-18,24-27.28,7.86-9.5,14.86-19.74,22.37-29.52,8.2-10.67,16.56-21.22,24.95-31.74,15.77-19.77,31.81-39.1,49.18-57.5,16.37-17.33,33.77-33.8,48.15-52.88C722,874.83,734.31,854.56,749.1,836c14.4-18,30.06-35,45.73-52s31.34-33.79,45.88-51.68c14.05-17.29,25.7-35.84,38-54.37s26.62-38.54,46.36-49.55c20.23-11.28,42.86-6.73,64.15-1.48a61.44,61.44,0,0,1,25.43,12.8c6.6,5.48,12.5,11.74,19.16,17.15,14.1,11.47,29.86,15.43,47.46,10.08,17.82-5.42,34.83-15.84,53.2-5.93,16.56,8.93,27.87,25.66,39.46,39.92,6.78,8.34,14,16.3,20.66,24.76,7.83,9.95,15.28,20.18,22.7,30.43,14,19.32,28,38.54,41,58.59,12.85,19.88,25.18,40.1,38.3,59.81,6.52,9.8,13.24,19.47,20.3,28.88s15.14,18,22,27.45c6.47,8.94,10.75,19.1,15.38,29a145.12,145.12,0,0,0,17.46,28.2c15.07,19.35,28.38,39.84,42.86,59.63,7.06,9.65,14.39,19.09,22.12,28.21,2.08,2.46,5.61-1.09,3.54-3.54-16.69-19.68-31.33-40.94-45.81-62.25-6.55-9.63-13.87-18.57-20.9-27.84-7.17-9.44-12.45-19.46-17.37-30.2-4.61-10.07-9.51-19.86-16.58-28.46-7.7-9.37-15.41-18.62-22.56-28.43-14.27-19.57-27.18-40.09-40.11-60.56-25.7-40.67-53-80.83-83.33-118.21-6.36-7.83-13.12-15.3-19.42-23.18-6.07-7.59-12.1-15.25-18.92-22.18-12.35-12.55-27.3-22-45.53-18.74C1091,655.7,1074,669.14,1054.31,663c-17-5.29-27.77-21.17-41.8-31.18-8-5.73-16.6-8.43-26.09-10.71-10.24-2.45-20.7-4.66-31.27-4.87-21.49-.41-39,9.69-53.75,24.67-15.71,16-27.24,35.06-39.28,53.76-12.77,19.84-27.76,38.12-43.39,55.75-31,35-64.36,67.77-91.12,106.27C714,876.28,701,896.07,684.51,913.35c-17.67,18.5-35.72,36.67-52.39,56.08C615.3,989,599.46,1009.57,583.68,1030c-8.13,10.53-15.69,21.6-24.17,31.85-7.32,8.84-15.81,16.73-22.89,25.76-6.65,8.5-10.19,19-17.79,26.82-2.25,2.31,1.28,5.84,3.54,3.54Z"/><path class="cls-10" d="M1374.19,998c23.63-23.3,49.69-44,73.35-67.23,25-24.53,49-50.06,73.11-75.41,46.28-48.65,90.32-99.41,137.15-147.54a836.28,836.28,0,0,1,72.8-67.07c12.48-10.11,25-20.17,37-30.91,12.3-11.06,23.71-23.07,35.26-34.91,11.35-11.63,22.73-23.23,34.56-34.37,10.88-10.26,22.37-19.73,33.76-29.4,19.16-16.26,37.8-33.37,59.13-46.82,20.13-12.69,44.31-22.85,68.39-16.54,13.07,3.43,24.91,11.29,34.14,21.05,3.25,3.43,6,7.48,9.89,10.25,4.33,3.1,9.7,4.16,14.91,4.59,13.09,1.1,24.35-4.44,36.24-8.93s22.66-5.82,33.43,1.66c18.18,12.63,26,35.52,41.31,51,8.8,8.93,20.51,16.39,33.51,16,11.87-.39,24.51-10.88,34.71-.94,13.61,13.27,25.22,28.78,35.92,44.43,25,36.61,45.42,76.38,63.85,116.65,17.56,38.35,33.26,77.56,47.35,117.31,8.53,24.07,17.51,48.61,22.91,73.63a24.77,24.77,0,0,1,.89,5.77c0,3.22,5,3.22,5,0,.09-6.21-2.41-13-4-18.86-3.5-12.74-7.52-25.33-11.69-37.87-12.58-37.84-26.86-75.14-42.53-111.8-18-42-37.78-83.47-61.5-122.57a451.76,451.76,0,0,0-35.13-50.66,226.37,226.37,0,0,0-18.21-20.27c-9.22-8.91-20-3.87-30.7-1-28.37,7.6-45.36-23.87-58.81-43.05-5.94-8.47-12.53-17-21.29-22.72-8.93-5.83-18.82-6.77-29-3.94-13.07,3.64-24.89,11.49-38.85,11.35-6.33-.06-12.84-1.15-17.56-5.65-4.11-3.92-7.43-8.54-11.69-12.35-18.17-16.28-41.13-23.48-65.14-18.06s-45.18,20.38-64.18,35.47c-9.92,7.88-19.48,16.2-29.09,24.46-10.82,9.29-22,18.19-32.5,27.81-24.49,22.34-46.36,47.31-70.5,70s-51.28,41.89-75.77,64.19c-50.27,45.77-94.56,98-140.6,147.9-47.17,51.11-94.84,102.43-147,148.5-12.32,10.89-24.6,21.82-36.32,33.36-2.3,2.26,1.24,5.8,3.54,3.54Z"/><path class="cls-10" d="M2232.41,1069.47c11.77-21.54,30.05-38.54,49.53-53.1,8.93-6.67,18.27-12.73,26.89-19.82a357.53,357.53,0,0,0,26.86-25c17.24-17.43,34.12-34.85,52.68-50.89,21.07-18.2,42.39-36.12,63.78-53.95q63.8-53.17,127.53-106.41c20.44-17.07,40.07-35.21,61.06-51.61a350.91,350.91,0,0,1,64.8-40.47c46.77-22.34,98.57-37.94,150.84-36,24.84.91,45.76,12.85,67.5,23.61,21.4,10.59,43.48,19,63.9,31.58,22.08,13.6,42.24,30.22,63.11,45.56,22.17,16.29,44.34,32.71,67.25,47.94,21.69,14.41,44,27.9,64.82,43.64,21.49,16.27,42.78,33,63.74,49.94,10.56,8.53,20.49,17.85,31.07,26.33,9.3,7.45,19.55,13.56,29.21,20.51,10.59,7.61,20,16.65,30,25s20.91,14.94,31,22.92c19.51,15.39,37,33.12,56.43,48.63,19,15.15,42.91,23.48,59.44,41.65,8.13,8.93,14.71,19.14,22.39,28.45,2,2.48,5.57-1.07,3.54-3.54-7.91-9.59-14.64-20.16-23.13-29.27-8.14-8.74-18-15.3-28.22-21.28-11.17-6.51-22.16-12.8-32.24-21s-19.41-16.67-28.94-25.2c-9.13-8.17-18.32-16.28-28-23.79-10.59-8.2-21.92-15.25-32.11-24-9.38-8-18.45-16.4-28.54-23.56-11-7.78-22.47-14.66-32.59-23.56-20.55-18.07-42.11-34.78-63.71-51.55-20.7-16.08-41.22-31.85-63.21-46.16-46.52-30.28-90.9-63.16-135.49-96.18A330.66,330.66,0,0,0,2951,662.57c-11.13-5-22.21-9.77-33.07-15.3-10.1-5.14-20.22-10.34-30.91-14.16-23.28-8.3-48.89-6.91-73-3.75a339.34,339.34,0,0,0-74.49,19c-23.59,8.81-46.72,19.44-68.13,32.73-21.08,13.08-40.52,28.54-59.15,44.87-42.56,37.3-86.51,73.12-130,109.28-21.76,18.07-43.53,36.12-65.14,54.37-20.6,17.39-41.6,34.53-60.68,53.61-17.31,17.31-33.64,35.75-52.77,51.12-18.77,15.08-39,27.41-55.57,45.22a136.57,136.57,0,0,0-19.95,27.34c-1.54,2.83,2.77,5.35,4.32,2.52Z"/><path class="cls-10" d="M3389.28,1004.38c27-16.84,54.12-33.65,80.71-51.21,22.15-14.62,43.23-31.1,66.56-43.84,21-11.47,44-21.4,67.85-24.8a77.84,77.84,0,0,1,33.91,2.21,155.54,155.54,0,0,1,37.2,17.15c23.19,14.41,43.06,33.49,61.74,53.23,9.14,9.66,18.18,19.18,28.23,27.93,10.61,9.23,21.62,18,31.69,27.85,11,10.74,18.7,22,26.21,35.22,8.41,14.77,16.45,29.76,24.57,44.68,10,18.32,19.94,36.66,30.56,54.62,4.12,7,8.33,13.92,12.92,20.6,2.84,4.13,5.79,8.53,9.6,11.85,2.42,2.11,6-1.42,3.54-3.54-8.5-7.41-14.28-19-20-28.49-9.61-16.07-18.62-32.5-27.6-48.92-8.72-16-17.32-32-26.21-47.88-6.06-10.82-12-21.81-20.14-31.21-18.7-21.53-42.94-37.28-62.3-58.17-18.37-19.83-37.48-39.23-59.58-54.95-19.58-13.92-43.89-27.34-68.46-28.13-23.48-.75-47,7.63-68,17.26-22.83,10.44-42.79,24.47-63.4,38.6-26.82,18.39-54.31,35.78-81.9,53l-20.24,12.61c-2.73,1.7-.22,6,2.52,4.32Z"/><path class="cls-10" d="M686.06,900.24c-.78,12.83-9.31,24.8-15.67,35.51-6.52,11-13.89,22.6-16.06,35.39-2,11.47,2.11,24.84,13.41,30,13.22,6.09,27.81-4.71,37.24-13.09,15.68-13.93,30.48-29.08,45.12-44.1,12.3-12.62,25-24.83,40.73-33.12,7.66-4,15.44-6.44,24.13-6.45a110.83,110.83,0,0,1,27,3.72,132.6,132.6,0,0,1,25.46,9c8.12,3.92,15.66,8.93,23.8,12.81,7.36,3.5,15.31,6.22,23.57,5.89s16.18-3.31,23.62-6.43c16.32-6.83,31.11-16.32,45.45-26.58,14.76-10.56,29.9-21.56,47.17-27.65a67.92,67.92,0,0,1,55.31,4c31.49,16.38,51.56,46.31,75.11,71.69,8.87,9.56,18.68,18.07,28.4,26.73s19.48,17,29.92,24.58c15.45,11.23,42.12,29.36,60.26,13.58,10-8.71,15.92-21.67,20.43-33.87,5.3-14.32,8.76-29.31,11.46-44.32,1.11-6.17,2.07-12.37,2.92-18.58.43-3.15-4.38-4.51-4.82-1.33-3.77,27.36-8.67,57.19-22.93,81.29-5.65,9.55-13.25,18.76-25.3,17.86-11.79-.87-23-7.76-32.61-14.14a297.52,297.52,0,0,1-30.83-24.21c-8.61-7.53-17.43-15-25.56-23-23.56-23.26-41.84-51.79-69-71.32-14-10.07-30.18-17.81-47.7-18.2-16.25-.37-31.8,5.58-45.75,13.45-29.69,16.76-55.64,43.93-90.22,50.83-19,3.78-34.74-10-50.79-17.6a137.28,137.28,0,0,0-47.76-12.82c-16.17-1.24-29.69,3.79-43,12.72-14.34,9.61-25.91,21.92-38,34.12-13.59,13.75-27.15,28.3-42.12,40.57-6.08,5-13.65,10.31-21.77,10.78-7.9.45-14.07-5.56-16.64-12.62-4.3-11.84,2.29-25,7.86-35.23,6.32-11.61,14.05-22.54,19.24-34.74a45.38,45.38,0,0,0,3.89-15c.19-3.21-4.81-3.2-5,0Z"/><path class="cls-10" d="M1644.78,726.94c2.67-8.41,12.21-13.18,19.62-16.7,8.2-3.89,16.88-7.49,25.76-9.48,9.8-2.19,20.12-1.56,28,5.26,7.45,6.45,11.81,15.88,14.1,25.29,4.46,18.32,2.2,37.59,7,55.85A59.9,59.9,0,0,0,1768.86,825c27.76,14.67,62.76,7.92,90-4.49,14.95-6.8,29.55-14.66,45.44-19.12,15.08-4.23,32.17-4.85,43.23,8.08,6.85,8,9.61,18.56,12.34,28.5a206.13,206.13,0,0,0,9.83,27.53c8.36,19.37,15.57,38.58,30,54.45,21.08,23.24,57.11,49.88,90,35.71,17.71-7.62,26.29-24.09,33.83-40.77,9.1-20.12,21.61-37.49,37-53.32,7-7.15,14-13.18,23.43-16.85a75.63,75.63,0,0,1,27.76-5.18c9.21,0,18.57,2.41,27.69,3.7,25.88,3.67,51.86,6.72,77.84,9.65,24.3,2.74,48.66,5.62,73.07,7.15,2.9.18,5.8.36,8.7.34,3.22,0,3.22-5,0-5-20.44.12-41.23-3.09-61.51-5.26-28.15-3-56.28-6.29-84.34-10-8.84-1.17-17.71-2.28-26.48-3.87-15.49-2.81-31-1.78-45.69,4.31-18.09,7.52-31.53,24.4-43,39.65A148.34,148.34,0,0,0,2121.68,907c-4.07,8.72-7.65,17.74-12.93,25.83-11.28,17.28-30.45,25-50.47,20.15-18.4-4.46-34.71-16.31-48.1-29.3a114.82,114.82,0,0,1-18.31-22.07c-6-9.74-10.25-20.38-14.62-30.9-4.06-9.77-8.45-19.21-11.3-29.43-2.64-9.44-4.88-19.18-9.68-27.81-18-32.41-56.86-17.33-82.93-5.22-14.27,6.63-28.07,13.51-43.52,17-16.49,3.73-34.37,4.53-50.53-1.1a55.07,55.07,0,0,1-35.18-38.27c-4.8-18.25-2.56-37.53-7-55.85-4.07-16.72-15.13-33.57-33.64-35.28-8.88-.82-17.84,1.67-26.09,4.73-7.94,2.94-16,6.21-23.26,10.63-6.1,3.73-11.91,8.52-14.14,15.55-1,3.07,3.85,4.39,4.82,1.33Z"/><path class="cls-10" d="M2408.45,898.47c-14.83,19-17.66,49.6,3.81,65.21,10.27,7.47,23.54,8.1,35.34,4.22,18.06-5.94,35.21-16.66,51.25-26.66,17-10.57,33.37-22,50.17-32.84,17.07-11,34.35-22.48,54.34-27.2,9.46-2.23,19.12-3.41,28.73-4.78,11-1.57,21.43-2.37,32.49-.38,21,3.79,40.71,12.57,61.67,16.71,10.18,2,20.46,3.49,30.72,5.08,9,1.39,17.85,3.38,26.85,4.64,8.52,1.19,17.19,1.71,25.68,0,8.34-1.65,15.3-5.79,21.93-11,13.2-10.34,23.81-23.85,38.15-32.75,8.44-5.24,17.86-8.16,27.38-10.79a150.43,150.43,0,0,1,34-5.79c20-.8,38,5.42,54.62,16.23,8,5.17,15.29,11.15,23,16.71,8.32,6,17,11.53,25.66,17,17.16,10.88,33.48,22.55,49.54,35,14.51,11.25,29,22.56,44.24,32.82,26.79,18,60.4,37.28,94,32.75,27.22-3.67,53.16-21.33,62.82-47.62a65.11,65.11,0,0,0,3.81-20.86c.08-3.22-4.92-3.22-5,0-.76,29.85-23.52,53.3-51.35,61.25-32.35,9.25-65-6.67-92-23.54-30.94-19.35-57.84-44.25-88.24-64.33-16.58-10.95-33.52-21.13-49.35-33.18-13.58-10.33-28.09-20-44.74-24.46-18.57-5-38.26-2.84-56.69,1.72-17.18,4.25-32.55,10.1-46.12,21.67-12.21,10.4-23,24.63-37.8,31.45-17,7.81-36.65,1.94-54.06-1-19.77-3.38-39.62-5.74-58.86-11.64-18.52-5.68-37.1-13-56.8-12.49-9,.23-18.13,2.09-27.06,3.39-9.54,1.39-19.09,3-28.26,6.09-17.72,5.9-33.82,17.19-49.36,27.31-16,10.43-31.74,21.32-48,31.39-7.89,4.88-15.89,9.57-24.1,13.91-8.42,4.45-17.22,9.28-26.4,11.92-12.26,3.52-25.48,1.22-34.17-8.59-8.17-9.23-10.32-22.59-7.48-34.34A49.43,49.43,0,0,1,2412,902c2-2.51-1.55-6.07-3.54-3.54Z"/><path class="cls-10" d="M3476.24,1058c11.39,10.39,25.08,18.44,40.48,20.87,15.18,2.39,30.43-.95,43.7-8.55,25-14.31,43.74-37.45,69.37-50.91,12.8-6.72,28.54-11.21,42.67-6,14.95,5.51,25.86,19.28,39.24,27.59,7.34,4.57,15,8.61,22.1,13.6,6.92,4.88,12.8,11,18.55,17.13s11.26,12.29,17.75,17.51c3.85,3.1,7.61,5.88,12.54,6.78,11.73,2.14,24.61-.94,36.13-3,6.66-1.22,13.31-2.54,20-3.55,5.05-.76,10.61-1.7,15.71-.8,3.15.56,4.5-4.26,1.33-4.82-9.14-1.63-19.09.81-28.07,2.44-11.8,2.14-23.72,4.91-35.76,5.3-4.14.13-8.8.19-12.57-1.77-6.89-3.57-12.72-10.1-18-15.66-5.58-5.88-10.92-12-17-17.41s-12.89-9.72-19.85-13.84c-7.72-4.58-15.49-9-22.48-14.72-5.62-4.57-11-9.51-16.94-13.61-11.55-7.89-24.65-9.94-38.24-6.95-27.54,6.08-48.84,28.06-70.12,45-13.69,10.93-28.62,20.91-46.66,21.94-19.06,1.09-36.58-7.53-50.39-20.13-2.37-2.16-5.92,1.36-3.54,3.54Z"/></svg>