<svg id="Layer_1" data-name="Layer 1" xmlns="http://www.w3.org/2000/svg" viewBox="0 0 5388.82 2168.17"><defs><style>.cls-1{fill:#fed8b8;}.cls-2{fill:#d4edf1;}.cls-3{fill:#fdf6b2;}.cls-4{fill:#d5eef6;}.cls-5{font-size:607.88px;fill:#231f20;font-family:COCOGOOSE, COCOGOOSE;}.cls-6{letter-spacing:-0.12em;}.cls-7{letter-spacing:0em;}</style></defs><title>reformationArtboard 17</title><path class="cls-1" d="M4488,567.23c183.45-142.08,775-286.5,819.48,238.37S5384,1897.54,5000,1734,4048,908,4488,567.23Z"/><path class="cls-2" d="M3670.91,659.1c171.68-140.56,936,264.85,880,688s-1000,252.26-1000,21.72S3542.91,763.9,3670.91,659.1Z"/><path class="cls-3" d="M2176.39,618.35c268.52-299,1295.54-287.46,1319.54-36.09s360,858.54-168,983-1208,119.69-1208-161.95S2024.85,787.07,2176.39,618.35Z"/><path class="cls-1" d="M1192.31,1396.77c60.78,334.15,1017,213.32,1104.65,22.11s-40.23-820.5-405.9-745S1095.69,865.6,1192.31,1396.77Z"/><path class="cls-4" d="M1083.34,613.56c219.43-48.54,643.12,12,646.43,243.22s62.62,687.65-442.06,577.76S617.62,978.22,771.31,805.09,957.76,641.34,1083.34,613.56Z"/><path class="cls-3" d="M176.87,398.78c99.23-161,398.66-189.17,518.9-40.74S1168,1500.09,944,1683.28s-846.24,131.4-827.12-190.7S65.73,579.08,176.87,398.78Z"/><text class="cls-5" transform="translate(299.86 1258.47)">REFORM<tspan class="cls-6" x="2761.86" y="0">A</tspan><tspan class="cls-7" x="3151.2" y="0">TION</tspan></text></svg>