<svg id="Layer_1" data-name="Layer 1" xmlns="http://www.w3.org/2000/svg" viewBox="0 0 670.77 648.47"><defs><style>.cls-1{fill:#ce58a0;}.cls-2{fill:#fed714;}</style></defs><title>cycleArtboard 18</title><path class="cls-1" d="M112.67,429.4c7.06,10,154.74,188.85,260.52,155.11S535.31,420.2,535.31,420.2,414.93,522.52,364.84,511c-54.13-12.41-129.64-147.24-155-170.18C190.56,323.41,94.85,404.21,112.67,429.4Z"/><path class="cls-1" d="M450.47,425.64c-19.26-9.93,97.8-94.65,126.42-72.81s8.07,99.53-13.24,115.26,13.9-56.89-23.71-66.85S478.88,440.29,450.47,425.64Z"/><path class="cls-2" d="M523.45,270.16c19.43,10.56,90.81-25.81,90.86-47.1S536.12-10,367,62.38,228.85,231.05,228.85,231.05s91-158.69,218.9-96C484.57,153.05,493.94,254.12,523.45,270.16Z"/><path class="cls-2" d="M288.36,240.63c25.52,12.49-41.19,75.3-79.73,71.44S157,208.8,186.09,200.75s6.54,73.77,32.61,68.19S245.31,219.57,288.36,240.63Z"/></svg>