<svg id="Layer_1" data-name="Layer 1" xmlns="http://www.w3.org/2000/svg" viewBox="0 0 790 681"><defs><style>.cls-1{fill:#f7ec13;}.cls-2{fill:#eaf6f9;opacity:0.42;}.cls-3{fill:#43a5dc;}.cls-4{fill:#afd136;}</style></defs><title>iconArtboard 23</title><circle class="cls-1" cx="367.45" cy="340.04" r="317.33"/><circle class="cls-2" cx="416.54" cy="349.05" r="332.95"/><circle class="cls-3" cx="415" cy="351.65" r="313"/><path class="cls-4" d="M244,163.91C212,189,206,211,256,211s20,89.37,84,113.69,75,50.72,75,50.72-95-44.57-111,12.51S270.21,481,317.1,523,346,623,395,623s127-166.07,99-220-48-36.69-48-36.69-56-33.76-22-64.52,60-18.54,60-52.65-10-69.08,0-97.6S476,99,428,99s-70-20-80,24-8,55.29-24,58.65S244,163.91,244,163.91Z"/><path class="cls-4" d="M632,151.51s-50-14.69-62,12.4S576,179,618,215s82,12.22,82,34.11,34,57.15,16,71.52-90-39.7-86,25.34,46,66.79,38,108.91-41.87,105.2-8,72.12,79.7-90.27,68-175.35S713.51,196.56,672.75,174s-35.26-42.52-35.26-42.52L613.82,109.9Z"/><path class="cls-4" d="M162,495s56-46,72,0,18,70,0,76,5.44,22-42.28,0S162,495,162,495Z"/></svg>