<svg id="Layer_1" data-name="Layer 1" xmlns="http://www.w3.org/2000/svg" viewBox="0 0 344.93 394.67"><defs><style>.cls-1,.cls-2,.cls-4{fill:#fff;}.cls-1{stroke:#f7ec13;}.cls-1,.cls-4{stroke-miterlimit:10;stroke-width:67.22px;}.cls-3{fill:#f7ec13;}.cls-4{stroke:#434099;}.cls-5{fill:#ee1f51;}</style></defs><title>iconArtboard 3</title><line class="cls-1" x1="36.27" y1="163.6" x2="322.27" y2="163.6"/><line class="cls-1" x1="36.27" y1="269.87" x2="322.27" y2="269.87"/><line class="cls-2" x1="61.64" y1="60.95" x2="282.64" y2="355.61"/><path class="cls-3" d="M35.57,76.19l22,29.33,52.82,70.42,63.88,85.18,55,73.32q13.46,18,26.93,35.9l.39.52c4.9,6.53,9.86,11.62,18,13.87,7.23,2,16.85,1.09,23.26-3s12.12-10.34,13.87-18c1.68-7.39,1.72-16.91-3-23.26l-22-29.33L233.9,240.63,170,155.45,115,82.13q-13.46-18-26.93-35.9l-.39-.52c-4.9-6.53-9.86-11.62-18-13.87-7.23-2-16.85-1.09-23.26,3s-12.12,10.34-13.87,18c-1.68,7.39-1.72,16.91,3,23.26Z"/><line class="cls-4" x1="55.29" y1="152.37" x2="341.29" y2="152.37"/><line class="cls-4" x1="55.29" y1="258.64" x2="341.29" y2="258.64"/><line class="cls-2" x1="80.66" y1="49.72" x2="301.66" y2="344.38"/><path class="cls-5" d="M54.59,65l22,29.33L129.4,164.7l63.88,85.18,55,73.32q13.46,18,26.93,35.9l.39.52c4.9,6.53,9.86,11.62,18,13.87,7.23,2,16.85,1.09,23.26-3s12.12-10.34,13.87-18c1.68-7.39,1.72-16.91-3-23.26l-22-29.33L252.92,229.4,189,144.22,134,70.9q-13.46-18-26.93-35.9l-.39-.52c-4.9-6.53-9.86-11.62-18-13.87-7.23-2-16.85-1.09-23.26,3S53.3,34,51.55,41.69c-1.68,7.39-1.72,16.91,3,23.26Z"/></svg>