<svg id="Layer_1" data-name="Layer 1" xmlns="http://www.w3.org/2000/svg" viewBox="0 0 446.54 383.98"><defs><style>.cls-1{fill:#ed2024;}.cls-2{fill:#d5e08d;}.cls-3{fill:#65bc46;}</style></defs><title>iconArtboard 4</title><path class="cls-1" d="M79.83,82.4S.83,213,85.83,295s323.29,72,323.29,72,18.71-181.57-82.29-254.64S79.83,82.4,79.83,82.4Z"/><path class="cls-1" d="M73,78.41C58.3,102.8,48.15,131.36,42.66,159.18c-4.79,24.3-5.84,49.45-.49,73.76A134.22,134.22,0,0,0,82.3,302.48c32.23,29.67,76.6,44.41,118.47,54.13,43.91,10.19,89.08,15.1,134,17.34,24.24,1.21,48.93,2.3,73.2.91l1.1,0c4.59-.19,7.44-3.48,7.89-7.89,1.86-18.19,1.71-36.75.91-55-1.7-39-7.68-78.5-21.41-115.16-7.53-20.11-17.29-39.43-30.34-56.54a175.7,175.7,0,0,0-53.08-46.17c-44.31-25.33-96.54-33.65-147-32-28.86.93-59.22,4.08-87,12.39l-1.3.37C68,77.65,72.15,92.89,81.93,90c22-6.47,44.72-9.57,67.22-11.28,46.52-3.53,95.3.57,138.26,19.94,21.75,9.8,41.84,23.06,57.85,40.85,13.61,15.11,24.08,32.95,32.1,51.58,15.06,35,21.86,73.47,24.27,111.28q1.35,21.11.82,42.29c-.18,7.06-1.11,14.2-1.12,21.25,0,.33-.06.67-.09,1l7.89-7.89c-19.22.8-38.54.46-57.75-.19-41.76-1.4-83.59-5.08-124.66-12.89-41.62-7.91-85-19.52-120.17-44.14-18.83-13.19-34.75-32-43.29-53.75-8.79-22.37-10.43-46.54-7.68-70.25,3.73-32.23,15.08-62.23,30.22-90,.27-.49.56-1,.85-1.46C91.9,77.66,78.26,69.72,73,78.41Z"/><path class="cls-1" d="M32.35,38c23,31.68,48.58,61.7,74.78,90.74,53.29,59.07,111.87,114.8,178.3,159,37.42,24.87,78.09,46.19,121.71,57.76,9.34,2.48,13.32-12,4-14.46-37.7-10-72.89-27.57-105.79-48.27-34.74-21.85-67.07-47.35-97.67-74.65C157.33,163.13,111.2,113.37,68.91,60.86Q63.77,54.47,58.7,48l-2.4-3.08-1-1.25-.06-.08Q53.5,41.3,51.74,39c-2.17-2.85-4.34-5.71-6.44-8.61-2.4-3.3-6.49-4.84-10.26-2.69-3.26,1.85-5.06,7-2.69,10.26Z"/><path class="cls-1" d="M201.88,314.48c-23.05-15.2-38.58-38.41-40.78-66.23-1.56-19.76,2.22-39.11,9.23-57.65.61-1.61,1.25-3.21,1.91-4.8-.71,1.72.53-1.2,1-2.18s1-2.12,1.52-3.16l-4.48,3.45c16.13-5.52,33-9.43,49.66-12.68,33.59-6.53,68.93-9.87,103-4.83C342.68,169.33,362,175.24,379,186c8.19,5.16,15.73-7.82,7.57-13-30.26-19-67.2-24.37-102.37-23.83-30.63.47-61.3,5.25-91,12.6-8,2-16,4.15-23.83,6.64-4.09,1.3-7,3.05-8.87,7A156.18,156.18,0,0,0,145.88,234a108.14,108.14,0,0,0,8.86,48.91c8.29,18.62,22.7,33.38,39.57,44.5,8.08,5.33,15.6-7.66,7.57-13Z"/><path class="cls-1" d="M81.3,258.59c-14.76-19.36-11-45.21-4.41-67s17-42.2,28.76-61.5c2.61-4.27,5.28-8.52,8.16-12.61l-4.48,3.45c17.25-4.14,34.81-7.19,52.34-9.85,35.15-5.32,71-8.49,106.6-6.43,19.21,1.11,38.49,3.94,56.57,10.74,9,3.4,13-11.09,4-14.46C297.2,89,261.62,88.09,228.25,89.48c-31.5,1.31-62.92,5.38-93.92,11-8.41,1.54-16.79,3.2-25.13,5.06a33.48,33.48,0,0,0-3.84.88c-3,1-4.36,3.22-6,5.62a311.94,311.94,0,0,0-31.43,59.75c-11.37,28.9-20.2,67.3.4,94.33,2.47,3.25,6.43,4.87,10.26,2.69,3.19-1.82,5.14-7,2.69-10.26Z"/><path class="cls-1" d="M266.61,325.14c-8.17-4.64-15.7-11-18.71-20.23-2.36-7.25-2-14.78-.28-22a69.62,69.62,0,0,1,7.15-18.11c1.33-2.43,4.28-5.47,5-8.11-.87,3.1-4.16,3.18-1.22,1.88,1.58-.7,3.1-1.59,4.66-2.34a149.58,149.58,0,0,1,15.6-6.57c17.06-6.25,35-10.44,53.26-10.76,25.19-.45,49.31,7.3,68.09,24.43,7.12,6.49,17.76-4.08,10.61-10.61C391.37,235,367.05,225.38,340.88,224c-21-1.07-42.29,3-62.09,9.76-9.58,3.29-20.74,6.82-29.21,12.6-3.15,2.15-5.29,6.46-7.12,9.7a93.26,93.26,0,0,0-8.82,21c-2.8,10.25-3.52,21.54-.19,31.75,4.23,13,13.93,22.57,25.6,29.2,8.41,4.77,16-8.18,7.57-13Z"/><path class="cls-2" d="M99.13,78.3s-79,118,6,192,323.29,65,323.29,65,18.71-164-82.29-230S99.13,78.3,99.13,78.3Z"/><path class="cls-3" d="M92.65,74.52c-15.3,22.91-26.08,50.65-31.24,77.58C57,175,56.75,199,63.79,221.34c7.8,24.82,24,45.68,44.67,61.18,33.75,25.27,77.26,37,118,45.1,42.94,8.5,86.77,12.66,130.47,14.52,23.35,1,47.08,2,70.45.7l1,0c4.4-.16,7-3.33,7.5-7.5,2-17.3,1.73-35,.77-52.38-2-37-9-74.05-24.1-108.06a186,186,0,0,0-33.43-51.43c-16-17.2-35.89-30.25-57.23-39.86C277.81,63.69,228.54,57.75,180.51,59.7a460.33,460.33,0,0,0-54.85,5.62c-9.09,1.47-18.39,3-27.28,5.43l-1.24.32c-9.32,2.48-5.37,17,4,14.46,20.72-5.52,41.93-8.21,63.1-9.86,44.83-3.51,91-.64,133.65,14.31,21.78,7.63,43.16,18.61,60.47,34,14.75,13.14,26.49,29.07,35.6,46.56,16.55,31.75,24.34,67.84,27.15,103.33A386.5,386.5,0,0,1,422.17,314c-.17,6.77-1.07,13.56-1.15,20.31a9.75,9.75,0,0,1-.1,1l7.5-7.5c-18.48.69-37,.42-55.5-.1-40.49-1.14-81.07-4.2-121.08-10.7-40.91-6.65-83.49-16.16-119.79-37-18.91-10.84-35.44-25.5-46.16-44.86-11.06-20-14.14-42.93-12-65.46,2.93-31,15.06-59.89,30.81-86.23.29-.48.6-.94.91-1.4C111,74,98,66.52,92.65,74.52Z"/><path class="cls-3" d="M51.65,35.09c23,31.68,48.58,61.7,74.78,90.74,53.29,59.07,111.87,114.8,178.3,159,37.42,24.87,78.09,46.19,121.71,57.76,9.34,2.48,13.32-12,4-14.46-37.7-10-72.89-27.57-105.79-48.27-34.74-21.85-67.07-47.35-97.67-74.65C176.63,160.26,130.51,110.5,88.22,58Q83.07,51.6,78,45.14l-2.4-3.08-1-1.25-.06-.08q-1.77-2.3-3.53-4.6c-2.17-2.85-4.34-5.71-6.44-8.61-2.4-3.3-6.49-4.84-10.26-2.69-3.26,1.85-5.06,7-2.69,10.26Z"/><path class="cls-3" d="M221.19,311.61c-23.05-15.2-38.58-38.41-40.78-66.23-1.56-19.76,2.22-39.11,9.23-57.65.61-1.61,1.25-3.21,1.91-4.8-.71,1.72.53-1.2,1-2.18s1-2.12,1.52-3.16L189.57,181c16.13-5.52,33-9.43,49.66-12.68,33.59-6.53,68.93-9.87,103-4.83,19.8,2.94,39.14,8.84,56.17,19.55,8.19,5.16,15.73-7.82,7.57-13-30.26-19-67.2-24.37-102.37-23.83-30.63.47-61.3,5.25-91,12.6-8,2-16,4.15-23.83,6.64-4.09,1.3-7,3.05-8.87,7a156.18,156.18,0,0,0-14.66,58.57A108.14,108.14,0,0,0,174,280.06c8.29,18.62,22.7,33.38,39.57,44.5,8.08,5.33,15.6-7.66,7.57-13Z"/><path class="cls-3" d="M100.6,255.72c-14.76-19.36-11-45.21-4.41-67s17-42.2,28.76-61.5c2.61-4.27,5.28-8.52,8.16-12.61l-4.48,3.45c17.25-4.14,34.81-7.19,52.34-9.85,35.15-5.32,71-8.49,106.6-6.43,19.21,1.11,38.49,3.94,56.57,10.74,9,3.4,13-11.09,4-14.46-31.62-11.9-67.2-12.85-100.58-11.46-31.5,1.31-62.92,5.38-93.92,11-8.41,1.54-16.79,3.2-25.13,5.06a33.48,33.48,0,0,0-3.84.88c-3,1-4.36,3.22-6,5.62A311.94,311.94,0,0,0,87.25,169c-11.37,28.9-20.2,67.3.4,94.33,2.47,3.25,6.43,4.87,10.26,2.69,3.19-1.82,5.14-7,2.69-10.26Z"/><path class="cls-3" d="M285.91,322.26c-8.17-4.64-15.7-11-18.71-20.23-2.36-7.25-2-14.78-.28-22a69.62,69.62,0,0,1,7.15-18.11c1.33-2.43,4.28-5.47,5-8.11-.87,3.1-4.16,3.18-1.22,1.88,1.58-.7,3.1-1.59,4.66-2.34a149.58,149.58,0,0,1,15.6-6.57c17.06-6.25,35-10.44,53.26-10.76,25.19-.45,49.31,7.3,68.09,24.43,7.12,6.49,17.76-4.08,10.61-10.61-19.42-17.71-43.73-27.35-69.91-28.68-21-1.07-42.29,3-62.09,9.76-9.58,3.29-20.74,6.82-29.21,12.6-3.15,2.15-5.29,6.46-7.12,9.7a93.26,93.26,0,0,0-8.82,21c-2.8,10.25-3.52,21.54-.19,31.75,4.23,13,13.93,22.57,25.6,29.2,8.41,4.77,16-8.18,7.57-13Z"/></svg>