<svg id="Layer_1" data-name="Layer 1" xmlns="http://www.w3.org/2000/svg" viewBox="0 0 343.32 894.67"><defs><style>.cls-1{fill:#f7ec13;}.cls-2{fill:#fff;}.cls-3{fill:#a9509f;}</style></defs><title>iconArtboard 24</title><rect class="cls-1" x="165.8" y="-2.31" width="35.44" height="562.61"/><rect class="cls-1" x="23.73" y="410.31" width="319.59" height="478" rx="12" ry="12"/><rect class="cls-2" x="52.52" y="478.97" width="250" height="355.93" rx="11.41" ry="11.41"/><rect x="76.52" y="519.97" width="202" height="9"/><rect x="76.52" y="542.17" width="202" height="18.8"/><rect x="76.52" y="570.97" width="202" height="7"/><rect x="76.52" y="583.97" width="202" height="4"/><rect x="76.52" y="592.97" width="202" height="14"/><rect x="76.52" y="612.97" width="202" height="6"/><rect x="76.52" y="622.97" width="202" height="4"/><rect x="76.52" y="632.97" width="202" height="13"/><rect x="76.52" y="662.97" width="202" height="9"/><rect x="76.52" y="685.17" width="202" height="18.8"/><rect x="76.52" y="713.97" width="202" height="7"/><rect x="76.52" y="726.97" width="202" height="4"/><rect x="76.52" y="735.97" width="202" height="14"/><rect x="76.52" y="755.97" width="202" height="6"/><rect x="76.52" y="765.97" width="202" height="4"/><rect x="76.52" y="775.97" width="202" height="13"/><rect class="cls-3" x="142.07" width="35.44" height="562.61"/><rect class="cls-3" y="412.61" width="319.59" height="478" rx="12" ry="12"/><rect class="cls-2" x="34.79" y="481.28" width="250" height="355.93" rx="11.41" ry="11.41"/><rect x="58.79" y="522.28" width="202" height="9"/><rect x="58.79" y="544.48" width="202" height="18.8"/><rect x="58.79" y="573.28" width="202" height="7"/><rect x="58.79" y="586.28" width="202" height="4"/><rect x="58.79" y="595.27" width="202" height="14"/><rect x="58.79" y="615.28" width="202" height="6"/><rect x="58.79" y="625.28" width="202" height="4"/><rect x="58.79" y="635.28" width="202" height="13"/><rect x="58.79" y="665.28" width="202" height="9"/><rect x="58.79" y="687.48" width="202" height="18.8"/><rect x="58.79" y="716.28" width="202" height="7"/><rect x="58.79" y="729.28" width="202" height="4"/><rect x="58.79" y="738.28" width="202" height="14"/><rect x="58.79" y="758.28" width="202" height="6"/><rect x="58.79" y="768.28" width="202" height="4"/><rect x="58.79" y="778.28" width="202" height="13"/></svg>