<svg id="Layer_1" data-name="Layer 1" xmlns="http://www.w3.org/2000/svg" viewBox="0 0 458.87 885.27"><defs><style>.cls-1{fill:#6fccdd;}.cls-2{fill:#ed2024;}.cls-3{fill:#fff;}</style></defs><title>tag2Artboard 26</title><rect class="cls-1" x="265.29" y="23.41" width="42.86" height="511.41"/><rect class="cls-1" x="113.64" y="384.82" width="335.76" height="478" rx="12.3" ry="12.3"/><rect class="cls-2" x="227.67" y="17.87" width="40.79" height="511.41"/><rect class="cls-2" x="91.89" y="378.68" width="319.59" height="478" rx="12" ry="12"/><rect class="cls-3" x="126.69" y="447.35" width="250" height="355.93" rx="11.41" ry="11.41"/><rect x="150.69" y="488.35" width="202" height="9"/><rect x="150.69" y="510.54" width="202" height="18.8"/><rect x="150.69" y="539.35" width="202" height="7"/><rect x="150.69" y="552.35" width="202" height="4"/><rect x="150.69" y="561.34" width="202" height="14"/><rect x="150.69" y="581.35" width="202" height="6"/><rect x="150.69" y="591.35" width="202" height="4"/><rect x="150.69" y="601.35" width="202" height="13"/><rect x="150.69" y="631.35" width="202" height="9"/><rect x="149.34" y="652.44" width="202" height="18.8"/><rect x="150.69" y="682.35" width="202" height="7"/><rect x="150.69" y="695.35" width="202" height="4"/><rect x="150.69" y="704.34" width="202" height="14"/><rect x="150.69" y="724.35" width="202" height="6"/><rect x="150.69" y="734.35" width="202" height="4"/><rect x="150.69" y="744.35" width="202" height="13"/></svg>