<svg id="Layer_1" data-name="Layer 1" xmlns="http://www.w3.org/2000/svg" viewBox="0 0 343.32 894.67"><defs><style>.cls-1{fill:#f7ec13;}.cls-2{fill:#fff;}.cls-3{fill:#a9509f;}</style></defs><title>tag3Artboard 1</title><rect class="cls-1" x="142.08" y="328" width="35.44" height="562.61"/><rect class="cls-1" y="-0.01" width="319.59" height="478" rx="12" ry="12"/><rect class="cls-2" x="40.8" y="53.4" width="250" height="355.93" rx="11.41" ry="11.41"/><rect x="64.8" y="359.33" width="202" height="9"/><rect x="64.8" y="327.33" width="202" height="18.8"/><rect x="64.8" y="310.33" width="202" height="7"/><rect x="64.8" y="300.33" width="202" height="4"/><rect x="64.8" y="281.33" width="202" height="14"/><rect x="64.8" y="269.33" width="202" height="6"/><rect x="64.8" y="261.33" width="202" height="4"/><rect x="64.8" y="242.33" width="202" height="13"/><rect x="64.8" y="216.33" width="202" height="9"/><rect x="64.8" y="184.33" width="202" height="18.8"/><rect x="64.8" y="167.33" width="202" height="7"/><rect x="64.8" y="157.33" width="202" height="4"/><rect x="64.8" y="138.33" width="202" height="14"/><rect x="64.8" y="126.33" width="202" height="6"/><rect x="64.8" y="118.33" width="202" height="4"/><rect x="64.8" y="99.33" width="202" height="13"/><rect class="cls-3" x="165.81" y="325.69" width="35.44" height="562.61"/><rect class="cls-3" x="23.73" y="-2.31" width="319.59" height="478" rx="12" ry="12"/><rect class="cls-2" x="58.53" y="51.09" width="250" height="355.93" rx="11.41" ry="11.41"/><rect x="82.53" y="357.02" width="202" height="9"/><rect x="82.53" y="325.02" width="202" height="18.8"/><rect x="82.53" y="308.02" width="202" height="7"/><rect x="82.53" y="298.02" width="202" height="4"/><rect x="82.53" y="279.03" width="202" height="14"/><rect x="82.53" y="267.02" width="202" height="6"/><rect x="82.53" y="259.02" width="202" height="4"/><rect x="82.53" y="240.02" width="202" height="13"/><rect x="82.53" y="214.02" width="202" height="9"/><rect x="82.53" y="182.02" width="202" height="18.8"/><rect x="82.53" y="165.02" width="202" height="7"/><rect x="82.53" y="155.02" width="202" height="4"/><rect x="82.53" y="136.02" width="202" height="14"/><rect x="82.53" y="124.02" width="202" height="6"/><rect x="82.53" y="116.02" width="202" height="4"/><rect x="82.53" y="97.02" width="202" height="13"/></svg>