<svg id="Layer_1" data-name="Layer 1" xmlns="http://www.w3.org/2000/svg" viewBox="0 0 1305.13 1074.56"><defs><style>.cls-1{font-size:78.06px;fill:#231f20;font-family:COCOGOOSE, COCOGOOSE;}.cls-2{letter-spacing:-0.04em;}.cls-3{letter-spacing:0em;}.cls-4{letter-spacing:-0.02em;}.cls-13,.cls-5,.cls-6,.cls-9{fill:none;stroke-miterlimit:10;}.cls-5{stroke:#231f20;stroke-width:18px;}.cls-6,.cls-9{stroke:#b1badc;}.cls-6{stroke-width:4px;}.cls-7{fill:#232a49;}.cls-8{fill:#b1badc;}.cls-9{stroke-width:8px;}.cls-10{fill:#5d3713;}.cls-11{fill:#fff;opacity:0.47;}.cls-12{fill:#54b952;}.cls-13{stroke:#fff;stroke-width:5px;}</style></defs><title>polyesterArtboard 12</title><text class="cls-1" transform="translate(535.54 131.91)">pol<tspan class="cls-2" x="141.28" y="0">y</tspan><tspan class="cls-3" x="193.89" y="0">es</tspan><tspan class="cls-4" x="294.35" y="0">t</tspan><tspan x="326.66" y="0">er </tspan><tspan x="138.31" y="93.67">is in</tspan></text><line class="cls-5" x1="587.69" y1="266.67" x2="347.6" y2="397.52"/><polyline class="cls-5" points="351.72 307.24 282.56 439.25 409.27 447.92"/><line class="cls-5" x1="928.12" y1="246.31" x2="987.85" y2="383.08"/><polyline class="cls-5" points="897.63 377.8 1028.75 448.65 1039.04 322.06"/><line class="cls-6" x1="1273.95" y1="1063.83" x2="1286.73" y2="1083.24"/><polygon class="cls-7" points="908.17 586.2 1112.26 520.71 1290.17 875.34 1158.19 909.67 1050.06 662.95 1087.09 928.17 923.81 956.17 908.17 586.2"/><line class="cls-6" x1="936.13" y1="659.74" x2="934.43" y2="682.92"/><line class="cls-6" x1="937.46" y1="717.16" x2="935.76" y2="740.33"/><line class="cls-6" x1="942.36" y1="765.71" x2="940.65" y2="788.88"/><line class="cls-6" x1="940.78" y1="812.92" x2="939.07" y2="836.1"/><line class="cls-6" x1="945.67" y1="861.47" x2="943.97" y2="884.64"/><line class="cls-6" x1="1133.24" y1="610.5" x2="1146.02" y2="629.9"/><line class="cls-6" x1="1160.06" y1="661.28" x2="1172.84" y2="680.69"/><line class="cls-6" x1="1179.44" y1="706.06" x2="1192.22" y2="725.47"/><line class="cls-6" x1="1203.83" y1="746.52" x2="1216.61" y2="765.93"/><line class="cls-6" x1="1223.21" y1="791.3" x2="1235.99" y2="810.71"/><path class="cls-6" d="M909.09,608.1c-3.17,2,56.72,1.85,109-17.87,4.41-1.66,8.75-3.17,12.79-5,45.41-20.08,87.3-47.51,87.3-47.51"/><line class="cls-6" x1="1012.93" y1="554.18" x2="1050.06" y2="662.95"/><circle class="cls-8" cx="1035.69" cy="561.03" r="6.75" transform="translate(-107.88 278.8) rotate(-14.58)"/><path class="cls-9" d="M955.08,605s20.24,28.83,5.09,42.07-49.1,7.58-49.1,7.58"/><path class="cls-9" d="M1090.84,554.41s12.8,29.5,45.29,14.85"/><line class="cls-5" x1="735.47" y1="290.23" x2="683.82" y2="519.62"/><polyline class="cls-5" points="614.22 461.97 677.98 596.68 761.19 500.72"/><path class="cls-10" d="M548.11,837.09S547.47,666,600.41,654.89,777.76,695,795.09,737.64s-151.1,163-151.1,163"/><path class="cls-10" d="M560.37,797.74C509,768.41,398.46,754.2,402.83,805.56s350.87,296,384,184.45S560.37,797.74,560.37,797.74Z"/><path class="cls-11" d="M714,713.95s66.6,16.52,53.9,35.7-70.87,74.41-70.87,74.41"/><path class="cls-12" d="M175.44,577s-1.86,72.09,62,66.19,41.43-87.27,41.43-87.27,64-1.9,96.85,27.14,56.53,84.36,56.53,84.36l-62.43,53.88L328.29,670.5l51.56,186.55-269,38L123.15,702.6,85,764.76,21.31,709.63s24.33-56.75,57.24-93.74S175.44,577,175.44,577Z"/><path class="cls-13" d="M148.64,580.46s-11.94,106.87,93.43,84.16,63.38-107.3,63.38-107.3"/><line class="cls-13" x1="20.17" y1="671.21" x2="110.96" y2="763.99"/><line class="cls-13" x1="350.85" y1="714.81" x2="429.79" y2="636.5"/></svg>