<?xml version="1.0" encoding="utf-8"?>
<!-- Generator: Adobe Illustrator 21.0.2, SVG Export Plug-In . SVG Version: 6.00 Build 0)  -->
<svg version="1.1" id="Layer_1" xmlns="http://www.w3.org/2000/svg" xmlns:xlink="http://www.w3.org/1999/xlink" x="0px" y="0px"
	 viewBox="0 0 792 612" style="enable-background:new 0 0 792 612;" xml:space="preserve">
<style type="text/css">
	.st0{fill:#00B3B5;}
	.st1{fill:#FFFFFF;}
	.st2{fill:#4952A3;}
	.st3{fill:none;stroke:#4952A3;stroke-width:7.8831;stroke-miterlimit:10;}
	.st4{fill:#FFE115;}
	.st5{fill:#EE3624;}
	.st6{fill:none;}
</style>
<ellipse class="st0" cx="424.9" cy="454.9" rx="173.5" ry="153.1"/>
<g>
	<path class="st1" d="M306.5,391c0-0.3,0.1-0.6,0.3-0.8c0.2-0.2,0.5-0.3,0.9-0.3h7.7c0.3,0,0.6,0.1,0.8,0.3c0.2,0.2,0.4,0.5,0.4,0.8
		v28.4h14.3c0.3,0,0.6,0.1,0.8,0.3c0.2,0.2,0.3,0.5,0.3,0.9v6.9c0,0.3-0.1,0.6-0.3,0.8c-0.2,0.2-0.5,0.4-0.8,0.4h-23.3
		c-0.8,0-1.1-0.4-1.1-1.1V391z"/>
	<path class="st1" d="M338.2,391c0-0.3,0.1-0.6,0.3-0.8c0.2-0.2,0.5-0.3,0.9-0.3h7.7c0.3,0,0.5,0.1,0.8,0.3c0.3,0.2,0.4,0.5,0.4,0.8
		v36.4c0,0.8-0.4,1.1-1.3,1.1h-7.7c-0.8,0-1.1-0.4-1.1-1.1V391z"/>
	<path class="st1" d="M358.9,391c0-0.3,0.2-0.6,0.4-0.8c0.2-0.2,0.5-0.3,0.9-0.3h9c0.6,0,1.1,0.3,1.3,1l7.1,23.7l7.1-23.7
		c0.2-0.7,0.7-1,1.3-1h8.9c0.3,0,0.6,0.1,0.8,0.3c0.3,0.2,0.4,0.5,0.4,0.8c0.6,6.1,1.2,12.2,1.9,18.2s1.3,12.1,1.9,18.2v0.1
		c0,0.7-0.4,1-1.1,1h-7.4c-0.8,0-1.2-0.4-1.3-1.1l-2.3-20.1l-5.9,20.3c0,0.2-0.2,0.4-0.4,0.6c-0.2,0.2-0.4,0.4-0.6,0.4h-6.9
		c-0.2,0-0.4-0.1-0.7-0.4c-0.2-0.2-0.4-0.4-0.4-0.6l-5.9-20.2l-2.3,20.1c0,0.8-0.5,1.1-1.3,1.1h-7.4c-0.7,0-1.1-0.4-1.1-1.1
		L358.9,391z"/>
	<path class="st1" d="M406.9,391c0-0.3,0.1-0.6,0.3-0.8c0.2-0.2,0.5-0.3,0.9-0.3h7.7c0.3,0,0.5,0.1,0.8,0.3c0.3,0.2,0.4,0.5,0.4,0.8
		v36.4c0,0.8-0.4,1.1-1.3,1.1H408c-0.8,0-1.1-0.4-1.1-1.1V391z"/>
	<path class="st1" d="M423.3,391c0-0.3,0.1-0.6,0.4-0.8c0.2-0.2,0.5-0.3,0.9-0.3h28c0.3,0,0.6,0.1,0.8,0.3c0.2,0.2,0.4,0.5,0.4,0.9
		v6.5c0,0.3-0.1,0.6-0.3,0.9c-0.2,0.3-0.5,0.4-0.9,0.4h-9v28.5c0,0.3-0.1,0.6-0.3,0.8c-0.2,0.3-0.5,0.4-0.9,0.4h-7.6
		c-0.3,0-0.6-0.1-0.8-0.4c-0.3-0.2-0.4-0.5-0.4-0.9v-28.5h-9c-0.3,0-0.6-0.1-0.9-0.3c-0.2-0.2-0.4-0.6-0.4-1V391z"/>
	<path class="st1" d="M460.1,391c0-0.4,0.1-0.7,0.3-0.9c0.2-0.2,0.5-0.3,0.8-0.3h25.9c0.4,0,0.7,0.1,0.9,0.3
		c0.2,0.2,0.3,0.5,0.3,0.9v6.4c0,0.3-0.1,0.6-0.3,0.8c-0.2,0.3-0.5,0.4-0.9,0.4h-16.9v6.5h13c0.3,0,0.6,0.1,0.8,0.2
		c0.2,0.2,0.3,0.4,0.3,0.8v5.6c0,0.2-0.1,0.5-0.3,0.7c-0.2,0.2-0.5,0.3-0.8,0.3h-13.1v6.7h17.5c0.8,0,1.2,0.4,1.2,1.2v6.5
		c0,0.2-0.1,0.3-0.2,0.5c-0.1,0.5-0.4,0.7-1.1,0.7h-26.4c-0.3,0-0.6-0.1-0.8-0.3s-0.3-0.5-0.3-0.8V391z"/>
	<path class="st1" d="M528.8,409.2c0,1.8-0.2,3.6-0.7,5.3c-0.5,1.7-1.1,3.2-2,4.6c-0.9,1.4-1.9,2.7-3.1,3.9c-1.2,1.2-2.5,2.2-4,3
		c-1.5,0.8-3.1,1.4-4.8,1.9c-1.7,0.4-3.5,0.7-5.3,0.7h-12.9c-0.3,0-0.6-0.1-0.8-0.2c-0.2-0.1-0.4-0.4-0.4-0.9V391
		c0-0.4,0.1-0.7,0.3-0.9c0.2-0.2,0.5-0.3,0.9-0.3h12.9c1.8,0,3.6,0.2,5.3,0.7c1.7,0.5,3.3,1.1,4.7,1.9c1.5,0.8,2.8,1.8,4,3
		c1.2,1.2,2.3,2.5,3.1,3.9s1.5,3,2,4.7C528.6,405.7,528.8,407.4,528.8,409.2z M504.9,399.2v20h2.2c0.4,0,0.8,0,1.2,0
		c0.4,0,0.8-0.1,1.1-0.1c1.3-0.1,2.5-0.4,3.6-1c1.1-0.5,2.1-1.2,3-2.1s1.5-1.9,2-3c0.5-1.2,0.7-2.4,0.7-3.8c0-1.5-0.3-2.8-0.8-4
		c-0.5-1.2-1.3-2.3-2.2-3.2c-0.9-0.9-2-1.6-3.3-2.1c-1.3-0.5-2.6-0.7-4-0.7H504.9z"/>
	<path class="st1" d="M350.1,453.5c0-0.3,0.1-0.6,0.4-0.8c0.2-0.2,0.5-0.3,0.9-0.3h28c0.3,0,0.6,0.1,0.8,0.3
		c0.2,0.2,0.4,0.5,0.4,0.9v6.5c0,0.3-0.1,0.6-0.3,0.9c-0.2,0.3-0.5,0.4-0.9,0.4h-9v28.5c0,0.3-0.1,0.6-0.3,0.8
		c-0.2,0.3-0.5,0.4-0.9,0.4h-7.6c-0.3,0-0.6-0.1-0.8-0.4c-0.3-0.2-0.4-0.5-0.4-0.9v-28.5h-9c-0.3,0-0.6-0.1-0.9-0.3
		c-0.2-0.2-0.4-0.6-0.4-1V453.5z"/>
	<path class="st1" d="M387,453.6c0-0.3,0.1-0.6,0.3-0.8c0.2-0.2,0.5-0.3,0.9-0.3h7.7c0.3,0,0.5,0.1,0.8,0.3c0.3,0.2,0.4,0.5,0.4,0.8
		V490c0,0.8-0.4,1.1-1.3,1.1h-7.7c-0.8,0-1.1-0.4-1.1-1.1V453.6z"/>
	<path class="st1" d="M407.7,453.6c0-0.3,0.2-0.6,0.4-0.8c0.2-0.2,0.5-0.3,0.9-0.3h9c0.6,0,1.1,0.3,1.3,1l7.1,23.7l7.1-23.7
		c0.2-0.7,0.7-1,1.3-1h8.9c0.3,0,0.6,0.1,0.8,0.3c0.3,0.2,0.4,0.5,0.4,0.8c0.6,6.1,1.2,12.2,1.9,18.2s1.3,12.1,1.9,18.2v0.1
		c0,0.7-0.4,1-1.1,1h-7.4c-0.8,0-1.2-0.4-1.3-1.1l-2.3-20.1l-5.9,20.3c0,0.2-0.2,0.4-0.4,0.6c-0.2,0.2-0.4,0.4-0.6,0.4h-6.9
		c-0.2,0-0.4-0.1-0.7-0.4c-0.2-0.2-0.4-0.4-0.4-0.6l-5.9-20.2l-2.3,20.1c0,0.8-0.5,1.1-1.3,1.1h-7.4c-0.7,0-1.1-0.4-1.1-1.1
		L407.7,453.6z"/>
	<path class="st1" d="M455.6,453.6c0-0.4,0.1-0.7,0.3-0.9c0.2-0.2,0.5-0.3,0.8-0.3h25.9c0.4,0,0.7,0.1,0.9,0.3
		c0.2,0.2,0.3,0.5,0.3,0.9v6.4c0,0.3-0.1,0.6-0.3,0.8c-0.2,0.3-0.5,0.4-0.9,0.4h-16.9v6.5h13c0.3,0,0.6,0.1,0.8,0.2
		c0.2,0.2,0.3,0.4,0.3,0.8v5.6c0,0.2-0.1,0.5-0.3,0.7c-0.2,0.2-0.5,0.3-0.8,0.3h-13.1v6.7h17.5c0.8,0,1.2,0.4,1.2,1.2v6.5
		c0,0.2-0.1,0.3-0.2,0.5c-0.1,0.5-0.4,0.7-1.1,0.7h-26.4c-0.3,0-0.6-0.1-0.8-0.3s-0.3-0.5-0.3-0.8V453.6z"/>
	<path class="st1" d="M356.4,541.2c0.3,0.2,0.7,0.6,1.1,1c0.5,0.4,1,0.8,1.6,1.2c0.9,0.6,1.8,1.1,2.6,1.4c0.9,0.3,1.8,0.5,2.7,0.5
		c0.9,0,1.6-0.1,2.2-0.3c0.6-0.2,1.1-0.5,1.4-0.8c0.3-0.3,0.6-0.7,0.7-1.1c0.1-0.4,0.2-0.9,0.2-1.4c0-0.5-0.2-1-0.6-1.4
		c-0.4-0.4-0.9-0.8-1.5-1.1c-0.6-0.3-1.2-0.6-1.9-0.8c-0.6-0.2-1.2-0.4-1.7-0.6c-2.1-0.7-3.9-1.5-5.5-2.4c-1.6-0.8-2.9-1.8-3.9-2.8
		c-1-1-1.8-2.2-2.3-3.4s-0.8-2.6-0.8-4.2c0-1.6,0.3-3.1,1-4.4c0.7-1.3,1.6-2.4,2.8-3.4s2.7-1.7,4.4-2.2s3.6-0.8,5.7-0.8
		c1.6,0,3.1,0.2,4.5,0.5c1.5,0.4,2.9,0.9,4.3,1.7c0.6,0.3,1.2,0.7,1.7,1.1c0.5,0.4,1,0.7,1.4,1.1s0.7,0.7,1,1
		c0.2,0.3,0.4,0.6,0.4,0.8s-0.1,0.4-0.2,0.6c-0.1,0.2-0.3,0.4-0.5,0.7l-4,4.2c-0.3,0.3-0.6,0.4-0.9,0.4c-0.2,0-0.5-0.1-0.7-0.2
		c-0.2-0.1-0.4-0.3-0.7-0.5l-0.2-0.2c-0.3-0.3-0.7-0.6-1.2-0.9s-0.9-0.6-1.4-0.8c-0.5-0.3-1-0.5-1.5-0.6c-0.5-0.2-1.1-0.2-1.6-0.2
		c-0.6,0-1.1,0-1.6,0.1c-0.5,0.1-0.9,0.2-1.3,0.5c-0.4,0.2-0.7,0.5-0.9,0.8c-0.2,0.3-0.3,0.8-0.3,1.2s0.1,0.9,0.4,1.3s0.6,0.7,1.1,1
		s1.1,0.6,1.8,0.9c0.7,0.3,1.6,0.6,2.5,0.9c1.8,0.6,3.5,1.2,5.1,1.9c1.6,0.7,2.9,1.5,4,2.4c1.1,0.9,2,2,2.6,3.3c0.6,1.3,1,2.8,1,4.6
		c0,1.9-0.4,3.6-1.2,5.2c-0.8,1.6-1.9,2.9-3.2,4s-3,1.9-4.8,2.5c-1.8,0.6-3.8,0.9-5.9,0.9c-2,0-4-0.4-5.9-1.1
		c-1.9-0.7-3.7-1.7-5.4-2.9c-0.7-0.5-1.3-1-1.8-1.5c-0.5-0.5-0.9-0.9-1.1-1.2l-0.1-0.1c0,0,0-0.1-0.1-0.1s0,0-0.1,0
		c0,0,0-0.1-0.1-0.1s0,0-0.1,0c-0.4-0.4-0.6-0.8-0.6-1c0-0.3,0.2-0.6,0.6-1l4.5-4.3c0.4-0.3,0.7-0.4,0.9-0.4c0.2,0,0.3,0.1,0.5,0.2
		C355.9,540.8,356.1,541,356.4,541.2z"/>
	<path class="st1" d="M396.8,516c0-0.1,0.1-0.2,0.2-0.3c0.1-0.1,0.2-0.2,0.4-0.3c0.1-0.1,0.3-0.2,0.4-0.2c0.2-0.1,0.3-0.1,0.4-0.1
		h6.7c0.3,0,0.5,0.1,0.8,0.3c0.2,0.2,0.4,0.3,0.5,0.5l0.7,1.5l13.7,35.3c0.1,0.3,0.1,0.6-0.1,0.8c-0.2,0.2-0.5,0.3-1,0.3h-7.5
		c-0.4,0-0.7-0.1-0.9-0.2c-0.2-0.1-0.4-0.4-0.5-0.7c-0.3-0.9-0.7-1.8-1-2.6c-0.3-0.9-0.7-1.8-1-2.6h-13.8c-0.3,0.9-0.7,1.8-1,2.6
		c-0.3,0.9-0.7,1.8-1,2.6c-0.2,0.6-0.7,1-1.3,1h-7.7c-0.3,0-0.6-0.1-0.8-0.3c-0.2-0.2-0.3-0.4-0.1-0.8L396.8,516z M401.5,527.1
		c-0.3,0.9-0.7,1.8-1,2.9s-0.7,2.1-1,3.1s-0.7,2.1-1,3.1s-0.7,2-1,2.9h8L401.5,527.1z"/>
	<path class="st1" d="M424.7,516.1c0-0.3,0.1-0.6,0.3-0.8c0.2-0.2,0.5-0.3,0.9-0.3h7.7c0.3,0,0.6,0.1,0.8,0.3
		c0.2,0.2,0.4,0.5,0.4,0.8v28.4h14.3c0.3,0,0.6,0.1,0.8,0.3c0.2,0.2,0.3,0.5,0.3,0.9v6.9c0,0.3-0.1,0.6-0.3,0.8s-0.5,0.4-0.8,0.4
		h-23.3c-0.8,0-1.1-0.4-1.1-1.1V516.1z"/>
	<path class="st1" d="M456.3,516.2c0-0.4,0.1-0.7,0.3-0.9c0.2-0.2,0.5-0.3,0.8-0.3h25.9c0.4,0,0.7,0.1,0.9,0.3
		c0.2,0.2,0.3,0.5,0.3,0.9v6.4c0,0.3-0.1,0.6-0.3,0.8c-0.2,0.3-0.5,0.4-0.9,0.4h-16.9v6.5h13c0.3,0,0.6,0.1,0.8,0.2
		c0.2,0.2,0.3,0.4,0.3,0.8v5.6c0,0.2-0.1,0.5-0.3,0.7c-0.2,0.2-0.5,0.3-0.8,0.3h-13.1v6.7h17.5c0.8,0,1.2,0.4,1.2,1.2v6.5
		c0,0.2-0.1,0.3-0.2,0.5c-0.1,0.5-0.4,0.7-1.1,0.7h-26.4c-0.3,0-0.6-0.1-0.8-0.3s-0.3-0.5-0.3-0.8V516.2z"/>
</g>
<polygon class="st2" points="576.9,232.8 417.3,397 601.4,580.8 761.9,331 706.7,223.8 "/>
<g>
	<path class="st1" d="M713.6,369L598.3,503.7c-4,4.7-10.9,5.2-15.4,1l-88.7-81.9c-4.5-4.1-4.8-11.3-0.8-16l115.3-134.7
		c4-4.7,10.9-5.2,15.4-1l88.7,81.9C717.2,357.1,717.6,364.3,713.6,369z"/>
	<polygon points="620.5,456.1 606.5,472.7 527.5,400.9 541.5,384.3 	"/>
	<polygon points="637.2,436.2 629.7,445.2 550.7,373.4 558.2,364.4 	"/>
	<polygon points="648,423.4 643.7,428.6 564.7,356.8 569,351.7 	"/>
	<polygon points="658.8,410.6 654.5,415.8 575.5,344 579.8,338.9 	"/>
	<polygon points="669.6,397.8 665.2,403 586.3,331.2 590.6,326.1 	"/>
	<polygon points="690,373.5 676,390.2 597,318.4 611.1,301.8 	"/>
</g>
<path class="st3" d="M500.9,173.5c0,0,140-133.9,206.8-101.1s-5.2,160.7-5.2,160.7"/>
<circle class="st4" cx="224" cy="274.5" r="192.2"/>
<g>
	<path class="st1" d="M124.9,212.9c-5.2,0-14.4,1.9-19.3,9.7l-10.3-5.4l7.3-46.9H154v17.2h-36.7l-2.3,14.2
		c3.5-3.1,10.3-4.6,16.1-4.6c15.9,0,28.7,10.5,28.7,30.1c0,18.7-14.1,32.4-36.3,32.4c-12.2,0-24.4-7.3-31.2-17.7l15.9-10.2
		c3.5,5.4,9.8,9.1,15.3,9.1c10.2,0,17.5-6.4,17.5-13.6C141.1,217.5,134,212.9,124.9,212.9z"/>
	<path class="st1" d="M206.9,168.6c25.7,0,32.6,20.3,32.6,45.7c0,25.1-7,45.4-32.6,45.4S174,239.4,174,214.3
		C174,188.9,181.3,168.6,206.9,168.6z M206.9,241.4c10.6,0,13.8-12.4,13.8-27.1c0-14.9-3.2-27.4-13.8-27.4
		c-10.7,0-14.1,12.5-14.1,27.4C192.8,229,196.2,241.4,206.9,241.4z"/>
	<path class="st1" d="M270.1,169.4c9.9,0,18,8.1,18,18c0,10.1-8.1,17.9-18,17.9c-10.1,0-17.9-7.8-17.9-17.9
		C252.2,177.4,260,169.4,270.1,169.4z M270.1,194.4c3.9,0,7.1-3,7.1-7c0-3.9-3.2-7.1-7.1-7.1c-4,0-7,3.2-7,7.1
		C263.1,191.4,266.1,194.4,270.1,194.4z M310.5,170.3l-43.3,88h9.3l43.3-88H310.5z M317.6,223.8c9.9,0,18,8.1,18,18
		c0,10.1-8.1,17.9-18,17.9c-10.1,0-17.9-7.8-17.9-17.9C299.8,231.9,307.6,223.8,317.6,223.8z M317.6,248.8c3.9,0,7.1-3,7.1-7
		c0-3.9-3.2-7.1-7.1-7.1c-4,0-7,3.2-7,7.1C310.7,245.8,313.6,248.8,317.6,248.8z"/>
	<path class="st1" d="M142.8,301.4c26.3,0,47,21.2,47,47.6c0,26.1-20.7,47.4-47,47.4c-26.2,0-46.9-21.4-46.9-47.4
		C95.9,322.6,116.6,301.4,142.8,301.4z M142.8,376.9c15.3,0,27.4-12.5,27.4-27.9s-12.1-28.1-27.4-28.1s-27.3,12.6-27.3,28.1
		S127.5,376.9,142.8,376.9z"/>
	<path class="st1" d="M206.2,302.4h57.9v17.3H226v21.1h30.2v17.2H226V395h-19.7V302.4z"/>
	<path class="st1" d="M278.5,302.4h57.9v17.3h-38.2v21.1h30.2v17.2h-30.2V395h-19.7V302.4z"/>
</g>
<g>
	
		<rect x="256.1" y="108.3" transform="matrix(-1.836970e-16 1 -1 -1.836970e-16 712.6483 -214.43)" class="st5" width="414.9" height="281.6"/>
	<g>
		<path class="st1" d="M385.1,141.7c0,6.1-5.1,11.1-11.4,11.1h-21.5v-36.9h19c6.3,0,11.4,5,11.4,11.1c0,2.2-0.7,4.3-1.8,6
			C383.4,135,385.1,138.1,385.1,141.7z M381.3,126.9c0-5.4-4.6-9.8-10.1-9.8h-17.7v34.4h20.3c5.6,0,10.1-4.4,10.1-9.8
			c0-3.6-2-6.7-4.9-8.4C380.4,131.6,381.3,129.3,381.3,126.9z M376.2,126.9c0,2.7-2.3,4.9-5.1,4.9h-12.7V122h12.7
			C373.9,122,376.2,124.2,376.2,126.9z M358.5,146.6v-9.8h15.2c2.8,0,5.1,2.2,5.1,4.9c0,2.7-2.3,4.9-5.1,4.9H358.5z M373.7,145.4
			c2.1,0,3.8-1.7,3.8-3.7c0-2-1.7-3.7-3.8-3.7h-14v7.4H373.7z M371.2,130.6c2.1,0,3.8-1.7,3.8-3.7s-1.7-3.7-3.8-3.7h-11.4v7.4H371.2
			z"/>
		<path class="st1" d="M404.3,115.9h7.6v29.5h20.3v7.4h-27.8V115.9z M410.7,117.1h-5.1v34.4h25.3v-4.9h-20.3V117.1z"/>
		<path class="st1" d="M475.5,146.6h-19.5l-3.4,6.1h-8.7l21.9-38.9l21.9,38.9H479L475.5,146.6z M479.7,151.5h5.8l-19.8-35.1
			l-19.7,35.1h5.8l3.4-6.1h21.1L479.7,151.5z M457.9,140.5l7.7-13.8l7.8,13.8H457.9z M471.3,139.2l-5.6-10l-5.6,10H471.3z"/>
		<path class="st1" d="M518.8,115.9c6.2,0,11.7,2.9,15.1,7.3l0.8,1l-6,4.5l-0.8-1c-2.1-2.7-5.4-4.4-9.1-4.4c-6.3,0-11.4,5-11.4,11.1
			c0,6.1,5.1,11.1,11.4,11.1c3.7,0,7-1.7,9.1-4.4l0.8-1l6,4.5l-0.8,1c-3.4,4.5-9,7.3-15.1,7.3c-10.5,0-19-8.3-19-18.4
			C499.8,124.1,508.3,115.9,518.8,115.9z M506.1,134.3c0-6.8,5.7-12.3,12.7-12.3c4.2,0,7.8,1.9,10.1,4.9l4-3
			c-3.2-4.1-8.4-6.8-14.1-6.8c-9.8,0-17.7,7.7-17.7,17.2c0,9.5,7.9,17.2,17.7,17.2c5.8,0,10.9-2.7,14.1-6.8l-4-3
			c-2.3,3-6,4.9-10.1,4.9C511.8,146.6,506.1,141.1,506.1,134.3z"/>
		<path class="st1" d="M551.9,115.9h7.6v14l13.2-14H583l-14,14.8l14.2,22.1h-9l-10.6-16.5l-4.3,4.5v12h-7.6V115.9z M581,151.5
			l-13.5-21l12.7-13.4h-6.9l-15,15.9v-15.9h-5.1v34.4h5.1v-11.3l5.7-6l11.1,17.3H581z"/>
		<path class="st1" d="M341.7,215.3h27.8v7.4h-20.3v11.1h15.2v7.4h-15.2v11.1h-7.6V215.3z M368.3,221.5v-4.9H343V251h5.1v-11.1h15.2
			V235h-15.2v-13.5H368.3z"/>
		<path class="st1" d="M418.1,252.2H409l-6.6-9.8h-6v9.8h-7.6v-36.9h13.9c7.7,0,13.9,6,13.9,13.5c0,4.9-2.6,9.1-6.6,11.5
			L418.1,252.2z M408.3,239.9c4.3-2,7.1-6.2,7.1-11.1c0-6.8-5.7-12.3-12.7-12.3h-12.7V251h5.1v-9.8h7.6c0.1,0,0.2,0,0.3,0l6.6,9.8
			h6.1L408.3,239.9z M395.2,221.5h7.6c4.2,0,7.6,3.3,7.6,7.4s-3.4,7.4-7.6,7.4h-7.6V221.5z M402.8,235c3.5,0,6.3-2.8,6.3-6.1
			c0-3.4-2.8-6.1-6.3-6.1h-6.3V235H402.8z"/>
		<path class="st1" d="M445.2,252.2h-7.6v-36.9h7.6V252.2z M443.9,216.6h-5.1V251h5.1V216.6z"/>
		<path class="st1" d="M467.5,252.2v-36.9h13.9c10.5,0,19,8.3,19,18.4c0,10.2-8.5,18.4-19,18.4H467.5z M481.4,251
			c9.8,0,17.7-7.7,17.7-17.2c0-9.5-7.9-17.2-17.7-17.2h-12.7V251H481.4z M473.8,246.1v-24.6h7.6c7,0,12.7,5.5,12.7,12.3
			c0,6.8-5.7,12.3-12.7,12.3H473.8z M481.4,244.8c6.3,0,11.4-5,11.4-11.1c0-6.1-5.1-11.1-11.4-11.1h-6.3v22.1H481.4z"/>
		<path class="st1" d="M540.6,246.1h-19.5l-3.4,6.1H509l21.9-38.9l21.9,38.9h-8.7L540.6,246.1z M544.9,251h5.8l-19.8-35.1L511.1,251
			h5.8l3.4-6.1h21.1L544.9,251z M523.1,239.9l7.7-13.8l7.8,13.8H523.1z M536.5,238.7l-5.6-10l-5.6,10H536.5z"/>
		<path class="st1" d="M559.9,215.3h9l10.1,15.6l10.1-15.6h9L582.7,239v13.2h-7.6V239L559.9,215.3z M589.7,216.6l-10.8,16.7
			l-10.8-16.7h-6l14.2,22.1V251h5.1v-12.3l14.3-22.1H589.7z"/>
		<path class="st1" d="M383.7,340.6c0,6.1-5.1,11.1-11.4,11.1c-5.4,0-9.9-3.6-11.1-8.6l7.3-2.5c0,2,1.7,3.7,3.8,3.7s3.8-1.7,3.8-3.7
			s-1.7-3.7-3.8-3.7c-6.3,0-11.4-5-11.4-11.1c0-6.1,5.1-11.1,11.4-11.1c5.4,0,9.9,3.6,11.1,8.6l-7.3,2.5c0-2-1.7-3.7-3.8-3.7
			s-3.8,1.7-3.8,3.7s1.7,3.7,3.8,3.7C378.6,329.6,383.7,334.5,383.7,340.6z M377,324.2l4.8-1.7c-1.4-3.8-5.2-6.5-9.6-6.5
			c-5.6,0-10.1,4.4-10.1,9.8c0,5.5,4.5,9.8,10.1,9.8c2.8,0,5.1,2.2,5.1,4.9s-2.3,4.9-5.1,4.9c-2.2,0-4.1-1.4-4.8-3.3l-4.8,1.7
			c1.4,3.8,5.2,6.5,9.6,6.5c5.6,0,10.1-4.4,10.1-9.8c0-5.4-4.6-9.8-10.1-9.8c-2.8,0-5.1-2.2-5.1-4.9s2.3-4.9,5.1-4.9
			C374.5,321,376.4,322.3,377,324.2z"/>
		<path class="st1" d="M426.5,345.5h-19.5l-3.4,6.1h-8.7l21.9-38.9l21.9,38.9h-8.7L426.5,345.5z M430.7,350.4h5.8l-19.8-35.1
			l-19.7,35.1h5.8l3.4-6.1h21.1L430.7,350.4z M408.9,339.4l7.7-13.8l7.8,13.8H408.9z M422.3,338.2l-5.6-10l-5.6,10H422.3z"/>
		<path class="st1" d="M455.3,314.8h7.6v29.5h20.3v7.4h-27.8V314.8z M461.6,316h-5.1v34.4h25.3v-4.9h-20.3V316z"/>
		<path class="st1" d="M501.9,314.8h27.8v7.4h-20.3v11.1h15.2v7.4h-15.2v3.7h20.3v7.4h-27.8V314.8z M528.5,321V316h-25.3v34.4h25.3
			v-4.9h-20.3v-6.1h15.2v-4.9h-15.2V321H528.5z"/>
		<path class="st1" d="M571.8,340.6c0,6.1-5.1,11.1-11.4,11.1c-5.4,0-9.9-3.6-11.1-8.6l7.3-2.5c0,2,1.7,3.7,3.8,3.7
			c2.1,0,3.8-1.7,3.8-3.7s-1.7-3.7-3.8-3.7c-6.3,0-11.4-5-11.4-11.1c0-6.1,5.1-11.1,11.4-11.1c5.4,0,9.9,3.6,11.1,8.6l-7.3,2.5
			c0-2-1.7-3.7-3.8-3.7c-2.1,0-3.8,1.7-3.8,3.7s1.7,3.7,3.8,3.7C566.6,329.6,571.8,334.5,571.8,340.6z M565.1,324.2l4.8-1.7
			c-1.4-3.8-5.2-6.5-9.6-6.5c-5.6,0-10.1,4.4-10.1,9.8c0,5.5,4.5,9.8,10.1,9.8c2.8,0,5.1,2.2,5.1,4.9s-2.3,4.9-5.1,4.9
			c-2.2,0-4.1-1.4-4.8-3.3l-4.8,1.7c1.4,3.8,5.2,6.5,9.6,6.5c5.6,0,10.1-4.4,10.1-9.8c0-5.4-4.6-9.8-10.1-9.8
			c-2.8,0-5.1-2.2-5.1-4.9s2.3-4.9,5.1-4.9C562.5,321,564.5,322.3,565.1,324.2z"/>
	</g>
	<rect x="569.9" y="320.6" class="st6" width="9.4" height="4.1"/>
	<rect x="352.5" y="166.4" class="st4" width="232" height="15.2"/>
	<rect x="342.1" y="268.9" class="st4" width="242.4" height="11.2"/>
	<rect x="364" y="366.3" class="st4" width="205.8" height="18.3"/>
</g>
</svg>
