<svg id="Layer_1" data-name="Layer 1" xmlns="http://www.w3.org/2000/svg" viewBox="0 0 466.28 722"><defs><style>.cls-1{fill:#4cc7e6;}.cls-2{fill:#91d7ed;}.cls-3{fill:#c8e9f0;}.cls-4,.cls-5,.cls-6,.cls-8{fill:#f1f2f2;}.cls-4{opacity:0.38;}.cls-5{opacity:0.43;}.cls-7{fill:#00b3c6;}.cls-8{opacity:0.28;}</style></defs><title>waterArtboard 9</title><path class="cls-1" d="M230.88,16.65S13.94,281.13,1.59,484.19C-5.32,597.89,90.47,704.89,230.88,705c132.1.11,236.36-97,230.64-209.2C451.15,292.51,230.88,16.65,230.88,16.65Z"/><path class="cls-2" d="M231.49,25.65S30.44,264.92,19,448.63C12.6,551.49,101.37,648.29,231.49,648.39c122.42.1,219-87.71,213.74-189.26C435.63,275.22,231.49,25.65,231.49,25.65Z"/><path class="cls-3" d="M194.64,121.65c30,1.58-79.5,163.49-64.5,237s15,103.49-15.77,111-78.73-31.5-45.73-120S166.14,120.15,194.64,121.65Z"/><circle class="cls-3" cx="128.7" cy="527.75" r="23.62"/><path class="cls-4" d="M238.11,199.9s84.62,209,3.1,239.36c-25.45,9.48-81,4.4-65.25-76S238.11,199.9,238.11,199.9Z"/><path class="cls-3" d="M287.63,154.64S412.9,376.93,403.13,477.13c-8.53,87.48-60,111-127.49,132S404.63,369.13,287.63,154.64Z"/><circle class="cls-3" cx="144.48" cy="572.39" r="7.78"/><path class="cls-5" d="M377.41,347.66s1.77,87.9-22,123.51-56.94,62-38.16,78.92S433.48,489.1,377.41,347.66Z"/><path class="cls-5" d="M105.07,450c32.67,7.09-9.47-76.38,9.3-125.88s15.94-50.9,0-49.5-39.73,81-33.73,118.49S76,443.72,105.07,450Z"/><circle class="cls-6" cx="130.79" cy="535.85" r="9.07"/><circle class="cls-6" cx="145.25" cy="571.92" r="4.53"/><path class="cls-7" d="M9.48,551.37s96.08,141.3,240,138.45,212.21-163,212.21-163S433.81,691.38,245.67,704.6,9.48,551.37,9.48,551.37Z"/><path class="cls-3" d="M231.49,40,128.7,166.47S184.1,100,199.87,100s-1.55,82.17-1.55,82.17Z"/><path class="cls-5" d="M173.21,154.64c16.45,9.43-10.1,83.13-32.49,80.35S157,145.38,173.21,154.64Z"/><path class="cls-8" d="M230.88,16.65S94.1,319,199.87,490s131.81,206.8,76.79,211.07S47.14,705.75,3.78,526.78C-34.52,368.74,230.88,16.65,230.88,16.65Z"/></svg>